M48
;DRILL file {Pcbnew (2013-03-15 BZR 4003)-stable} date 17/04/2013 22:04:34
;FORMAT={-:-/ absolute / inch / decimal}
FMAT,2
INCH,TZ
T1C0.025
T2C0.032
T3C0.039
T4C0.040
T5C0.091
T6C0.120
%
G90
G05
M72
T1
X5.7244Y-5.0709
X5.8819Y-4.7402
X5.9134Y-4.5118
X5.9134Y-4.5591
X5.9134Y-4.6614
X5.9154Y-4.6063
X5.9331Y-5.0472
X6.0079Y-4.3307
X6.0315Y-5.0866
X6.0551Y-4.1024
X6.0551Y-4.189
X6.1181Y-5.0551
X6.1732Y-5.0551
X6.2283Y-5.0551
X6.2992Y-4.2935
X6.3701Y-5.2598
X6.7953Y-4.1969
X6.8189Y-5.3543
X6.8533Y-4.6585
X6.8533Y-4.8947
X7.0551Y-5.2677
X7.1585Y-4.2057
X7.1585Y-4.3041
X7.2077Y-4.4026
X7.2077Y-4.4813
X7.2077Y-4.56
X7.2077Y-4.6388
X7.2077Y-4.7175
X7.2077Y-4.7963
X7.2077Y-4.875
X7.2077Y-5.0325
X7.2077Y-5.1112
X7.2077Y-5.19
X7.2077Y-5.2687
X7.2077Y-5.3474
X7.2175Y-4.9537
X7.375Y-4.1565
T2
X5.5965Y-4.0819
X5.5965Y-4.1819
X5.6752Y-4.0819
X5.6752Y-4.1819
X6.2333Y-4.4297
X6.2333Y-4.5297
X6.2333Y-4.6297
X6.2333Y-4.7297
X6.2333Y-4.8297
X6.9321Y-4.2352
X7.1561Y-3.9203
X7.1561Y-4.0679
X7.4561Y-3.9203
X7.4561Y-4.0679
T3
X5.5935Y-4.9515
X5.5935Y-5.0515
X5.5935Y-5.1315
X5.5935Y-5.2315
T4
X5.3465Y-4.4827
X5.3465Y-4.5827
X5.3465Y-4.6827
X7.6104Y-4.2588
X7.6104Y-4.3688
X7.6104Y-4.4738
X7.6104Y-4.5838
X7.6104Y-4.6938
X7.6104Y-4.8038
X7.6104Y-4.9088
X7.6104Y-5.0188
X7.7104Y-4.3208
X7.7104Y-4.4208
X7.7104Y-4.5308
X7.7104Y-4.6388
X7.7104Y-4.7468
X7.7104Y-4.8568
X7.7104Y-4.9648
T5
X5.4885Y-4.8115
X5.4885Y-5.3515
X5.4902Y-3.8957
X5.4902Y-4.3681
T6
X7.6604Y-3.9794
X7.6604Y-5.2982
T0
M30
