G04 (created by PCBNEW (2013-03-15 BZR 4003)-stable) date 17/04/2013 22:03:57*
%MOIN*%
G04 Gerber Fmt 3.4, Leading zero omitted, Abs format*
%FSLAX34Y34*%
G01*
G70*
G90*
G04 APERTURE LIST*
%ADD10C,0.006*%
%ADD11C,0.06*%
%ADD12C,0.1063*%
%ADD13C,0.0591*%
%ADD14C,0.1181*%
%ADD15R,0.055X0.055*%
%ADD16C,0.055*%
%ADD17C,0.15*%
%ADD18R,0.06X0.06*%
%ADD19C,0.035*%
%ADD20C,0.019685*%
%ADD21C,0.00787402*%
%ADD22C,0.0393701*%
%ADD23C,0.01*%
G04 APERTURE END LIST*
G54D10*
G54D11*
X56751Y-41818D03*
X56751Y-40818D03*
X55964Y-40818D03*
X55964Y-41818D03*
G54D12*
X54901Y-43680D03*
X54901Y-38956D03*
G54D13*
X55935Y-52315D03*
X55935Y-51315D03*
X55935Y-50515D03*
X55935Y-49515D03*
G54D14*
X54885Y-53515D03*
X54885Y-48115D03*
G54D15*
X69320Y-42352D03*
G54D16*
X74561Y-40679D03*
X71561Y-40679D03*
X71561Y-39202D03*
X74561Y-39202D03*
G54D15*
X62332Y-48297D03*
G54D16*
X62332Y-47297D03*
X62332Y-46297D03*
X62332Y-45297D03*
X62332Y-44297D03*
G54D17*
X76604Y-52981D03*
X76604Y-39793D03*
G54D11*
X76104Y-42587D03*
X76104Y-43687D03*
X76104Y-44737D03*
X76104Y-45837D03*
X76104Y-46937D03*
X76104Y-48037D03*
X76104Y-49087D03*
G54D18*
X76104Y-50187D03*
G54D11*
X77104Y-43207D03*
X77104Y-44207D03*
X77104Y-45307D03*
X77104Y-46387D03*
X77104Y-47467D03*
X77104Y-48567D03*
X77104Y-49647D03*
G54D18*
X53464Y-46826D03*
G54D11*
X53464Y-45826D03*
X53464Y-44826D03*
G54D19*
X60078Y-43307D03*
X57244Y-50708D03*
X63700Y-52598D03*
X58818Y-47401D03*
X62992Y-42935D03*
X67952Y-41968D03*
X70551Y-52677D03*
X68188Y-53543D03*
X71584Y-42057D03*
X71584Y-43041D03*
X68533Y-48946D03*
X68533Y-46584D03*
X72076Y-44025D03*
X72175Y-49537D03*
X72076Y-44812D03*
X72076Y-45600D03*
X72076Y-46387D03*
X72076Y-47175D03*
X72076Y-47962D03*
X72076Y-48750D03*
X72076Y-50324D03*
X72076Y-51112D03*
X72076Y-51899D03*
X72076Y-52687D03*
X72076Y-53474D03*
X60551Y-41889D03*
X60551Y-41023D03*
X62283Y-50551D03*
X59153Y-46062D03*
X61732Y-50551D03*
X59133Y-46614D03*
X61181Y-50551D03*
X59133Y-45590D03*
X59330Y-50472D03*
X60314Y-50866D03*
X59133Y-45118D03*
X73750Y-41564D03*
G54D20*
X56259Y-42165D02*
X56259Y-42401D01*
X56259Y-42401D02*
X56220Y-42440D01*
X55964Y-41818D02*
X55964Y-41870D01*
X55964Y-41870D02*
X56259Y-42165D01*
X56259Y-42165D02*
X56299Y-42204D01*
G54D21*
X62992Y-42935D02*
X62992Y-42913D01*
G54D20*
X55964Y-40818D02*
X55964Y-41003D01*
X56476Y-50774D02*
X55935Y-51315D01*
X56476Y-49586D02*
X56476Y-50774D01*
X57165Y-48897D02*
X56476Y-49586D01*
X57165Y-42204D02*
X57165Y-48897D01*
X57263Y-42106D02*
X57165Y-42204D01*
X57263Y-41515D02*
X57263Y-42106D01*
X57066Y-41318D02*
X57263Y-41515D01*
X56279Y-41318D02*
X57066Y-41318D01*
X55964Y-41003D02*
X56279Y-41318D01*
G54D21*
X62332Y-45297D02*
X62147Y-45297D01*
X60551Y-43700D02*
X60551Y-41889D01*
X62147Y-45297D02*
X60551Y-43700D01*
X60866Y-41732D02*
X60629Y-41496D01*
X60551Y-41417D02*
X60551Y-41023D01*
X60629Y-41496D02*
X60551Y-41417D01*
X60944Y-43779D02*
X60787Y-43622D01*
X60787Y-42125D02*
X60866Y-42047D01*
X60787Y-43622D02*
X60787Y-42125D01*
X60866Y-41732D02*
X60866Y-42047D01*
X61462Y-44297D02*
X62332Y-44297D01*
X60944Y-43779D02*
X61462Y-44297D01*
X59448Y-46299D02*
X59448Y-46614D01*
X61968Y-50236D02*
X62283Y-50551D01*
X61968Y-49133D02*
X61968Y-50236D01*
X59448Y-46614D02*
X61968Y-49133D01*
X59153Y-46062D02*
X59448Y-46299D01*
X61732Y-49212D02*
X61732Y-50551D01*
X59133Y-46614D02*
X61732Y-49212D01*
X58740Y-45905D02*
X58740Y-45826D01*
X61181Y-50314D02*
X61496Y-50000D01*
X61496Y-50000D02*
X61496Y-49291D01*
X61496Y-49291D02*
X59212Y-47007D01*
X59212Y-47007D02*
X59055Y-47007D01*
X59055Y-47007D02*
X58740Y-46692D01*
X58740Y-46692D02*
X58740Y-45905D01*
X61181Y-50551D02*
X61181Y-50314D01*
X58976Y-45590D02*
X59133Y-45590D01*
X58740Y-45826D02*
X58976Y-45590D01*
X59921Y-50472D02*
X59330Y-50472D01*
X60314Y-50866D02*
X59921Y-50472D01*
X59685Y-46062D02*
X59685Y-45275D01*
X59527Y-45118D02*
X59133Y-45118D01*
X59685Y-45275D02*
X59527Y-45118D01*
X61446Y-48297D02*
X62332Y-48297D01*
X59685Y-46535D02*
X61446Y-48297D01*
X59685Y-46062D02*
X59685Y-46535D01*
X74561Y-40753D02*
X74561Y-40679D01*
X73750Y-41564D02*
X74561Y-40753D01*
X71561Y-39202D02*
X72470Y-39202D01*
X72470Y-39202D02*
X73946Y-40679D01*
X73946Y-40679D02*
X74561Y-40679D01*
G54D22*
X55935Y-49515D02*
X55935Y-49498D01*
X56751Y-48681D02*
X56751Y-41818D01*
X55935Y-49498D02*
X56751Y-48681D01*
G54D20*
X54015Y-38661D02*
X54606Y-38661D01*
X54606Y-38661D02*
X54901Y-38956D01*
G54D10*
G36*
X77981Y-50603D02*
X77654Y-50821D01*
X77654Y-49538D01*
X77570Y-49336D01*
X77416Y-49181D01*
X77237Y-49107D01*
X77415Y-49034D01*
X77570Y-48879D01*
X77654Y-48677D01*
X77654Y-48458D01*
X77570Y-48256D01*
X77416Y-48101D01*
X77214Y-48017D01*
X77213Y-48017D01*
X77415Y-47934D01*
X77570Y-47779D01*
X77654Y-47577D01*
X77654Y-47358D01*
X77570Y-47156D01*
X77416Y-47001D01*
X77237Y-46927D01*
X77415Y-46854D01*
X77570Y-46699D01*
X77654Y-46497D01*
X77654Y-46278D01*
X77570Y-46076D01*
X77416Y-45921D01*
X77237Y-45847D01*
X77415Y-45774D01*
X77570Y-45619D01*
X77654Y-45417D01*
X77654Y-45198D01*
X77570Y-44996D01*
X77416Y-44841D01*
X77214Y-44757D01*
X77213Y-44757D01*
X77415Y-44674D01*
X77570Y-44519D01*
X77654Y-44317D01*
X77654Y-44098D01*
X77570Y-43896D01*
X77416Y-43741D01*
X77334Y-43707D01*
X77415Y-43674D01*
X77570Y-43519D01*
X77654Y-43317D01*
X77654Y-43098D01*
X77570Y-42896D01*
X77416Y-42741D01*
X77214Y-42657D01*
X76995Y-42657D01*
X76793Y-42741D01*
X76654Y-42879D01*
X76654Y-42478D01*
X76570Y-42276D01*
X76416Y-42121D01*
X76214Y-42037D01*
X75995Y-42037D01*
X75793Y-42121D01*
X75638Y-42275D01*
X75554Y-42477D01*
X75554Y-42696D01*
X75637Y-42898D01*
X75792Y-43053D01*
X75994Y-43137D01*
X76090Y-43137D01*
X75967Y-43143D01*
X75816Y-43206D01*
X75789Y-43301D01*
X76104Y-43617D01*
X76419Y-43301D01*
X76392Y-43206D01*
X76199Y-43137D01*
X76213Y-43137D01*
X76415Y-43054D01*
X76570Y-42899D01*
X76654Y-42697D01*
X76654Y-42478D01*
X76654Y-42879D01*
X76638Y-42895D01*
X76554Y-43097D01*
X76554Y-43316D01*
X76637Y-43518D01*
X76792Y-43673D01*
X76874Y-43707D01*
X76793Y-43741D01*
X76659Y-43875D01*
X76659Y-43769D01*
X76648Y-43551D01*
X76585Y-43399D01*
X76490Y-43372D01*
X76175Y-43687D01*
X76490Y-44002D01*
X76585Y-43975D01*
X76659Y-43769D01*
X76659Y-43875D01*
X76638Y-43895D01*
X76554Y-44097D01*
X76554Y-44316D01*
X76637Y-44518D01*
X76792Y-44673D01*
X76994Y-44757D01*
X77213Y-44757D01*
X76995Y-44757D01*
X76793Y-44841D01*
X76638Y-44995D01*
X76554Y-45197D01*
X76554Y-45416D01*
X76637Y-45618D01*
X76792Y-45773D01*
X76970Y-45847D01*
X76793Y-45921D01*
X76638Y-46075D01*
X76554Y-46277D01*
X76554Y-46496D01*
X76637Y-46698D01*
X76792Y-46853D01*
X76970Y-46927D01*
X76793Y-47001D01*
X76638Y-47155D01*
X76554Y-47357D01*
X76554Y-47576D01*
X76637Y-47778D01*
X76792Y-47933D01*
X76994Y-48017D01*
X77213Y-48017D01*
X76995Y-48017D01*
X76793Y-48101D01*
X76638Y-48255D01*
X76554Y-48457D01*
X76554Y-48676D01*
X76637Y-48878D01*
X76792Y-49033D01*
X76970Y-49107D01*
X76793Y-49181D01*
X76638Y-49335D01*
X76554Y-49537D01*
X76554Y-49684D01*
X76546Y-49675D01*
X76454Y-49637D01*
X76354Y-49637D01*
X76213Y-49637D01*
X76415Y-49554D01*
X76570Y-49399D01*
X76654Y-49197D01*
X76654Y-48978D01*
X76570Y-48776D01*
X76416Y-48621D01*
X76274Y-48562D01*
X76415Y-48504D01*
X76570Y-48349D01*
X76654Y-48147D01*
X76654Y-47928D01*
X76570Y-47726D01*
X76416Y-47571D01*
X76214Y-47487D01*
X76213Y-47487D01*
X76415Y-47404D01*
X76570Y-47249D01*
X76654Y-47047D01*
X76654Y-46828D01*
X76570Y-46626D01*
X76416Y-46471D01*
X76214Y-46387D01*
X76213Y-46387D01*
X76415Y-46304D01*
X76570Y-46149D01*
X76654Y-45947D01*
X76654Y-45728D01*
X76570Y-45526D01*
X76416Y-45371D01*
X76214Y-45287D01*
X76213Y-45287D01*
X76415Y-45204D01*
X76570Y-45049D01*
X76654Y-44847D01*
X76654Y-44628D01*
X76570Y-44426D01*
X76416Y-44271D01*
X76280Y-44215D01*
X76392Y-44169D01*
X76419Y-44073D01*
X76104Y-43758D01*
X76033Y-43829D01*
X76033Y-43687D01*
X75718Y-43372D01*
X75623Y-43399D01*
X75549Y-43606D01*
X75560Y-43824D01*
X75623Y-43975D01*
X75718Y-44002D01*
X76033Y-43687D01*
X76033Y-43829D01*
X75789Y-44073D01*
X75816Y-44169D01*
X75936Y-44211D01*
X75793Y-44271D01*
X75638Y-44425D01*
X75554Y-44627D01*
X75554Y-44846D01*
X75637Y-45048D01*
X75792Y-45203D01*
X75994Y-45287D01*
X76213Y-45287D01*
X75995Y-45287D01*
X75793Y-45371D01*
X75638Y-45525D01*
X75554Y-45727D01*
X75554Y-45946D01*
X75637Y-46148D01*
X75792Y-46303D01*
X75994Y-46387D01*
X76213Y-46387D01*
X75995Y-46387D01*
X75793Y-46471D01*
X75638Y-46625D01*
X75554Y-46827D01*
X75554Y-47046D01*
X75637Y-47248D01*
X75792Y-47403D01*
X75994Y-47487D01*
X76213Y-47487D01*
X75995Y-47487D01*
X75793Y-47571D01*
X75638Y-47725D01*
X75554Y-47927D01*
X75554Y-48146D01*
X75637Y-48348D01*
X75792Y-48503D01*
X75934Y-48562D01*
X75793Y-48621D01*
X75638Y-48775D01*
X75554Y-48977D01*
X75554Y-49196D01*
X75637Y-49398D01*
X75792Y-49553D01*
X75994Y-49637D01*
X76054Y-49637D01*
X75754Y-49637D01*
X75662Y-49675D01*
X75592Y-49745D01*
X75554Y-49837D01*
X75554Y-49937D01*
X75554Y-50537D01*
X75592Y-50629D01*
X75662Y-50699D01*
X75754Y-50737D01*
X75853Y-50737D01*
X76453Y-50737D01*
X76545Y-50699D01*
X76616Y-50629D01*
X76654Y-50537D01*
X76654Y-50438D01*
X76654Y-49975D01*
X76792Y-50113D01*
X76994Y-50197D01*
X77213Y-50197D01*
X77415Y-50114D01*
X77570Y-49959D01*
X77654Y-49757D01*
X77654Y-49538D01*
X77654Y-50821D01*
X75383Y-52335D01*
X75383Y-54201D01*
X75086Y-54201D01*
X75086Y-40575D01*
X75086Y-39098D01*
X75006Y-38905D01*
X74858Y-38757D01*
X74665Y-38677D01*
X74457Y-38677D01*
X74264Y-38757D01*
X74116Y-38904D01*
X74036Y-39097D01*
X74035Y-39306D01*
X74115Y-39499D01*
X74263Y-39647D01*
X74456Y-39727D01*
X74664Y-39727D01*
X74858Y-39648D01*
X75005Y-39500D01*
X75085Y-39307D01*
X75086Y-39098D01*
X75086Y-40575D01*
X75006Y-40382D01*
X74858Y-40234D01*
X74665Y-40154D01*
X74457Y-40154D01*
X74264Y-40233D01*
X74116Y-40381D01*
X74112Y-40389D01*
X74066Y-40389D01*
X72675Y-38998D01*
X72581Y-38935D01*
X72470Y-38913D01*
X72009Y-38913D01*
X72006Y-38905D01*
X71858Y-38757D01*
X71665Y-38677D01*
X71457Y-38677D01*
X71264Y-38757D01*
X71116Y-38904D01*
X71036Y-39097D01*
X71035Y-39306D01*
X71115Y-39499D01*
X71263Y-39647D01*
X71456Y-39727D01*
X71664Y-39727D01*
X71858Y-39648D01*
X72005Y-39500D01*
X72009Y-39492D01*
X72350Y-39492D01*
X73742Y-40883D01*
X73742Y-40883D01*
X73804Y-40925D01*
X73836Y-40946D01*
X73836Y-40946D01*
X73938Y-40966D01*
X73765Y-41139D01*
X73665Y-41139D01*
X73509Y-41204D01*
X73389Y-41323D01*
X73325Y-41480D01*
X73324Y-41649D01*
X73389Y-41805D01*
X73508Y-41925D01*
X73665Y-41989D01*
X73834Y-41990D01*
X73990Y-41925D01*
X74110Y-41806D01*
X74174Y-41649D01*
X74175Y-41549D01*
X74520Y-41204D01*
X74664Y-41204D01*
X74858Y-41124D01*
X75005Y-40976D01*
X75085Y-40784D01*
X75086Y-40575D01*
X75086Y-54201D01*
X72086Y-54201D01*
X72086Y-40575D01*
X72006Y-40382D01*
X71858Y-40234D01*
X71665Y-40154D01*
X71457Y-40154D01*
X71264Y-40233D01*
X71116Y-40381D01*
X71036Y-40574D01*
X71035Y-40783D01*
X71115Y-40976D01*
X71263Y-41123D01*
X71456Y-41204D01*
X71664Y-41204D01*
X71858Y-41124D01*
X72005Y-40976D01*
X72085Y-40784D01*
X72086Y-40575D01*
X72086Y-54201D01*
X69845Y-54201D01*
X69845Y-42676D01*
X69845Y-42027D01*
X69807Y-41935D01*
X69737Y-41865D01*
X69645Y-41827D01*
X69546Y-41827D01*
X69433Y-41827D01*
X69370Y-41889D01*
X69370Y-42302D01*
X69783Y-42302D01*
X69845Y-42239D01*
X69845Y-42027D01*
X69845Y-42676D01*
X69845Y-42464D01*
X69783Y-42402D01*
X69370Y-42402D01*
X69370Y-42814D01*
X69433Y-42877D01*
X69546Y-42877D01*
X69645Y-42877D01*
X69737Y-42839D01*
X69807Y-42768D01*
X69845Y-42676D01*
X69845Y-54201D01*
X69270Y-54201D01*
X69270Y-42814D01*
X69270Y-42402D01*
X69270Y-42302D01*
X69270Y-41889D01*
X69208Y-41827D01*
X69095Y-41827D01*
X68995Y-41827D01*
X68904Y-41865D01*
X68833Y-41935D01*
X68795Y-42027D01*
X68795Y-42239D01*
X68858Y-42302D01*
X69270Y-42302D01*
X69270Y-42402D01*
X68858Y-42402D01*
X68795Y-42464D01*
X68795Y-42676D01*
X68833Y-42768D01*
X68904Y-42839D01*
X68995Y-42877D01*
X69095Y-42877D01*
X69208Y-42877D01*
X69270Y-42814D01*
X69270Y-54201D01*
X67687Y-54201D01*
X67610Y-38553D01*
X75463Y-38553D01*
X75541Y-40501D01*
X77981Y-41996D01*
X77981Y-50603D01*
X77981Y-50603D01*
G37*
G54D23*
X77981Y-50603D02*
X77654Y-50821D01*
X77654Y-49538D01*
X77570Y-49336D01*
X77416Y-49181D01*
X77237Y-49107D01*
X77415Y-49034D01*
X77570Y-48879D01*
X77654Y-48677D01*
X77654Y-48458D01*
X77570Y-48256D01*
X77416Y-48101D01*
X77214Y-48017D01*
X77213Y-48017D01*
X77415Y-47934D01*
X77570Y-47779D01*
X77654Y-47577D01*
X77654Y-47358D01*
X77570Y-47156D01*
X77416Y-47001D01*
X77237Y-46927D01*
X77415Y-46854D01*
X77570Y-46699D01*
X77654Y-46497D01*
X77654Y-46278D01*
X77570Y-46076D01*
X77416Y-45921D01*
X77237Y-45847D01*
X77415Y-45774D01*
X77570Y-45619D01*
X77654Y-45417D01*
X77654Y-45198D01*
X77570Y-44996D01*
X77416Y-44841D01*
X77214Y-44757D01*
X77213Y-44757D01*
X77415Y-44674D01*
X77570Y-44519D01*
X77654Y-44317D01*
X77654Y-44098D01*
X77570Y-43896D01*
X77416Y-43741D01*
X77334Y-43707D01*
X77415Y-43674D01*
X77570Y-43519D01*
X77654Y-43317D01*
X77654Y-43098D01*
X77570Y-42896D01*
X77416Y-42741D01*
X77214Y-42657D01*
X76995Y-42657D01*
X76793Y-42741D01*
X76654Y-42879D01*
X76654Y-42478D01*
X76570Y-42276D01*
X76416Y-42121D01*
X76214Y-42037D01*
X75995Y-42037D01*
X75793Y-42121D01*
X75638Y-42275D01*
X75554Y-42477D01*
X75554Y-42696D01*
X75637Y-42898D01*
X75792Y-43053D01*
X75994Y-43137D01*
X76090Y-43137D01*
X75967Y-43143D01*
X75816Y-43206D01*
X75789Y-43301D01*
X76104Y-43617D01*
X76419Y-43301D01*
X76392Y-43206D01*
X76199Y-43137D01*
X76213Y-43137D01*
X76415Y-43054D01*
X76570Y-42899D01*
X76654Y-42697D01*
X76654Y-42478D01*
X76654Y-42879D01*
X76638Y-42895D01*
X76554Y-43097D01*
X76554Y-43316D01*
X76637Y-43518D01*
X76792Y-43673D01*
X76874Y-43707D01*
X76793Y-43741D01*
X76659Y-43875D01*
X76659Y-43769D01*
X76648Y-43551D01*
X76585Y-43399D01*
X76490Y-43372D01*
X76175Y-43687D01*
X76490Y-44002D01*
X76585Y-43975D01*
X76659Y-43769D01*
X76659Y-43875D01*
X76638Y-43895D01*
X76554Y-44097D01*
X76554Y-44316D01*
X76637Y-44518D01*
X76792Y-44673D01*
X76994Y-44757D01*
X77213Y-44757D01*
X76995Y-44757D01*
X76793Y-44841D01*
X76638Y-44995D01*
X76554Y-45197D01*
X76554Y-45416D01*
X76637Y-45618D01*
X76792Y-45773D01*
X76970Y-45847D01*
X76793Y-45921D01*
X76638Y-46075D01*
X76554Y-46277D01*
X76554Y-46496D01*
X76637Y-46698D01*
X76792Y-46853D01*
X76970Y-46927D01*
X76793Y-47001D01*
X76638Y-47155D01*
X76554Y-47357D01*
X76554Y-47576D01*
X76637Y-47778D01*
X76792Y-47933D01*
X76994Y-48017D01*
X77213Y-48017D01*
X76995Y-48017D01*
X76793Y-48101D01*
X76638Y-48255D01*
X76554Y-48457D01*
X76554Y-48676D01*
X76637Y-48878D01*
X76792Y-49033D01*
X76970Y-49107D01*
X76793Y-49181D01*
X76638Y-49335D01*
X76554Y-49537D01*
X76554Y-49684D01*
X76546Y-49675D01*
X76454Y-49637D01*
X76354Y-49637D01*
X76213Y-49637D01*
X76415Y-49554D01*
X76570Y-49399D01*
X76654Y-49197D01*
X76654Y-48978D01*
X76570Y-48776D01*
X76416Y-48621D01*
X76274Y-48562D01*
X76415Y-48504D01*
X76570Y-48349D01*
X76654Y-48147D01*
X76654Y-47928D01*
X76570Y-47726D01*
X76416Y-47571D01*
X76214Y-47487D01*
X76213Y-47487D01*
X76415Y-47404D01*
X76570Y-47249D01*
X76654Y-47047D01*
X76654Y-46828D01*
X76570Y-46626D01*
X76416Y-46471D01*
X76214Y-46387D01*
X76213Y-46387D01*
X76415Y-46304D01*
X76570Y-46149D01*
X76654Y-45947D01*
X76654Y-45728D01*
X76570Y-45526D01*
X76416Y-45371D01*
X76214Y-45287D01*
X76213Y-45287D01*
X76415Y-45204D01*
X76570Y-45049D01*
X76654Y-44847D01*
X76654Y-44628D01*
X76570Y-44426D01*
X76416Y-44271D01*
X76280Y-44215D01*
X76392Y-44169D01*
X76419Y-44073D01*
X76104Y-43758D01*
X76033Y-43829D01*
X76033Y-43687D01*
X75718Y-43372D01*
X75623Y-43399D01*
X75549Y-43606D01*
X75560Y-43824D01*
X75623Y-43975D01*
X75718Y-44002D01*
X76033Y-43687D01*
X76033Y-43829D01*
X75789Y-44073D01*
X75816Y-44169D01*
X75936Y-44211D01*
X75793Y-44271D01*
X75638Y-44425D01*
X75554Y-44627D01*
X75554Y-44846D01*
X75637Y-45048D01*
X75792Y-45203D01*
X75994Y-45287D01*
X76213Y-45287D01*
X75995Y-45287D01*
X75793Y-45371D01*
X75638Y-45525D01*
X75554Y-45727D01*
X75554Y-45946D01*
X75637Y-46148D01*
X75792Y-46303D01*
X75994Y-46387D01*
X76213Y-46387D01*
X75995Y-46387D01*
X75793Y-46471D01*
X75638Y-46625D01*
X75554Y-46827D01*
X75554Y-47046D01*
X75637Y-47248D01*
X75792Y-47403D01*
X75994Y-47487D01*
X76213Y-47487D01*
X75995Y-47487D01*
X75793Y-47571D01*
X75638Y-47725D01*
X75554Y-47927D01*
X75554Y-48146D01*
X75637Y-48348D01*
X75792Y-48503D01*
X75934Y-48562D01*
X75793Y-48621D01*
X75638Y-48775D01*
X75554Y-48977D01*
X75554Y-49196D01*
X75637Y-49398D01*
X75792Y-49553D01*
X75994Y-49637D01*
X76054Y-49637D01*
X75754Y-49637D01*
X75662Y-49675D01*
X75592Y-49745D01*
X75554Y-49837D01*
X75554Y-49937D01*
X75554Y-50537D01*
X75592Y-50629D01*
X75662Y-50699D01*
X75754Y-50737D01*
X75853Y-50737D01*
X76453Y-50737D01*
X76545Y-50699D01*
X76616Y-50629D01*
X76654Y-50537D01*
X76654Y-50438D01*
X76654Y-49975D01*
X76792Y-50113D01*
X76994Y-50197D01*
X77213Y-50197D01*
X77415Y-50114D01*
X77570Y-49959D01*
X77654Y-49757D01*
X77654Y-49538D01*
X77654Y-50821D01*
X75383Y-52335D01*
X75383Y-54201D01*
X75086Y-54201D01*
X75086Y-40575D01*
X75086Y-39098D01*
X75006Y-38905D01*
X74858Y-38757D01*
X74665Y-38677D01*
X74457Y-38677D01*
X74264Y-38757D01*
X74116Y-38904D01*
X74036Y-39097D01*
X74035Y-39306D01*
X74115Y-39499D01*
X74263Y-39647D01*
X74456Y-39727D01*
X74664Y-39727D01*
X74858Y-39648D01*
X75005Y-39500D01*
X75085Y-39307D01*
X75086Y-39098D01*
X75086Y-40575D01*
X75006Y-40382D01*
X74858Y-40234D01*
X74665Y-40154D01*
X74457Y-40154D01*
X74264Y-40233D01*
X74116Y-40381D01*
X74112Y-40389D01*
X74066Y-40389D01*
X72675Y-38998D01*
X72581Y-38935D01*
X72470Y-38913D01*
X72009Y-38913D01*
X72006Y-38905D01*
X71858Y-38757D01*
X71665Y-38677D01*
X71457Y-38677D01*
X71264Y-38757D01*
X71116Y-38904D01*
X71036Y-39097D01*
X71035Y-39306D01*
X71115Y-39499D01*
X71263Y-39647D01*
X71456Y-39727D01*
X71664Y-39727D01*
X71858Y-39648D01*
X72005Y-39500D01*
X72009Y-39492D01*
X72350Y-39492D01*
X73742Y-40883D01*
X73742Y-40883D01*
X73804Y-40925D01*
X73836Y-40946D01*
X73836Y-40946D01*
X73938Y-40966D01*
X73765Y-41139D01*
X73665Y-41139D01*
X73509Y-41204D01*
X73389Y-41323D01*
X73325Y-41480D01*
X73324Y-41649D01*
X73389Y-41805D01*
X73508Y-41925D01*
X73665Y-41989D01*
X73834Y-41990D01*
X73990Y-41925D01*
X74110Y-41806D01*
X74174Y-41649D01*
X74175Y-41549D01*
X74520Y-41204D01*
X74664Y-41204D01*
X74858Y-41124D01*
X75005Y-40976D01*
X75085Y-40784D01*
X75086Y-40575D01*
X75086Y-54201D01*
X72086Y-54201D01*
X72086Y-40575D01*
X72006Y-40382D01*
X71858Y-40234D01*
X71665Y-40154D01*
X71457Y-40154D01*
X71264Y-40233D01*
X71116Y-40381D01*
X71036Y-40574D01*
X71035Y-40783D01*
X71115Y-40976D01*
X71263Y-41123D01*
X71456Y-41204D01*
X71664Y-41204D01*
X71858Y-41124D01*
X72005Y-40976D01*
X72085Y-40784D01*
X72086Y-40575D01*
X72086Y-54201D01*
X69845Y-54201D01*
X69845Y-42676D01*
X69845Y-42027D01*
X69807Y-41935D01*
X69737Y-41865D01*
X69645Y-41827D01*
X69546Y-41827D01*
X69433Y-41827D01*
X69370Y-41889D01*
X69370Y-42302D01*
X69783Y-42302D01*
X69845Y-42239D01*
X69845Y-42027D01*
X69845Y-42676D01*
X69845Y-42464D01*
X69783Y-42402D01*
X69370Y-42402D01*
X69370Y-42814D01*
X69433Y-42877D01*
X69546Y-42877D01*
X69645Y-42877D01*
X69737Y-42839D01*
X69807Y-42768D01*
X69845Y-42676D01*
X69845Y-54201D01*
X69270Y-54201D01*
X69270Y-42814D01*
X69270Y-42402D01*
X69270Y-42302D01*
X69270Y-41889D01*
X69208Y-41827D01*
X69095Y-41827D01*
X68995Y-41827D01*
X68904Y-41865D01*
X68833Y-41935D01*
X68795Y-42027D01*
X68795Y-42239D01*
X68858Y-42302D01*
X69270Y-42302D01*
X69270Y-42402D01*
X68858Y-42402D01*
X68795Y-42464D01*
X68795Y-42676D01*
X68833Y-42768D01*
X68904Y-42839D01*
X68995Y-42877D01*
X69095Y-42877D01*
X69208Y-42877D01*
X69270Y-42814D01*
X69270Y-54201D01*
X67687Y-54201D01*
X67610Y-38553D01*
X75463Y-38553D01*
X75541Y-40501D01*
X77981Y-41996D01*
X77981Y-50603D01*
G54D10*
G36*
X54977Y-43686D02*
X54907Y-43757D01*
X54901Y-43751D01*
X54830Y-43822D01*
X54830Y-43680D01*
X54348Y-43198D01*
X54228Y-43253D01*
X54116Y-43543D01*
X54123Y-43854D01*
X54228Y-44107D01*
X54348Y-44163D01*
X54830Y-43680D01*
X54830Y-43822D01*
X54418Y-44234D01*
X54474Y-44353D01*
X54482Y-44356D01*
X54280Y-44457D01*
X54280Y-47264D01*
X54418Y-47402D01*
X54359Y-47519D01*
X54885Y-48044D01*
X54890Y-48039D01*
X54961Y-48109D01*
X54955Y-48115D01*
X54961Y-48120D01*
X54890Y-48191D01*
X54885Y-48186D01*
X54814Y-48256D01*
X54814Y-48115D01*
X54289Y-47590D01*
X54163Y-47652D01*
X54041Y-47964D01*
X54047Y-48298D01*
X54163Y-48577D01*
X54289Y-48640D01*
X54814Y-48115D01*
X54814Y-48256D01*
X54359Y-48711D01*
X54374Y-48741D01*
X54280Y-48787D01*
X54280Y-52376D01*
X54509Y-52757D01*
X54422Y-52793D01*
X54359Y-52919D01*
X54885Y-53444D01*
X54890Y-53439D01*
X54960Y-53508D01*
X54961Y-53510D01*
X54955Y-53515D01*
X54961Y-53520D01*
X54890Y-53591D01*
X54885Y-53586D01*
X54814Y-53656D01*
X54814Y-53515D01*
X54289Y-52990D01*
X54163Y-53052D01*
X54041Y-53364D01*
X54047Y-53698D01*
X54163Y-53977D01*
X54289Y-54040D01*
X54814Y-53515D01*
X54814Y-53656D01*
X54359Y-54111D01*
X54422Y-54236D01*
X54534Y-54280D01*
X54014Y-54280D01*
X54014Y-45717D01*
X53931Y-45515D01*
X53776Y-45360D01*
X53694Y-45326D01*
X53775Y-45293D01*
X53930Y-45138D01*
X54014Y-44936D01*
X54014Y-44717D01*
X53931Y-44515D01*
X53776Y-44360D01*
X53574Y-44276D01*
X53355Y-44276D01*
X53153Y-44360D01*
X52998Y-44514D01*
X52914Y-44716D01*
X52914Y-44935D01*
X52998Y-45137D01*
X53152Y-45292D01*
X53234Y-45326D01*
X53153Y-45360D01*
X52998Y-45514D01*
X52914Y-45716D01*
X52914Y-45935D01*
X52998Y-46137D01*
X53136Y-46276D01*
X53115Y-46276D01*
X53023Y-46314D01*
X52952Y-46384D01*
X52914Y-46476D01*
X52914Y-46576D01*
X52914Y-47176D01*
X52952Y-47268D01*
X53022Y-47338D01*
X53114Y-47376D01*
X53214Y-47376D01*
X53814Y-47376D01*
X53905Y-47338D01*
X53976Y-47268D01*
X54014Y-47176D01*
X54014Y-47077D01*
X54014Y-46477D01*
X53976Y-46385D01*
X53906Y-46314D01*
X53814Y-46276D01*
X53792Y-46276D01*
X53930Y-46138D01*
X54014Y-45936D01*
X54014Y-45717D01*
X54014Y-54280D01*
X51231Y-54280D01*
X51231Y-38632D01*
X54189Y-38632D01*
X54116Y-38819D01*
X54123Y-39130D01*
X54228Y-39383D01*
X54348Y-39439D01*
X54830Y-38956D01*
X54825Y-38951D01*
X54896Y-38880D01*
X54901Y-38886D01*
X54907Y-38880D01*
X54977Y-38951D01*
X54972Y-38956D01*
X54977Y-38962D01*
X54907Y-39033D01*
X54901Y-39027D01*
X54418Y-39510D01*
X54474Y-39629D01*
X54481Y-39632D01*
X54280Y-39732D01*
X54280Y-42944D01*
X54462Y-43034D01*
X54418Y-43127D01*
X54901Y-43610D01*
X54907Y-43604D01*
X54977Y-43675D01*
X54972Y-43680D01*
X54977Y-43686D01*
X54977Y-43686D01*
G37*
G54D23*
X54977Y-43686D02*
X54907Y-43757D01*
X54901Y-43751D01*
X54830Y-43822D01*
X54830Y-43680D01*
X54348Y-43198D01*
X54228Y-43253D01*
X54116Y-43543D01*
X54123Y-43854D01*
X54228Y-44107D01*
X54348Y-44163D01*
X54830Y-43680D01*
X54830Y-43822D01*
X54418Y-44234D01*
X54474Y-44353D01*
X54482Y-44356D01*
X54280Y-44457D01*
X54280Y-47264D01*
X54418Y-47402D01*
X54359Y-47519D01*
X54885Y-48044D01*
X54890Y-48039D01*
X54961Y-48109D01*
X54955Y-48115D01*
X54961Y-48120D01*
X54890Y-48191D01*
X54885Y-48186D01*
X54814Y-48256D01*
X54814Y-48115D01*
X54289Y-47590D01*
X54163Y-47652D01*
X54041Y-47964D01*
X54047Y-48298D01*
X54163Y-48577D01*
X54289Y-48640D01*
X54814Y-48115D01*
X54814Y-48256D01*
X54359Y-48711D01*
X54374Y-48741D01*
X54280Y-48787D01*
X54280Y-52376D01*
X54509Y-52757D01*
X54422Y-52793D01*
X54359Y-52919D01*
X54885Y-53444D01*
X54890Y-53439D01*
X54960Y-53508D01*
X54961Y-53510D01*
X54955Y-53515D01*
X54961Y-53520D01*
X54890Y-53591D01*
X54885Y-53586D01*
X54814Y-53656D01*
X54814Y-53515D01*
X54289Y-52990D01*
X54163Y-53052D01*
X54041Y-53364D01*
X54047Y-53698D01*
X54163Y-53977D01*
X54289Y-54040D01*
X54814Y-53515D01*
X54814Y-53656D01*
X54359Y-54111D01*
X54422Y-54236D01*
X54534Y-54280D01*
X54014Y-54280D01*
X54014Y-45717D01*
X53931Y-45515D01*
X53776Y-45360D01*
X53694Y-45326D01*
X53775Y-45293D01*
X53930Y-45138D01*
X54014Y-44936D01*
X54014Y-44717D01*
X53931Y-44515D01*
X53776Y-44360D01*
X53574Y-44276D01*
X53355Y-44276D01*
X53153Y-44360D01*
X52998Y-44514D01*
X52914Y-44716D01*
X52914Y-44935D01*
X52998Y-45137D01*
X53152Y-45292D01*
X53234Y-45326D01*
X53153Y-45360D01*
X52998Y-45514D01*
X52914Y-45716D01*
X52914Y-45935D01*
X52998Y-46137D01*
X53136Y-46276D01*
X53115Y-46276D01*
X53023Y-46314D01*
X52952Y-46384D01*
X52914Y-46476D01*
X52914Y-46576D01*
X52914Y-47176D01*
X52952Y-47268D01*
X53022Y-47338D01*
X53114Y-47376D01*
X53214Y-47376D01*
X53814Y-47376D01*
X53905Y-47338D01*
X53976Y-47268D01*
X54014Y-47176D01*
X54014Y-47077D01*
X54014Y-46477D01*
X53976Y-46385D01*
X53906Y-46314D01*
X53814Y-46276D01*
X53792Y-46276D01*
X53930Y-46138D01*
X54014Y-45936D01*
X54014Y-45717D01*
X54014Y-54280D01*
X51231Y-54280D01*
X51231Y-38632D01*
X54189Y-38632D01*
X54116Y-38819D01*
X54123Y-39130D01*
X54228Y-39383D01*
X54348Y-39439D01*
X54830Y-38956D01*
X54825Y-38951D01*
X54896Y-38880D01*
X54901Y-38886D01*
X54907Y-38880D01*
X54977Y-38951D01*
X54972Y-38956D01*
X54977Y-38962D01*
X54907Y-39033D01*
X54901Y-39027D01*
X54418Y-39510D01*
X54474Y-39629D01*
X54481Y-39632D01*
X54280Y-39732D01*
X54280Y-42944D01*
X54462Y-43034D01*
X54418Y-43127D01*
X54901Y-43610D01*
X54907Y-43604D01*
X54977Y-43675D01*
X54972Y-43680D01*
X54977Y-43686D01*
G54D10*
G36*
X64751Y-51467D02*
X64675Y-54201D01*
X62862Y-54201D01*
X62862Y-46373D01*
X62857Y-46284D01*
X62857Y-45193D01*
X62778Y-45000D01*
X62630Y-44852D01*
X62497Y-44797D01*
X62629Y-44742D01*
X62777Y-44595D01*
X62857Y-44402D01*
X62857Y-44193D01*
X62778Y-44000D01*
X62630Y-43852D01*
X62437Y-43772D01*
X62228Y-43772D01*
X62035Y-43851D01*
X61887Y-43999D01*
X61884Y-44007D01*
X61582Y-44007D01*
X61149Y-43574D01*
X61149Y-43574D01*
X61149Y-43574D01*
X61076Y-43502D01*
X61076Y-42242D01*
X61076Y-42242D01*
X61112Y-42189D01*
X61133Y-42157D01*
X61133Y-42157D01*
X61155Y-42047D01*
X61155Y-42047D01*
X61155Y-41732D01*
X61133Y-41621D01*
X61070Y-41527D01*
X61070Y-41527D01*
X60859Y-41316D01*
X60911Y-41264D01*
X60976Y-41108D01*
X60976Y-40939D01*
X60911Y-40783D01*
X60792Y-40663D01*
X60636Y-40598D01*
X60467Y-40598D01*
X60310Y-40663D01*
X60191Y-40782D01*
X60126Y-40938D01*
X60126Y-41107D01*
X60190Y-41264D01*
X60261Y-41335D01*
X60261Y-41417D01*
X60283Y-41528D01*
X60295Y-41544D01*
X60191Y-41648D01*
X60126Y-41804D01*
X60126Y-41973D01*
X60190Y-42130D01*
X60261Y-42201D01*
X60261Y-43700D01*
X60283Y-43811D01*
X60346Y-43905D01*
X61807Y-45366D01*
X61807Y-45401D01*
X61887Y-45594D01*
X62034Y-45742D01*
X62161Y-45794D01*
X62059Y-45836D01*
X62035Y-45929D01*
X62332Y-46226D01*
X62629Y-45929D01*
X62605Y-45836D01*
X62495Y-45797D01*
X62629Y-45742D01*
X62777Y-45595D01*
X62857Y-45402D01*
X62857Y-45193D01*
X62857Y-46284D01*
X62851Y-46164D01*
X62793Y-46024D01*
X62700Y-46000D01*
X62403Y-46297D01*
X62700Y-46594D01*
X62793Y-46570D01*
X62862Y-46373D01*
X62862Y-54201D01*
X62857Y-54201D01*
X62857Y-47193D01*
X62778Y-47000D01*
X62630Y-46852D01*
X62503Y-46799D01*
X62605Y-46757D01*
X62629Y-46665D01*
X62332Y-46367D01*
X62261Y-46438D01*
X62261Y-46297D01*
X61964Y-46000D01*
X61872Y-46024D01*
X61802Y-46221D01*
X61814Y-46429D01*
X61872Y-46570D01*
X61964Y-46594D01*
X62261Y-46297D01*
X62261Y-46438D01*
X62035Y-46665D01*
X62059Y-46757D01*
X62169Y-46796D01*
X62035Y-46851D01*
X61887Y-46999D01*
X61807Y-47192D01*
X61807Y-47401D01*
X61887Y-47594D01*
X62034Y-47742D01*
X62107Y-47772D01*
X62008Y-47772D01*
X61916Y-47810D01*
X61845Y-47880D01*
X61807Y-47972D01*
X61807Y-48007D01*
X61566Y-48007D01*
X59974Y-46415D01*
X59974Y-46062D01*
X59974Y-45275D01*
X59956Y-45183D01*
X59952Y-45164D01*
X59952Y-45164D01*
X59889Y-45070D01*
X59889Y-45070D01*
X59732Y-44913D01*
X59638Y-44850D01*
X59527Y-44828D01*
X59445Y-44828D01*
X59374Y-44758D01*
X59218Y-44693D01*
X59049Y-44693D01*
X58893Y-44757D01*
X58773Y-44877D01*
X58708Y-45033D01*
X58708Y-45202D01*
X58771Y-45354D01*
X58749Y-45408D01*
X58535Y-45622D01*
X58472Y-45716D01*
X58450Y-45826D01*
X58450Y-45905D01*
X58450Y-46692D01*
X58472Y-46803D01*
X58535Y-46897D01*
X58850Y-47212D01*
X58850Y-47212D01*
X58913Y-47254D01*
X58944Y-47275D01*
X58944Y-47275D01*
X59055Y-47297D01*
X59055Y-47297D01*
X59092Y-47297D01*
X61206Y-49411D01*
X61206Y-49880D01*
X60976Y-50110D01*
X60913Y-50204D01*
X60910Y-50220D01*
X60821Y-50310D01*
X60756Y-50466D01*
X60756Y-50635D01*
X60820Y-50791D01*
X60940Y-50911D01*
X61096Y-50976D01*
X61265Y-50976D01*
X61421Y-50911D01*
X61456Y-50876D01*
X61491Y-50911D01*
X61647Y-50976D01*
X61816Y-50976D01*
X61972Y-50911D01*
X62007Y-50876D01*
X62042Y-50911D01*
X62198Y-50976D01*
X62367Y-50976D01*
X62523Y-50911D01*
X62643Y-50792D01*
X62708Y-50636D01*
X62708Y-50467D01*
X62643Y-50310D01*
X62524Y-50191D01*
X62368Y-50126D01*
X62267Y-50126D01*
X62257Y-50116D01*
X62257Y-49133D01*
X62257Y-49133D01*
X62235Y-49023D01*
X62235Y-49023D01*
X62215Y-48991D01*
X62173Y-48929D01*
X62173Y-48929D01*
X62066Y-48822D01*
X62107Y-48822D01*
X62657Y-48822D01*
X62749Y-48784D01*
X62819Y-48714D01*
X62857Y-48622D01*
X62857Y-48522D01*
X62857Y-47972D01*
X62819Y-47880D01*
X62749Y-47810D01*
X62657Y-47772D01*
X62558Y-47772D01*
X62557Y-47772D01*
X62629Y-47742D01*
X62777Y-47595D01*
X62857Y-47402D01*
X62857Y-47193D01*
X62857Y-54201D01*
X60740Y-54201D01*
X60740Y-50781D01*
X60675Y-50625D01*
X60556Y-50506D01*
X60399Y-50441D01*
X60299Y-50441D01*
X60125Y-50267D01*
X60031Y-50205D01*
X59921Y-50183D01*
X59642Y-50183D01*
X59571Y-50112D01*
X59415Y-50047D01*
X59246Y-50047D01*
X59090Y-50111D01*
X58970Y-50231D01*
X58905Y-50387D01*
X58905Y-50556D01*
X58970Y-50712D01*
X59089Y-50832D01*
X59245Y-50897D01*
X59414Y-50897D01*
X59571Y-50832D01*
X59642Y-50761D01*
X59801Y-50761D01*
X59889Y-50850D01*
X59889Y-50950D01*
X59954Y-51106D01*
X60073Y-51226D01*
X60230Y-51291D01*
X60399Y-51291D01*
X60555Y-51226D01*
X60675Y-51107D01*
X60739Y-50951D01*
X60740Y-50781D01*
X60740Y-54201D01*
X57612Y-54201D01*
X57612Y-42106D01*
X57612Y-41515D01*
X57612Y-41515D01*
X57612Y-41515D01*
X57585Y-41382D01*
X57510Y-41269D01*
X57510Y-41269D01*
X57313Y-41072D01*
X57257Y-41035D01*
X57301Y-40928D01*
X57301Y-40709D01*
X57218Y-40507D01*
X57063Y-40352D01*
X56861Y-40268D01*
X56642Y-40268D01*
X56440Y-40352D01*
X56358Y-40434D01*
X56276Y-40352D01*
X56074Y-40268D01*
X55855Y-40268D01*
X55653Y-40352D01*
X55498Y-40506D01*
X55414Y-40709D01*
X55414Y-40927D01*
X55498Y-41130D01*
X55652Y-41284D01*
X55728Y-41316D01*
X55676Y-41337D01*
X55649Y-41432D01*
X55964Y-41748D01*
X55970Y-41742D01*
X56040Y-41813D01*
X56035Y-41818D01*
X56040Y-41824D01*
X55970Y-41895D01*
X55964Y-41889D01*
X55893Y-41960D01*
X55893Y-41818D01*
X55578Y-41503D01*
X55483Y-41531D01*
X55409Y-41737D01*
X55420Y-41955D01*
X55483Y-42106D01*
X55578Y-42134D01*
X55893Y-41818D01*
X55893Y-41960D01*
X55649Y-42204D01*
X55676Y-42300D01*
X55882Y-42373D01*
X56101Y-42362D01*
X56252Y-42300D01*
X56279Y-42204D01*
X56279Y-42204D01*
X56304Y-42229D01*
X56304Y-48496D01*
X56279Y-48521D01*
X55831Y-48969D01*
X55827Y-48969D01*
X55626Y-49052D01*
X55472Y-49205D01*
X55389Y-49406D01*
X55389Y-49623D01*
X55472Y-49823D01*
X55625Y-49977D01*
X55716Y-50015D01*
X55626Y-50052D01*
X55472Y-50205D01*
X55389Y-50406D01*
X55389Y-50623D01*
X55472Y-50823D01*
X55563Y-50915D01*
X55472Y-51005D01*
X55389Y-51206D01*
X55389Y-51423D01*
X55472Y-51623D01*
X55625Y-51777D01*
X55710Y-51812D01*
X55649Y-51837D01*
X55623Y-51932D01*
X55935Y-52244D01*
X56246Y-51932D01*
X56220Y-51837D01*
X56155Y-51814D01*
X56243Y-51778D01*
X56397Y-51624D01*
X56480Y-51424D01*
X56480Y-51262D01*
X56722Y-51020D01*
X56722Y-51020D01*
X56722Y-51020D01*
X56798Y-50907D01*
X56824Y-50774D01*
X56824Y-49730D01*
X57411Y-49144D01*
X57411Y-49144D01*
X57411Y-49144D01*
X57487Y-49030D01*
X57513Y-48897D01*
X57513Y-48897D01*
X57513Y-48897D01*
X57513Y-42347D01*
X57513Y-42347D01*
X57585Y-42239D01*
X57612Y-42106D01*
X57612Y-54201D01*
X56485Y-54201D01*
X56485Y-52396D01*
X56474Y-52179D01*
X56412Y-52030D01*
X56317Y-52003D01*
X56005Y-52315D01*
X56317Y-52627D01*
X56412Y-52600D01*
X56485Y-52396D01*
X56485Y-54201D01*
X56478Y-54201D01*
X56246Y-53960D01*
X56246Y-52698D01*
X55935Y-52386D01*
X55864Y-52456D01*
X55864Y-52315D01*
X55552Y-52003D01*
X55457Y-52030D01*
X55384Y-52234D01*
X55395Y-52451D01*
X55457Y-52600D01*
X55552Y-52627D01*
X55864Y-52315D01*
X55864Y-52456D01*
X55623Y-52698D01*
X55649Y-52792D01*
X55854Y-52865D01*
X56071Y-52854D01*
X56220Y-52792D01*
X56246Y-52698D01*
X56246Y-53960D01*
X55725Y-53415D01*
X55725Y-53348D01*
X55597Y-53039D01*
X55361Y-52803D01*
X55052Y-52675D01*
X55017Y-52674D01*
X54774Y-52420D01*
X54774Y-49318D01*
X55719Y-48688D01*
X55719Y-48297D01*
X55725Y-48283D01*
X55725Y-47948D01*
X55719Y-47933D01*
X55719Y-42961D01*
X54774Y-42488D01*
X54774Y-39950D01*
X57124Y-38632D01*
X64123Y-38554D01*
X64123Y-44063D01*
X64003Y-44123D01*
X63178Y-44123D01*
X63178Y-51123D01*
X63522Y-51467D01*
X64751Y-51467D01*
X64751Y-51467D01*
G37*
G54D23*
X64751Y-51467D02*
X64675Y-54201D01*
X62862Y-54201D01*
X62862Y-46373D01*
X62857Y-46284D01*
X62857Y-45193D01*
X62778Y-45000D01*
X62630Y-44852D01*
X62497Y-44797D01*
X62629Y-44742D01*
X62777Y-44595D01*
X62857Y-44402D01*
X62857Y-44193D01*
X62778Y-44000D01*
X62630Y-43852D01*
X62437Y-43772D01*
X62228Y-43772D01*
X62035Y-43851D01*
X61887Y-43999D01*
X61884Y-44007D01*
X61582Y-44007D01*
X61149Y-43574D01*
X61149Y-43574D01*
X61149Y-43574D01*
X61076Y-43502D01*
X61076Y-42242D01*
X61076Y-42242D01*
X61112Y-42189D01*
X61133Y-42157D01*
X61133Y-42157D01*
X61155Y-42047D01*
X61155Y-42047D01*
X61155Y-41732D01*
X61133Y-41621D01*
X61070Y-41527D01*
X61070Y-41527D01*
X60859Y-41316D01*
X60911Y-41264D01*
X60976Y-41108D01*
X60976Y-40939D01*
X60911Y-40783D01*
X60792Y-40663D01*
X60636Y-40598D01*
X60467Y-40598D01*
X60310Y-40663D01*
X60191Y-40782D01*
X60126Y-40938D01*
X60126Y-41107D01*
X60190Y-41264D01*
X60261Y-41335D01*
X60261Y-41417D01*
X60283Y-41528D01*
X60295Y-41544D01*
X60191Y-41648D01*
X60126Y-41804D01*
X60126Y-41973D01*
X60190Y-42130D01*
X60261Y-42201D01*
X60261Y-43700D01*
X60283Y-43811D01*
X60346Y-43905D01*
X61807Y-45366D01*
X61807Y-45401D01*
X61887Y-45594D01*
X62034Y-45742D01*
X62161Y-45794D01*
X62059Y-45836D01*
X62035Y-45929D01*
X62332Y-46226D01*
X62629Y-45929D01*
X62605Y-45836D01*
X62495Y-45797D01*
X62629Y-45742D01*
X62777Y-45595D01*
X62857Y-45402D01*
X62857Y-45193D01*
X62857Y-46284D01*
X62851Y-46164D01*
X62793Y-46024D01*
X62700Y-46000D01*
X62403Y-46297D01*
X62700Y-46594D01*
X62793Y-46570D01*
X62862Y-46373D01*
X62862Y-54201D01*
X62857Y-54201D01*
X62857Y-47193D01*
X62778Y-47000D01*
X62630Y-46852D01*
X62503Y-46799D01*
X62605Y-46757D01*
X62629Y-46665D01*
X62332Y-46367D01*
X62261Y-46438D01*
X62261Y-46297D01*
X61964Y-46000D01*
X61872Y-46024D01*
X61802Y-46221D01*
X61814Y-46429D01*
X61872Y-46570D01*
X61964Y-46594D01*
X62261Y-46297D01*
X62261Y-46438D01*
X62035Y-46665D01*
X62059Y-46757D01*
X62169Y-46796D01*
X62035Y-46851D01*
X61887Y-46999D01*
X61807Y-47192D01*
X61807Y-47401D01*
X61887Y-47594D01*
X62034Y-47742D01*
X62107Y-47772D01*
X62008Y-47772D01*
X61916Y-47810D01*
X61845Y-47880D01*
X61807Y-47972D01*
X61807Y-48007D01*
X61566Y-48007D01*
X59974Y-46415D01*
X59974Y-46062D01*
X59974Y-45275D01*
X59956Y-45183D01*
X59952Y-45164D01*
X59952Y-45164D01*
X59889Y-45070D01*
X59889Y-45070D01*
X59732Y-44913D01*
X59638Y-44850D01*
X59527Y-44828D01*
X59445Y-44828D01*
X59374Y-44758D01*
X59218Y-44693D01*
X59049Y-44693D01*
X58893Y-44757D01*
X58773Y-44877D01*
X58708Y-45033D01*
X58708Y-45202D01*
X58771Y-45354D01*
X58749Y-45408D01*
X58535Y-45622D01*
X58472Y-45716D01*
X58450Y-45826D01*
X58450Y-45905D01*
X58450Y-46692D01*
X58472Y-46803D01*
X58535Y-46897D01*
X58850Y-47212D01*
X58850Y-47212D01*
X58913Y-47254D01*
X58944Y-47275D01*
X58944Y-47275D01*
X59055Y-47297D01*
X59055Y-47297D01*
X59092Y-47297D01*
X61206Y-49411D01*
X61206Y-49880D01*
X60976Y-50110D01*
X60913Y-50204D01*
X60910Y-50220D01*
X60821Y-50310D01*
X60756Y-50466D01*
X60756Y-50635D01*
X60820Y-50791D01*
X60940Y-50911D01*
X61096Y-50976D01*
X61265Y-50976D01*
X61421Y-50911D01*
X61456Y-50876D01*
X61491Y-50911D01*
X61647Y-50976D01*
X61816Y-50976D01*
X61972Y-50911D01*
X62007Y-50876D01*
X62042Y-50911D01*
X62198Y-50976D01*
X62367Y-50976D01*
X62523Y-50911D01*
X62643Y-50792D01*
X62708Y-50636D01*
X62708Y-50467D01*
X62643Y-50310D01*
X62524Y-50191D01*
X62368Y-50126D01*
X62267Y-50126D01*
X62257Y-50116D01*
X62257Y-49133D01*
X62257Y-49133D01*
X62235Y-49023D01*
X62235Y-49023D01*
X62215Y-48991D01*
X62173Y-48929D01*
X62173Y-48929D01*
X62066Y-48822D01*
X62107Y-48822D01*
X62657Y-48822D01*
X62749Y-48784D01*
X62819Y-48714D01*
X62857Y-48622D01*
X62857Y-48522D01*
X62857Y-47972D01*
X62819Y-47880D01*
X62749Y-47810D01*
X62657Y-47772D01*
X62558Y-47772D01*
X62557Y-47772D01*
X62629Y-47742D01*
X62777Y-47595D01*
X62857Y-47402D01*
X62857Y-47193D01*
X62857Y-54201D01*
X60740Y-54201D01*
X60740Y-50781D01*
X60675Y-50625D01*
X60556Y-50506D01*
X60399Y-50441D01*
X60299Y-50441D01*
X60125Y-50267D01*
X60031Y-50205D01*
X59921Y-50183D01*
X59642Y-50183D01*
X59571Y-50112D01*
X59415Y-50047D01*
X59246Y-50047D01*
X59090Y-50111D01*
X58970Y-50231D01*
X58905Y-50387D01*
X58905Y-50556D01*
X58970Y-50712D01*
X59089Y-50832D01*
X59245Y-50897D01*
X59414Y-50897D01*
X59571Y-50832D01*
X59642Y-50761D01*
X59801Y-50761D01*
X59889Y-50850D01*
X59889Y-50950D01*
X59954Y-51106D01*
X60073Y-51226D01*
X60230Y-51291D01*
X60399Y-51291D01*
X60555Y-51226D01*
X60675Y-51107D01*
X60739Y-50951D01*
X60740Y-50781D01*
X60740Y-54201D01*
X57612Y-54201D01*
X57612Y-42106D01*
X57612Y-41515D01*
X57612Y-41515D01*
X57612Y-41515D01*
X57585Y-41382D01*
X57510Y-41269D01*
X57510Y-41269D01*
X57313Y-41072D01*
X57257Y-41035D01*
X57301Y-40928D01*
X57301Y-40709D01*
X57218Y-40507D01*
X57063Y-40352D01*
X56861Y-40268D01*
X56642Y-40268D01*
X56440Y-40352D01*
X56358Y-40434D01*
X56276Y-40352D01*
X56074Y-40268D01*
X55855Y-40268D01*
X55653Y-40352D01*
X55498Y-40506D01*
X55414Y-40709D01*
X55414Y-40927D01*
X55498Y-41130D01*
X55652Y-41284D01*
X55728Y-41316D01*
X55676Y-41337D01*
X55649Y-41432D01*
X55964Y-41748D01*
X55970Y-41742D01*
X56040Y-41813D01*
X56035Y-41818D01*
X56040Y-41824D01*
X55970Y-41895D01*
X55964Y-41889D01*
X55893Y-41960D01*
X55893Y-41818D01*
X55578Y-41503D01*
X55483Y-41531D01*
X55409Y-41737D01*
X55420Y-41955D01*
X55483Y-42106D01*
X55578Y-42134D01*
X55893Y-41818D01*
X55893Y-41960D01*
X55649Y-42204D01*
X55676Y-42300D01*
X55882Y-42373D01*
X56101Y-42362D01*
X56252Y-42300D01*
X56279Y-42204D01*
X56279Y-42204D01*
X56304Y-42229D01*
X56304Y-48496D01*
X56279Y-48521D01*
X55831Y-48969D01*
X55827Y-48969D01*
X55626Y-49052D01*
X55472Y-49205D01*
X55389Y-49406D01*
X55389Y-49623D01*
X55472Y-49823D01*
X55625Y-49977D01*
X55716Y-50015D01*
X55626Y-50052D01*
X55472Y-50205D01*
X55389Y-50406D01*
X55389Y-50623D01*
X55472Y-50823D01*
X55563Y-50915D01*
X55472Y-51005D01*
X55389Y-51206D01*
X55389Y-51423D01*
X55472Y-51623D01*
X55625Y-51777D01*
X55710Y-51812D01*
X55649Y-51837D01*
X55623Y-51932D01*
X55935Y-52244D01*
X56246Y-51932D01*
X56220Y-51837D01*
X56155Y-51814D01*
X56243Y-51778D01*
X56397Y-51624D01*
X56480Y-51424D01*
X56480Y-51262D01*
X56722Y-51020D01*
X56722Y-51020D01*
X56722Y-51020D01*
X56798Y-50907D01*
X56824Y-50774D01*
X56824Y-49730D01*
X57411Y-49144D01*
X57411Y-49144D01*
X57411Y-49144D01*
X57487Y-49030D01*
X57513Y-48897D01*
X57513Y-48897D01*
X57513Y-48897D01*
X57513Y-42347D01*
X57513Y-42347D01*
X57585Y-42239D01*
X57612Y-42106D01*
X57612Y-54201D01*
X56485Y-54201D01*
X56485Y-52396D01*
X56474Y-52179D01*
X56412Y-52030D01*
X56317Y-52003D01*
X56005Y-52315D01*
X56317Y-52627D01*
X56412Y-52600D01*
X56485Y-52396D01*
X56485Y-54201D01*
X56478Y-54201D01*
X56246Y-53960D01*
X56246Y-52698D01*
X55935Y-52386D01*
X55864Y-52456D01*
X55864Y-52315D01*
X55552Y-52003D01*
X55457Y-52030D01*
X55384Y-52234D01*
X55395Y-52451D01*
X55457Y-52600D01*
X55552Y-52627D01*
X55864Y-52315D01*
X55864Y-52456D01*
X55623Y-52698D01*
X55649Y-52792D01*
X55854Y-52865D01*
X56071Y-52854D01*
X56220Y-52792D01*
X56246Y-52698D01*
X56246Y-53960D01*
X55725Y-53415D01*
X55725Y-53348D01*
X55597Y-53039D01*
X55361Y-52803D01*
X55052Y-52675D01*
X55017Y-52674D01*
X54774Y-52420D01*
X54774Y-49318D01*
X55719Y-48688D01*
X55719Y-48297D01*
X55725Y-48283D01*
X55725Y-47948D01*
X55719Y-47933D01*
X55719Y-42961D01*
X54774Y-42488D01*
X54774Y-39950D01*
X57124Y-38632D01*
X64123Y-38554D01*
X64123Y-44063D01*
X64003Y-44123D01*
X63178Y-44123D01*
X63178Y-51123D01*
X63522Y-51467D01*
X64751Y-51467D01*
M02*
