G04 (created by PCBNEW (2013-03-15 BZR 4003)-stable) date 17/04/2013 22:03:58*
%MOIN*%
G04 Gerber Fmt 3.4, Leading zero omitted, Abs format*
%FSLAX34Y34*%
G01*
G70*
G90*
G04 APERTURE LIST*
%ADD10C,0.006*%
%ADD11C,0.06*%
%ADD12C,0.1063*%
%ADD13C,0.0591*%
%ADD14C,0.1181*%
%ADD15R,0.063X0.0138*%
%ADD16R,0.063X0.0354*%
%ADD17R,0.0752X0.0299*%
%ADD18R,0.023622X0.0610236*%
%ADD19R,0.045X0.02*%
%ADD20R,0.055X0.035*%
%ADD21R,0.035X0.055*%
%ADD22R,0.025X0.045*%
%ADD23R,0.045X0.025*%
%ADD24R,0.055X0.055*%
%ADD25C,0.055*%
%ADD26R,0.0472X0.0472*%
%ADD27C,0.15*%
%ADD28R,0.06X0.06*%
G04 APERTURE END LIST*
G54D10*
G54D11*
X56751Y-41818D03*
X56751Y-40818D03*
X55964Y-40818D03*
X55964Y-41818D03*
G54D12*
X54901Y-43680D03*
X54901Y-38956D03*
G54D13*
X55935Y-52315D03*
X55935Y-51315D03*
X55935Y-50515D03*
X55935Y-49515D03*
G54D14*
X54885Y-53515D03*
X54885Y-48115D03*
G54D15*
X70699Y-50028D03*
X70699Y-49831D03*
X70699Y-49635D03*
X70699Y-49438D03*
X70699Y-49241D03*
X70699Y-49044D03*
X70699Y-48847D03*
X70699Y-48650D03*
X70699Y-48453D03*
X70699Y-48257D03*
X70699Y-48060D03*
X70699Y-47863D03*
X70699Y-47666D03*
X70699Y-47469D03*
X70699Y-47272D03*
X70699Y-47076D03*
X70699Y-46879D03*
X70699Y-46682D03*
X70699Y-46485D03*
X70699Y-46288D03*
X70699Y-46091D03*
X70699Y-45894D03*
X67941Y-45895D03*
X67941Y-46092D03*
X67941Y-46289D03*
X67941Y-46486D03*
X67941Y-46682D03*
X67941Y-46879D03*
X67941Y-47076D03*
X67941Y-47273D03*
X67941Y-47470D03*
X67941Y-47667D03*
X67941Y-47864D03*
X67941Y-48060D03*
X67941Y-48257D03*
X67941Y-48454D03*
X67941Y-48651D03*
X67941Y-48848D03*
X67941Y-49045D03*
X67941Y-49242D03*
X67941Y-49438D03*
X67941Y-49635D03*
X67941Y-49832D03*
X67941Y-50029D03*
G54D16*
X64421Y-52596D03*
X67921Y-52596D03*
X67921Y-51596D03*
X64421Y-51596D03*
G54D17*
X63679Y-40027D03*
X63679Y-40527D03*
X63679Y-41027D03*
X63679Y-41527D03*
X67929Y-41527D03*
X67929Y-41027D03*
X67929Y-40527D03*
X67929Y-40027D03*
X67925Y-43935D03*
X67925Y-43435D03*
X67925Y-42935D03*
X63675Y-42935D03*
X63675Y-43435D03*
X63675Y-43935D03*
G54D18*
X59303Y-49815D03*
X60303Y-49815D03*
X60803Y-49815D03*
X61303Y-49815D03*
X61803Y-49815D03*
X62303Y-49815D03*
X62803Y-49815D03*
X62803Y-51965D03*
X62303Y-51965D03*
X61803Y-51965D03*
X61303Y-51965D03*
X60803Y-51965D03*
X60303Y-51965D03*
X59803Y-51965D03*
X59303Y-51965D03*
X59803Y-49815D03*
G54D19*
X58575Y-43608D03*
X58575Y-44108D03*
X58575Y-44608D03*
X58575Y-45108D03*
X58575Y-45608D03*
X58575Y-46108D03*
X58575Y-46608D03*
X60675Y-46608D03*
X60675Y-46108D03*
X60675Y-45608D03*
X60675Y-45108D03*
X60675Y-44608D03*
X60675Y-44108D03*
X60675Y-43608D03*
G54D20*
X58001Y-53258D03*
X58001Y-52508D03*
G54D21*
X73042Y-43041D03*
X72292Y-43041D03*
X73042Y-42057D03*
X72292Y-42057D03*
X69892Y-52687D03*
X69142Y-52687D03*
X70089Y-40679D03*
X69339Y-40679D03*
X60050Y-53179D03*
X59300Y-53179D03*
X61723Y-53179D03*
X60973Y-53179D03*
G54D20*
X58001Y-50835D03*
X58001Y-51585D03*
X59379Y-48632D03*
X59379Y-47882D03*
G54D22*
X73164Y-48750D03*
X72564Y-48750D03*
X73164Y-51899D03*
X72564Y-51899D03*
X73164Y-51112D03*
X72564Y-51112D03*
X73164Y-50324D03*
X72564Y-50324D03*
X59375Y-42647D03*
X59975Y-42647D03*
X70014Y-39793D03*
X69414Y-39793D03*
X62032Y-42844D03*
X62632Y-42844D03*
X73164Y-53474D03*
X72564Y-53474D03*
X73164Y-49537D03*
X72564Y-49537D03*
X73164Y-44025D03*
X72564Y-44025D03*
X73164Y-44812D03*
X72564Y-44812D03*
X73164Y-52687D03*
X72564Y-52687D03*
X73164Y-45600D03*
X72564Y-45600D03*
X73164Y-46387D03*
X72564Y-46387D03*
X73164Y-47175D03*
X72564Y-47175D03*
X73164Y-47962D03*
X72564Y-47962D03*
X74738Y-49340D03*
X74138Y-49340D03*
X74738Y-52490D03*
X74138Y-52490D03*
X74738Y-51702D03*
X74138Y-51702D03*
X74738Y-50915D03*
X74138Y-50915D03*
X74738Y-50127D03*
X74138Y-50127D03*
X62032Y-39694D03*
X62632Y-39694D03*
X74738Y-48553D03*
X74138Y-48553D03*
X62032Y-42057D03*
X62632Y-42057D03*
X62632Y-41269D03*
X62032Y-41269D03*
X62632Y-40482D03*
X62032Y-40482D03*
X59375Y-41072D03*
X59975Y-41072D03*
X69414Y-43730D03*
X70014Y-43730D03*
X59375Y-40285D03*
X59975Y-40285D03*
X59375Y-41860D03*
X59975Y-41860D03*
X74738Y-47765D03*
X74138Y-47765D03*
X54650Y-46584D03*
X55250Y-46584D03*
X74138Y-43041D03*
X74738Y-43041D03*
X74138Y-42253D03*
X74738Y-42253D03*
G54D23*
X60265Y-47957D03*
X60265Y-48557D03*
G54D22*
X69414Y-44517D03*
X70014Y-44517D03*
X69020Y-53572D03*
X69620Y-53572D03*
X74738Y-43828D03*
X74138Y-43828D03*
X54650Y-45403D03*
X55250Y-45403D03*
X74738Y-53277D03*
X74138Y-53277D03*
X74738Y-44616D03*
X74138Y-44616D03*
X74738Y-45403D03*
X74138Y-45403D03*
X74738Y-46190D03*
X74138Y-46190D03*
X74738Y-46978D03*
X74138Y-46978D03*
G54D24*
X69320Y-42352D03*
G54D25*
X74561Y-40679D03*
X71561Y-40679D03*
X71561Y-39202D03*
X74561Y-39202D03*
G54D24*
X62332Y-48297D03*
G54D25*
X62332Y-47297D03*
X62332Y-46297D03*
X62332Y-45297D03*
X62332Y-44297D03*
G54D26*
X58001Y-49851D03*
X58001Y-49025D03*
G54D27*
X76604Y-52981D03*
X76604Y-39793D03*
G54D11*
X76104Y-42587D03*
X76104Y-43687D03*
X76104Y-44737D03*
X76104Y-45837D03*
X76104Y-46937D03*
X76104Y-48037D03*
X76104Y-49087D03*
G54D28*
X76104Y-50187D03*
G54D11*
X77104Y-43207D03*
X77104Y-44207D03*
X77104Y-45307D03*
X77104Y-46387D03*
X77104Y-47467D03*
X77104Y-48567D03*
X77104Y-49647D03*
G54D28*
X53464Y-46826D03*
G54D11*
X53464Y-45826D03*
X53464Y-44826D03*
M02*
