G04 (created by PCBNEW (2013-03-15 BZR 4003)-stable) date 17/04/2013 22:03:57*
%MOIN*%
G04 Gerber Fmt 3.4, Leading zero omitted, Abs format*
%FSLAX34Y34*%
G01*
G70*
G90*
G04 APERTURE LIST*
%ADD10C,0.006*%
%ADD11C,0.06*%
%ADD12C,0.1063*%
%ADD13C,0.0591*%
%ADD14C,0.1181*%
%ADD15R,0.059X0.0098*%
%ADD16R,0.063X0.0354*%
%ADD17R,0.0752X0.0299*%
%ADD18R,0.023622X0.0610236*%
%ADD19R,0.045X0.02*%
%ADD20R,0.055X0.035*%
%ADD21R,0.035X0.055*%
%ADD22R,0.025X0.045*%
%ADD23R,0.045X0.025*%
%ADD24R,0.055X0.055*%
%ADD25C,0.055*%
%ADD26R,0.0472X0.0472*%
%ADD27C,0.15*%
%ADD28R,0.06X0.06*%
%ADD29C,0.035*%
%ADD30C,0.01*%
%ADD31C,0.019685*%
%ADD32C,0.00787402*%
G04 APERTURE END LIST*
G54D10*
G54D11*
X56751Y-41818D03*
X56751Y-40818D03*
X55964Y-40818D03*
X55964Y-41818D03*
G54D12*
X54901Y-43680D03*
X54901Y-38956D03*
G54D13*
X55935Y-52315D03*
X55935Y-51315D03*
X55935Y-50515D03*
X55935Y-49515D03*
G54D14*
X54885Y-53515D03*
X54885Y-48115D03*
G54D15*
X70699Y-50028D03*
X70699Y-49831D03*
X70699Y-49635D03*
X70699Y-49438D03*
X70699Y-49241D03*
X70699Y-49044D03*
X70699Y-48847D03*
X70699Y-48650D03*
X70699Y-48453D03*
X70699Y-48257D03*
X70699Y-48060D03*
X70699Y-47863D03*
X70699Y-47666D03*
X70699Y-47469D03*
X70699Y-47272D03*
X70699Y-47076D03*
X70699Y-46879D03*
X70699Y-46682D03*
X70699Y-46485D03*
X70699Y-46288D03*
X70699Y-46091D03*
X70699Y-45894D03*
X67941Y-45895D03*
X67941Y-46092D03*
X67941Y-46289D03*
X67941Y-46486D03*
X67941Y-46682D03*
X67941Y-46879D03*
X67941Y-47076D03*
X67941Y-47273D03*
X67941Y-47470D03*
X67941Y-47667D03*
X67941Y-47864D03*
X67941Y-48060D03*
X67941Y-48257D03*
X67941Y-48454D03*
X67941Y-48651D03*
X67941Y-48848D03*
X67941Y-49045D03*
X67941Y-49242D03*
X67941Y-49438D03*
X67941Y-49635D03*
X67941Y-49832D03*
X67941Y-50029D03*
G54D16*
X64421Y-52596D03*
X67921Y-52596D03*
X67921Y-51596D03*
X64421Y-51596D03*
G54D17*
X63679Y-40027D03*
X63679Y-40527D03*
X63679Y-41027D03*
X63679Y-41527D03*
X67929Y-41527D03*
X67929Y-41027D03*
X67929Y-40527D03*
X67929Y-40027D03*
X67925Y-43935D03*
X67925Y-43435D03*
X67925Y-42935D03*
X63675Y-42935D03*
X63675Y-43435D03*
X63675Y-43935D03*
G54D18*
X59303Y-49815D03*
X60303Y-49815D03*
X60803Y-49815D03*
X61303Y-49815D03*
X61803Y-49815D03*
X62303Y-49815D03*
X62803Y-49815D03*
X62803Y-51965D03*
X62303Y-51965D03*
X61803Y-51965D03*
X61303Y-51965D03*
X60803Y-51965D03*
X60303Y-51965D03*
X59803Y-51965D03*
X59303Y-51965D03*
X59803Y-49815D03*
G54D19*
X58575Y-43608D03*
X58575Y-44108D03*
X58575Y-44608D03*
X58575Y-45108D03*
X58575Y-45608D03*
X58575Y-46108D03*
X58575Y-46608D03*
X60675Y-46608D03*
X60675Y-46108D03*
X60675Y-45608D03*
X60675Y-45108D03*
X60675Y-44608D03*
X60675Y-44108D03*
X60675Y-43608D03*
G54D20*
X58001Y-53258D03*
X58001Y-52508D03*
G54D21*
X73042Y-43041D03*
X72292Y-43041D03*
X73042Y-42057D03*
X72292Y-42057D03*
X69892Y-52687D03*
X69142Y-52687D03*
X70089Y-40679D03*
X69339Y-40679D03*
X60050Y-53179D03*
X59300Y-53179D03*
X61723Y-53179D03*
X60973Y-53179D03*
G54D20*
X58001Y-50835D03*
X58001Y-51585D03*
X59379Y-48632D03*
X59379Y-47882D03*
G54D22*
X73164Y-48750D03*
X72564Y-48750D03*
X73164Y-51899D03*
X72564Y-51899D03*
X73164Y-51112D03*
X72564Y-51112D03*
X73164Y-50324D03*
X72564Y-50324D03*
X59375Y-42647D03*
X59975Y-42647D03*
X70014Y-39793D03*
X69414Y-39793D03*
X62032Y-42844D03*
X62632Y-42844D03*
X73164Y-53474D03*
X72564Y-53474D03*
X73164Y-49537D03*
X72564Y-49537D03*
X73164Y-44025D03*
X72564Y-44025D03*
X73164Y-44812D03*
X72564Y-44812D03*
X73164Y-52687D03*
X72564Y-52687D03*
X73164Y-45600D03*
X72564Y-45600D03*
X73164Y-46387D03*
X72564Y-46387D03*
X73164Y-47175D03*
X72564Y-47175D03*
X73164Y-47962D03*
X72564Y-47962D03*
X74738Y-49340D03*
X74138Y-49340D03*
X74738Y-52490D03*
X74138Y-52490D03*
X74738Y-51702D03*
X74138Y-51702D03*
X74738Y-50915D03*
X74138Y-50915D03*
X74738Y-50127D03*
X74138Y-50127D03*
X62032Y-39694D03*
X62632Y-39694D03*
X74738Y-48553D03*
X74138Y-48553D03*
X62032Y-42057D03*
X62632Y-42057D03*
X62632Y-41269D03*
X62032Y-41269D03*
X62632Y-40482D03*
X62032Y-40482D03*
X59375Y-41072D03*
X59975Y-41072D03*
X69414Y-43730D03*
X70014Y-43730D03*
X59375Y-40285D03*
X59975Y-40285D03*
X59375Y-41860D03*
X59975Y-41860D03*
X74738Y-47765D03*
X74138Y-47765D03*
X54650Y-46584D03*
X55250Y-46584D03*
X74138Y-43041D03*
X74738Y-43041D03*
X74138Y-42253D03*
X74738Y-42253D03*
G54D23*
X60265Y-47957D03*
X60265Y-48557D03*
G54D22*
X69414Y-44517D03*
X70014Y-44517D03*
X69020Y-53572D03*
X69620Y-53572D03*
X74738Y-43828D03*
X74138Y-43828D03*
X54650Y-45403D03*
X55250Y-45403D03*
X74738Y-53277D03*
X74138Y-53277D03*
X74738Y-44616D03*
X74138Y-44616D03*
X74738Y-45403D03*
X74138Y-45403D03*
X74738Y-46190D03*
X74138Y-46190D03*
X74738Y-46978D03*
X74138Y-46978D03*
G54D24*
X69320Y-42352D03*
G54D25*
X74561Y-40679D03*
X71561Y-40679D03*
X71561Y-39202D03*
X74561Y-39202D03*
G54D24*
X62332Y-48297D03*
G54D25*
X62332Y-47297D03*
X62332Y-46297D03*
X62332Y-45297D03*
X62332Y-44297D03*
G54D26*
X58001Y-49851D03*
X58001Y-49025D03*
G54D27*
X76604Y-52981D03*
X76604Y-39793D03*
G54D11*
X76104Y-42587D03*
X76104Y-43687D03*
X76104Y-44737D03*
X76104Y-45837D03*
X76104Y-46937D03*
X76104Y-48037D03*
X76104Y-49087D03*
G54D28*
X76104Y-50187D03*
G54D11*
X77104Y-43207D03*
X77104Y-44207D03*
X77104Y-45307D03*
X77104Y-46387D03*
X77104Y-47467D03*
X77104Y-48567D03*
X77104Y-49647D03*
G54D28*
X53464Y-46826D03*
G54D11*
X53464Y-45826D03*
X53464Y-44826D03*
G54D29*
X60078Y-43307D03*
X57244Y-50708D03*
X63700Y-52598D03*
X58818Y-47401D03*
X62992Y-42935D03*
X67952Y-41968D03*
X70551Y-52677D03*
X68188Y-53543D03*
X71584Y-42057D03*
X71584Y-43041D03*
X68533Y-48946D03*
X68533Y-46584D03*
X72076Y-44025D03*
X72175Y-49537D03*
X72076Y-44812D03*
X72076Y-45600D03*
X72076Y-46387D03*
X72076Y-47175D03*
X72076Y-47962D03*
X72076Y-48750D03*
X72076Y-50324D03*
X72076Y-51112D03*
X72076Y-51899D03*
X72076Y-52687D03*
X72076Y-53474D03*
X60551Y-41889D03*
X60551Y-41023D03*
X62283Y-50551D03*
X59153Y-46062D03*
X61732Y-50551D03*
X59133Y-46614D03*
X61181Y-50551D03*
X59133Y-45590D03*
X59330Y-50472D03*
X60314Y-50866D03*
X59133Y-45118D03*
X73750Y-41564D03*
G54D30*
X55964Y-41818D02*
X55110Y-41818D01*
X52913Y-45275D02*
X53464Y-45826D01*
X52913Y-44015D02*
X52913Y-45275D01*
X55110Y-41818D02*
X52913Y-44015D01*
G54D31*
X60675Y-43608D02*
X60379Y-43608D01*
X59842Y-43307D02*
X60078Y-43307D01*
X59375Y-42839D02*
X59842Y-43307D01*
X59375Y-42647D02*
X59375Y-42839D01*
X60379Y-43608D02*
X60078Y-43307D01*
G54D30*
X59803Y-49815D02*
X59803Y-50511D01*
X59479Y-50835D02*
X58001Y-50835D01*
X59803Y-50511D02*
X59479Y-50835D01*
G54D31*
X58001Y-50835D02*
X57371Y-50835D01*
X57371Y-50835D02*
X57244Y-50708D01*
X64421Y-52596D02*
X63702Y-52596D01*
X63702Y-52596D02*
X63700Y-52598D01*
X59379Y-47882D02*
X59300Y-47882D01*
X59300Y-47882D02*
X58818Y-47401D01*
X62992Y-42935D02*
X62723Y-42935D01*
X62723Y-42935D02*
X62632Y-42844D01*
X63675Y-42935D02*
X62992Y-42935D01*
X67929Y-41527D02*
X67929Y-41944D01*
X67929Y-41944D02*
X67952Y-41968D01*
X69892Y-52687D02*
X70541Y-52687D01*
X70541Y-52687D02*
X70551Y-52677D01*
X67921Y-52596D02*
X67921Y-53275D01*
X67921Y-53275D02*
X68188Y-53543D01*
X72292Y-42057D02*
X71584Y-42057D01*
X72292Y-43041D02*
X71584Y-43041D01*
G54D32*
X69339Y-40679D02*
X69339Y-42333D01*
X69339Y-42333D02*
X69320Y-42352D01*
X69414Y-39793D02*
X69414Y-40604D01*
X69414Y-40604D02*
X69339Y-40679D01*
X67941Y-49242D02*
X68434Y-49242D01*
X68533Y-49143D02*
X68533Y-48946D01*
X68434Y-49242D02*
X68533Y-49143D01*
X67941Y-48651D02*
X68435Y-48651D01*
X68533Y-48946D02*
X68533Y-48946D01*
X68533Y-48750D02*
X68533Y-48946D01*
X68435Y-48651D02*
X68533Y-48750D01*
X67941Y-48848D02*
X68435Y-48848D01*
X68434Y-49045D02*
X68533Y-48946D01*
X68434Y-49045D02*
X67941Y-49045D01*
X68435Y-48848D02*
X68533Y-48946D01*
X67941Y-46682D02*
X68435Y-46682D01*
X68435Y-46486D02*
X68533Y-46584D01*
X68435Y-46486D02*
X67941Y-46486D01*
X68435Y-46682D02*
X68533Y-46584D01*
G54D31*
X72564Y-44025D02*
X72076Y-44025D01*
X72564Y-49537D02*
X72175Y-49537D01*
X72564Y-44812D02*
X72076Y-44812D01*
X72564Y-45600D02*
X72076Y-45600D01*
X72564Y-46387D02*
X72076Y-46387D01*
X72564Y-47175D02*
X72076Y-47175D01*
X72564Y-47962D02*
X72076Y-47962D01*
X72564Y-48750D02*
X72076Y-48750D01*
X72564Y-50324D02*
X72076Y-50324D01*
X72564Y-51112D02*
X72076Y-51112D01*
X72564Y-51899D02*
X72076Y-51899D01*
X72564Y-52687D02*
X72076Y-52687D01*
X72564Y-53474D02*
X72076Y-53474D01*
G54D32*
X69020Y-53572D02*
X69020Y-53469D01*
X68230Y-51596D02*
X67921Y-51596D01*
X68631Y-51998D02*
X68230Y-51596D01*
X68631Y-53080D02*
X68631Y-51998D01*
X69020Y-53469D02*
X68631Y-53080D01*
X67941Y-50029D02*
X67941Y-51575D01*
X67941Y-51575D02*
X67921Y-51596D01*
X73361Y-49340D02*
X73061Y-49340D01*
X71092Y-48257D02*
X70699Y-48257D01*
X71999Y-49164D02*
X71092Y-48257D01*
X72885Y-49164D02*
X71999Y-49164D01*
X73061Y-49340D02*
X72885Y-49164D01*
X74138Y-49340D02*
X73361Y-49340D01*
X73361Y-49340D02*
X73164Y-49537D01*
X73361Y-52490D02*
X73061Y-52490D01*
X71091Y-49831D02*
X70699Y-49831D01*
X71190Y-49931D02*
X71091Y-49831D01*
X71190Y-50127D02*
X71190Y-49931D01*
X71190Y-50324D02*
X71190Y-50127D01*
X71190Y-52096D02*
X71190Y-50324D01*
X71387Y-52293D02*
X71190Y-52096D01*
X72864Y-52293D02*
X71387Y-52293D01*
X73061Y-52490D02*
X72864Y-52293D01*
X74138Y-52490D02*
X73361Y-52490D01*
X73361Y-52490D02*
X73164Y-52687D01*
X73358Y-51702D02*
X73061Y-51702D01*
X71190Y-49438D02*
X70699Y-49438D01*
X71289Y-49537D02*
X71190Y-49438D01*
X71289Y-49734D02*
X71289Y-49537D01*
X71387Y-49832D02*
X71289Y-49734D01*
X71387Y-51505D02*
X71387Y-49832D01*
X72864Y-51505D02*
X71387Y-51505D01*
X73061Y-51702D02*
X72864Y-51505D01*
X74138Y-51702D02*
X73358Y-51702D01*
X73358Y-51702D02*
X73361Y-51702D01*
X73361Y-51702D02*
X73164Y-51899D01*
X73358Y-44616D02*
X73061Y-44616D01*
X71192Y-45894D02*
X70699Y-45894D01*
X71387Y-45698D02*
X71192Y-45894D01*
X71387Y-44911D02*
X71387Y-45698D01*
X71879Y-44419D02*
X71387Y-44911D01*
X72864Y-44419D02*
X71879Y-44419D01*
X73061Y-44616D02*
X72864Y-44419D01*
X74138Y-44616D02*
X73358Y-44616D01*
X73358Y-44616D02*
X73361Y-44616D01*
X73361Y-44616D02*
X73164Y-44812D01*
X70501Y-45501D02*
X71092Y-44911D01*
X71683Y-44320D02*
X71092Y-44911D01*
X72962Y-43828D02*
X72765Y-43631D01*
X72765Y-43631D02*
X71879Y-43631D01*
X71879Y-43631D02*
X71683Y-43828D01*
X71683Y-43828D02*
X71683Y-44320D01*
X73361Y-43828D02*
X72962Y-43828D01*
X69911Y-46092D02*
X67941Y-46092D01*
X70501Y-45501D02*
X69911Y-46092D01*
X74138Y-43828D02*
X73361Y-43828D01*
X73361Y-43828D02*
X73164Y-44025D01*
X73356Y-50915D02*
X73061Y-50915D01*
X71091Y-49044D02*
X70699Y-49044D01*
X71486Y-49438D02*
X71091Y-49044D01*
X71486Y-49635D02*
X71486Y-49438D01*
X71584Y-49734D02*
X71486Y-49635D01*
X71584Y-50620D02*
X71584Y-49734D01*
X71683Y-50718D02*
X71584Y-50620D01*
X72864Y-50718D02*
X71683Y-50718D01*
X73061Y-50915D02*
X72864Y-50718D01*
X74138Y-50915D02*
X73356Y-50915D01*
X73164Y-51107D02*
X73164Y-51112D01*
X73356Y-50915D02*
X73164Y-51107D01*
X73361Y-50127D02*
X73061Y-50127D01*
X71091Y-48650D02*
X70699Y-48650D01*
X71781Y-49340D02*
X71091Y-48650D01*
X71781Y-49734D02*
X71781Y-49340D01*
X71978Y-49931D02*
X71781Y-49734D01*
X72864Y-49931D02*
X71978Y-49931D01*
X73061Y-50127D02*
X72864Y-49931D01*
X74138Y-50127D02*
X73361Y-50127D01*
X73361Y-50127D02*
X73164Y-50324D01*
X73361Y-46978D02*
X73061Y-46978D01*
X71486Y-47076D02*
X70699Y-47076D01*
X71781Y-46781D02*
X71486Y-47076D01*
X72864Y-46781D02*
X71781Y-46781D01*
X73061Y-46978D02*
X72864Y-46781D01*
X74138Y-46978D02*
X73361Y-46978D01*
X73361Y-46978D02*
X73164Y-47175D01*
X76104Y-46937D02*
X75857Y-46937D01*
X75029Y-47765D02*
X74738Y-47765D01*
X75857Y-46937D02*
X75029Y-47765D01*
X70698Y-50127D02*
X70698Y-50029D01*
G54D31*
X73164Y-54060D02*
X72962Y-54261D01*
X72962Y-54261D02*
X71781Y-54261D01*
X71781Y-54261D02*
X71170Y-53650D01*
X71170Y-53650D02*
X71170Y-52412D01*
X71170Y-52412D02*
X70953Y-52194D01*
X70953Y-52194D02*
X70953Y-50382D01*
X70953Y-50382D02*
X70698Y-50127D01*
X73164Y-53474D02*
X73164Y-54060D01*
G54D32*
X70698Y-50029D02*
X70699Y-50028D01*
G54D31*
X74138Y-53277D02*
X73848Y-53277D01*
X73651Y-53474D02*
X73164Y-53474D01*
X73848Y-53277D02*
X73651Y-53474D01*
G54D32*
X73361Y-46190D02*
X73061Y-46190D01*
X71289Y-46682D02*
X70699Y-46682D01*
X71486Y-46486D02*
X71289Y-46682D01*
X71486Y-46387D02*
X71486Y-46486D01*
X71879Y-45994D02*
X71486Y-46387D01*
X72864Y-45994D02*
X71879Y-45994D01*
X73061Y-46190D02*
X72864Y-45994D01*
X74138Y-46190D02*
X73361Y-46190D01*
X73361Y-46190D02*
X73164Y-46387D01*
X77104Y-47467D02*
X75721Y-47467D01*
X75029Y-48553D02*
X74738Y-48553D01*
X75226Y-48356D02*
X75029Y-48553D01*
X75226Y-47962D02*
X75226Y-48356D01*
X75721Y-47467D02*
X75226Y-47962D01*
X73361Y-48553D02*
X73061Y-48553D01*
X71288Y-47863D02*
X70699Y-47863D01*
X71781Y-48356D02*
X71288Y-47863D01*
X72864Y-48356D02*
X71781Y-48356D01*
X73061Y-48553D02*
X72864Y-48356D01*
X74138Y-48553D02*
X73361Y-48553D01*
X73361Y-48553D02*
X73164Y-48750D01*
X77104Y-44207D02*
X75634Y-44207D01*
X75255Y-43828D02*
X74738Y-43828D01*
X75634Y-44207D02*
X75255Y-43828D01*
X76104Y-44737D02*
X75348Y-44737D01*
X75226Y-44616D02*
X74738Y-44616D01*
X75348Y-44737D02*
X75226Y-44616D01*
X77104Y-45307D02*
X75322Y-45307D01*
X75226Y-45403D02*
X74738Y-45403D01*
X75322Y-45307D02*
X75226Y-45403D01*
X76104Y-45837D02*
X75579Y-45837D01*
X75226Y-46190D02*
X74738Y-46190D01*
X75579Y-45837D02*
X75226Y-46190D01*
X55935Y-51315D02*
X55935Y-51210D01*
X57233Y-49025D02*
X58001Y-49025D01*
X56181Y-50078D02*
X57233Y-49025D01*
X55688Y-50078D02*
X56181Y-50078D01*
X55492Y-50275D02*
X55688Y-50078D01*
X55492Y-50767D02*
X55492Y-50275D01*
X55935Y-51210D02*
X55492Y-50767D01*
X76104Y-49087D02*
X75675Y-49087D01*
X75405Y-50249D02*
X74738Y-50915D01*
X75405Y-49358D02*
X75405Y-50249D01*
X75675Y-49087D02*
X75405Y-49358D01*
X77104Y-48567D02*
X75802Y-48567D01*
X74832Y-50127D02*
X74738Y-50127D01*
X75226Y-49734D02*
X74832Y-50127D01*
X75226Y-49143D02*
X75226Y-49734D01*
X75802Y-48567D02*
X75226Y-49143D01*
X73361Y-47765D02*
X73061Y-47765D01*
X71583Y-47469D02*
X70699Y-47469D01*
X71683Y-47568D02*
X71583Y-47469D01*
X72864Y-47568D02*
X71683Y-47568D01*
X73061Y-47765D02*
X72864Y-47568D01*
X74138Y-47765D02*
X73361Y-47765D01*
X73361Y-47765D02*
X73164Y-47962D01*
X76104Y-48037D02*
X76041Y-48037D01*
X76041Y-48037D02*
X74738Y-49340D01*
X54650Y-46584D02*
X53706Y-46584D01*
X53706Y-46584D02*
X53464Y-46826D01*
X53464Y-44826D02*
X54074Y-44826D01*
X54074Y-44826D02*
X54650Y-45403D01*
X77104Y-49647D02*
X75706Y-49647D01*
X75029Y-51702D02*
X74738Y-51702D01*
X75226Y-51505D02*
X75029Y-51702D01*
X75226Y-50718D02*
X75226Y-51505D01*
X75620Y-50324D02*
X75226Y-50718D01*
X75620Y-49734D02*
X75620Y-50324D01*
X75706Y-49647D02*
X75620Y-49734D01*
X55935Y-50515D02*
X56519Y-50515D01*
X60303Y-50287D02*
X60303Y-49815D01*
X59527Y-51062D02*
X60303Y-50287D01*
X58838Y-51062D02*
X59527Y-51062D01*
X58740Y-51161D02*
X58838Y-51062D01*
X57165Y-51161D02*
X58740Y-51161D01*
X56519Y-50515D02*
X57165Y-51161D01*
X60521Y-41860D02*
X59975Y-41860D01*
X60551Y-41889D02*
X60521Y-41860D01*
X59448Y-43307D02*
X60236Y-44094D01*
X60661Y-44094D02*
X60675Y-44108D01*
X60236Y-44094D02*
X60661Y-44094D01*
X59375Y-41860D02*
X59084Y-41860D01*
X59055Y-42913D02*
X59448Y-43307D01*
X59055Y-41889D02*
X59055Y-42913D01*
X59084Y-41860D02*
X59055Y-41889D01*
X59375Y-41072D02*
X59005Y-41072D01*
X60497Y-44608D02*
X60675Y-44608D01*
X58876Y-42987D02*
X60497Y-44608D01*
X58876Y-41202D02*
X58876Y-42987D01*
X59005Y-41072D02*
X58876Y-41202D01*
X60551Y-41072D02*
X60551Y-41023D01*
X60314Y-41072D02*
X59975Y-41072D01*
X60314Y-41072D02*
X60551Y-41072D01*
X58001Y-52508D02*
X58376Y-52508D01*
X58920Y-51965D02*
X59303Y-51965D01*
X58376Y-52508D02*
X58920Y-51965D01*
X77104Y-46387D02*
X75620Y-46387D01*
X75029Y-46978D02*
X74738Y-46978D01*
X75620Y-46387D02*
X75029Y-46978D01*
X58575Y-46108D02*
X59009Y-46108D01*
X62303Y-50531D02*
X62283Y-50551D01*
X62303Y-50531D02*
X62303Y-49815D01*
X59009Y-46108D02*
X59153Y-46062D01*
X58575Y-46608D02*
X59127Y-46608D01*
X61803Y-50480D02*
X61803Y-49815D01*
X61732Y-50551D02*
X61803Y-50480D01*
X59127Y-46608D02*
X59133Y-46614D01*
X61303Y-49815D02*
X61303Y-50429D01*
X61303Y-50429D02*
X61181Y-50551D01*
X59116Y-45608D02*
X58575Y-45608D01*
X59133Y-45590D02*
X59116Y-45608D01*
X62032Y-40482D02*
X61722Y-40482D01*
X60927Y-45608D02*
X60675Y-45608D01*
X61181Y-45354D02*
X60927Y-45608D01*
X61181Y-41023D02*
X61181Y-45354D01*
X61722Y-40482D02*
X61181Y-41023D01*
X62303Y-51965D02*
X62303Y-51673D01*
X58228Y-50078D02*
X58001Y-49851D01*
X58444Y-50078D02*
X58228Y-50078D01*
X58838Y-50472D02*
X58444Y-50078D01*
X59330Y-50472D02*
X58838Y-50472D01*
X60610Y-51161D02*
X60314Y-50866D01*
X61791Y-51161D02*
X60610Y-51161D01*
X62303Y-51673D02*
X61791Y-51161D01*
X53543Y-48503D02*
X52834Y-47795D01*
X52677Y-43937D02*
X55275Y-41338D01*
X52677Y-45354D02*
X52677Y-43937D01*
X52834Y-45511D02*
X52677Y-45354D01*
X52834Y-47795D02*
X52834Y-45511D01*
X55275Y-41338D02*
X56231Y-41338D01*
X60803Y-49815D02*
X60803Y-50724D01*
X60803Y-50724D02*
X61023Y-50944D01*
X61023Y-50944D02*
X62598Y-50944D01*
X62598Y-50944D02*
X63070Y-51417D01*
X63070Y-51417D02*
X63070Y-52598D01*
X63070Y-52598D02*
X61732Y-53937D01*
X61732Y-53937D02*
X56377Y-53937D01*
X56377Y-53937D02*
X54881Y-52440D01*
X54881Y-52440D02*
X54881Y-49842D01*
X54881Y-49842D02*
X53543Y-48503D01*
X56231Y-41338D02*
X56751Y-40818D01*
X60050Y-53179D02*
X60050Y-52766D01*
X59803Y-52519D02*
X59803Y-51965D01*
X60050Y-52766D02*
X59803Y-52519D01*
X60265Y-47957D02*
X60265Y-47273D01*
X60482Y-45108D02*
X60675Y-45108D01*
X60078Y-45511D02*
X60482Y-45108D01*
X60078Y-47086D02*
X60078Y-45511D01*
X60265Y-47273D02*
X60078Y-47086D01*
X58001Y-53258D02*
X57884Y-53258D01*
X60303Y-51641D02*
X60303Y-51965D01*
X60118Y-51456D02*
X60303Y-51641D01*
X59035Y-51456D02*
X60118Y-51456D01*
X58444Y-52047D02*
X59035Y-51456D01*
X57657Y-52047D02*
X58444Y-52047D01*
X57559Y-52145D02*
X57657Y-52047D01*
X57559Y-52933D02*
X57559Y-52145D01*
X57884Y-53258D02*
X57559Y-52933D01*
X58575Y-44608D02*
X57753Y-44608D01*
X56958Y-45403D02*
X55250Y-45403D01*
X57753Y-44608D02*
X56958Y-45403D01*
X58575Y-44108D02*
X57938Y-44108D01*
X55250Y-46116D02*
X55250Y-46584D01*
X54960Y-45826D02*
X55250Y-46116D01*
X54960Y-45039D02*
X54960Y-45826D01*
X55118Y-44881D02*
X54960Y-45039D01*
X57165Y-44881D02*
X55118Y-44881D01*
X57938Y-44108D02*
X57165Y-44881D01*
X59291Y-44094D02*
X59291Y-43700D01*
X58769Y-40285D02*
X59375Y-40285D01*
X58661Y-40393D02*
X58769Y-40285D01*
X58661Y-43070D02*
X58661Y-40393D01*
X59291Y-43700D02*
X58661Y-43070D01*
X59291Y-44724D02*
X59291Y-44960D01*
X59291Y-44960D02*
X59133Y-45118D01*
X59291Y-44724D02*
X59291Y-44094D01*
X59133Y-45118D02*
X58585Y-45118D01*
X58585Y-45118D02*
X58575Y-45108D01*
X58575Y-45108D02*
X59124Y-45108D01*
X59124Y-45108D02*
X59133Y-45118D01*
X59133Y-45118D02*
X59124Y-45108D01*
X70014Y-43730D02*
X70014Y-41668D01*
X66860Y-49832D02*
X67941Y-49832D01*
X66171Y-49143D02*
X66860Y-49832D01*
X66171Y-45206D02*
X66171Y-49143D01*
X66958Y-44419D02*
X66171Y-45206D01*
X66958Y-40088D02*
X66958Y-44419D01*
X67844Y-39202D02*
X66958Y-40088D01*
X70305Y-39202D02*
X67844Y-39202D01*
X70403Y-39301D02*
X70305Y-39202D01*
X70403Y-40187D02*
X70403Y-39301D01*
X69812Y-40187D02*
X70403Y-40187D01*
X69714Y-40285D02*
X69812Y-40187D01*
X69714Y-41368D02*
X69714Y-40285D01*
X70014Y-41668D02*
X69714Y-41368D01*
X68927Y-43935D02*
X69033Y-43935D01*
X69414Y-44316D02*
X69414Y-44517D01*
X69033Y-43935D02*
X69414Y-44316D01*
X67925Y-43935D02*
X68927Y-43935D01*
X68927Y-43935D02*
X68935Y-43935D01*
X69414Y-43730D02*
X69320Y-43730D01*
X68525Y-42935D02*
X67925Y-42935D01*
X69320Y-43730D02*
X68525Y-42935D01*
X66564Y-45403D02*
X66564Y-48946D01*
X68480Y-40527D02*
X68533Y-40580D01*
X68533Y-40580D02*
X68533Y-42253D01*
X68533Y-42253D02*
X68435Y-42352D01*
X68435Y-42352D02*
X67647Y-42352D01*
X67647Y-42352D02*
X67352Y-42647D01*
X67352Y-42647D02*
X67352Y-44616D01*
X67352Y-44616D02*
X66564Y-45403D01*
X67929Y-40527D02*
X68480Y-40527D01*
X67056Y-49438D02*
X67941Y-49438D01*
X66564Y-48946D02*
X67056Y-49438D01*
X67941Y-49635D02*
X66958Y-49635D01*
X67496Y-41027D02*
X67929Y-41027D01*
X67155Y-41368D02*
X67496Y-41027D01*
X67155Y-44517D02*
X67155Y-41368D01*
X66368Y-45305D02*
X67155Y-44517D01*
X66368Y-49045D02*
X66368Y-45305D01*
X66958Y-49635D02*
X66368Y-49045D01*
X60675Y-46108D02*
X60448Y-46108D01*
X61529Y-46659D02*
X61529Y-46108D01*
X61181Y-47007D02*
X61529Y-46659D01*
X60393Y-47007D02*
X61181Y-47007D01*
X60257Y-46871D02*
X60393Y-47007D01*
X60257Y-46299D02*
X60257Y-46871D01*
X60448Y-46108D02*
X60257Y-46299D01*
X63675Y-43435D02*
X63257Y-43435D01*
X61811Y-45826D02*
X61529Y-46108D01*
X62598Y-45826D02*
X61811Y-45826D01*
X62834Y-45590D02*
X62598Y-45826D01*
X62834Y-43858D02*
X62834Y-45590D01*
X63257Y-43435D02*
X62834Y-43858D01*
X62632Y-39694D02*
X63346Y-39694D01*
X63346Y-39694D02*
X63679Y-40027D01*
X60973Y-53179D02*
X60973Y-52705D01*
X60803Y-52535D02*
X60803Y-51965D01*
X60973Y-52705D02*
X60803Y-52535D01*
X62632Y-42057D02*
X62667Y-42057D01*
X63196Y-41527D02*
X63679Y-41527D01*
X62667Y-42057D02*
X63196Y-41527D01*
X62632Y-41269D02*
X62824Y-41269D01*
X63066Y-41027D02*
X63679Y-41027D01*
X62824Y-41269D02*
X63066Y-41027D01*
X60675Y-46608D02*
X60950Y-46608D01*
X61722Y-41269D02*
X62032Y-41269D01*
X61496Y-41496D02*
X61722Y-41269D01*
X61496Y-45590D02*
X61496Y-41496D01*
X61259Y-45826D02*
X61496Y-45590D01*
X61259Y-46299D02*
X61259Y-45826D01*
X60950Y-46608D02*
X61259Y-46299D01*
X62632Y-40482D02*
X63633Y-40482D01*
X63633Y-40482D02*
X63679Y-40527D01*
G54D30*
X64421Y-51596D02*
X63643Y-51596D01*
X63149Y-51102D02*
X63149Y-49370D01*
X63643Y-51596D02*
X63149Y-51102D01*
G54D32*
X61156Y-48557D02*
X60265Y-48557D01*
X61496Y-48897D02*
X61156Y-48557D01*
X62677Y-48897D02*
X61496Y-48897D01*
X63149Y-49370D02*
X62677Y-48897D01*
X74561Y-39202D02*
X74561Y-39915D01*
X77104Y-42360D02*
X77104Y-43207D01*
X75226Y-40482D02*
X77104Y-42360D01*
X75127Y-40482D02*
X75226Y-40482D01*
X74561Y-39915D02*
X75127Y-40482D01*
X73042Y-43041D02*
X72962Y-43041D01*
X67451Y-46879D02*
X67353Y-46781D01*
X67353Y-46781D02*
X67353Y-45896D01*
X67353Y-45896D02*
X67352Y-45895D01*
X67352Y-45895D02*
X67352Y-45797D01*
X67352Y-45797D02*
X67450Y-45698D01*
X67450Y-45698D02*
X70009Y-45698D01*
X67451Y-46879D02*
X67941Y-46879D01*
X71190Y-44517D02*
X70009Y-45698D01*
X71190Y-42844D02*
X71190Y-44517D01*
X71486Y-42549D02*
X71190Y-42844D01*
X72470Y-42549D02*
X71486Y-42549D01*
X72962Y-43041D02*
X72470Y-42549D01*
X74738Y-43041D02*
X74734Y-43041D01*
X73257Y-43041D02*
X73042Y-43041D01*
X73651Y-43435D02*
X73257Y-43041D01*
X74340Y-43435D02*
X73651Y-43435D01*
X74734Y-43041D02*
X74340Y-43435D01*
X77104Y-43207D02*
X75589Y-43207D01*
X75423Y-43041D02*
X74738Y-43041D01*
X75589Y-43207D02*
X75423Y-43041D01*
X74138Y-42253D02*
X74138Y-41953D01*
X74138Y-41953D02*
X73750Y-41564D01*
X70089Y-40679D02*
X70305Y-40679D01*
X70305Y-40679D02*
X71561Y-39423D01*
X71561Y-39423D02*
X71561Y-39202D01*
X69714Y-45305D02*
X69812Y-45305D01*
X67253Y-47273D02*
X66958Y-46978D01*
X66958Y-46978D02*
X66958Y-45600D01*
X66958Y-45600D02*
X67253Y-45305D01*
X67253Y-45305D02*
X69714Y-45305D01*
X67941Y-47273D02*
X67253Y-47273D01*
X70797Y-41171D02*
X70305Y-40679D01*
X70797Y-44320D02*
X70797Y-41171D01*
X69812Y-45305D02*
X70797Y-44320D01*
X74138Y-43041D02*
X74138Y-42549D01*
X74138Y-42549D02*
X74138Y-42253D01*
X61723Y-53179D02*
X61723Y-53062D01*
X61303Y-52641D02*
X61303Y-51965D01*
X61723Y-53062D02*
X61303Y-52641D01*
X58001Y-51585D02*
X58611Y-51585D01*
X61803Y-51665D02*
X61803Y-51965D01*
X61594Y-51456D02*
X61803Y-51665D01*
X60511Y-51456D02*
X61594Y-51456D01*
X60314Y-51259D02*
X60511Y-51456D01*
X58937Y-51259D02*
X60314Y-51259D01*
X58611Y-51585D02*
X58937Y-51259D01*
X73356Y-45403D02*
X73061Y-45403D01*
X71290Y-46288D02*
X70699Y-46288D01*
X71584Y-45994D02*
X71290Y-46288D01*
X71584Y-45501D02*
X71584Y-45994D01*
X71879Y-45206D02*
X71584Y-45501D01*
X72864Y-45206D02*
X71879Y-45206D01*
X73061Y-45403D02*
X72864Y-45206D01*
X74138Y-45403D02*
X73356Y-45403D01*
X73356Y-45403D02*
X73361Y-45403D01*
X73361Y-45403D02*
X73164Y-45600D01*
X74143Y-41368D02*
X74045Y-41368D01*
X73042Y-41189D02*
X73042Y-42057D01*
X73257Y-40974D02*
X73042Y-41189D01*
X73651Y-40974D02*
X73257Y-40974D01*
X74045Y-41368D02*
X73651Y-40974D01*
X71561Y-40679D02*
X71561Y-41490D01*
X71190Y-41860D02*
X71190Y-42549D01*
X71561Y-41490D02*
X71190Y-41860D01*
X71561Y-40679D02*
X73750Y-40679D01*
X76104Y-41852D02*
X76104Y-42587D01*
X75423Y-41171D02*
X76104Y-41852D01*
X74242Y-41171D02*
X75423Y-41171D01*
X73750Y-40679D02*
X74242Y-41171D01*
X69714Y-45520D02*
X69893Y-45520D01*
X69893Y-45520D02*
X70994Y-44419D01*
X70994Y-44419D02*
X70994Y-42746D01*
X70994Y-42746D02*
X71190Y-42549D01*
X67941Y-47076D02*
X67352Y-47076D01*
X67334Y-45520D02*
X69714Y-45520D01*
X67155Y-45698D02*
X67334Y-45520D01*
X67155Y-46879D02*
X67155Y-45698D01*
X67352Y-47076D02*
X67155Y-46879D01*
X74143Y-41368D02*
X74537Y-41368D01*
X74738Y-41569D02*
X74738Y-42253D01*
X74537Y-41368D02*
X74738Y-41569D01*
X76104Y-42587D02*
X75560Y-42587D01*
X75226Y-42253D02*
X74738Y-42253D01*
X75560Y-42587D02*
X75226Y-42253D01*
G54D30*
X63675Y-43935D02*
X63230Y-43935D01*
X62834Y-45905D02*
X62834Y-46795D01*
X63070Y-45669D02*
X62834Y-45905D01*
X63070Y-44094D02*
X63070Y-45669D01*
X63230Y-43935D02*
X63070Y-44094D01*
G54D32*
X62032Y-39694D02*
X62273Y-39694D01*
X62194Y-42057D02*
X62032Y-42057D01*
X62362Y-41889D02*
X62194Y-42057D01*
X62362Y-39783D02*
X62362Y-41889D01*
X62273Y-39694D02*
X62362Y-39783D01*
X59975Y-42647D02*
X59891Y-42647D01*
X59685Y-40575D02*
X59975Y-40285D01*
X59685Y-42440D02*
X59685Y-40575D01*
X59891Y-42647D02*
X59685Y-42440D01*
X56751Y-41818D02*
X56842Y-41818D01*
X59975Y-40053D02*
X59975Y-40285D01*
X59763Y-39842D02*
X59975Y-40053D01*
X58818Y-39842D02*
X59763Y-39842D01*
X56842Y-41818D02*
X58818Y-39842D01*
X56751Y-41818D02*
X57330Y-41818D01*
X58346Y-43379D02*
X58575Y-43608D01*
X58346Y-42834D02*
X58346Y-43379D01*
X57330Y-41818D02*
X58346Y-42834D01*
X62834Y-46795D02*
X62332Y-47297D01*
X59379Y-48632D02*
X59477Y-48632D01*
X61362Y-48267D02*
X62332Y-47297D01*
X59842Y-48267D02*
X61362Y-48267D01*
X59477Y-48632D02*
X59842Y-48267D01*
X55935Y-49515D02*
X56350Y-49515D01*
X58770Y-48632D02*
X59379Y-48632D01*
X58740Y-48602D02*
X58770Y-48632D01*
X57263Y-48602D02*
X58740Y-48602D01*
X56350Y-49515D02*
X57263Y-48602D01*
X59303Y-49815D02*
X59303Y-48709D01*
X59303Y-48709D02*
X59379Y-48632D01*
X57263Y-53720D02*
X56476Y-53720D01*
X55098Y-50351D02*
X55935Y-49515D01*
X55098Y-52342D02*
X55098Y-50351D01*
X56476Y-53720D02*
X55098Y-52342D01*
X59300Y-53179D02*
X59281Y-53179D01*
X58740Y-53720D02*
X57263Y-53720D01*
X59281Y-53179D02*
X58740Y-53720D01*
X62032Y-39694D02*
X61250Y-39694D01*
X61250Y-39694D02*
X60659Y-40285D01*
X60659Y-40285D02*
X59975Y-40285D01*
X62032Y-42057D02*
X62032Y-42844D01*
X68730Y-41564D02*
X68730Y-42844D01*
X69517Y-43139D02*
X69714Y-43336D01*
X69025Y-43139D02*
X69517Y-43139D01*
X68730Y-42844D02*
X69025Y-43139D01*
X70014Y-44517D02*
X70014Y-44424D01*
X68374Y-40027D02*
X67929Y-40027D01*
X68730Y-40383D02*
X68374Y-40027D01*
X68730Y-41564D02*
X68730Y-40383D01*
X69714Y-44124D02*
X69714Y-43336D01*
X70014Y-44424D02*
X69714Y-44124D01*
X69142Y-52687D02*
X69142Y-52115D01*
X68435Y-47667D02*
X67941Y-47667D01*
X68631Y-47864D02*
X68435Y-47667D01*
X68631Y-48356D02*
X68631Y-47864D01*
X68927Y-48651D02*
X68631Y-48356D01*
X68927Y-49242D02*
X68927Y-48651D01*
X68631Y-49537D02*
X68927Y-49242D01*
X68631Y-51604D02*
X68631Y-49537D01*
X69142Y-52115D02*
X68631Y-51604D01*
X69620Y-53572D02*
X69620Y-53380D01*
X69142Y-52902D02*
X69142Y-52687D01*
X69620Y-53380D02*
X69142Y-52902D01*
X70014Y-39793D02*
X70014Y-39502D01*
X70014Y-39502D02*
X69911Y-39399D01*
X69911Y-39399D02*
X68557Y-39399D01*
X68557Y-39399D02*
X67929Y-40027D01*
X67352Y-47667D02*
X67549Y-47864D01*
X67941Y-47864D02*
X67941Y-47864D01*
X67549Y-47864D02*
X67941Y-47864D01*
X67155Y-47470D02*
X67352Y-47667D01*
X67941Y-47667D02*
X67941Y-47667D01*
X67352Y-47667D02*
X67941Y-47667D01*
X67941Y-47470D02*
X67155Y-47470D01*
X70014Y-44808D02*
X70014Y-44517D01*
X69714Y-45108D02*
X70014Y-44808D01*
X67155Y-45108D02*
X69714Y-45108D01*
X66761Y-45501D02*
X67155Y-45108D01*
X66761Y-47076D02*
X66761Y-45501D01*
X67155Y-47470D02*
X66761Y-47076D01*
G54D31*
X74738Y-52490D02*
X74832Y-52490D01*
X75620Y-50672D02*
X76104Y-50187D01*
X75620Y-51702D02*
X75620Y-50672D01*
X74832Y-52490D02*
X75620Y-51702D01*
X74738Y-53277D02*
X74738Y-52490D01*
M02*
