G04 (created by PCBNEW (2013-03-15 BZR 4003)-stable) date 17/04/2013 22:03:58*
%MOIN*%
G04 Gerber Fmt 3.4, Leading zero omitted, Abs format*
%FSLAX34Y34*%
G01*
G70*
G90*
G04 APERTURE LIST*
%ADD10C,0.006*%
%ADD11C,0.0137795*%
%ADD12C,0.00787402*%
%ADD13C,0.00590551*%
%ADD14C,0.005*%
%ADD15C,0.01*%
%ADD16C,0.0077*%
%ADD17C,0.015*%
%ADD18C,0.008*%
%ADD19C,0.0125*%
%ADD20C,0.012*%
%ADD21C,0.0059*%
%ADD22C,0.0045*%
%ADD23C,0.00433071*%
%ADD24C,0.06*%
%ADD25C,0.1063*%
%ADD26C,0.0591*%
%ADD27C,0.1181*%
%ADD28R,0.063X0.0138*%
%ADD29R,0.063X0.0354*%
%ADD30R,0.0752X0.0299*%
%ADD31R,0.023622X0.0610236*%
%ADD32R,0.045X0.02*%
%ADD33R,0.055X0.035*%
%ADD34R,0.035X0.055*%
%ADD35R,0.025X0.045*%
%ADD36R,0.045X0.025*%
%ADD37R,0.055X0.055*%
%ADD38C,0.055*%
%ADD39R,0.0472X0.0472*%
%ADD40C,0.15*%
%ADD41R,0.06X0.06*%
G04 APERTURE END LIST*
G54D10*
G54D11*
X71610Y-37917D02*
X71610Y-37129D01*
X71797Y-37129D01*
X71910Y-37167D01*
X71985Y-37242D01*
X72022Y-37317D01*
X72060Y-37467D01*
X72060Y-37579D01*
X72022Y-37729D01*
X71985Y-37804D01*
X71910Y-37879D01*
X71797Y-37917D01*
X71610Y-37917D01*
X72360Y-37692D02*
X72735Y-37692D01*
X72285Y-37917D02*
X72547Y-37129D01*
X72810Y-37917D01*
X73072Y-37917D02*
X73072Y-37129D01*
X73522Y-37917D01*
X73522Y-37129D01*
X74310Y-37167D02*
X74235Y-37129D01*
X74122Y-37129D01*
X74010Y-37167D01*
X73935Y-37242D01*
X73897Y-37317D01*
X73860Y-37467D01*
X73860Y-37579D01*
X73897Y-37729D01*
X73935Y-37804D01*
X74010Y-37879D01*
X74122Y-37917D01*
X74197Y-37917D01*
X74310Y-37879D01*
X74347Y-37842D01*
X74347Y-37579D01*
X74197Y-37579D01*
X74685Y-37504D02*
X74947Y-37504D01*
X75059Y-37917D02*
X74685Y-37917D01*
X74685Y-37129D01*
X75059Y-37129D01*
X75847Y-37917D02*
X75584Y-37542D01*
X75397Y-37917D02*
X75397Y-37129D01*
X75697Y-37129D01*
X75772Y-37167D01*
X75809Y-37204D01*
X75847Y-37279D01*
X75847Y-37392D01*
X75809Y-37467D01*
X75772Y-37504D01*
X75697Y-37542D01*
X75397Y-37542D01*
X76184Y-37842D02*
X76222Y-37879D01*
X76184Y-37917D01*
X76147Y-37879D01*
X76184Y-37842D01*
X76184Y-37917D01*
X76184Y-37617D02*
X76147Y-37167D01*
X76184Y-37129D01*
X76222Y-37167D01*
X76184Y-37617D01*
X76184Y-37129D01*
X69538Y-55554D02*
X69538Y-54767D01*
X69538Y-55142D02*
X69988Y-55142D01*
X69988Y-55554D02*
X69988Y-54767D01*
X70363Y-55554D02*
X70363Y-54767D01*
X71151Y-54805D02*
X71076Y-54767D01*
X70963Y-54767D01*
X70851Y-54805D01*
X70776Y-54880D01*
X70738Y-54955D01*
X70701Y-55104D01*
X70701Y-55217D01*
X70738Y-55367D01*
X70776Y-55442D01*
X70851Y-55517D01*
X70963Y-55554D01*
X71038Y-55554D01*
X71151Y-55517D01*
X71188Y-55479D01*
X71188Y-55217D01*
X71038Y-55217D01*
X71526Y-55554D02*
X71526Y-54767D01*
X71526Y-55142D02*
X71976Y-55142D01*
X71976Y-55554D02*
X71976Y-54767D01*
X72838Y-54767D02*
X73100Y-55554D01*
X73363Y-54767D01*
X73775Y-54767D02*
X73925Y-54767D01*
X74000Y-54805D01*
X74075Y-54880D01*
X74113Y-55029D01*
X74113Y-55292D01*
X74075Y-55442D01*
X74000Y-55517D01*
X73925Y-55554D01*
X73775Y-55554D01*
X73700Y-55517D01*
X73625Y-55442D01*
X73588Y-55292D01*
X73588Y-55029D01*
X73625Y-54880D01*
X73700Y-54805D01*
X73775Y-54767D01*
X74825Y-55554D02*
X74450Y-55554D01*
X74450Y-54767D01*
X74975Y-54767D02*
X75425Y-54767D01*
X75200Y-55554D02*
X75200Y-54767D01*
X75650Y-55329D02*
X76025Y-55329D01*
X75575Y-55554D02*
X75838Y-54767D01*
X76100Y-55554D01*
X76775Y-54805D02*
X76700Y-54767D01*
X76587Y-54767D01*
X76475Y-54805D01*
X76400Y-54880D01*
X76362Y-54955D01*
X76325Y-55104D01*
X76325Y-55217D01*
X76362Y-55367D01*
X76400Y-55442D01*
X76475Y-55517D01*
X76587Y-55554D01*
X76662Y-55554D01*
X76775Y-55517D01*
X76812Y-55479D01*
X76812Y-55217D01*
X76662Y-55217D01*
X77150Y-55142D02*
X77412Y-55142D01*
X77525Y-55554D02*
X77150Y-55554D01*
X77150Y-54767D01*
X77525Y-54767D01*
X77862Y-55479D02*
X77900Y-55517D01*
X77862Y-55554D01*
X77825Y-55517D01*
X77862Y-55479D01*
X77862Y-55554D01*
X77862Y-55254D02*
X77825Y-54805D01*
X77862Y-54767D01*
X77900Y-54805D01*
X77862Y-55254D01*
X77862Y-54767D01*
G54D12*
X65748Y-55905D02*
X65748Y-37007D01*
G54D13*
X55556Y-54983D02*
X55519Y-55001D01*
X55444Y-55001D01*
X55406Y-54983D01*
X55388Y-54945D01*
X55388Y-54795D01*
X55406Y-54758D01*
X55444Y-54739D01*
X55519Y-54739D01*
X55556Y-54758D01*
X55575Y-54795D01*
X55575Y-54833D01*
X55388Y-54870D01*
X55706Y-54739D02*
X55800Y-55001D01*
X55894Y-54739D01*
X56175Y-54795D02*
X56231Y-54814D01*
X56250Y-54833D01*
X56269Y-54870D01*
X56269Y-54926D01*
X56250Y-54964D01*
X56231Y-54983D01*
X56194Y-55001D01*
X56044Y-55001D01*
X56044Y-54608D01*
X56175Y-54608D01*
X56212Y-54626D01*
X56231Y-54645D01*
X56250Y-54683D01*
X56250Y-54720D01*
X56231Y-54758D01*
X56212Y-54776D01*
X56175Y-54795D01*
X56044Y-54795D01*
X56437Y-55001D02*
X56437Y-54608D01*
X56569Y-54889D01*
X56700Y-54608D01*
X56700Y-55001D01*
X56869Y-54983D02*
X56925Y-55001D01*
X57019Y-55001D01*
X57056Y-54983D01*
X57075Y-54964D01*
X57094Y-54926D01*
X57094Y-54889D01*
X57075Y-54851D01*
X57056Y-54833D01*
X57019Y-54814D01*
X56944Y-54795D01*
X56906Y-54776D01*
X56887Y-54758D01*
X56869Y-54720D01*
X56869Y-54683D01*
X56887Y-54645D01*
X56906Y-54626D01*
X56944Y-54608D01*
X57037Y-54608D01*
X57094Y-54626D01*
X57750Y-55001D02*
X57562Y-55001D01*
X57562Y-54608D01*
X57825Y-54608D02*
X58050Y-54608D01*
X57937Y-55001D02*
X57937Y-54608D01*
X58406Y-54964D02*
X58387Y-54983D01*
X58331Y-55001D01*
X58293Y-55001D01*
X58237Y-54983D01*
X58200Y-54945D01*
X58181Y-54908D01*
X58162Y-54833D01*
X58162Y-54776D01*
X58181Y-54701D01*
X58200Y-54664D01*
X58237Y-54626D01*
X58293Y-54608D01*
X58331Y-54608D01*
X58387Y-54626D01*
X58406Y-54645D01*
X58743Y-54608D02*
X58668Y-54608D01*
X58631Y-54626D01*
X58612Y-54645D01*
X58575Y-54701D01*
X58556Y-54776D01*
X58556Y-54926D01*
X58575Y-54964D01*
X58593Y-54983D01*
X58631Y-55001D01*
X58706Y-55001D01*
X58743Y-54983D01*
X58762Y-54964D01*
X58781Y-54926D01*
X58781Y-54833D01*
X58762Y-54795D01*
X58743Y-54776D01*
X58706Y-54758D01*
X58631Y-54758D01*
X58593Y-54776D01*
X58575Y-54795D01*
X58556Y-54833D01*
X59006Y-54776D02*
X58968Y-54758D01*
X58950Y-54739D01*
X58931Y-54701D01*
X58931Y-54683D01*
X58950Y-54645D01*
X58968Y-54626D01*
X59006Y-54608D01*
X59081Y-54608D01*
X59118Y-54626D01*
X59137Y-54645D01*
X59156Y-54683D01*
X59156Y-54701D01*
X59137Y-54739D01*
X59118Y-54758D01*
X59081Y-54776D01*
X59006Y-54776D01*
X58968Y-54795D01*
X58950Y-54814D01*
X58931Y-54851D01*
X58931Y-54926D01*
X58950Y-54964D01*
X58968Y-54983D01*
X59006Y-55001D01*
X59081Y-55001D01*
X59118Y-54983D01*
X59137Y-54964D01*
X59156Y-54926D01*
X59156Y-54851D01*
X59137Y-54814D01*
X59118Y-54795D01*
X59081Y-54776D01*
X59400Y-54608D02*
X59437Y-54608D01*
X59475Y-54626D01*
X59493Y-54645D01*
X59512Y-54683D01*
X59531Y-54758D01*
X59531Y-54851D01*
X59512Y-54926D01*
X59493Y-54964D01*
X59475Y-54983D01*
X59437Y-55001D01*
X59400Y-55001D01*
X59362Y-54983D01*
X59343Y-54964D01*
X59325Y-54926D01*
X59306Y-54851D01*
X59306Y-54758D01*
X59325Y-54683D01*
X59343Y-54645D01*
X59362Y-54626D01*
X59400Y-54608D01*
X59681Y-54645D02*
X59700Y-54626D01*
X59737Y-54608D01*
X59831Y-54608D01*
X59868Y-54626D01*
X59887Y-54645D01*
X59906Y-54683D01*
X59906Y-54720D01*
X59887Y-54776D01*
X59662Y-55001D01*
X59906Y-55001D01*
X60074Y-54851D02*
X60374Y-54851D01*
X60543Y-54645D02*
X60562Y-54626D01*
X60599Y-54608D01*
X60693Y-54608D01*
X60731Y-54626D01*
X60749Y-54645D01*
X60768Y-54683D01*
X60768Y-54720D01*
X60749Y-54776D01*
X60524Y-55001D01*
X60768Y-55001D01*
X61406Y-54983D02*
X61368Y-55001D01*
X61293Y-55001D01*
X61256Y-54983D01*
X61237Y-54964D01*
X61218Y-54926D01*
X61218Y-54814D01*
X61237Y-54776D01*
X61256Y-54758D01*
X61293Y-54739D01*
X61368Y-54739D01*
X61406Y-54758D01*
X61724Y-54983D02*
X61687Y-55001D01*
X61612Y-55001D01*
X61574Y-54983D01*
X61556Y-54945D01*
X61556Y-54795D01*
X61574Y-54758D01*
X61612Y-54739D01*
X61687Y-54739D01*
X61724Y-54758D01*
X61743Y-54795D01*
X61743Y-54833D01*
X61556Y-54870D01*
X61968Y-55001D02*
X61931Y-54983D01*
X61912Y-54945D01*
X61912Y-54608D01*
X62174Y-55001D02*
X62137Y-54983D01*
X62118Y-54945D01*
X62118Y-54608D01*
X62624Y-55001D02*
X62624Y-54739D01*
X62624Y-54776D02*
X62643Y-54758D01*
X62680Y-54739D01*
X62737Y-54739D01*
X62774Y-54758D01*
X62793Y-54795D01*
X62793Y-55001D01*
X62793Y-54795D02*
X62812Y-54758D01*
X62849Y-54739D01*
X62905Y-54739D01*
X62943Y-54758D01*
X62962Y-54795D01*
X62962Y-55001D01*
X63205Y-55001D02*
X63168Y-54983D01*
X63149Y-54964D01*
X63130Y-54926D01*
X63130Y-54814D01*
X63149Y-54776D01*
X63168Y-54758D01*
X63205Y-54739D01*
X63262Y-54739D01*
X63299Y-54758D01*
X63318Y-54776D01*
X63337Y-54814D01*
X63337Y-54926D01*
X63318Y-54964D01*
X63299Y-54983D01*
X63262Y-55001D01*
X63205Y-55001D01*
X63505Y-54739D02*
X63505Y-55001D01*
X63505Y-54776D02*
X63524Y-54758D01*
X63562Y-54739D01*
X63618Y-54739D01*
X63655Y-54758D01*
X63674Y-54795D01*
X63674Y-55001D01*
X63862Y-55001D02*
X63862Y-54739D01*
X63862Y-54608D02*
X63843Y-54626D01*
X63862Y-54645D01*
X63880Y-54626D01*
X63862Y-54608D01*
X63862Y-54645D01*
X63993Y-54739D02*
X64143Y-54739D01*
X64049Y-54608D02*
X64049Y-54945D01*
X64068Y-54983D01*
X64105Y-55001D01*
X64143Y-55001D01*
X64330Y-55001D02*
X64293Y-54983D01*
X64274Y-54964D01*
X64255Y-54926D01*
X64255Y-54814D01*
X64274Y-54776D01*
X64293Y-54758D01*
X64330Y-54739D01*
X64386Y-54739D01*
X64424Y-54758D01*
X64443Y-54776D01*
X64461Y-54814D01*
X64461Y-54926D01*
X64443Y-54964D01*
X64424Y-54983D01*
X64386Y-55001D01*
X64330Y-55001D01*
X64630Y-55001D02*
X64630Y-54739D01*
X64630Y-54814D02*
X64649Y-54776D01*
X64668Y-54758D01*
X64705Y-54739D01*
X64743Y-54739D01*
X55566Y-55762D02*
X55547Y-55743D01*
X55509Y-55687D01*
X55491Y-55649D01*
X55472Y-55593D01*
X55453Y-55499D01*
X55453Y-55424D01*
X55472Y-55330D01*
X55491Y-55274D01*
X55509Y-55237D01*
X55547Y-55180D01*
X55566Y-55162D01*
X55884Y-55593D02*
X55847Y-55612D01*
X55772Y-55612D01*
X55734Y-55593D01*
X55716Y-55574D01*
X55697Y-55537D01*
X55697Y-55424D01*
X55716Y-55387D01*
X55734Y-55368D01*
X55772Y-55349D01*
X55847Y-55349D01*
X55884Y-55368D01*
X56016Y-55762D02*
X56034Y-55743D01*
X56072Y-55687D01*
X56091Y-55649D01*
X56109Y-55593D01*
X56128Y-55499D01*
X56128Y-55424D01*
X56109Y-55330D01*
X56091Y-55274D01*
X56072Y-55237D01*
X56034Y-55180D01*
X56016Y-55162D01*
X56822Y-55237D02*
X56784Y-55218D01*
X56728Y-55218D01*
X56672Y-55237D01*
X56634Y-55274D01*
X56616Y-55312D01*
X56597Y-55387D01*
X56597Y-55443D01*
X56616Y-55518D01*
X56634Y-55555D01*
X56672Y-55593D01*
X56728Y-55612D01*
X56766Y-55612D01*
X56822Y-55593D01*
X56841Y-55574D01*
X56841Y-55443D01*
X56766Y-55443D01*
X57009Y-55612D02*
X57009Y-55349D01*
X57009Y-55424D02*
X57028Y-55387D01*
X57047Y-55368D01*
X57084Y-55349D01*
X57122Y-55349D01*
X57403Y-55593D02*
X57365Y-55612D01*
X57290Y-55612D01*
X57253Y-55593D01*
X57234Y-55555D01*
X57234Y-55405D01*
X57253Y-55368D01*
X57290Y-55349D01*
X57365Y-55349D01*
X57403Y-55368D01*
X57422Y-55405D01*
X57422Y-55443D01*
X57234Y-55480D01*
X57759Y-55349D02*
X57759Y-55668D01*
X57740Y-55705D01*
X57722Y-55724D01*
X57684Y-55743D01*
X57628Y-55743D01*
X57590Y-55724D01*
X57759Y-55593D02*
X57722Y-55612D01*
X57647Y-55612D01*
X57609Y-55593D01*
X57590Y-55574D01*
X57572Y-55537D01*
X57572Y-55424D01*
X57590Y-55387D01*
X57609Y-55368D01*
X57647Y-55349D01*
X57722Y-55349D01*
X57759Y-55368D01*
X58378Y-55405D02*
X58247Y-55405D01*
X58247Y-55612D02*
X58247Y-55218D01*
X58434Y-55218D01*
X58640Y-55612D02*
X58603Y-55593D01*
X58584Y-55574D01*
X58565Y-55537D01*
X58565Y-55424D01*
X58584Y-55387D01*
X58603Y-55368D01*
X58640Y-55349D01*
X58697Y-55349D01*
X58734Y-55368D01*
X58753Y-55387D01*
X58772Y-55424D01*
X58772Y-55537D01*
X58753Y-55574D01*
X58734Y-55593D01*
X58697Y-55612D01*
X58640Y-55612D01*
X58940Y-55612D02*
X58940Y-55349D01*
X58940Y-55424D02*
X58959Y-55387D01*
X58978Y-55368D01*
X59015Y-55349D01*
X59053Y-55349D01*
X59353Y-55612D02*
X59353Y-55218D01*
X59353Y-55593D02*
X59315Y-55612D01*
X59240Y-55612D01*
X59203Y-55593D01*
X59184Y-55574D01*
X59165Y-55537D01*
X59165Y-55424D01*
X59184Y-55387D01*
X59203Y-55368D01*
X59240Y-55349D01*
X59315Y-55349D01*
X59353Y-55368D01*
X59503Y-55349D02*
X59596Y-55612D01*
X59690Y-55349D02*
X59596Y-55612D01*
X59559Y-55705D01*
X59540Y-55724D01*
X59503Y-55743D01*
X60009Y-55593D02*
X59971Y-55612D01*
X59896Y-55612D01*
X59859Y-55593D01*
X59840Y-55574D01*
X59821Y-55537D01*
X59821Y-55424D01*
X59840Y-55387D01*
X59859Y-55368D01*
X59896Y-55349D01*
X59971Y-55349D01*
X60009Y-55368D01*
X60328Y-55593D02*
X60290Y-55612D01*
X60215Y-55612D01*
X60178Y-55593D01*
X60159Y-55555D01*
X60159Y-55405D01*
X60178Y-55368D01*
X60215Y-55349D01*
X60290Y-55349D01*
X60328Y-55368D01*
X60346Y-55405D01*
X60346Y-55443D01*
X60159Y-55480D01*
X60796Y-55255D02*
X60815Y-55237D01*
X60853Y-55218D01*
X60946Y-55218D01*
X60984Y-55237D01*
X61003Y-55255D01*
X61021Y-55293D01*
X61021Y-55330D01*
X61003Y-55387D01*
X60778Y-55612D01*
X61021Y-55612D01*
X61265Y-55218D02*
X61302Y-55218D01*
X61340Y-55237D01*
X61359Y-55255D01*
X61377Y-55293D01*
X61396Y-55368D01*
X61396Y-55462D01*
X61377Y-55537D01*
X61359Y-55574D01*
X61340Y-55593D01*
X61302Y-55612D01*
X61265Y-55612D01*
X61227Y-55593D01*
X61209Y-55574D01*
X61190Y-55537D01*
X61171Y-55462D01*
X61171Y-55368D01*
X61190Y-55293D01*
X61209Y-55255D01*
X61227Y-55237D01*
X61265Y-55218D01*
X61771Y-55612D02*
X61546Y-55612D01*
X61659Y-55612D02*
X61659Y-55218D01*
X61621Y-55274D01*
X61584Y-55312D01*
X61546Y-55330D01*
X61902Y-55218D02*
X62146Y-55218D01*
X62015Y-55368D01*
X62071Y-55368D01*
X62109Y-55387D01*
X62127Y-55405D01*
X62146Y-55443D01*
X62146Y-55537D01*
X62127Y-55574D01*
X62109Y-55593D01*
X62071Y-55612D01*
X61959Y-55612D01*
X61921Y-55593D01*
X61902Y-55574D01*
X62615Y-55462D02*
X62915Y-55462D01*
X63627Y-55612D02*
X63496Y-55424D01*
X63402Y-55612D02*
X63402Y-55218D01*
X63552Y-55218D01*
X63590Y-55237D01*
X63608Y-55255D01*
X63627Y-55293D01*
X63627Y-55349D01*
X63608Y-55387D01*
X63590Y-55405D01*
X63552Y-55424D01*
X63402Y-55424D01*
X63946Y-55593D02*
X63908Y-55612D01*
X63833Y-55612D01*
X63796Y-55593D01*
X63777Y-55555D01*
X63777Y-55405D01*
X63796Y-55368D01*
X63833Y-55349D01*
X63908Y-55349D01*
X63946Y-55368D01*
X63965Y-55405D01*
X63965Y-55443D01*
X63777Y-55480D01*
X64096Y-55349D02*
X64190Y-55612D01*
X64283Y-55349D01*
X64733Y-55612D02*
X64733Y-55218D01*
X64827Y-55218D01*
X64883Y-55237D01*
X64921Y-55274D01*
X64940Y-55312D01*
X64958Y-55387D01*
X64958Y-55443D01*
X64940Y-55518D01*
X64921Y-55555D01*
X64883Y-55593D01*
X64827Y-55612D01*
X64733Y-55612D01*
X57934Y-37403D02*
X57746Y-37403D01*
X57746Y-37009D01*
X58065Y-37403D02*
X58065Y-37140D01*
X58065Y-37009D02*
X58046Y-37028D01*
X58065Y-37047D01*
X58083Y-37028D01*
X58065Y-37009D01*
X58065Y-37047D01*
X58421Y-37384D02*
X58383Y-37403D01*
X58308Y-37403D01*
X58271Y-37384D01*
X58252Y-37365D01*
X58233Y-37328D01*
X58233Y-37215D01*
X58252Y-37178D01*
X58271Y-37159D01*
X58308Y-37140D01*
X58383Y-37140D01*
X58421Y-37159D01*
X58740Y-37384D02*
X58702Y-37403D01*
X58627Y-37403D01*
X58590Y-37384D01*
X58571Y-37347D01*
X58571Y-37197D01*
X58590Y-37159D01*
X58627Y-37140D01*
X58702Y-37140D01*
X58740Y-37159D01*
X58758Y-37197D01*
X58758Y-37234D01*
X58571Y-37272D01*
X58927Y-37140D02*
X58927Y-37403D01*
X58927Y-37178D02*
X58946Y-37159D01*
X58983Y-37140D01*
X59040Y-37140D01*
X59077Y-37159D01*
X59096Y-37197D01*
X59096Y-37403D01*
X59265Y-37384D02*
X59302Y-37403D01*
X59377Y-37403D01*
X59415Y-37384D01*
X59433Y-37347D01*
X59433Y-37328D01*
X59415Y-37290D01*
X59377Y-37272D01*
X59321Y-37272D01*
X59283Y-37253D01*
X59265Y-37215D01*
X59265Y-37197D01*
X59283Y-37159D01*
X59321Y-37140D01*
X59377Y-37140D01*
X59415Y-37159D01*
X59752Y-37384D02*
X59715Y-37403D01*
X59640Y-37403D01*
X59602Y-37384D01*
X59583Y-37347D01*
X59583Y-37197D01*
X59602Y-37159D01*
X59640Y-37140D01*
X59715Y-37140D01*
X59752Y-37159D01*
X59771Y-37197D01*
X59771Y-37234D01*
X59583Y-37272D01*
X60108Y-37403D02*
X60108Y-37009D01*
X60108Y-37384D02*
X60071Y-37403D01*
X59996Y-37403D01*
X59958Y-37384D01*
X59940Y-37365D01*
X59921Y-37328D01*
X59921Y-37215D01*
X59940Y-37178D01*
X59958Y-37159D01*
X59996Y-37140D01*
X60071Y-37140D01*
X60108Y-37159D01*
X60764Y-37140D02*
X60764Y-37403D01*
X60596Y-37140D02*
X60596Y-37347D01*
X60614Y-37384D01*
X60652Y-37403D01*
X60708Y-37403D01*
X60746Y-37384D01*
X60764Y-37365D01*
X60952Y-37140D02*
X60952Y-37403D01*
X60952Y-37178D02*
X60971Y-37159D01*
X61008Y-37140D01*
X61064Y-37140D01*
X61102Y-37159D01*
X61121Y-37197D01*
X61121Y-37403D01*
X61477Y-37403D02*
X61477Y-37009D01*
X61477Y-37384D02*
X61439Y-37403D01*
X61364Y-37403D01*
X61327Y-37384D01*
X61308Y-37365D01*
X61289Y-37328D01*
X61289Y-37215D01*
X61308Y-37178D01*
X61327Y-37159D01*
X61364Y-37140D01*
X61439Y-37140D01*
X61477Y-37159D01*
X61814Y-37384D02*
X61777Y-37403D01*
X61702Y-37403D01*
X61664Y-37384D01*
X61646Y-37347D01*
X61646Y-37197D01*
X61664Y-37159D01*
X61702Y-37140D01*
X61777Y-37140D01*
X61814Y-37159D01*
X61833Y-37197D01*
X61833Y-37234D01*
X61646Y-37272D01*
X62002Y-37403D02*
X62002Y-37140D01*
X62002Y-37215D02*
X62020Y-37178D01*
X62039Y-37159D01*
X62077Y-37140D01*
X62114Y-37140D01*
X62489Y-37140D02*
X62639Y-37140D01*
X62545Y-37009D02*
X62545Y-37347D01*
X62564Y-37384D01*
X62602Y-37403D01*
X62639Y-37403D01*
X62770Y-37403D02*
X62770Y-37009D01*
X62939Y-37403D02*
X62939Y-37197D01*
X62920Y-37159D01*
X62883Y-37140D01*
X62827Y-37140D01*
X62789Y-37159D01*
X62770Y-37178D01*
X63277Y-37384D02*
X63239Y-37403D01*
X63164Y-37403D01*
X63127Y-37384D01*
X63108Y-37347D01*
X63108Y-37197D01*
X63127Y-37159D01*
X63164Y-37140D01*
X63239Y-37140D01*
X63277Y-37159D01*
X63295Y-37197D01*
X63295Y-37234D01*
X63108Y-37272D01*
X56049Y-37619D02*
X56274Y-37619D01*
X56162Y-38013D02*
X56162Y-37619D01*
X56387Y-37901D02*
X56574Y-37901D01*
X56349Y-38013D02*
X56481Y-37619D01*
X56612Y-38013D01*
X56743Y-38013D02*
X56743Y-37619D01*
X56893Y-37619D01*
X56931Y-37638D01*
X56949Y-37657D01*
X56968Y-37694D01*
X56968Y-37751D01*
X56949Y-37788D01*
X56931Y-37807D01*
X56893Y-37826D01*
X56743Y-37826D01*
X57362Y-38013D02*
X57230Y-37826D01*
X57137Y-38013D02*
X57137Y-37619D01*
X57287Y-37619D01*
X57324Y-37638D01*
X57343Y-37657D01*
X57362Y-37694D01*
X57362Y-37751D01*
X57343Y-37788D01*
X57324Y-37807D01*
X57287Y-37826D01*
X57137Y-37826D01*
X57905Y-37619D02*
X57980Y-37619D01*
X58018Y-37638D01*
X58055Y-37676D01*
X58074Y-37751D01*
X58074Y-37882D01*
X58055Y-37957D01*
X58018Y-37994D01*
X57980Y-38013D01*
X57905Y-38013D01*
X57868Y-37994D01*
X57830Y-37957D01*
X57812Y-37882D01*
X57812Y-37751D01*
X57830Y-37676D01*
X57868Y-37638D01*
X57905Y-37619D01*
X58243Y-37751D02*
X58243Y-38144D01*
X58243Y-37769D02*
X58280Y-37751D01*
X58355Y-37751D01*
X58393Y-37769D01*
X58412Y-37788D01*
X58430Y-37826D01*
X58430Y-37938D01*
X58412Y-37976D01*
X58393Y-37994D01*
X58355Y-38013D01*
X58280Y-38013D01*
X58243Y-37994D01*
X58749Y-37994D02*
X58712Y-38013D01*
X58637Y-38013D01*
X58599Y-37994D01*
X58580Y-37957D01*
X58580Y-37807D01*
X58599Y-37769D01*
X58637Y-37751D01*
X58712Y-37751D01*
X58749Y-37769D01*
X58768Y-37807D01*
X58768Y-37844D01*
X58580Y-37882D01*
X58937Y-37751D02*
X58937Y-38013D01*
X58937Y-37788D02*
X58955Y-37769D01*
X58993Y-37751D01*
X59049Y-37751D01*
X59086Y-37769D01*
X59105Y-37807D01*
X59105Y-38013D01*
X59593Y-38013D02*
X59593Y-37619D01*
X59593Y-37807D02*
X59818Y-37807D01*
X59818Y-38013D02*
X59818Y-37619D01*
X60174Y-38013D02*
X60174Y-37807D01*
X60155Y-37769D01*
X60118Y-37751D01*
X60043Y-37751D01*
X60005Y-37769D01*
X60174Y-37994D02*
X60136Y-38013D01*
X60043Y-38013D01*
X60005Y-37994D01*
X59986Y-37957D01*
X59986Y-37919D01*
X60005Y-37882D01*
X60043Y-37863D01*
X60136Y-37863D01*
X60174Y-37844D01*
X60361Y-38013D02*
X60361Y-37751D01*
X60361Y-37826D02*
X60380Y-37788D01*
X60399Y-37769D01*
X60436Y-37751D01*
X60474Y-37751D01*
X60774Y-38013D02*
X60774Y-37619D01*
X60774Y-37994D02*
X60736Y-38013D01*
X60661Y-38013D01*
X60624Y-37994D01*
X60605Y-37976D01*
X60586Y-37938D01*
X60586Y-37826D01*
X60605Y-37788D01*
X60624Y-37769D01*
X60661Y-37751D01*
X60736Y-37751D01*
X60774Y-37769D01*
X60924Y-37751D02*
X60999Y-38013D01*
X61074Y-37826D01*
X61149Y-38013D01*
X61224Y-37751D01*
X61542Y-38013D02*
X61542Y-37807D01*
X61524Y-37769D01*
X61486Y-37751D01*
X61411Y-37751D01*
X61374Y-37769D01*
X61542Y-37994D02*
X61505Y-38013D01*
X61411Y-38013D01*
X61374Y-37994D01*
X61355Y-37957D01*
X61355Y-37919D01*
X61374Y-37882D01*
X61411Y-37863D01*
X61505Y-37863D01*
X61542Y-37844D01*
X61730Y-38013D02*
X61730Y-37751D01*
X61730Y-37826D02*
X61749Y-37788D01*
X61767Y-37769D01*
X61805Y-37751D01*
X61842Y-37751D01*
X62124Y-37994D02*
X62086Y-38013D01*
X62011Y-38013D01*
X61974Y-37994D01*
X61955Y-37957D01*
X61955Y-37807D01*
X61974Y-37769D01*
X62011Y-37751D01*
X62086Y-37751D01*
X62124Y-37769D01*
X62142Y-37807D01*
X62142Y-37844D01*
X61955Y-37882D01*
X62799Y-38013D02*
X62611Y-38013D01*
X62611Y-37619D01*
X62930Y-38013D02*
X62930Y-37751D01*
X62930Y-37619D02*
X62911Y-37638D01*
X62930Y-37657D01*
X62949Y-37638D01*
X62930Y-37619D01*
X62930Y-37657D01*
X63286Y-37994D02*
X63248Y-38013D01*
X63173Y-38013D01*
X63136Y-37994D01*
X63117Y-37976D01*
X63098Y-37938D01*
X63098Y-37826D01*
X63117Y-37788D01*
X63136Y-37769D01*
X63173Y-37751D01*
X63248Y-37751D01*
X63286Y-37769D01*
X63605Y-37994D02*
X63567Y-38013D01*
X63492Y-38013D01*
X63455Y-37994D01*
X63436Y-37957D01*
X63436Y-37807D01*
X63455Y-37769D01*
X63492Y-37751D01*
X63567Y-37751D01*
X63605Y-37769D01*
X63623Y-37807D01*
X63623Y-37844D01*
X63436Y-37882D01*
X63792Y-37751D02*
X63792Y-38013D01*
X63792Y-37788D02*
X63811Y-37769D01*
X63848Y-37751D01*
X63905Y-37751D01*
X63942Y-37769D01*
X63961Y-37807D01*
X63961Y-38013D01*
X64130Y-37994D02*
X64167Y-38013D01*
X64242Y-38013D01*
X64280Y-37994D01*
X64298Y-37957D01*
X64298Y-37938D01*
X64280Y-37901D01*
X64242Y-37882D01*
X64186Y-37882D01*
X64148Y-37863D01*
X64130Y-37826D01*
X64130Y-37807D01*
X64148Y-37769D01*
X64186Y-37751D01*
X64242Y-37751D01*
X64280Y-37769D01*
X64617Y-37994D02*
X64580Y-38013D01*
X64505Y-38013D01*
X64467Y-37994D01*
X64448Y-37957D01*
X64448Y-37807D01*
X64467Y-37769D01*
X64505Y-37751D01*
X64580Y-37751D01*
X64617Y-37769D01*
X64636Y-37807D01*
X64636Y-37844D01*
X64448Y-37882D01*
X57952Y-38773D02*
X57934Y-38755D01*
X57896Y-38698D01*
X57877Y-38661D01*
X57859Y-38605D01*
X57840Y-38511D01*
X57840Y-38436D01*
X57859Y-38342D01*
X57877Y-38286D01*
X57896Y-38248D01*
X57934Y-38192D01*
X57952Y-38173D01*
X58065Y-38361D02*
X58140Y-38623D01*
X58215Y-38436D01*
X58290Y-38623D01*
X58365Y-38361D01*
X58477Y-38361D02*
X58552Y-38623D01*
X58627Y-38436D01*
X58702Y-38623D01*
X58777Y-38361D01*
X58890Y-38361D02*
X58965Y-38623D01*
X59040Y-38436D01*
X59115Y-38623D01*
X59190Y-38361D01*
X59340Y-38586D02*
X59358Y-38605D01*
X59340Y-38623D01*
X59321Y-38605D01*
X59340Y-38586D01*
X59340Y-38623D01*
X59471Y-38361D02*
X59621Y-38361D01*
X59527Y-38230D02*
X59527Y-38567D01*
X59546Y-38605D01*
X59583Y-38623D01*
X59621Y-38623D01*
X59921Y-38623D02*
X59921Y-38417D01*
X59902Y-38380D01*
X59865Y-38361D01*
X59790Y-38361D01*
X59752Y-38380D01*
X59921Y-38605D02*
X59883Y-38623D01*
X59790Y-38623D01*
X59752Y-38605D01*
X59733Y-38567D01*
X59733Y-38530D01*
X59752Y-38492D01*
X59790Y-38473D01*
X59883Y-38473D01*
X59921Y-38455D01*
X60108Y-38361D02*
X60108Y-38755D01*
X60108Y-38380D02*
X60146Y-38361D01*
X60221Y-38361D01*
X60258Y-38380D01*
X60277Y-38398D01*
X60296Y-38436D01*
X60296Y-38548D01*
X60277Y-38586D01*
X60258Y-38605D01*
X60221Y-38623D01*
X60146Y-38623D01*
X60108Y-38605D01*
X60464Y-38623D02*
X60464Y-38361D01*
X60464Y-38436D02*
X60483Y-38398D01*
X60502Y-38380D01*
X60539Y-38361D01*
X60577Y-38361D01*
X60708Y-38586D02*
X60727Y-38605D01*
X60708Y-38623D01*
X60689Y-38605D01*
X60708Y-38586D01*
X60708Y-38623D01*
X60952Y-38623D02*
X60914Y-38605D01*
X60896Y-38586D01*
X60877Y-38548D01*
X60877Y-38436D01*
X60896Y-38398D01*
X60914Y-38380D01*
X60952Y-38361D01*
X61008Y-38361D01*
X61046Y-38380D01*
X61064Y-38398D01*
X61083Y-38436D01*
X61083Y-38548D01*
X61064Y-38586D01*
X61046Y-38605D01*
X61008Y-38623D01*
X60952Y-38623D01*
X61252Y-38623D02*
X61252Y-38361D01*
X61252Y-38436D02*
X61271Y-38398D01*
X61289Y-38380D01*
X61327Y-38361D01*
X61364Y-38361D01*
X61664Y-38361D02*
X61664Y-38680D01*
X61646Y-38717D01*
X61627Y-38736D01*
X61589Y-38755D01*
X61533Y-38755D01*
X61496Y-38736D01*
X61664Y-38605D02*
X61627Y-38623D01*
X61552Y-38623D01*
X61514Y-38605D01*
X61496Y-38586D01*
X61477Y-38548D01*
X61477Y-38436D01*
X61496Y-38398D01*
X61514Y-38380D01*
X61552Y-38361D01*
X61627Y-38361D01*
X61664Y-38380D01*
X62133Y-38211D02*
X61796Y-38717D01*
X62339Y-38230D02*
X62414Y-38230D01*
X62452Y-38248D01*
X62489Y-38286D01*
X62508Y-38361D01*
X62508Y-38492D01*
X62489Y-38567D01*
X62452Y-38605D01*
X62414Y-38623D01*
X62339Y-38623D01*
X62302Y-38605D01*
X62264Y-38567D01*
X62245Y-38492D01*
X62245Y-38361D01*
X62264Y-38286D01*
X62302Y-38248D01*
X62339Y-38230D01*
X62677Y-38623D02*
X62677Y-38230D01*
X62677Y-38417D02*
X62902Y-38417D01*
X62902Y-38623D02*
X62902Y-38230D01*
X63277Y-38623D02*
X63089Y-38623D01*
X63089Y-38230D01*
X63370Y-38773D02*
X63389Y-38755D01*
X63427Y-38698D01*
X63445Y-38661D01*
X63464Y-38605D01*
X63483Y-38511D01*
X63483Y-38436D01*
X63464Y-38342D01*
X63445Y-38286D01*
X63427Y-38248D01*
X63389Y-38192D01*
X63370Y-38173D01*
G54D14*
X50851Y-38918D02*
X50851Y-43718D01*
X50851Y-43718D02*
X57551Y-43718D01*
X57551Y-43718D02*
X57551Y-38918D01*
X57551Y-38918D02*
X50851Y-38918D01*
X56385Y-53865D02*
X50835Y-53865D01*
X50835Y-47965D02*
X56385Y-47965D01*
X56385Y-53865D02*
X56385Y-47965D01*
X50835Y-53865D02*
X50835Y-47965D01*
G54D15*
X67942Y-45698D02*
X67942Y-45206D01*
X67942Y-45206D02*
X70698Y-45206D01*
X70698Y-45206D02*
X70698Y-45698D01*
X67942Y-50226D02*
X67942Y-50718D01*
X67942Y-50718D02*
X70698Y-50718D01*
X70698Y-50718D02*
X70698Y-50226D01*
G54D16*
X70667Y-50521D02*
G75*
G03X70667Y-50521I-185J0D01*
G74*
G01*
G54D15*
X67942Y-52293D02*
X67942Y-51899D01*
X64399Y-52293D02*
X64399Y-51899D01*
G54D17*
X65041Y-51396D02*
G75*
G03X65041Y-51396I-70J0D01*
G74*
G01*
X67921Y-52896D02*
X67921Y-53096D01*
X67921Y-53096D02*
X64421Y-53096D01*
X64421Y-53096D02*
X64421Y-52896D01*
X64421Y-51296D02*
X64421Y-51046D01*
X64421Y-51046D02*
X67921Y-51046D01*
X67921Y-51046D02*
X67921Y-51296D01*
G54D15*
X64679Y-39780D02*
G75*
G03X64679Y-39780I-200J0D01*
G74*
G01*
X63679Y-41974D02*
X63679Y-42174D01*
X63679Y-42174D02*
X67879Y-42174D01*
X67879Y-42174D02*
X67879Y-41974D01*
X67879Y-39580D02*
X67879Y-39380D01*
X67879Y-39380D02*
X63679Y-39380D01*
X63679Y-39380D02*
X63679Y-39580D01*
X67158Y-44035D02*
G75*
G03X67158Y-44035I-282J0D01*
G74*
G01*
X67875Y-42635D02*
X67875Y-42235D01*
X67875Y-42235D02*
X63675Y-42235D01*
X63675Y-42235D02*
X63675Y-42635D01*
X63675Y-44235D02*
X63675Y-44635D01*
X63675Y-44635D02*
X67875Y-44635D01*
X67875Y-44635D02*
X67875Y-44235D01*
X59053Y-49815D02*
X58853Y-49815D01*
X58853Y-49815D02*
X58853Y-52015D01*
X58853Y-52015D02*
X59053Y-52015D01*
X63253Y-49815D02*
X63253Y-52015D01*
X63053Y-49815D02*
X63253Y-49815D01*
X63253Y-52015D02*
X63053Y-52015D01*
G54D18*
X58853Y-50615D02*
X59153Y-50615D01*
X59153Y-50615D02*
X59153Y-51215D01*
X59153Y-51215D02*
X58853Y-51215D01*
G54D15*
X59872Y-43139D02*
X59872Y-43336D01*
X59872Y-43336D02*
X59478Y-43336D01*
X59478Y-43336D02*
X59478Y-43139D01*
X60659Y-43139D02*
X60659Y-43336D01*
X60659Y-43139D02*
X58592Y-43139D01*
X58592Y-43139D02*
X58592Y-43336D01*
X60659Y-46879D02*
X60659Y-47076D01*
X60659Y-47076D02*
X58592Y-47076D01*
X58592Y-47076D02*
X58592Y-46879D01*
X58494Y-53671D02*
X58494Y-52096D01*
X58494Y-52096D02*
X57509Y-52096D01*
X57509Y-52096D02*
X57509Y-53671D01*
X57509Y-53671D02*
X58494Y-53671D01*
X73454Y-42549D02*
X71879Y-42549D01*
X71879Y-42549D02*
X71879Y-43533D01*
X71879Y-43533D02*
X73454Y-43533D01*
X73454Y-43533D02*
X73454Y-42549D01*
X73454Y-41564D02*
X71879Y-41564D01*
X71879Y-41564D02*
X71879Y-42549D01*
X71879Y-42549D02*
X73454Y-42549D01*
X73454Y-42549D02*
X73454Y-41564D01*
X70305Y-52194D02*
X68730Y-52194D01*
X68730Y-52194D02*
X68730Y-53179D01*
X68730Y-53179D02*
X70305Y-53179D01*
X70305Y-53179D02*
X70305Y-52194D01*
X70501Y-40187D02*
X68927Y-40187D01*
X68927Y-40187D02*
X68927Y-41171D01*
X68927Y-41171D02*
X70501Y-41171D01*
X70501Y-41171D02*
X70501Y-40187D01*
X60462Y-52687D02*
X58887Y-52687D01*
X58887Y-52687D02*
X58887Y-53671D01*
X58887Y-53671D02*
X60462Y-53671D01*
X60462Y-53671D02*
X60462Y-52687D01*
X62135Y-52687D02*
X60561Y-52687D01*
X60561Y-52687D02*
X60561Y-53671D01*
X60561Y-53671D02*
X62135Y-53671D01*
X62135Y-53671D02*
X62135Y-52687D01*
X57509Y-50423D02*
X57509Y-51998D01*
X57509Y-51998D02*
X58494Y-51998D01*
X58494Y-51998D02*
X58494Y-50423D01*
X58494Y-50423D02*
X57509Y-50423D01*
X59872Y-49045D02*
X59872Y-47470D01*
X59872Y-47470D02*
X58887Y-47470D01*
X58887Y-47470D02*
X58887Y-49045D01*
X58887Y-49045D02*
X59872Y-49045D01*
X73454Y-49143D02*
X72273Y-49143D01*
X72273Y-49143D02*
X72273Y-48356D01*
X72273Y-48356D02*
X73454Y-48356D01*
X73454Y-48356D02*
X73454Y-49143D01*
X73454Y-52293D02*
X72273Y-52293D01*
X72273Y-52293D02*
X72273Y-51505D01*
X72273Y-51505D02*
X73454Y-51505D01*
X73454Y-51505D02*
X73454Y-52293D01*
X73454Y-51505D02*
X72273Y-51505D01*
X72273Y-51505D02*
X72273Y-50718D01*
X72273Y-50718D02*
X73454Y-50718D01*
X73454Y-50718D02*
X73454Y-51505D01*
X73454Y-50718D02*
X72273Y-50718D01*
X72273Y-50718D02*
X72273Y-49931D01*
X72273Y-49931D02*
X73454Y-49931D01*
X73454Y-49931D02*
X73454Y-50718D01*
X59084Y-42253D02*
X60265Y-42253D01*
X60265Y-42253D02*
X60265Y-43041D01*
X60265Y-43041D02*
X59084Y-43041D01*
X59084Y-43041D02*
X59084Y-42253D01*
X70305Y-40187D02*
X69124Y-40187D01*
X69124Y-40187D02*
X69124Y-39399D01*
X69124Y-39399D02*
X70305Y-39399D01*
X70305Y-39399D02*
X70305Y-40187D01*
X61742Y-42450D02*
X62923Y-42450D01*
X62923Y-42450D02*
X62923Y-43238D01*
X62923Y-43238D02*
X61742Y-43238D01*
X61742Y-43238D02*
X61742Y-42450D01*
X73454Y-53868D02*
X72273Y-53868D01*
X72273Y-53868D02*
X72273Y-53080D01*
X72273Y-53080D02*
X73454Y-53080D01*
X73454Y-53080D02*
X73454Y-53868D01*
X73454Y-49931D02*
X72273Y-49931D01*
X72273Y-49931D02*
X72273Y-49143D01*
X72273Y-49143D02*
X73454Y-49143D01*
X73454Y-49143D02*
X73454Y-49931D01*
X73454Y-44419D02*
X72273Y-44419D01*
X72273Y-44419D02*
X72273Y-43631D01*
X72273Y-43631D02*
X73454Y-43631D01*
X73454Y-43631D02*
X73454Y-44419D01*
X73454Y-45206D02*
X72273Y-45206D01*
X72273Y-45206D02*
X72273Y-44419D01*
X72273Y-44419D02*
X73454Y-44419D01*
X73454Y-44419D02*
X73454Y-45206D01*
X73454Y-53080D02*
X72273Y-53080D01*
X72273Y-53080D02*
X72273Y-52293D01*
X72273Y-52293D02*
X73454Y-52293D01*
X73454Y-52293D02*
X73454Y-53080D01*
X73454Y-45994D02*
X72273Y-45994D01*
X72273Y-45994D02*
X72273Y-45206D01*
X72273Y-45206D02*
X73454Y-45206D01*
X73454Y-45206D02*
X73454Y-45994D01*
X73454Y-46781D02*
X72273Y-46781D01*
X72273Y-46781D02*
X72273Y-45994D01*
X72273Y-45994D02*
X73454Y-45994D01*
X73454Y-45994D02*
X73454Y-46781D01*
X73454Y-47568D02*
X72273Y-47568D01*
X72273Y-47568D02*
X72273Y-46781D01*
X72273Y-46781D02*
X73454Y-46781D01*
X73454Y-46781D02*
X73454Y-47568D01*
X73454Y-48356D02*
X72273Y-48356D01*
X72273Y-48356D02*
X72273Y-47568D01*
X72273Y-47568D02*
X73454Y-47568D01*
X73454Y-47568D02*
X73454Y-48356D01*
X75029Y-49734D02*
X73848Y-49734D01*
X73848Y-49734D02*
X73848Y-48946D01*
X73848Y-48946D02*
X75029Y-48946D01*
X75029Y-48946D02*
X75029Y-49734D01*
X75029Y-52883D02*
X73848Y-52883D01*
X73848Y-52883D02*
X73848Y-52096D01*
X73848Y-52096D02*
X75029Y-52096D01*
X75029Y-52096D02*
X75029Y-52883D01*
X75029Y-52096D02*
X73848Y-52096D01*
X73848Y-52096D02*
X73848Y-51309D01*
X73848Y-51309D02*
X75029Y-51309D01*
X75029Y-51309D02*
X75029Y-52096D01*
X75029Y-51309D02*
X73848Y-51309D01*
X73848Y-51309D02*
X73848Y-50521D01*
X73848Y-50521D02*
X75029Y-50521D01*
X75029Y-50521D02*
X75029Y-51309D01*
X75029Y-50521D02*
X73848Y-50521D01*
X73848Y-50521D02*
X73848Y-49734D01*
X73848Y-49734D02*
X75029Y-49734D01*
X75029Y-49734D02*
X75029Y-50521D01*
X61742Y-39301D02*
X62923Y-39301D01*
X62923Y-39301D02*
X62923Y-40088D01*
X62923Y-40088D02*
X61742Y-40088D01*
X61742Y-40088D02*
X61742Y-39301D01*
X75029Y-48946D02*
X73848Y-48946D01*
X73848Y-48946D02*
X73848Y-48159D01*
X73848Y-48159D02*
X75029Y-48159D01*
X75029Y-48159D02*
X75029Y-48946D01*
X61742Y-41663D02*
X62923Y-41663D01*
X62923Y-41663D02*
X62923Y-42450D01*
X62923Y-42450D02*
X61742Y-42450D01*
X61742Y-42450D02*
X61742Y-41663D01*
X62923Y-41663D02*
X61742Y-41663D01*
X61742Y-41663D02*
X61742Y-40875D01*
X61742Y-40875D02*
X62923Y-40875D01*
X62923Y-40875D02*
X62923Y-41663D01*
X62923Y-40875D02*
X61742Y-40875D01*
X61742Y-40875D02*
X61742Y-40088D01*
X61742Y-40088D02*
X62923Y-40088D01*
X62923Y-40088D02*
X62923Y-40875D01*
X59084Y-40679D02*
X60265Y-40679D01*
X60265Y-40679D02*
X60265Y-41466D01*
X60265Y-41466D02*
X59084Y-41466D01*
X59084Y-41466D02*
X59084Y-40679D01*
X69124Y-43336D02*
X70305Y-43336D01*
X70305Y-43336D02*
X70305Y-44124D01*
X70305Y-44124D02*
X69124Y-44124D01*
X69124Y-44124D02*
X69124Y-43336D01*
X59084Y-39891D02*
X60265Y-39891D01*
X60265Y-39891D02*
X60265Y-40679D01*
X60265Y-40679D02*
X59084Y-40679D01*
X59084Y-40679D02*
X59084Y-39891D01*
X59084Y-41466D02*
X60265Y-41466D01*
X60265Y-41466D02*
X60265Y-42253D01*
X60265Y-42253D02*
X59084Y-42253D01*
X59084Y-42253D02*
X59084Y-41466D01*
X75029Y-48159D02*
X73848Y-48159D01*
X73848Y-48159D02*
X73848Y-47372D01*
X73848Y-47372D02*
X75029Y-47372D01*
X75029Y-47372D02*
X75029Y-48159D01*
X54360Y-46190D02*
X55541Y-46190D01*
X55541Y-46190D02*
X55541Y-46978D01*
X55541Y-46978D02*
X54360Y-46978D01*
X54360Y-46978D02*
X54360Y-46190D01*
X73848Y-42647D02*
X75029Y-42647D01*
X75029Y-42647D02*
X75029Y-43435D01*
X75029Y-43435D02*
X73848Y-43435D01*
X73848Y-43435D02*
X73848Y-42647D01*
X73848Y-41860D02*
X75029Y-41860D01*
X75029Y-41860D02*
X75029Y-42647D01*
X75029Y-42647D02*
X73848Y-42647D01*
X73848Y-42647D02*
X73848Y-41860D01*
X60659Y-47667D02*
X60659Y-48848D01*
X60659Y-48848D02*
X59872Y-48848D01*
X59872Y-48848D02*
X59872Y-47667D01*
X59872Y-47667D02*
X60659Y-47667D01*
X69124Y-44124D02*
X70305Y-44124D01*
X70305Y-44124D02*
X70305Y-44911D01*
X70305Y-44911D02*
X69124Y-44911D01*
X69124Y-44911D02*
X69124Y-44124D01*
X68730Y-53179D02*
X69911Y-53179D01*
X69911Y-53179D02*
X69911Y-53966D01*
X69911Y-53966D02*
X68730Y-53966D01*
X68730Y-53966D02*
X68730Y-53179D01*
X75029Y-44222D02*
X73848Y-44222D01*
X73848Y-44222D02*
X73848Y-43435D01*
X73848Y-43435D02*
X75029Y-43435D01*
X75029Y-43435D02*
X75029Y-44222D01*
X54360Y-45009D02*
X55541Y-45009D01*
X55541Y-45009D02*
X55541Y-45797D01*
X55541Y-45797D02*
X54360Y-45797D01*
X54360Y-45797D02*
X54360Y-45009D01*
X75029Y-53671D02*
X73848Y-53671D01*
X73848Y-53671D02*
X73848Y-52883D01*
X73848Y-52883D02*
X75029Y-52883D01*
X75029Y-52883D02*
X75029Y-53671D01*
X75029Y-45009D02*
X73848Y-45009D01*
X73848Y-45009D02*
X73848Y-44222D01*
X73848Y-44222D02*
X75029Y-44222D01*
X75029Y-44222D02*
X75029Y-45009D01*
X75029Y-45797D02*
X73848Y-45797D01*
X73848Y-45797D02*
X73848Y-45009D01*
X73848Y-45009D02*
X75029Y-45009D01*
X75029Y-45009D02*
X75029Y-45797D01*
X75029Y-46584D02*
X73848Y-46584D01*
X73848Y-46584D02*
X73848Y-45797D01*
X73848Y-45797D02*
X75029Y-45797D01*
X75029Y-45797D02*
X75029Y-46584D01*
X75029Y-47372D02*
X73848Y-47372D01*
X73848Y-47372D02*
X73848Y-46584D01*
X73848Y-46584D02*
X75029Y-46584D01*
X75029Y-46584D02*
X75029Y-47372D01*
G54D19*
X69820Y-42852D02*
X69820Y-41852D01*
X68820Y-42852D02*
X68820Y-41852D01*
G54D20*
X69820Y-42852D02*
X68820Y-42852D01*
X68820Y-41852D02*
X69820Y-41852D01*
G54D18*
X74561Y-40679D02*
X74361Y-40679D01*
X71561Y-40679D02*
X71761Y-40679D01*
X71761Y-40679D02*
X71761Y-41079D01*
X71761Y-41079D02*
X74361Y-41079D01*
X74361Y-41079D02*
X74361Y-40279D01*
X74361Y-40279D02*
X71761Y-40279D01*
X71761Y-40279D02*
X71761Y-40679D01*
X74361Y-40879D02*
X74161Y-41079D01*
X71561Y-39202D02*
X71761Y-39202D01*
X74561Y-39202D02*
X74361Y-39202D01*
X74361Y-39202D02*
X74361Y-38802D01*
X74361Y-38802D02*
X71761Y-38802D01*
X71761Y-38802D02*
X71761Y-39602D01*
X71761Y-39602D02*
X74361Y-39602D01*
X74361Y-39602D02*
X74361Y-39202D01*
X71761Y-39002D02*
X71961Y-38802D01*
G54D15*
X62923Y-47864D02*
X62923Y-48946D01*
X62923Y-48946D02*
X61742Y-48946D01*
X61742Y-48946D02*
X61742Y-47864D01*
X61742Y-47864D02*
X62824Y-47864D01*
X62824Y-47864D02*
X62824Y-48848D01*
X62824Y-48848D02*
X61840Y-48848D01*
X61840Y-48848D02*
X61840Y-47962D01*
X61840Y-47962D02*
X61938Y-47962D01*
X61938Y-47962D02*
X61938Y-48750D01*
X61938Y-48750D02*
X62726Y-48750D01*
X61643Y-47765D02*
X63021Y-47765D01*
X61643Y-49045D02*
X63021Y-49045D01*
X63021Y-49045D02*
X63021Y-43533D01*
X63021Y-43533D02*
X61643Y-43533D01*
X61643Y-43533D02*
X61643Y-49045D01*
X57903Y-48257D02*
X58100Y-48257D01*
X58100Y-48257D02*
X58001Y-48159D01*
X58297Y-48356D02*
X58001Y-48061D01*
X58001Y-48061D02*
X57903Y-48257D01*
X57805Y-48257D02*
X58198Y-48257D01*
X58198Y-48257D02*
X58001Y-48061D01*
X58001Y-48061D02*
X57805Y-48257D01*
X57805Y-48257D02*
X57706Y-48356D01*
X58001Y-47962D02*
X58001Y-47864D01*
X57608Y-47962D02*
X58395Y-47962D01*
X58001Y-48356D02*
X58395Y-48356D01*
X58395Y-48356D02*
X58001Y-47962D01*
X58001Y-48553D02*
X58001Y-48356D01*
X58001Y-48356D02*
X57608Y-48356D01*
X57608Y-48356D02*
X58001Y-47962D01*
X57509Y-50324D02*
X57509Y-48553D01*
X57509Y-48553D02*
X58494Y-48553D01*
X58494Y-48553D02*
X58494Y-50324D01*
X58494Y-50324D02*
X57509Y-50324D01*
G54D20*
X81104Y-54187D02*
X81104Y-38587D01*
X81604Y-54187D02*
X81604Y-38587D01*
X79854Y-51687D02*
X79854Y-41087D01*
X83854Y-41087D02*
X83854Y-51687D01*
X81604Y-51687D02*
X83854Y-51687D01*
X79854Y-51687D02*
X81104Y-51687D01*
X79104Y-51937D02*
X81104Y-51937D01*
X79104Y-51287D02*
X79104Y-54187D01*
X75604Y-51287D02*
X79104Y-51287D01*
X75604Y-54187D02*
X75604Y-51287D01*
X75604Y-54187D02*
X81604Y-54187D01*
X81104Y-40837D02*
X79104Y-40837D01*
X79104Y-41587D02*
X75604Y-41587D01*
X75604Y-38587D02*
X81104Y-38587D01*
X79104Y-38587D02*
X79104Y-41587D01*
X79854Y-41087D02*
X81104Y-41087D01*
X83854Y-41087D02*
X81604Y-41087D01*
X81604Y-38587D02*
X81104Y-38587D01*
X75604Y-38587D02*
X75604Y-41587D01*
G54D15*
X51889Y-45826D02*
G75*
G03X52972Y-46909I1082J0D01*
G74*
G01*
X52972Y-44744D02*
G75*
G03X51889Y-45826I0J-1082D01*
G74*
G01*
G54D10*
X53964Y-47326D02*
X52964Y-47326D01*
X52964Y-47326D02*
X52964Y-44326D01*
X52964Y-44326D02*
X53964Y-44326D01*
X53964Y-44326D02*
X53964Y-47326D01*
X52964Y-46326D02*
X53964Y-46326D01*
G54D21*
X55931Y-43938D02*
X55931Y-44220D01*
X55912Y-44276D01*
X55875Y-44313D01*
X55819Y-44332D01*
X55781Y-44332D01*
X56100Y-43976D02*
X56119Y-43957D01*
X56156Y-43938D01*
X56250Y-43938D01*
X56288Y-43957D01*
X56306Y-43976D01*
X56325Y-44013D01*
X56325Y-44051D01*
X56306Y-44107D01*
X56081Y-44332D01*
X56325Y-44332D01*
X55931Y-47324D02*
X55931Y-47605D01*
X55912Y-47662D01*
X55875Y-47699D01*
X55819Y-47718D01*
X55781Y-47718D01*
X56081Y-47324D02*
X56325Y-47324D01*
X56194Y-47474D01*
X56250Y-47474D01*
X56288Y-47493D01*
X56306Y-47512D01*
X56325Y-47549D01*
X56325Y-47643D01*
X56306Y-47681D01*
X56288Y-47699D01*
X56250Y-47718D01*
X56138Y-47718D01*
X56100Y-47699D01*
X56081Y-47681D01*
X69069Y-50946D02*
X69069Y-51265D01*
X69088Y-51303D01*
X69107Y-51321D01*
X69144Y-51340D01*
X69219Y-51340D01*
X69257Y-51321D01*
X69276Y-51303D01*
X69295Y-51265D01*
X69295Y-50946D01*
X69689Y-51340D02*
X69463Y-51340D01*
X69576Y-51340D02*
X69576Y-50946D01*
X69538Y-51002D01*
X69501Y-51040D01*
X69463Y-51059D01*
X64660Y-53308D02*
X64660Y-53627D01*
X64679Y-53665D01*
X64697Y-53684D01*
X64735Y-53702D01*
X64810Y-53702D01*
X64848Y-53684D01*
X64866Y-53665D01*
X64885Y-53627D01*
X64885Y-53308D01*
X65054Y-53346D02*
X65073Y-53327D01*
X65110Y-53308D01*
X65204Y-53308D01*
X65242Y-53327D01*
X65260Y-53346D01*
X65279Y-53383D01*
X65279Y-53421D01*
X65260Y-53477D01*
X65035Y-53702D01*
X65279Y-53702D01*
X64502Y-38741D02*
X64502Y-39060D01*
X64521Y-39098D01*
X64540Y-39117D01*
X64578Y-39135D01*
X64653Y-39135D01*
X64690Y-39117D01*
X64709Y-39098D01*
X64728Y-39060D01*
X64728Y-38741D01*
X65084Y-38873D02*
X65084Y-39135D01*
X64990Y-38723D02*
X64896Y-39004D01*
X65140Y-39004D01*
X64424Y-44883D02*
X64424Y-45202D01*
X64442Y-45240D01*
X64461Y-45258D01*
X64499Y-45277D01*
X64574Y-45277D01*
X64611Y-45258D01*
X64630Y-45240D01*
X64649Y-45202D01*
X64649Y-44883D01*
X64799Y-44883D02*
X65043Y-44883D01*
X64912Y-45033D01*
X64968Y-45033D01*
X65005Y-45052D01*
X65024Y-45071D01*
X65043Y-45108D01*
X65043Y-45202D01*
X65024Y-45240D01*
X65005Y-45258D01*
X64968Y-45277D01*
X64855Y-45277D01*
X64818Y-45258D01*
X64799Y-45240D01*
X58265Y-51220D02*
X58588Y-51220D01*
X58626Y-51201D01*
X58646Y-51182D01*
X58665Y-51143D01*
X58665Y-51067D01*
X58646Y-51029D01*
X58626Y-51010D01*
X58588Y-50991D01*
X58265Y-50991D01*
X58265Y-50629D02*
X58265Y-50705D01*
X58284Y-50743D01*
X58303Y-50762D01*
X58360Y-50801D01*
X58436Y-50820D01*
X58588Y-50820D01*
X58626Y-50801D01*
X58646Y-50782D01*
X58665Y-50743D01*
X58665Y-50667D01*
X58646Y-50629D01*
X58626Y-50610D01*
X58588Y-50591D01*
X58493Y-50591D01*
X58455Y-50610D01*
X58436Y-50629D01*
X58417Y-50667D01*
X58417Y-50743D01*
X58436Y-50782D01*
X58455Y-50801D01*
X58493Y-50820D01*
X57416Y-45198D02*
X57416Y-45517D01*
X57435Y-45555D01*
X57453Y-45573D01*
X57491Y-45592D01*
X57566Y-45592D01*
X57603Y-45573D01*
X57622Y-45555D01*
X57641Y-45517D01*
X57641Y-45198D01*
X58016Y-45198D02*
X57829Y-45198D01*
X57810Y-45386D01*
X57829Y-45367D01*
X57866Y-45348D01*
X57960Y-45348D01*
X57997Y-45367D01*
X58016Y-45386D01*
X58035Y-45423D01*
X58035Y-45517D01*
X58016Y-45555D01*
X57997Y-45573D01*
X57960Y-45592D01*
X57866Y-45592D01*
X57829Y-45573D01*
X57810Y-45555D01*
X57287Y-53087D02*
X57306Y-53106D01*
X57324Y-53162D01*
X57324Y-53200D01*
X57306Y-53256D01*
X57268Y-53294D01*
X57231Y-53313D01*
X57155Y-53331D01*
X57099Y-53331D01*
X57024Y-53313D01*
X56987Y-53294D01*
X56949Y-53256D01*
X56930Y-53200D01*
X56930Y-53162D01*
X56949Y-53106D01*
X56968Y-53087D01*
X56968Y-52937D02*
X56949Y-52919D01*
X56930Y-52881D01*
X56930Y-52787D01*
X56949Y-52750D01*
X56968Y-52731D01*
X57005Y-52712D01*
X57043Y-52712D01*
X57099Y-52731D01*
X57324Y-52956D01*
X57324Y-52712D01*
X56968Y-52562D02*
X56949Y-52543D01*
X56930Y-52506D01*
X56930Y-52412D01*
X56949Y-52374D01*
X56968Y-52356D01*
X57005Y-52337D01*
X57043Y-52337D01*
X57099Y-52356D01*
X57324Y-52581D01*
X57324Y-52337D01*
X71036Y-43163D02*
X71017Y-43182D01*
X70961Y-43200D01*
X70923Y-43200D01*
X70867Y-43182D01*
X70829Y-43144D01*
X70810Y-43107D01*
X70792Y-43031D01*
X70792Y-42975D01*
X70810Y-42900D01*
X70829Y-42863D01*
X70867Y-42825D01*
X70923Y-42806D01*
X70961Y-42806D01*
X71017Y-42825D01*
X71036Y-42844D01*
X71411Y-43200D02*
X71186Y-43200D01*
X71298Y-43200D02*
X71298Y-42806D01*
X71261Y-42863D01*
X71223Y-42900D01*
X71186Y-42919D01*
X71749Y-42938D02*
X71749Y-43200D01*
X71655Y-42788D02*
X71561Y-43069D01*
X71805Y-43069D01*
X71036Y-42179D02*
X71017Y-42197D01*
X70961Y-42216D01*
X70923Y-42216D01*
X70867Y-42197D01*
X70829Y-42160D01*
X70810Y-42122D01*
X70792Y-42047D01*
X70792Y-41991D01*
X70810Y-41916D01*
X70829Y-41878D01*
X70867Y-41841D01*
X70923Y-41822D01*
X70961Y-41822D01*
X71017Y-41841D01*
X71036Y-41860D01*
X71411Y-42216D02*
X71186Y-42216D01*
X71298Y-42216D02*
X71298Y-41822D01*
X71261Y-41878D01*
X71223Y-41916D01*
X71186Y-41935D01*
X71767Y-41822D02*
X71580Y-41822D01*
X71561Y-42010D01*
X71580Y-41991D01*
X71617Y-41972D01*
X71711Y-41972D01*
X71749Y-41991D01*
X71767Y-42010D01*
X71786Y-42047D01*
X71786Y-42141D01*
X71767Y-42179D01*
X71749Y-42197D01*
X71711Y-42216D01*
X71617Y-42216D01*
X71580Y-42197D01*
X71561Y-42179D01*
X69195Y-51932D02*
X69176Y-51951D01*
X69120Y-51970D01*
X69082Y-51970D01*
X69026Y-51951D01*
X68989Y-51914D01*
X68970Y-51876D01*
X68951Y-51801D01*
X68951Y-51745D01*
X68970Y-51670D01*
X68989Y-51632D01*
X69026Y-51595D01*
X69082Y-51576D01*
X69120Y-51576D01*
X69176Y-51595D01*
X69195Y-51614D01*
X69570Y-51970D02*
X69345Y-51970D01*
X69458Y-51970D02*
X69458Y-51576D01*
X69420Y-51632D01*
X69383Y-51670D01*
X69345Y-51689D01*
X69908Y-51576D02*
X69833Y-51576D01*
X69795Y-51595D01*
X69777Y-51614D01*
X69739Y-51670D01*
X69720Y-51745D01*
X69720Y-51895D01*
X69739Y-51932D01*
X69758Y-51951D01*
X69795Y-51970D01*
X69870Y-51970D01*
X69908Y-51951D01*
X69927Y-51932D01*
X69946Y-51895D01*
X69946Y-51801D01*
X69927Y-51764D01*
X69908Y-51745D01*
X69870Y-51726D01*
X69795Y-51726D01*
X69758Y-51745D01*
X69739Y-51764D01*
X69720Y-51801D01*
X71017Y-41129D02*
X71036Y-41148D01*
X71055Y-41204D01*
X71055Y-41241D01*
X71036Y-41298D01*
X70998Y-41335D01*
X70961Y-41354D01*
X70886Y-41373D01*
X70830Y-41373D01*
X70754Y-41354D01*
X70717Y-41335D01*
X70679Y-41298D01*
X70661Y-41241D01*
X70661Y-41204D01*
X70679Y-41148D01*
X70698Y-41129D01*
X71055Y-40754D02*
X71055Y-40979D01*
X71055Y-40866D02*
X70661Y-40866D01*
X70717Y-40904D01*
X70754Y-40941D01*
X70773Y-40979D01*
X70830Y-40528D02*
X70811Y-40566D01*
X70792Y-40585D01*
X70754Y-40603D01*
X70736Y-40603D01*
X70698Y-40585D01*
X70679Y-40566D01*
X70661Y-40528D01*
X70661Y-40453D01*
X70679Y-40416D01*
X70698Y-40397D01*
X70736Y-40378D01*
X70754Y-40378D01*
X70792Y-40397D01*
X70811Y-40416D01*
X70830Y-40453D01*
X70830Y-40528D01*
X70848Y-40566D01*
X70867Y-40585D01*
X70905Y-40603D01*
X70980Y-40603D01*
X71017Y-40585D01*
X71036Y-40566D01*
X71055Y-40528D01*
X71055Y-40453D01*
X71036Y-40416D01*
X71017Y-40397D01*
X70980Y-40378D01*
X70905Y-40378D01*
X70867Y-40397D01*
X70848Y-40416D01*
X70830Y-40453D01*
X59431Y-54216D02*
X59412Y-54235D01*
X59356Y-54253D01*
X59319Y-54253D01*
X59262Y-54235D01*
X59225Y-54197D01*
X59206Y-54160D01*
X59187Y-54085D01*
X59187Y-54028D01*
X59206Y-53953D01*
X59225Y-53916D01*
X59262Y-53878D01*
X59319Y-53859D01*
X59356Y-53859D01*
X59412Y-53878D01*
X59431Y-53897D01*
X59581Y-53897D02*
X59600Y-53878D01*
X59638Y-53859D01*
X59731Y-53859D01*
X59769Y-53878D01*
X59788Y-53897D01*
X59806Y-53935D01*
X59806Y-53972D01*
X59788Y-54028D01*
X59563Y-54253D01*
X59806Y-54253D01*
X60182Y-54253D02*
X59957Y-54253D01*
X60069Y-54253D02*
X60069Y-53859D01*
X60032Y-53916D01*
X59994Y-53953D01*
X59957Y-53972D01*
X62581Y-53350D02*
X62562Y-53369D01*
X62506Y-53387D01*
X62468Y-53387D01*
X62412Y-53369D01*
X62374Y-53331D01*
X62356Y-53294D01*
X62337Y-53218D01*
X62337Y-53162D01*
X62356Y-53087D01*
X62374Y-53050D01*
X62412Y-53012D01*
X62468Y-52993D01*
X62506Y-52993D01*
X62562Y-53012D01*
X62581Y-53031D01*
X62731Y-53031D02*
X62750Y-53012D01*
X62787Y-52993D01*
X62881Y-52993D01*
X62919Y-53012D01*
X62937Y-53031D01*
X62956Y-53068D01*
X62956Y-53106D01*
X62937Y-53162D01*
X62712Y-53387D01*
X62956Y-53387D01*
X63294Y-53125D02*
X63294Y-53387D01*
X63200Y-52975D02*
X63106Y-53256D01*
X63350Y-53256D01*
X57287Y-51434D02*
X57306Y-51453D01*
X57324Y-51509D01*
X57324Y-51546D01*
X57306Y-51603D01*
X57268Y-51640D01*
X57231Y-51659D01*
X57155Y-51678D01*
X57099Y-51678D01*
X57024Y-51659D01*
X56987Y-51640D01*
X56949Y-51603D01*
X56930Y-51546D01*
X56930Y-51509D01*
X56949Y-51453D01*
X56968Y-51434D01*
X56968Y-51284D02*
X56949Y-51265D01*
X56930Y-51228D01*
X56930Y-51134D01*
X56949Y-51096D01*
X56968Y-51077D01*
X57005Y-51059D01*
X57043Y-51059D01*
X57099Y-51077D01*
X57324Y-51303D01*
X57324Y-51059D01*
X56930Y-50702D02*
X56930Y-50890D01*
X57118Y-50909D01*
X57099Y-50890D01*
X57080Y-50852D01*
X57080Y-50758D01*
X57099Y-50721D01*
X57118Y-50702D01*
X57155Y-50683D01*
X57249Y-50683D01*
X57287Y-50702D01*
X57306Y-50721D01*
X57324Y-50758D01*
X57324Y-50852D01*
X57306Y-50890D01*
X57287Y-50909D01*
X57856Y-47602D02*
X57838Y-47621D01*
X57781Y-47639D01*
X57744Y-47639D01*
X57688Y-47621D01*
X57650Y-47583D01*
X57631Y-47545D01*
X57613Y-47470D01*
X57613Y-47414D01*
X57631Y-47339D01*
X57650Y-47302D01*
X57688Y-47264D01*
X57744Y-47245D01*
X57781Y-47245D01*
X57838Y-47264D01*
X57856Y-47283D01*
X58007Y-47283D02*
X58025Y-47264D01*
X58063Y-47245D01*
X58157Y-47245D01*
X58194Y-47264D01*
X58213Y-47283D01*
X58232Y-47320D01*
X58232Y-47358D01*
X58213Y-47414D01*
X57988Y-47639D01*
X58232Y-47639D01*
X58363Y-47245D02*
X58607Y-47245D01*
X58476Y-47395D01*
X58532Y-47395D01*
X58569Y-47414D01*
X58588Y-47433D01*
X58607Y-47470D01*
X58607Y-47564D01*
X58588Y-47602D01*
X58569Y-47621D01*
X58532Y-47639D01*
X58419Y-47639D01*
X58382Y-47621D01*
X58363Y-47602D01*
G54D22*
X71617Y-48871D02*
X71598Y-48890D01*
X71542Y-48909D01*
X71504Y-48909D01*
X71448Y-48890D01*
X71411Y-48853D01*
X71392Y-48815D01*
X71373Y-48740D01*
X71373Y-48684D01*
X71392Y-48609D01*
X71411Y-48571D01*
X71448Y-48534D01*
X71504Y-48515D01*
X71542Y-48515D01*
X71598Y-48534D01*
X71617Y-48553D01*
X71748Y-48515D02*
X72011Y-48515D01*
X71842Y-48909D01*
X71233Y-52021D02*
X71214Y-52040D01*
X71158Y-52058D01*
X71120Y-52058D01*
X71064Y-52040D01*
X71026Y-52002D01*
X71008Y-51965D01*
X70989Y-51890D01*
X70989Y-51833D01*
X71008Y-51758D01*
X71026Y-51721D01*
X71064Y-51684D01*
X71120Y-51665D01*
X71158Y-51665D01*
X71214Y-51684D01*
X71233Y-51702D01*
X71608Y-52058D02*
X71383Y-52058D01*
X71495Y-52058D02*
X71495Y-51665D01*
X71458Y-51721D01*
X71420Y-51758D01*
X71383Y-51777D01*
X71983Y-52058D02*
X71758Y-52058D01*
X71870Y-52058D02*
X71870Y-51665D01*
X71833Y-51721D01*
X71795Y-51758D01*
X71758Y-51777D01*
X71233Y-51234D02*
X71214Y-51252D01*
X71158Y-51271D01*
X71120Y-51271D01*
X71064Y-51252D01*
X71026Y-51215D01*
X71008Y-51177D01*
X70989Y-51102D01*
X70989Y-51046D01*
X71008Y-50971D01*
X71026Y-50934D01*
X71064Y-50896D01*
X71120Y-50877D01*
X71158Y-50877D01*
X71214Y-50896D01*
X71233Y-50915D01*
X71608Y-51271D02*
X71383Y-51271D01*
X71495Y-51271D02*
X71495Y-50877D01*
X71458Y-50934D01*
X71420Y-50971D01*
X71383Y-50990D01*
X71851Y-50877D02*
X71889Y-50877D01*
X71926Y-50896D01*
X71945Y-50915D01*
X71964Y-50952D01*
X71983Y-51027D01*
X71983Y-51121D01*
X71964Y-51196D01*
X71945Y-51234D01*
X71926Y-51252D01*
X71889Y-51271D01*
X71851Y-51271D01*
X71814Y-51252D01*
X71795Y-51234D01*
X71776Y-51196D01*
X71758Y-51121D01*
X71758Y-51027D01*
X71776Y-50952D01*
X71795Y-50915D01*
X71814Y-50896D01*
X71851Y-50877D01*
X71617Y-50446D02*
X71598Y-50465D01*
X71542Y-50484D01*
X71504Y-50484D01*
X71448Y-50465D01*
X71411Y-50427D01*
X71392Y-50390D01*
X71373Y-50315D01*
X71373Y-50259D01*
X71392Y-50184D01*
X71411Y-50146D01*
X71448Y-50109D01*
X71504Y-50090D01*
X71542Y-50090D01*
X71598Y-50109D01*
X71617Y-50127D01*
X71804Y-50484D02*
X71879Y-50484D01*
X71917Y-50465D01*
X71936Y-50446D01*
X71973Y-50390D01*
X71992Y-50315D01*
X71992Y-50165D01*
X71973Y-50127D01*
X71954Y-50109D01*
X71917Y-50090D01*
X71842Y-50090D01*
X71804Y-50109D01*
X71786Y-50127D01*
X71767Y-50165D01*
X71767Y-50259D01*
X71786Y-50296D01*
X71804Y-50315D01*
X71842Y-50334D01*
X71917Y-50334D01*
X71954Y-50315D01*
X71973Y-50296D01*
X71992Y-50259D01*
X58172Y-42799D02*
X58153Y-42817D01*
X58097Y-42836D01*
X58059Y-42836D01*
X58003Y-42817D01*
X57965Y-42780D01*
X57947Y-42742D01*
X57928Y-42667D01*
X57928Y-42611D01*
X57947Y-42536D01*
X57965Y-42499D01*
X58003Y-42461D01*
X58059Y-42442D01*
X58097Y-42442D01*
X58153Y-42461D01*
X58172Y-42480D01*
X58322Y-42480D02*
X58340Y-42461D01*
X58378Y-42442D01*
X58472Y-42442D01*
X58509Y-42461D01*
X58528Y-42480D01*
X58547Y-42517D01*
X58547Y-42555D01*
X58528Y-42611D01*
X58303Y-42836D01*
X58547Y-42836D01*
X58790Y-42442D02*
X58828Y-42442D01*
X58865Y-42461D01*
X58884Y-42480D01*
X58903Y-42517D01*
X58922Y-42592D01*
X58922Y-42686D01*
X58903Y-42761D01*
X58884Y-42799D01*
X58865Y-42817D01*
X58828Y-42836D01*
X58790Y-42836D01*
X58753Y-42817D01*
X58734Y-42799D01*
X58715Y-42761D01*
X58697Y-42686D01*
X58697Y-42592D01*
X58715Y-42517D01*
X58734Y-42480D01*
X58753Y-42461D01*
X58790Y-42442D01*
X70919Y-39849D02*
X70937Y-39868D01*
X70956Y-39924D01*
X70956Y-39962D01*
X70937Y-40018D01*
X70900Y-40055D01*
X70862Y-40074D01*
X70787Y-40093D01*
X70731Y-40093D01*
X70656Y-40074D01*
X70619Y-40055D01*
X70581Y-40018D01*
X70562Y-39962D01*
X70562Y-39924D01*
X70581Y-39868D01*
X70600Y-39849D01*
X70956Y-39474D02*
X70956Y-39699D01*
X70956Y-39587D02*
X70562Y-39587D01*
X70619Y-39624D01*
X70656Y-39662D01*
X70675Y-39699D01*
X70562Y-39343D02*
X70562Y-39080D01*
X70956Y-39249D01*
X60849Y-43035D02*
X60830Y-43053D01*
X60774Y-43072D01*
X60736Y-43072D01*
X60680Y-43053D01*
X60643Y-43016D01*
X60624Y-42979D01*
X60605Y-42904D01*
X60605Y-42847D01*
X60624Y-42772D01*
X60643Y-42735D01*
X60680Y-42697D01*
X60736Y-42679D01*
X60774Y-42679D01*
X60830Y-42697D01*
X60849Y-42716D01*
X61224Y-43072D02*
X60999Y-43072D01*
X61111Y-43072D02*
X61111Y-42679D01*
X61074Y-42735D01*
X61036Y-42772D01*
X60999Y-42791D01*
X61411Y-43072D02*
X61486Y-43072D01*
X61524Y-43053D01*
X61542Y-43035D01*
X61580Y-42979D01*
X61599Y-42904D01*
X61599Y-42754D01*
X61580Y-42716D01*
X61561Y-42697D01*
X61524Y-42679D01*
X61449Y-42679D01*
X61411Y-42697D01*
X61392Y-42716D01*
X61374Y-42754D01*
X61374Y-42847D01*
X61392Y-42885D01*
X61411Y-42904D01*
X61449Y-42922D01*
X61524Y-42922D01*
X61561Y-42904D01*
X61580Y-42885D01*
X61599Y-42847D01*
X71233Y-53596D02*
X71214Y-53615D01*
X71158Y-53633D01*
X71120Y-53633D01*
X71064Y-53615D01*
X71026Y-53577D01*
X71008Y-53540D01*
X70989Y-53465D01*
X70989Y-53408D01*
X71008Y-53333D01*
X71026Y-53296D01*
X71064Y-53258D01*
X71120Y-53240D01*
X71158Y-53240D01*
X71214Y-53258D01*
X71233Y-53277D01*
X71608Y-53633D02*
X71383Y-53633D01*
X71495Y-53633D02*
X71495Y-53240D01*
X71458Y-53296D01*
X71420Y-53333D01*
X71383Y-53352D01*
X71739Y-53240D02*
X71983Y-53240D01*
X71851Y-53390D01*
X71908Y-53390D01*
X71945Y-53408D01*
X71964Y-53427D01*
X71983Y-53465D01*
X71983Y-53558D01*
X71964Y-53596D01*
X71945Y-53615D01*
X71908Y-53633D01*
X71795Y-53633D01*
X71758Y-53615D01*
X71739Y-53596D01*
X71617Y-49659D02*
X71598Y-49678D01*
X71542Y-49696D01*
X71504Y-49696D01*
X71448Y-49678D01*
X71411Y-49640D01*
X71392Y-49603D01*
X71373Y-49528D01*
X71373Y-49471D01*
X71392Y-49396D01*
X71411Y-49359D01*
X71448Y-49321D01*
X71504Y-49303D01*
X71542Y-49303D01*
X71598Y-49321D01*
X71617Y-49340D01*
X71842Y-49471D02*
X71804Y-49453D01*
X71786Y-49434D01*
X71767Y-49396D01*
X71767Y-49378D01*
X71786Y-49340D01*
X71804Y-49321D01*
X71842Y-49303D01*
X71917Y-49303D01*
X71954Y-49321D01*
X71973Y-49340D01*
X71992Y-49378D01*
X71992Y-49396D01*
X71973Y-49434D01*
X71954Y-49453D01*
X71917Y-49471D01*
X71842Y-49471D01*
X71804Y-49490D01*
X71786Y-49509D01*
X71767Y-49546D01*
X71767Y-49621D01*
X71786Y-49659D01*
X71804Y-49678D01*
X71842Y-49696D01*
X71917Y-49696D01*
X71954Y-49678D01*
X71973Y-49659D01*
X71992Y-49621D01*
X71992Y-49546D01*
X71973Y-49509D01*
X71954Y-49490D01*
X71917Y-49471D01*
X71617Y-44147D02*
X71598Y-44166D01*
X71542Y-44184D01*
X71504Y-44184D01*
X71448Y-44166D01*
X71411Y-44128D01*
X71392Y-44091D01*
X71373Y-44016D01*
X71373Y-43959D01*
X71392Y-43884D01*
X71411Y-43847D01*
X71448Y-43809D01*
X71504Y-43791D01*
X71542Y-43791D01*
X71598Y-43809D01*
X71617Y-43828D01*
X71992Y-44184D02*
X71767Y-44184D01*
X71879Y-44184D02*
X71879Y-43791D01*
X71842Y-43847D01*
X71804Y-43884D01*
X71767Y-43903D01*
X71617Y-44934D02*
X71598Y-44953D01*
X71542Y-44972D01*
X71504Y-44972D01*
X71448Y-44953D01*
X71411Y-44916D01*
X71392Y-44878D01*
X71373Y-44803D01*
X71373Y-44747D01*
X71392Y-44672D01*
X71411Y-44634D01*
X71448Y-44597D01*
X71504Y-44578D01*
X71542Y-44578D01*
X71598Y-44597D01*
X71617Y-44616D01*
X71767Y-44616D02*
X71786Y-44597D01*
X71823Y-44578D01*
X71917Y-44578D01*
X71954Y-44597D01*
X71973Y-44616D01*
X71992Y-44653D01*
X71992Y-44691D01*
X71973Y-44747D01*
X71748Y-44972D01*
X71992Y-44972D01*
X71233Y-52808D02*
X71214Y-52827D01*
X71158Y-52846D01*
X71120Y-52846D01*
X71064Y-52827D01*
X71026Y-52790D01*
X71008Y-52752D01*
X70989Y-52677D01*
X70989Y-52621D01*
X71008Y-52546D01*
X71026Y-52508D01*
X71064Y-52471D01*
X71120Y-52452D01*
X71158Y-52452D01*
X71214Y-52471D01*
X71233Y-52490D01*
X71608Y-52846D02*
X71383Y-52846D01*
X71495Y-52846D02*
X71495Y-52452D01*
X71458Y-52508D01*
X71420Y-52546D01*
X71383Y-52565D01*
X71758Y-52490D02*
X71776Y-52471D01*
X71814Y-52452D01*
X71908Y-52452D01*
X71945Y-52471D01*
X71964Y-52490D01*
X71983Y-52527D01*
X71983Y-52565D01*
X71964Y-52621D01*
X71739Y-52846D01*
X71983Y-52846D01*
X71617Y-45722D02*
X71598Y-45741D01*
X71542Y-45759D01*
X71504Y-45759D01*
X71448Y-45741D01*
X71411Y-45703D01*
X71392Y-45666D01*
X71373Y-45591D01*
X71373Y-45534D01*
X71392Y-45459D01*
X71411Y-45422D01*
X71448Y-45384D01*
X71504Y-45366D01*
X71542Y-45366D01*
X71598Y-45384D01*
X71617Y-45403D01*
X71748Y-45366D02*
X71992Y-45366D01*
X71861Y-45516D01*
X71917Y-45516D01*
X71954Y-45534D01*
X71973Y-45553D01*
X71992Y-45591D01*
X71992Y-45684D01*
X71973Y-45722D01*
X71954Y-45741D01*
X71917Y-45759D01*
X71804Y-45759D01*
X71767Y-45741D01*
X71748Y-45722D01*
X71617Y-46509D02*
X71598Y-46528D01*
X71542Y-46547D01*
X71504Y-46547D01*
X71448Y-46528D01*
X71411Y-46490D01*
X71392Y-46453D01*
X71373Y-46378D01*
X71373Y-46322D01*
X71392Y-46247D01*
X71411Y-46209D01*
X71448Y-46172D01*
X71504Y-46153D01*
X71542Y-46153D01*
X71598Y-46172D01*
X71617Y-46190D01*
X71954Y-46284D02*
X71954Y-46547D01*
X71861Y-46134D02*
X71767Y-46415D01*
X72011Y-46415D01*
X71617Y-47297D02*
X71598Y-47315D01*
X71542Y-47334D01*
X71504Y-47334D01*
X71448Y-47315D01*
X71411Y-47278D01*
X71392Y-47240D01*
X71373Y-47165D01*
X71373Y-47109D01*
X71392Y-47034D01*
X71411Y-46997D01*
X71448Y-46959D01*
X71504Y-46940D01*
X71542Y-46940D01*
X71598Y-46959D01*
X71617Y-46978D01*
X71973Y-46940D02*
X71786Y-46940D01*
X71767Y-47128D01*
X71786Y-47109D01*
X71823Y-47090D01*
X71917Y-47090D01*
X71954Y-47109D01*
X71973Y-47128D01*
X71992Y-47165D01*
X71992Y-47259D01*
X71973Y-47297D01*
X71954Y-47315D01*
X71917Y-47334D01*
X71823Y-47334D01*
X71786Y-47315D01*
X71767Y-47297D01*
X71617Y-48084D02*
X71598Y-48103D01*
X71542Y-48121D01*
X71504Y-48121D01*
X71448Y-48103D01*
X71411Y-48065D01*
X71392Y-48028D01*
X71373Y-47953D01*
X71373Y-47896D01*
X71392Y-47821D01*
X71411Y-47784D01*
X71448Y-47747D01*
X71504Y-47728D01*
X71542Y-47728D01*
X71598Y-47747D01*
X71617Y-47765D01*
X71954Y-47728D02*
X71879Y-47728D01*
X71842Y-47747D01*
X71823Y-47765D01*
X71786Y-47821D01*
X71767Y-47896D01*
X71767Y-48046D01*
X71786Y-48084D01*
X71804Y-48103D01*
X71842Y-48121D01*
X71917Y-48121D01*
X71954Y-48103D01*
X71973Y-48084D01*
X71992Y-48046D01*
X71992Y-47953D01*
X71973Y-47915D01*
X71954Y-47896D01*
X71917Y-47878D01*
X71842Y-47878D01*
X71804Y-47896D01*
X71786Y-47915D01*
X71767Y-47953D01*
X75357Y-49499D02*
X75226Y-49312D01*
X75132Y-49499D02*
X75132Y-49106D01*
X75282Y-49106D01*
X75320Y-49124D01*
X75338Y-49143D01*
X75357Y-49181D01*
X75357Y-49237D01*
X75338Y-49274D01*
X75320Y-49293D01*
X75282Y-49312D01*
X75132Y-49312D01*
X75582Y-49274D02*
X75545Y-49256D01*
X75526Y-49237D01*
X75507Y-49199D01*
X75507Y-49181D01*
X75526Y-49143D01*
X75545Y-49124D01*
X75582Y-49106D01*
X75657Y-49106D01*
X75695Y-49124D01*
X75713Y-49143D01*
X75732Y-49181D01*
X75732Y-49199D01*
X75713Y-49237D01*
X75695Y-49256D01*
X75657Y-49274D01*
X75582Y-49274D01*
X75545Y-49293D01*
X75526Y-49312D01*
X75507Y-49349D01*
X75507Y-49424D01*
X75526Y-49462D01*
X75545Y-49481D01*
X75582Y-49499D01*
X75657Y-49499D01*
X75695Y-49481D01*
X75713Y-49462D01*
X75732Y-49424D01*
X75732Y-49349D01*
X75713Y-49312D01*
X75695Y-49293D01*
X75657Y-49274D01*
X75484Y-52841D02*
X75296Y-52972D01*
X75484Y-53066D02*
X75090Y-53066D01*
X75090Y-52916D01*
X75109Y-52879D01*
X75127Y-52860D01*
X75165Y-52841D01*
X75221Y-52841D01*
X75259Y-52860D01*
X75277Y-52879D01*
X75296Y-52916D01*
X75296Y-53066D01*
X75484Y-52466D02*
X75484Y-52691D01*
X75484Y-52579D02*
X75090Y-52579D01*
X75146Y-52616D01*
X75184Y-52654D01*
X75202Y-52691D01*
X75127Y-52316D02*
X75109Y-52297D01*
X75090Y-52260D01*
X75090Y-52166D01*
X75109Y-52129D01*
X75127Y-52110D01*
X75165Y-52091D01*
X75202Y-52091D01*
X75259Y-52110D01*
X75484Y-52335D01*
X75484Y-52091D01*
X75366Y-51862D02*
X75235Y-51674D01*
X75142Y-51862D02*
X75142Y-51468D01*
X75291Y-51468D01*
X75329Y-51487D01*
X75348Y-51505D01*
X75366Y-51543D01*
X75366Y-51599D01*
X75348Y-51637D01*
X75329Y-51655D01*
X75291Y-51674D01*
X75142Y-51674D01*
X75741Y-51862D02*
X75516Y-51862D01*
X75629Y-51862D02*
X75629Y-51468D01*
X75591Y-51524D01*
X75554Y-51562D01*
X75516Y-51580D01*
X76116Y-51862D02*
X75891Y-51862D01*
X76004Y-51862D02*
X76004Y-51468D01*
X75966Y-51524D01*
X75929Y-51562D01*
X75891Y-51580D01*
X75366Y-51074D02*
X75235Y-50887D01*
X75142Y-51074D02*
X75142Y-50681D01*
X75291Y-50681D01*
X75329Y-50699D01*
X75348Y-50718D01*
X75366Y-50755D01*
X75366Y-50812D01*
X75348Y-50849D01*
X75329Y-50868D01*
X75291Y-50887D01*
X75142Y-50887D01*
X75741Y-51074D02*
X75516Y-51074D01*
X75629Y-51074D02*
X75629Y-50681D01*
X75591Y-50737D01*
X75554Y-50774D01*
X75516Y-50793D01*
X75985Y-50681D02*
X76023Y-50681D01*
X76060Y-50699D01*
X76079Y-50718D01*
X76098Y-50755D01*
X76116Y-50830D01*
X76116Y-50924D01*
X76098Y-50999D01*
X76079Y-51037D01*
X76060Y-51055D01*
X76023Y-51074D01*
X75985Y-51074D01*
X75948Y-51055D01*
X75929Y-51037D01*
X75910Y-50999D01*
X75891Y-50924D01*
X75891Y-50830D01*
X75910Y-50755D01*
X75929Y-50718D01*
X75948Y-50699D01*
X75985Y-50681D01*
X75357Y-50287D02*
X75226Y-50099D01*
X75132Y-50287D02*
X75132Y-49893D01*
X75282Y-49893D01*
X75320Y-49912D01*
X75338Y-49931D01*
X75357Y-49968D01*
X75357Y-50024D01*
X75338Y-50062D01*
X75320Y-50081D01*
X75282Y-50099D01*
X75132Y-50099D01*
X75545Y-50287D02*
X75620Y-50287D01*
X75657Y-50268D01*
X75676Y-50249D01*
X75713Y-50193D01*
X75732Y-50118D01*
X75732Y-49968D01*
X75713Y-49931D01*
X75695Y-49912D01*
X75657Y-49893D01*
X75582Y-49893D01*
X75545Y-49912D01*
X75526Y-49931D01*
X75507Y-49968D01*
X75507Y-50062D01*
X75526Y-50099D01*
X75545Y-50118D01*
X75582Y-50137D01*
X75657Y-50137D01*
X75695Y-50118D01*
X75713Y-50099D01*
X75732Y-50062D01*
X60849Y-39844D02*
X60718Y-39656D01*
X60624Y-39844D02*
X60624Y-39450D01*
X60774Y-39450D01*
X60811Y-39469D01*
X60830Y-39488D01*
X60849Y-39525D01*
X60849Y-39581D01*
X60830Y-39619D01*
X60811Y-39638D01*
X60774Y-39656D01*
X60624Y-39656D01*
X60999Y-39488D02*
X61017Y-39469D01*
X61055Y-39450D01*
X61149Y-39450D01*
X61186Y-39469D01*
X61205Y-39488D01*
X61224Y-39525D01*
X61224Y-39563D01*
X61205Y-39619D01*
X60980Y-39844D01*
X61224Y-39844D01*
X61374Y-39488D02*
X61392Y-39469D01*
X61430Y-39450D01*
X61524Y-39450D01*
X61561Y-39469D01*
X61580Y-39488D01*
X61599Y-39525D01*
X61599Y-39563D01*
X61580Y-39619D01*
X61355Y-39844D01*
X61599Y-39844D01*
X75357Y-48712D02*
X75226Y-48525D01*
X75132Y-48712D02*
X75132Y-48318D01*
X75282Y-48318D01*
X75320Y-48337D01*
X75338Y-48356D01*
X75357Y-48393D01*
X75357Y-48450D01*
X75338Y-48487D01*
X75320Y-48506D01*
X75282Y-48525D01*
X75132Y-48525D01*
X75488Y-48318D02*
X75751Y-48318D01*
X75582Y-48712D01*
X60849Y-42206D02*
X60718Y-42019D01*
X60624Y-42206D02*
X60624Y-41812D01*
X60774Y-41812D01*
X60811Y-41831D01*
X60830Y-41850D01*
X60849Y-41887D01*
X60849Y-41944D01*
X60830Y-41981D01*
X60811Y-42000D01*
X60774Y-42019D01*
X60624Y-42019D01*
X61224Y-42206D02*
X60999Y-42206D01*
X61111Y-42206D02*
X61111Y-41812D01*
X61074Y-41869D01*
X61036Y-41906D01*
X60999Y-41925D01*
X61411Y-42206D02*
X61486Y-42206D01*
X61524Y-42187D01*
X61542Y-42169D01*
X61580Y-42112D01*
X61599Y-42037D01*
X61599Y-41887D01*
X61580Y-41850D01*
X61561Y-41831D01*
X61524Y-41812D01*
X61449Y-41812D01*
X61411Y-41831D01*
X61392Y-41850D01*
X61374Y-41887D01*
X61374Y-41981D01*
X61392Y-42019D01*
X61411Y-42037D01*
X61449Y-42056D01*
X61524Y-42056D01*
X61561Y-42037D01*
X61580Y-42019D01*
X61599Y-41981D01*
X60849Y-41419D02*
X60718Y-41231D01*
X60624Y-41419D02*
X60624Y-41025D01*
X60774Y-41025D01*
X60811Y-41044D01*
X60830Y-41062D01*
X60849Y-41100D01*
X60849Y-41156D01*
X60830Y-41194D01*
X60811Y-41212D01*
X60774Y-41231D01*
X60624Y-41231D01*
X60999Y-41062D02*
X61017Y-41044D01*
X61055Y-41025D01*
X61149Y-41025D01*
X61186Y-41044D01*
X61205Y-41062D01*
X61224Y-41100D01*
X61224Y-41137D01*
X61205Y-41194D01*
X60980Y-41419D01*
X61224Y-41419D01*
X61467Y-41025D02*
X61505Y-41025D01*
X61542Y-41044D01*
X61561Y-41062D01*
X61580Y-41100D01*
X61599Y-41175D01*
X61599Y-41269D01*
X61580Y-41344D01*
X61561Y-41381D01*
X61542Y-41400D01*
X61505Y-41419D01*
X61467Y-41419D01*
X61430Y-41400D01*
X61411Y-41381D01*
X61392Y-41344D01*
X61374Y-41269D01*
X61374Y-41175D01*
X61392Y-41100D01*
X61411Y-41062D01*
X61430Y-41044D01*
X61467Y-41025D01*
X60849Y-40631D02*
X60718Y-40444D01*
X60624Y-40631D02*
X60624Y-40238D01*
X60774Y-40238D01*
X60811Y-40256D01*
X60830Y-40275D01*
X60849Y-40313D01*
X60849Y-40369D01*
X60830Y-40406D01*
X60811Y-40425D01*
X60774Y-40444D01*
X60624Y-40444D01*
X60999Y-40275D02*
X61017Y-40256D01*
X61055Y-40238D01*
X61149Y-40238D01*
X61186Y-40256D01*
X61205Y-40275D01*
X61224Y-40313D01*
X61224Y-40350D01*
X61205Y-40406D01*
X60980Y-40631D01*
X61224Y-40631D01*
X61355Y-40238D02*
X61599Y-40238D01*
X61467Y-40388D01*
X61524Y-40388D01*
X61561Y-40406D01*
X61580Y-40425D01*
X61599Y-40463D01*
X61599Y-40556D01*
X61580Y-40594D01*
X61561Y-40613D01*
X61524Y-40631D01*
X61411Y-40631D01*
X61374Y-40613D01*
X61355Y-40594D01*
X58172Y-41261D02*
X58040Y-41074D01*
X57947Y-41261D02*
X57947Y-40868D01*
X58097Y-40868D01*
X58134Y-40886D01*
X58153Y-40905D01*
X58172Y-40943D01*
X58172Y-40999D01*
X58153Y-41036D01*
X58134Y-41055D01*
X58097Y-41074D01*
X57947Y-41074D01*
X58322Y-40905D02*
X58340Y-40886D01*
X58378Y-40868D01*
X58472Y-40868D01*
X58509Y-40886D01*
X58528Y-40905D01*
X58547Y-40943D01*
X58547Y-40980D01*
X58528Y-41036D01*
X58303Y-41261D01*
X58547Y-41261D01*
X58772Y-41036D02*
X58734Y-41017D01*
X58715Y-40999D01*
X58697Y-40961D01*
X58697Y-40943D01*
X58715Y-40905D01*
X58734Y-40886D01*
X58772Y-40868D01*
X58847Y-40868D01*
X58884Y-40886D01*
X58903Y-40905D01*
X58922Y-40943D01*
X58922Y-40961D01*
X58903Y-40999D01*
X58884Y-41017D01*
X58847Y-41036D01*
X58772Y-41036D01*
X58734Y-41055D01*
X58715Y-41074D01*
X58697Y-41111D01*
X58697Y-41186D01*
X58715Y-41224D01*
X58734Y-41242D01*
X58772Y-41261D01*
X58847Y-41261D01*
X58884Y-41242D01*
X58903Y-41224D01*
X58922Y-41186D01*
X58922Y-41111D01*
X58903Y-41074D01*
X58884Y-41055D01*
X58847Y-41036D01*
X70366Y-42999D02*
X70178Y-43130D01*
X70366Y-43224D02*
X69972Y-43224D01*
X69972Y-43074D01*
X69991Y-43036D01*
X70009Y-43017D01*
X70047Y-42999D01*
X70103Y-42999D01*
X70141Y-43017D01*
X70159Y-43036D01*
X70178Y-43074D01*
X70178Y-43224D01*
X70366Y-42624D02*
X70366Y-42849D01*
X70366Y-42736D02*
X69972Y-42736D01*
X70028Y-42774D01*
X70066Y-42811D01*
X70084Y-42849D01*
X70141Y-42399D02*
X70122Y-42436D01*
X70103Y-42455D01*
X70066Y-42474D01*
X70047Y-42474D01*
X70009Y-42455D01*
X69991Y-42436D01*
X69972Y-42399D01*
X69972Y-42324D01*
X69991Y-42286D01*
X70009Y-42267D01*
X70047Y-42249D01*
X70066Y-42249D01*
X70103Y-42267D01*
X70122Y-42286D01*
X70141Y-42324D01*
X70141Y-42399D01*
X70159Y-42436D01*
X70178Y-42455D01*
X70216Y-42474D01*
X70291Y-42474D01*
X70328Y-42455D01*
X70347Y-42436D01*
X70366Y-42399D01*
X70366Y-42324D01*
X70347Y-42286D01*
X70328Y-42267D01*
X70291Y-42249D01*
X70216Y-42249D01*
X70178Y-42267D01*
X70159Y-42286D01*
X70141Y-42324D01*
X58172Y-40474D02*
X58040Y-40286D01*
X57947Y-40474D02*
X57947Y-40080D01*
X58097Y-40080D01*
X58134Y-40099D01*
X58153Y-40118D01*
X58172Y-40155D01*
X58172Y-40211D01*
X58153Y-40249D01*
X58134Y-40268D01*
X58097Y-40286D01*
X57947Y-40286D01*
X58322Y-40118D02*
X58340Y-40099D01*
X58378Y-40080D01*
X58472Y-40080D01*
X58509Y-40099D01*
X58528Y-40118D01*
X58547Y-40155D01*
X58547Y-40193D01*
X58528Y-40249D01*
X58303Y-40474D01*
X58547Y-40474D01*
X58884Y-40211D02*
X58884Y-40474D01*
X58790Y-40061D02*
X58697Y-40343D01*
X58940Y-40343D01*
X58172Y-42049D02*
X58040Y-41861D01*
X57947Y-42049D02*
X57947Y-41655D01*
X58097Y-41655D01*
X58134Y-41674D01*
X58153Y-41692D01*
X58172Y-41730D01*
X58172Y-41786D01*
X58153Y-41824D01*
X58134Y-41842D01*
X58097Y-41861D01*
X57947Y-41861D01*
X58322Y-41692D02*
X58340Y-41674D01*
X58378Y-41655D01*
X58472Y-41655D01*
X58509Y-41674D01*
X58528Y-41692D01*
X58547Y-41730D01*
X58547Y-41767D01*
X58528Y-41824D01*
X58303Y-42049D01*
X58547Y-42049D01*
X58678Y-41655D02*
X58940Y-41655D01*
X58772Y-42049D01*
X75357Y-47925D02*
X75226Y-47737D01*
X75132Y-47925D02*
X75132Y-47531D01*
X75282Y-47531D01*
X75320Y-47550D01*
X75338Y-47568D01*
X75357Y-47606D01*
X75357Y-47662D01*
X75338Y-47700D01*
X75320Y-47718D01*
X75282Y-47737D01*
X75132Y-47737D01*
X75695Y-47531D02*
X75620Y-47531D01*
X75582Y-47550D01*
X75563Y-47568D01*
X75526Y-47625D01*
X75507Y-47700D01*
X75507Y-47850D01*
X75526Y-47887D01*
X75545Y-47906D01*
X75582Y-47925D01*
X75657Y-47925D01*
X75695Y-47906D01*
X75713Y-47887D01*
X75732Y-47850D01*
X75732Y-47756D01*
X75713Y-47718D01*
X75695Y-47700D01*
X75657Y-47681D01*
X75582Y-47681D01*
X75545Y-47700D01*
X75526Y-47718D01*
X75507Y-47756D01*
X55967Y-46773D02*
X55836Y-46586D01*
X55742Y-46773D02*
X55742Y-46379D01*
X55892Y-46379D01*
X55929Y-46398D01*
X55948Y-46417D01*
X55967Y-46454D01*
X55967Y-46511D01*
X55948Y-46548D01*
X55929Y-46567D01*
X55892Y-46586D01*
X55742Y-46586D01*
X56117Y-46417D02*
X56136Y-46398D01*
X56173Y-46379D01*
X56267Y-46379D01*
X56304Y-46398D01*
X56323Y-46417D01*
X56342Y-46454D01*
X56342Y-46492D01*
X56323Y-46548D01*
X56098Y-46773D01*
X56342Y-46773D01*
X56698Y-46379D02*
X56511Y-46379D01*
X56492Y-46567D01*
X56511Y-46548D01*
X56548Y-46529D01*
X56642Y-46529D01*
X56679Y-46548D01*
X56698Y-46567D01*
X56717Y-46604D01*
X56717Y-46698D01*
X56698Y-46736D01*
X56679Y-46754D01*
X56642Y-46773D01*
X56548Y-46773D01*
X56511Y-46754D01*
X56492Y-46736D01*
X75366Y-43299D02*
X75235Y-43111D01*
X75142Y-43299D02*
X75142Y-42905D01*
X75291Y-42905D01*
X75329Y-42924D01*
X75348Y-42942D01*
X75366Y-42980D01*
X75366Y-43036D01*
X75348Y-43074D01*
X75329Y-43092D01*
X75291Y-43111D01*
X75142Y-43111D01*
X75741Y-43299D02*
X75516Y-43299D01*
X75629Y-43299D02*
X75629Y-42905D01*
X75591Y-42961D01*
X75554Y-42999D01*
X75516Y-43017D01*
X76079Y-43036D02*
X76079Y-43299D01*
X75985Y-42886D02*
X75891Y-43167D01*
X76135Y-43167D01*
X75366Y-42118D02*
X75235Y-41930D01*
X75142Y-42118D02*
X75142Y-41724D01*
X75291Y-41724D01*
X75329Y-41743D01*
X75348Y-41761D01*
X75366Y-41799D01*
X75366Y-41855D01*
X75348Y-41893D01*
X75329Y-41911D01*
X75291Y-41930D01*
X75142Y-41930D01*
X75741Y-42118D02*
X75516Y-42118D01*
X75629Y-42118D02*
X75629Y-41724D01*
X75591Y-41780D01*
X75554Y-41818D01*
X75516Y-41836D01*
X76098Y-41724D02*
X75910Y-41724D01*
X75891Y-41911D01*
X75910Y-41893D01*
X75948Y-41874D01*
X76041Y-41874D01*
X76079Y-41893D01*
X76098Y-41911D01*
X76116Y-41949D01*
X76116Y-42043D01*
X76098Y-42080D01*
X76079Y-42099D01*
X76041Y-42118D01*
X75948Y-42118D01*
X75910Y-42099D01*
X75891Y-42080D01*
X61261Y-48442D02*
X61074Y-48573D01*
X61261Y-48667D02*
X60868Y-48667D01*
X60868Y-48517D01*
X60886Y-48479D01*
X60905Y-48460D01*
X60943Y-48442D01*
X60999Y-48442D01*
X61036Y-48460D01*
X61055Y-48479D01*
X61074Y-48517D01*
X61074Y-48667D01*
X60905Y-48292D02*
X60886Y-48273D01*
X60868Y-48235D01*
X60868Y-48142D01*
X60886Y-48104D01*
X60905Y-48085D01*
X60943Y-48067D01*
X60980Y-48067D01*
X61036Y-48085D01*
X61261Y-48310D01*
X61261Y-48067D01*
X61261Y-47692D02*
X61261Y-47917D01*
X61261Y-47804D02*
X60868Y-47804D01*
X60924Y-47842D01*
X60961Y-47879D01*
X60980Y-47917D01*
X68250Y-44726D02*
X68119Y-44538D01*
X68025Y-44726D02*
X68025Y-44332D01*
X68175Y-44332D01*
X68213Y-44351D01*
X68232Y-44370D01*
X68250Y-44407D01*
X68250Y-44463D01*
X68232Y-44501D01*
X68213Y-44520D01*
X68175Y-44538D01*
X68025Y-44538D01*
X68625Y-44726D02*
X68400Y-44726D01*
X68513Y-44726D02*
X68513Y-44332D01*
X68475Y-44388D01*
X68438Y-44426D01*
X68400Y-44445D01*
X68757Y-44332D02*
X69019Y-44332D01*
X68850Y-44726D01*
X70464Y-54022D02*
X70276Y-54154D01*
X70464Y-54247D02*
X70070Y-54247D01*
X70070Y-54097D01*
X70089Y-54060D01*
X70108Y-54041D01*
X70145Y-54022D01*
X70202Y-54022D01*
X70239Y-54041D01*
X70258Y-54060D01*
X70276Y-54097D01*
X70276Y-54247D01*
X70464Y-53647D02*
X70464Y-53872D01*
X70464Y-53760D02*
X70070Y-53760D01*
X70127Y-53797D01*
X70164Y-53835D01*
X70183Y-53872D01*
X70070Y-53310D02*
X70070Y-53385D01*
X70089Y-53422D01*
X70108Y-53441D01*
X70164Y-53479D01*
X70239Y-53497D01*
X70389Y-53497D01*
X70426Y-53479D01*
X70445Y-53460D01*
X70464Y-53422D01*
X70464Y-53347D01*
X70445Y-53310D01*
X70426Y-53291D01*
X70389Y-53272D01*
X70295Y-53272D01*
X70258Y-53291D01*
X70239Y-53310D01*
X70220Y-53347D01*
X70220Y-53422D01*
X70239Y-53460D01*
X70258Y-53479D01*
X70295Y-53497D01*
X75357Y-43988D02*
X75226Y-43800D01*
X75132Y-43988D02*
X75132Y-43594D01*
X75282Y-43594D01*
X75320Y-43613D01*
X75338Y-43631D01*
X75357Y-43669D01*
X75357Y-43725D01*
X75338Y-43763D01*
X75320Y-43781D01*
X75282Y-43800D01*
X75132Y-43800D01*
X75732Y-43988D02*
X75507Y-43988D01*
X75620Y-43988D02*
X75620Y-43594D01*
X75582Y-43650D01*
X75545Y-43688D01*
X75507Y-43706D01*
X55967Y-45592D02*
X55836Y-45404D01*
X55742Y-45592D02*
X55742Y-45198D01*
X55892Y-45198D01*
X55929Y-45217D01*
X55948Y-45236D01*
X55967Y-45273D01*
X55967Y-45329D01*
X55948Y-45367D01*
X55929Y-45386D01*
X55892Y-45404D01*
X55742Y-45404D01*
X56117Y-45236D02*
X56136Y-45217D01*
X56173Y-45198D01*
X56267Y-45198D01*
X56304Y-45217D01*
X56323Y-45236D01*
X56342Y-45273D01*
X56342Y-45311D01*
X56323Y-45367D01*
X56098Y-45592D01*
X56342Y-45592D01*
X56679Y-45198D02*
X56604Y-45198D01*
X56567Y-45217D01*
X56548Y-45236D01*
X56511Y-45292D01*
X56492Y-45367D01*
X56492Y-45517D01*
X56511Y-45554D01*
X56529Y-45573D01*
X56567Y-45592D01*
X56642Y-45592D01*
X56679Y-45573D01*
X56698Y-45554D01*
X56717Y-45517D01*
X56717Y-45423D01*
X56698Y-45386D01*
X56679Y-45367D01*
X56642Y-45348D01*
X56567Y-45348D01*
X56529Y-45367D01*
X56511Y-45386D01*
X56492Y-45423D01*
X74185Y-54224D02*
X74054Y-54036D01*
X73960Y-54224D02*
X73960Y-53830D01*
X74110Y-53830D01*
X74148Y-53849D01*
X74167Y-53868D01*
X74185Y-53905D01*
X74185Y-53961D01*
X74167Y-53999D01*
X74148Y-54018D01*
X74110Y-54036D01*
X73960Y-54036D01*
X74560Y-54224D02*
X74335Y-54224D01*
X74448Y-54224D02*
X74448Y-53830D01*
X74410Y-53886D01*
X74373Y-53924D01*
X74335Y-53943D01*
X74692Y-53830D02*
X74935Y-53830D01*
X74804Y-53980D01*
X74860Y-53980D01*
X74898Y-53999D01*
X74917Y-54018D01*
X74935Y-54055D01*
X74935Y-54149D01*
X74917Y-54186D01*
X74898Y-54205D01*
X74860Y-54224D01*
X74748Y-54224D01*
X74710Y-54205D01*
X74692Y-54186D01*
X75357Y-44775D02*
X75226Y-44588D01*
X75132Y-44775D02*
X75132Y-44381D01*
X75282Y-44381D01*
X75320Y-44400D01*
X75338Y-44419D01*
X75357Y-44456D01*
X75357Y-44513D01*
X75338Y-44550D01*
X75320Y-44569D01*
X75282Y-44588D01*
X75132Y-44588D01*
X75507Y-44419D02*
X75526Y-44400D01*
X75563Y-44381D01*
X75657Y-44381D01*
X75695Y-44400D01*
X75713Y-44419D01*
X75732Y-44456D01*
X75732Y-44494D01*
X75713Y-44550D01*
X75488Y-44775D01*
X75732Y-44775D01*
X75357Y-45562D02*
X75226Y-45375D01*
X75132Y-45562D02*
X75132Y-45169D01*
X75282Y-45169D01*
X75320Y-45187D01*
X75338Y-45206D01*
X75357Y-45244D01*
X75357Y-45300D01*
X75338Y-45337D01*
X75320Y-45356D01*
X75282Y-45375D01*
X75132Y-45375D01*
X75488Y-45169D02*
X75732Y-45169D01*
X75601Y-45319D01*
X75657Y-45319D01*
X75695Y-45337D01*
X75713Y-45356D01*
X75732Y-45394D01*
X75732Y-45487D01*
X75713Y-45525D01*
X75695Y-45544D01*
X75657Y-45562D01*
X75545Y-45562D01*
X75507Y-45544D01*
X75488Y-45525D01*
X75357Y-46350D02*
X75226Y-46162D01*
X75132Y-46350D02*
X75132Y-45956D01*
X75282Y-45956D01*
X75320Y-45975D01*
X75338Y-45994D01*
X75357Y-46031D01*
X75357Y-46087D01*
X75338Y-46125D01*
X75320Y-46144D01*
X75282Y-46162D01*
X75132Y-46162D01*
X75695Y-46087D02*
X75695Y-46350D01*
X75601Y-45937D02*
X75507Y-46219D01*
X75751Y-46219D01*
X75357Y-47137D02*
X75226Y-46950D01*
X75132Y-47137D02*
X75132Y-46744D01*
X75282Y-46744D01*
X75320Y-46762D01*
X75338Y-46781D01*
X75357Y-46818D01*
X75357Y-46875D01*
X75338Y-46912D01*
X75320Y-46931D01*
X75282Y-46950D01*
X75132Y-46950D01*
X75713Y-46744D02*
X75526Y-46744D01*
X75507Y-46931D01*
X75526Y-46912D01*
X75563Y-46893D01*
X75657Y-46893D01*
X75695Y-46912D01*
X75713Y-46931D01*
X75732Y-46968D01*
X75732Y-47062D01*
X75713Y-47100D01*
X75695Y-47118D01*
X75657Y-47137D01*
X75563Y-47137D01*
X75526Y-47118D01*
X75507Y-47100D01*
G54D23*
X75434Y-40961D02*
X75247Y-41092D01*
X75434Y-41186D02*
X75041Y-41186D01*
X75041Y-41036D01*
X75059Y-40999D01*
X75078Y-40980D01*
X75116Y-40961D01*
X75172Y-40961D01*
X75209Y-40980D01*
X75228Y-40999D01*
X75247Y-41036D01*
X75247Y-41186D01*
X75041Y-40830D02*
X75041Y-40586D01*
X75191Y-40718D01*
X75191Y-40661D01*
X75209Y-40624D01*
X75228Y-40605D01*
X75266Y-40586D01*
X75359Y-40586D01*
X75397Y-40605D01*
X75416Y-40624D01*
X75434Y-40661D01*
X75434Y-40774D01*
X75416Y-40811D01*
X75397Y-40830D01*
X75041Y-40343D02*
X75041Y-40305D01*
X75059Y-40268D01*
X75078Y-40249D01*
X75116Y-40230D01*
X75191Y-40211D01*
X75284Y-40211D01*
X75359Y-40230D01*
X75397Y-40249D01*
X75416Y-40268D01*
X75434Y-40305D01*
X75434Y-40343D01*
X75416Y-40380D01*
X75397Y-40399D01*
X75359Y-40418D01*
X75284Y-40436D01*
X75191Y-40436D01*
X75116Y-40418D01*
X75078Y-40399D01*
X75059Y-40380D01*
X75041Y-40343D01*
G54D18*
X72191Y-39616D02*
X72215Y-39590D01*
X72263Y-39564D01*
X72382Y-39564D01*
X72430Y-39590D01*
X72453Y-39616D01*
X72477Y-39669D01*
X72477Y-39721D01*
X72453Y-39800D01*
X72168Y-40114D01*
X72477Y-40114D01*
X72787Y-39564D02*
X72834Y-39564D01*
X72882Y-39590D01*
X72906Y-39616D01*
X72930Y-39669D01*
X72953Y-39773D01*
X72953Y-39904D01*
X72930Y-40009D01*
X72906Y-40061D01*
X72882Y-40088D01*
X72834Y-40114D01*
X72787Y-40114D01*
X72739Y-40088D01*
X72715Y-40061D01*
X72691Y-40009D01*
X72668Y-39904D01*
X72668Y-39773D01*
X72691Y-39669D01*
X72715Y-39616D01*
X72739Y-39590D01*
X72787Y-39564D01*
X73263Y-39564D02*
X73311Y-39564D01*
X73358Y-39590D01*
X73382Y-39616D01*
X73406Y-39669D01*
X73430Y-39773D01*
X73430Y-39904D01*
X73406Y-40009D01*
X73382Y-40061D01*
X73358Y-40088D01*
X73311Y-40114D01*
X73263Y-40114D01*
X73215Y-40088D01*
X73191Y-40061D01*
X73168Y-40009D01*
X73144Y-39904D01*
X73144Y-39773D01*
X73168Y-39669D01*
X73191Y-39616D01*
X73215Y-39590D01*
X73263Y-39564D01*
X73644Y-40114D02*
X73644Y-39564D01*
X73930Y-40114D02*
X73715Y-39800D01*
X73930Y-39564D02*
X73644Y-39878D01*
G54D23*
X75434Y-39386D02*
X75247Y-39518D01*
X75434Y-39611D02*
X75041Y-39611D01*
X75041Y-39461D01*
X75059Y-39424D01*
X75078Y-39405D01*
X75116Y-39386D01*
X75172Y-39386D01*
X75209Y-39405D01*
X75228Y-39424D01*
X75247Y-39461D01*
X75247Y-39611D01*
X75078Y-39236D02*
X75059Y-39218D01*
X75041Y-39180D01*
X75041Y-39086D01*
X75059Y-39049D01*
X75078Y-39030D01*
X75116Y-39011D01*
X75153Y-39011D01*
X75209Y-39030D01*
X75434Y-39255D01*
X75434Y-39011D01*
X75434Y-38824D02*
X75434Y-38749D01*
X75416Y-38712D01*
X75397Y-38693D01*
X75341Y-38655D01*
X75266Y-38637D01*
X75116Y-38637D01*
X75078Y-38655D01*
X75059Y-38674D01*
X75041Y-38712D01*
X75041Y-38787D01*
X75059Y-38824D01*
X75078Y-38843D01*
X75116Y-38862D01*
X75209Y-38862D01*
X75247Y-38843D01*
X75266Y-38824D01*
X75284Y-38787D01*
X75284Y-38712D01*
X75266Y-38674D01*
X75247Y-38655D01*
X75209Y-38637D01*
G54D13*
X63623Y-46880D02*
X63230Y-46880D01*
X63586Y-46467D02*
X63605Y-46486D01*
X63623Y-46542D01*
X63623Y-46580D01*
X63605Y-46636D01*
X63567Y-46674D01*
X63530Y-46692D01*
X63455Y-46711D01*
X63398Y-46711D01*
X63323Y-46692D01*
X63286Y-46674D01*
X63248Y-46636D01*
X63230Y-46580D01*
X63230Y-46542D01*
X63248Y-46486D01*
X63267Y-46467D01*
X63605Y-46317D02*
X63623Y-46261D01*
X63623Y-46167D01*
X63605Y-46130D01*
X63586Y-46111D01*
X63548Y-46092D01*
X63511Y-46092D01*
X63473Y-46111D01*
X63455Y-46130D01*
X63436Y-46167D01*
X63417Y-46242D01*
X63398Y-46280D01*
X63380Y-46299D01*
X63342Y-46317D01*
X63305Y-46317D01*
X63267Y-46299D01*
X63248Y-46280D01*
X63230Y-46242D01*
X63230Y-46149D01*
X63248Y-46092D01*
X63623Y-45924D02*
X63230Y-45924D01*
X63230Y-45774D01*
X63248Y-45736D01*
X63267Y-45718D01*
X63305Y-45699D01*
X63361Y-45699D01*
X63398Y-45718D01*
X63417Y-45736D01*
X63436Y-45774D01*
X63436Y-45924D01*
G54D21*
X57324Y-49739D02*
X56930Y-49739D01*
X56930Y-49645D01*
X56949Y-49589D01*
X56987Y-49552D01*
X57024Y-49533D01*
X57099Y-49514D01*
X57155Y-49514D01*
X57231Y-49533D01*
X57268Y-49552D01*
X57306Y-49589D01*
X57324Y-49645D01*
X57324Y-49739D01*
X56968Y-49364D02*
X56949Y-49345D01*
X56930Y-49308D01*
X56930Y-49214D01*
X56949Y-49176D01*
X56968Y-49158D01*
X57005Y-49139D01*
X57043Y-49139D01*
X57099Y-49158D01*
X57324Y-49383D01*
X57324Y-49139D01*
G54D20*
X78028Y-53192D02*
X78457Y-53192D01*
X78542Y-53220D01*
X78600Y-53277D01*
X78628Y-53363D01*
X78628Y-53420D01*
X78628Y-52592D02*
X78628Y-52934D01*
X78628Y-52763D02*
X78028Y-52763D01*
X78114Y-52820D01*
X78171Y-52877D01*
X78200Y-52934D01*
G54D10*
X54114Y-44807D02*
X54114Y-44407D01*
X54209Y-44407D01*
X54266Y-44426D01*
X54304Y-44464D01*
X54323Y-44502D01*
X54342Y-44579D01*
X54342Y-44636D01*
X54323Y-44712D01*
X54304Y-44750D01*
X54266Y-44788D01*
X54209Y-44807D01*
X54114Y-44807D01*
X54723Y-44807D02*
X54495Y-44807D01*
X54609Y-44807D02*
X54609Y-44407D01*
X54571Y-44464D01*
X54533Y-44502D01*
X54495Y-44521D01*
%LPC*%
G54D24*
X56751Y-41818D03*
X56751Y-40818D03*
X55964Y-40818D03*
X55964Y-41818D03*
G54D25*
X54901Y-43680D03*
X54901Y-38956D03*
G54D26*
X55935Y-52315D03*
X55935Y-51315D03*
X55935Y-50515D03*
X55935Y-49515D03*
G54D27*
X54885Y-53515D03*
X54885Y-48115D03*
G54D28*
X70699Y-50028D03*
X70699Y-49831D03*
X70699Y-49635D03*
X70699Y-49438D03*
X70699Y-49241D03*
X70699Y-49044D03*
X70699Y-48847D03*
X70699Y-48650D03*
X70699Y-48453D03*
X70699Y-48257D03*
X70699Y-48060D03*
X70699Y-47863D03*
X70699Y-47666D03*
X70699Y-47469D03*
X70699Y-47272D03*
X70699Y-47076D03*
X70699Y-46879D03*
X70699Y-46682D03*
X70699Y-46485D03*
X70699Y-46288D03*
X70699Y-46091D03*
X70699Y-45894D03*
X67941Y-45895D03*
X67941Y-46092D03*
X67941Y-46289D03*
X67941Y-46486D03*
X67941Y-46682D03*
X67941Y-46879D03*
X67941Y-47076D03*
X67941Y-47273D03*
X67941Y-47470D03*
X67941Y-47667D03*
X67941Y-47864D03*
X67941Y-48060D03*
X67941Y-48257D03*
X67941Y-48454D03*
X67941Y-48651D03*
X67941Y-48848D03*
X67941Y-49045D03*
X67941Y-49242D03*
X67941Y-49438D03*
X67941Y-49635D03*
X67941Y-49832D03*
X67941Y-50029D03*
G54D29*
X64421Y-52596D03*
X67921Y-52596D03*
X67921Y-51596D03*
X64421Y-51596D03*
G54D30*
X63679Y-40027D03*
X63679Y-40527D03*
X63679Y-41027D03*
X63679Y-41527D03*
X67929Y-41527D03*
X67929Y-41027D03*
X67929Y-40527D03*
X67929Y-40027D03*
X67925Y-43935D03*
X67925Y-43435D03*
X67925Y-42935D03*
X63675Y-42935D03*
X63675Y-43435D03*
X63675Y-43935D03*
G54D31*
X59303Y-49815D03*
X60303Y-49815D03*
X60803Y-49815D03*
X61303Y-49815D03*
X61803Y-49815D03*
X62303Y-49815D03*
X62803Y-49815D03*
X62803Y-51965D03*
X62303Y-51965D03*
X61803Y-51965D03*
X61303Y-51965D03*
X60803Y-51965D03*
X60303Y-51965D03*
X59803Y-51965D03*
X59303Y-51965D03*
X59803Y-49815D03*
G54D32*
X58575Y-43608D03*
X58575Y-44108D03*
X58575Y-44608D03*
X58575Y-45108D03*
X58575Y-45608D03*
X58575Y-46108D03*
X58575Y-46608D03*
X60675Y-46608D03*
X60675Y-46108D03*
X60675Y-45608D03*
X60675Y-45108D03*
X60675Y-44608D03*
X60675Y-44108D03*
X60675Y-43608D03*
G54D33*
X58001Y-53258D03*
X58001Y-52508D03*
G54D34*
X73042Y-43041D03*
X72292Y-43041D03*
X73042Y-42057D03*
X72292Y-42057D03*
X69892Y-52687D03*
X69142Y-52687D03*
X70089Y-40679D03*
X69339Y-40679D03*
X60050Y-53179D03*
X59300Y-53179D03*
X61723Y-53179D03*
X60973Y-53179D03*
G54D33*
X58001Y-50835D03*
X58001Y-51585D03*
X59379Y-48632D03*
X59379Y-47882D03*
G54D35*
X73164Y-48750D03*
X72564Y-48750D03*
X73164Y-51899D03*
X72564Y-51899D03*
X73164Y-51112D03*
X72564Y-51112D03*
X73164Y-50324D03*
X72564Y-50324D03*
X59375Y-42647D03*
X59975Y-42647D03*
X70014Y-39793D03*
X69414Y-39793D03*
X62032Y-42844D03*
X62632Y-42844D03*
X73164Y-53474D03*
X72564Y-53474D03*
X73164Y-49537D03*
X72564Y-49537D03*
X73164Y-44025D03*
X72564Y-44025D03*
X73164Y-44812D03*
X72564Y-44812D03*
X73164Y-52687D03*
X72564Y-52687D03*
X73164Y-45600D03*
X72564Y-45600D03*
X73164Y-46387D03*
X72564Y-46387D03*
X73164Y-47175D03*
X72564Y-47175D03*
X73164Y-47962D03*
X72564Y-47962D03*
X74738Y-49340D03*
X74138Y-49340D03*
X74738Y-52490D03*
X74138Y-52490D03*
X74738Y-51702D03*
X74138Y-51702D03*
X74738Y-50915D03*
X74138Y-50915D03*
X74738Y-50127D03*
X74138Y-50127D03*
X62032Y-39694D03*
X62632Y-39694D03*
X74738Y-48553D03*
X74138Y-48553D03*
X62032Y-42057D03*
X62632Y-42057D03*
X62632Y-41269D03*
X62032Y-41269D03*
X62632Y-40482D03*
X62032Y-40482D03*
X59375Y-41072D03*
X59975Y-41072D03*
X69414Y-43730D03*
X70014Y-43730D03*
X59375Y-40285D03*
X59975Y-40285D03*
X59375Y-41860D03*
X59975Y-41860D03*
X74738Y-47765D03*
X74138Y-47765D03*
X54650Y-46584D03*
X55250Y-46584D03*
X74138Y-43041D03*
X74738Y-43041D03*
X74138Y-42253D03*
X74738Y-42253D03*
G54D36*
X60265Y-47957D03*
X60265Y-48557D03*
G54D35*
X69414Y-44517D03*
X70014Y-44517D03*
X69020Y-53572D03*
X69620Y-53572D03*
X74738Y-43828D03*
X74138Y-43828D03*
X54650Y-45403D03*
X55250Y-45403D03*
X74738Y-53277D03*
X74138Y-53277D03*
X74738Y-44616D03*
X74138Y-44616D03*
X74738Y-45403D03*
X74138Y-45403D03*
X74738Y-46190D03*
X74138Y-46190D03*
X74738Y-46978D03*
X74138Y-46978D03*
G54D37*
X69320Y-42352D03*
G54D38*
X74561Y-40679D03*
X71561Y-40679D03*
X71561Y-39202D03*
X74561Y-39202D03*
G54D37*
X62332Y-48297D03*
G54D38*
X62332Y-47297D03*
X62332Y-46297D03*
X62332Y-45297D03*
X62332Y-44297D03*
G54D39*
X58001Y-49851D03*
X58001Y-49025D03*
G54D40*
X76604Y-52981D03*
X76604Y-39793D03*
G54D24*
X76104Y-42587D03*
X76104Y-43687D03*
X76104Y-44737D03*
X76104Y-45837D03*
X76104Y-46937D03*
X76104Y-48037D03*
X76104Y-49087D03*
G54D41*
X76104Y-50187D03*
G54D24*
X77104Y-43207D03*
X77104Y-44207D03*
X77104Y-45307D03*
X77104Y-46387D03*
X77104Y-47467D03*
X77104Y-48567D03*
X77104Y-49647D03*
G54D41*
X53464Y-46826D03*
G54D24*
X53464Y-45826D03*
X53464Y-44826D03*
M02*
