<?xml version="1.0" standalone="no"?>
 <!DOCTYPE svg PUBLIC "-//W3C//DTD SVG 1.1//EN" 
 "http://www.w3.org/Graphics/SVG/1.1/DTD/svg11.dtd"> 
<svg xmlns="http://www.w3.org/2000/svg" version="1.1" 
    width="29.7002cm" height="21.0007cm" viewBox="0 0 116930 82680 ">
<title>SVG Picture created as 6802-2slv-B_SilkS.svg date 2013/03/24 22:35:04 </title>
  <desc>Picture generated by PCBNEW </desc>
<g style="fill:#000000; fill-opacity:1;stroke:#000000; stroke-opacity:1;
stroke-linecap:round; stroke-linejoin:round; "
 transform="translate(0 0) scale(1 1)">
</g>
<g style="fill:#000000; fill-opacity:0.0; 
stroke:#000000; stroke-width:39.3701; stroke-opacity:1; 
stroke-linecap:round; stroke-linejoin:round;">
<path d="M4000 4000
L112930 4000
L112930 78680
L4000 78680
L4000 4000
" />
<path d="M4700 4700
L112230 4700
L112230 77980
L4700 77980
L4700 4700
" />
<path d="M25780 4000
L25780 4700
" />
<path d="M15032 4552
L14747 4552
" />
<path d="M14890 4552
L14890 4052
L14842 4123
L14794 4171
L14747 4195
" />
<path d="M25780 78680
L25780 77980
" />
<path d="M15032 78532
L14747 78532
" />
<path d="M14890 78532
L14890 78032
L14842 78103
L14794 78151
L14747 78175
" />
<path d="M47560 4000
L47560 4700
" />
<path d="M36527 4100
L36550 4076
L36598 4052
L36717 4052
L36765 4076
L36789 4100
L36812 4147
L36812 4195
L36789 4266
L36503 4552
L36812 4552
" />
<path d="M47560 78680
L47560 77980
" />
<path d="M36527 78080
L36550 78056
L36598 78032
L36717 78032
L36765 78056
L36789 78080
L36812 78127
L36812 78175
L36789 78246
L36503 78532
L36812 78532
" />
<path d="M69340 4000
L69340 4700
" />
<path d="M58283 4052
L58592 4052
L58426 4242
L58497 4242
L58545 4266
L58569 4290
L58592 4338
L58592 4457
L58569 4504
L58545 4528
L58497 4552
L58354 4552
L58307 4528
L58283 4504
" />
<path d="M69340 78680
L69340 77980
" />
<path d="M58283 78032
L58592 78032
L58426 78222
L58497 78222
L58545 78246
L58569 78270
L58592 78318
L58592 78437
L58569 78484
L58545 78508
L58497 78532
L58354 78532
L58307 78508
L58283 78484
" />
<path d="M91120 4000
L91120 4700
" />
<path d="M80325 4219
L80325 4552
" />
<path d="M80206 4028
L80087 4385
L80396 4385
" />
<path d="M91120 78680
L91120 77980
" />
<path d="M80325 78199
L80325 78532
" />
<path d="M80206 78008
L80087 78365
L80396 78365
" />
<path d="M102129 4052
L101890 4052
L101867 4290
L101890 4266
L101938 4242
L102057 4242
L102105 4266
L102129 4290
L102152 4338
L102152 4457
L102129 4504
L102105 4528
L102057 4552
L101938 4552
L101890 4528
L101867 4504
" />
<path d="M102129 78032
L101890 78032
L101867 78270
L101890 78246
L101938 78222
L102057 78222
L102105 78246
L102129 78270
L102152 78318
L102152 78437
L102129 78484
L102105 78508
L102057 78532
L101938 78532
L101890 78508
L101867 78484
" />
<path d="M4000 28890
L4700 28890
" />
<path d="M4230 16509
L4469 16509
" />
<path d="M4183 16652
L4350 16152
L4516 16652
" />
<path d="M112930 28890
L112230 28890
" />
<path d="M112460 16509
L112699 16509
" />
<path d="M112413 16652
L112580 16152
L112746 16652
" />
<path d="M4000 53780
L4700 53780
" />
<path d="M4385 41280
L4457 41304
L4480 41328
L4504 41375
L4504 41447
L4480 41494
L4457 41518
L4409 41542
L4219 41542
L4219 41042
L4385 41042
L4433 41066
L4457 41090
L4480 41137
L4480 41185
L4457 41232
L4433 41256
L4385 41280
L4219 41280
" />
<path d="M112930 53780
L112230 53780
" />
<path d="M112615 41280
L112687 41304
L112710 41328
L112734 41375
L112734 41447
L112710 41494
L112687 41518
L112639 41542
L112449 41542
L112449 41042
L112615 41042
L112663 41066
L112687 41090
L112710 41137
L112710 41185
L112687 41232
L112663 41256
L112615 41280
L112449 41280
" />
<path d="M4504 66384
L4480 66408
L4409 66432
L4361 66432
L4290 66408
L4242 66360
L4219 66313
L4195 66218
L4195 66146
L4219 66051
L4242 66003
L4290 65956
L4361 65932
L4409 65932
L4480 65956
L4504 65980
" />
<path d="M112734 66384
L112710 66408
L112639 66432
L112591 66432
L112520 66408
L112472 66360
L112449 66313
L112425 66218
L112425 66146
L112449 66051
L112472 66003
L112520 65956
L112591 65932
L112639 65932
L112710 65956
L112734 65980
" />
<path d="M79380 76422
L79455 75822
L79597 75822
L79680 75851
L79730 75908
L79751 75965
L79765 76080
L79755 76165
L79712 76280
L79676 76337
L79612 76394
L79522 76422
L79380 76422
" />
<path d="M80237 76422
L80276 76108
L80255 76051
L80201 76022
L80087 76022
L80026 76051
" />
<path d="M80240 76394
L80180 76422
L80037 76422
L79983 76394
L79962 76337
L79969 76280
L80005 76222
L80065 76194
L80208 76194
L80269 76165
" />
<path d="M80487 76022
L80715 76022
" />
<path d="M80597 75822
L80533 76337
L80555 76394
L80608 76422
L80665 76422
" />
<path d="M81097 76394
L81037 76422
L80922 76422
L80869 76394
L80847 76337
L80876 76108
L80912 76051
L80972 76022
L81087 76022
L81140 76051
L81162 76108
L81155 76165
L80862 76222
" />
<path d="M81387 76365
L81412 76394
L81380 76422
L81355 76394
L81387 76365
L81380 76422
" />
<path d="M81426 76051
L81451 76080
L81419 76108
L81394 76080
L81426 76051
L81419 76108
" />
<path d="M70972 77622
L70972 77022
" />
<path d="M71315 77622
L71058 77280
" />
<path d="M71315 77022
L70972 77365
" />
<path d="M71572 77622
L71572 77222
" />
<path d="M71572 77022
L71544 77051
L71572 77080
L71601 77051
L71572 77022
L71572 77080
" />
<path d="M72201 77565
L72172 77594
L72087 77622
L72030 77622
L71944 77594
L71887 77537
L71858 77480
L71830 77365
L71830 77280
L71858 77165
L71887 77108
L71944 77051
L72030 77022
L72087 77022
L72172 77051
L72201 77080
" />
<path d="M72715 77622
L72715 77308
L72687 77251
L72630 77222
L72515 77222
L72458 77251
" />
<path d="M72715 77594
L72658 77622
L72515 77622
L72458 77594
L72430 77537
L72430 77480
L72458 77422
L72515 77394
L72658 77394
L72715 77365
" />
<path d="M73258 77622
L73258 77022
" />
<path d="M73258 77594
L73201 77622
L73087 77622
L73030 77594
L73001 77565
L72972 77508
L72972 77337
L73001 77280
L73030 77251
L73087 77222
L73201 77222
L73258 77251
" />
<path d="M74001 77308
L74201 77308
" />
<path d="M74287 77622
L74001 77622
L74001 77022
L74287 77022
" />
<path d="M74544 77565
L74572 77594
L74544 77622
L74515 77594
L74544 77565
L74544 77622
" />
<path d="M74829 77622
L74829 77022
L74972 77022
L75058 77051
L75115 77108
L75144 77165
L75172 77280
L75172 77365
L75144 77480
L75115 77537
L75058 77594
L74972 77622
L74829 77622
" />
<path d="M75429 77565
L75458 77594
L75429 77622
L75401 77594
L75429 77565
L75429 77622
" />
<path d="M75687 77451
L75972 77451
" />
<path d="M75629 77622
L75829 77022
L76029 77622
" />
<path d="M76229 77565
L76258 77594
L76229 77622
L76201 77594
L76229 77565
L76229 77622
" />
<path d="M104522 76422
L104358 76137
" />
<path d="M104180 76422
L104255 75822
L104483 75822
L104537 75851
L104562 75880
L104583 75937
L104572 76022
L104537 76080
L104505 76108
L104444 76137
L104215 76137
" />
<path d="M105012 76394
L104951 76422
L104837 76422
L104783 76394
L104762 76337
L104790 76108
L104826 76051
L104887 76022
L105001 76022
L105055 76051
L105076 76108
L105069 76165
L104776 76222
" />
<path d="M105287 76022
L105380 76422
L105572 76022
" />
<path d="M105758 76365
L105783 76394
L105751 76422
L105726 76394
L105758 76365
L105751 76422
" />
<path d="M105797 76051
L105822 76080
L105790 76108
L105765 76080
L105797 76051
L105790 76108
" />
<path d="M106494 76422
L106569 75822
L106712 75822
L106794 75851
L106844 75908
L106865 75965
L106880 76080
L106869 76165
L106826 76280
L106790 76337
L106726 76394
L106637 76422
L106494 76422
" />
<path d="M70944 76394
L71030 76422
L71172 76422
L71230 76394
L71258 76365
L71287 76308
L71287 76251
L71258 76194
L71230 76165
L71172 76137
L71058 76108
L71001 76080
L70972 76051
L70944 75994
L70944 75937
L70972 75880
L71001 75851
L71058 75822
L71201 75822
L71287 75851
" />
<path d="M71544 76422
L71544 76022
" />
<path d="M71544 75822
L71515 75851
L71544 75880
L71572 75851
L71544 75822
L71544 75880
" />
<path d="M71772 76022
L72087 76022
L71772 76422
L72087 76422
" />
<path d="M72544 76394
L72487 76422
L72372 76422
L72315 76394
L72287 76337
L72287 76108
L72315 76051
L72372 76022
L72487 76022
L72544 76051
L72572 76108
L72572 76165
L72287 76222
" />
<path d="M72830 76365
L72858 76394
L72830 76422
L72801 76394
L72830 76365
L72830 76422
" />
<path d="M72830 76051
L72858 76080
L72830 76108
L72801 76080
L72830 76051
L72830 76108
" />
<path d="M73544 76251
L73830 76251
" />
<path d="M73487 76422
L73687 75822
L73887 76422
" />
<path d="M74344 76022
L74344 76422
" />
<path d="M74201 75794
L74058 76222
L74430 76222
" />
<path d="M104172 77622
L104172 77022
" />
<path d="M104715 77622
L104715 77022
" />
<path d="M104715 77594
L104658 77622
L104544 77622
L104487 77594
L104458 77565
L104430 77508
L104430 77337
L104458 77280
L104487 77251
L104544 77222
L104658 77222
L104715 77251
" />
<path d="M105001 77565
L105030 77594
L105001 77622
L104972 77594
L105001 77565
L105001 77622
" />
<path d="M105001 77251
L105030 77280
L105001 77308
L104972 77280
L105001 77251
L105001 77308
" />
<path d="M106058 77622
L105715 77622
" />
<path d="M105887 77622
L105887 77022
L105829 77108
L105772 77165
L105715 77194
" />
<path d="M106744 76994
L106230 77765
" />
<path d="M107258 77622
L106915 77622
" />
<path d="M107087 77622
L107087 77022
L107029 77108
L106972 77165
L106915 77194
" />
<path d="M70969 74622
L71312 74622
" />
<path d="M71065 75222
L71140 74622
" />
<path d="M71437 75222
L71487 74822
" />
<path d="M71512 74622
L71480 74651
L71505 74680
L71537 74651
L71512 74622
L71505 74680
" />
<path d="M71687 74822
L71915 74822
" />
<path d="M71797 74622
L71733 75137
L71755 75194
L71808 75222
L71865 75222
" />
<path d="M72151 75222
L72097 75194
L72076 75137
L72140 74622
" />
<path d="M72612 75194
L72551 75222
L72437 75222
L72383 75194
L72362 75137
L72390 74908
L72426 74851
L72487 74822
L72601 74822
L72655 74851
L72676 74908
L72669 74965
L72376 75022
" />
<path d="M72901 75165
L72926 75194
L72894 75222
L72869 75194
L72901 75165
L72894 75222
" />
<path d="M72940 74851
L72965 74880
L72933 74908
L72908 74880
L72940 74851
L72933 74908
" />
<path d="M73922 75222
L73637 75222
L73712 74622
" />
<path d="M74112 74622
L74455 74622
" />
<path d="M74208 75222
L74283 74622
" />
<path d="M74930 75165
L74897 75194
L74808 75222
L74751 75222
L74669 75194
L74619 75137
L74597 75080
L74583 74965
L74594 74880
L74637 74765
L74672 74708
L74737 74651
L74826 74622
L74883 74622
L74965 74651
L74990 74680
" />
<path d="M75512 74622
L75397 74622
L75337 74651
L75305 74680
L75237 74765
L75194 74880
L75165 75108
L75187 75165
L75212 75194
L75265 75222
L75380 75222
L75440 75194
L75472 75165
L75508 75108
L75526 74965
L75505 74908
L75480 74880
L75426 74851
L75312 74851
L75251 74880
L75219 74908
L75183 74965
" />
<path d="M75880 74880
L75826 74851
L75801 74822
L75780 74765
L75783 74737
L75819 74680
L75851 74651
L75912 74622
L76026 74622
L76080 74651
L76105 74680
L76126 74737
L76122 74765
L76087 74822
L76055 74851
L75994 74880
L75880 74880
L75819 74908
L75787 74937
L75751 74994
L75737 75108
L75758 75165
L75783 75194
L75837 75222
L75951 75222
L76012 75194
L76044 75165
L76080 75108
L76094 74994
L76072 74937
L76047 74908
L75994 74880
" />
<path d="M76512 74622
L76569 74622
L76622 74651
L76647 74680
L76669 74737
L76683 74851
L76665 74994
L76622 75108
L76587 75165
L76555 75194
L76494 75222
L76437 75222
L76383 75194
L76358 75165
L76337 75108
L76322 74994
L76340 74851
L76383 74737
L76419 74680
L76451 74651
L76512 74622
" />
<path d="M76933 74680
L76965 74651
L77026 74622
L77169 74622
L77222 74651
L77247 74680
L77269 74737
L77262 74794
L77222 74880
L76837 75222
L77208 75222
" />
<path d="M77494 74994
L77951 74994
" />
<path d="M78247 74680
L78280 74651
L78340 74622
L78483 74622
L78537 74651
L78562 74680
L78583 74737
L78576 74794
L78537 74880
L78151 75222
L78522 75222
" />
<path d="M79237 75222
L79312 74622
" />
<path d="M79283 74851
L79344 74822
L79458 74822
L79512 74851
L79537 74880
L79558 74937
L79537 75108
L79501 75165
L79469 75194
L79408 75222
L79294 75222
L79240 75194
" />
<path d="M80037 75222
L80076 74908
L80055 74851
L80001 74822
L79887 74822
L79826 74851
" />
<path d="M80040 75194
L79980 75222
L79837 75222
L79783 75194
L79762 75137
L79769 75080
L79805 75022
L79865 74994
L80008 74994
L80069 74965
" />
<path d="M80297 75194
L80351 75222
L80465 75222
L80526 75194
L80562 75137
L80565 75108
L80544 75051
L80490 75022
L80405 75022
L80351 74994
L80330 74937
L80333 74908
L80369 74851
L80430 74822
L80515 74822
L80569 74851
" />
<path d="M81040 75194
L80980 75222
L80865 75222
L80812 75194
L80790 75137
L80819 74908
L80855 74851
L80915 74822
L81030 74822
L81083 74851
L81105 74908
L81097 74965
L80805 75022
" />
<path d="M81580 75222
L81655 74622
" />
<path d="M81583 75194
L81522 75222
L81408 75222
L81355 75194
L81330 75165
L81308 75108
L81330 74937
L81365 74880
L81397 74851
L81458 74822
L81572 74822
L81626 74851
" />
<path d="M82583 75194
L82522 75222
L82408 75222
L82355 75194
L82330 75165
L82308 75108
L82330 74937
L82365 74880
L82397 74851
L82458 74822
L82572 74822
L82626 74851
" />
<path d="M83069 75194
L83008 75222
L82894 75222
L82840 75194
L82819 75137
L82847 74908
L82883 74851
L82944 74822
L83058 74822
L83112 74851
L83133 74908
L83126 74965
L82833 75022
" />
<path d="M83437 75222
L83383 75194
L83362 75137
L83426 74622
" />
<path d="M83751 75222
L83697 75194
L83676 75137
L83740 74622
" />
<path d="M84437 75222
L84487 74822
" />
<path d="M84480 74880
L84512 74851
L84572 74822
L84658 74822
L84712 74851
L84733 74908
L84694 75222
" />
<path d="M84733 74908
L84769 74851
L84830 74822
L84915 74822
L84969 74851
L84990 74908
L84951 75222
" />
<path d="M85322 75222
L85269 75194
L85244 75165
L85222 75108
L85244 74937
L85280 74880
L85312 74851
L85372 74822
L85458 74822
L85512 74851
L85537 74880
L85558 74937
L85537 75108
L85501 75165
L85469 75194
L85408 75222
L85322 75222
" />
<path d="M85830 74822
L85780 75222
" />
<path d="M85822 74880
L85855 74851
L85915 74822
L86001 74822
L86055 74851
L86076 74908
L86037 75222
" />
<path d="M86322 75222
L86372 74822
" />
<path d="M86397 74622
L86365 74651
L86390 74680
L86422 74651
L86397 74622
L86390 74680
" />
<path d="M86572 74822
L86801 74822
" />
<path d="M86683 74622
L86619 75137
L86640 75194
L86694 75222
L86751 75222
" />
<path d="M87037 75222
L86983 75194
L86958 75165
L86937 75108
L86958 74937
L86994 74880
L87026 74851
L87087 74822
L87172 74822
L87226 74851
L87251 74880
L87272 74937
L87251 75108
L87215 75165
L87183 75194
L87122 75222
L87037 75222
" />
<path d="M87494 75222
L87544 74822
" />
<path d="M87530 74937
L87565 74880
L87597 74851
L87658 74822
L87715 74822
" />
<path d="M71172 72508
L70972 72508
" />
<path d="M70972 72822
L70972 72222
L71258 72222
" />
<path d="M71487 72822
L71487 72422
" />
<path d="M71487 72222
L71458 72251
L71487 72280
L71515 72251
L71487 72222
L71487 72280
" />
<path d="M71858 72822
L71801 72794
L71772 72737
L71772 72222
" />
<path d="M72315 72794
L72258 72822
L72144 72822
L72087 72794
L72058 72737
L72058 72508
L72087 72451
L72144 72422
L72258 72422
L72315 72451
L72344 72508
L72344 72565
L72058 72622
" />
<path d="M72601 72765
L72630 72794
L72601 72822
L72572 72794
L72601 72765
L72601 72822
" />
<path d="M72601 72451
L72630 72480
L72601 72508
L72572 72480
L72601 72451
L72601 72508
" />
<path d="M73601 72222
L73487 72222
L73430 72251
L73401 72280
L73344 72365
L73315 72480
L73315 72708
L73344 72765
L73372 72794
L73430 72822
L73544 72822
L73601 72794
L73630 72765
L73658 72708
L73658 72565
L73630 72508
L73601 72480
L73544 72451
L73430 72451
L73372 72480
L73344 72508
L73315 72565
" />
<path d="M74001 72480
L73944 72451
L73915 72422
L73887 72365
L73887 72337
L73915 72280
L73944 72251
L74001 72222
L74115 72222
L74172 72251
L74201 72280
L74230 72337
L74230 72365
L74201 72422
L74172 72451
L74115 72480
L74001 72480
L73944 72508
L73915 72537
L73887 72594
L73887 72708
L73915 72765
L73944 72794
L74001 72822
L74115 72822
L74172 72794
L74201 72765
L74230 72708
L74230 72594
L74201 72537
L74172 72508
L74115 72480
" />
<path d="M74601 72222
L74658 72222
L74715 72251
L74744 72280
L74772 72337
L74801 72451
L74801 72594
L74772 72708
L74744 72765
L74715 72794
L74658 72822
L74601 72822
L74544 72794
L74515 72765
L74487 72708
L74458 72594
L74458 72451
L74487 72337
L74515 72280
L74544 72251
L74601 72222
" />
<path d="M75030 72280
L75058 72251
L75115 72222
L75258 72222
L75315 72251
L75344 72280
L75372 72337
L75372 72394
L75344 72480
L75001 72822
L75372 72822
" />
<path d="M75630 72594
L76087 72594
" />
<path d="M76344 72280
L76372 72251
L76430 72222
L76572 72222
L76630 72251
L76658 72280
L76687 72337
L76687 72394
L76658 72480
L76315 72822
L76687 72822
" />
<path d="M76915 72794
L76972 72822
L77087 72822
L77144 72794
L77172 72737
L77172 72708
L77144 72651
L77087 72622
L77001 72622
L76944 72594
L76915 72537
L76915 72508
L76944 72451
L77001 72422
L77087 72422
L77144 72451
" />
<path d="M77515 72822
L77458 72794
L77430 72737
L77430 72222
" />
<path d="M77687 72422
L77830 72822
L77972 72422
" />
<path d="M78201 72765
L78230 72794
L78201 72822
L78172 72794
L78201 72765
L78201 72822
" />
<path d="M78487 72822
L78487 72222
" />
<path d="M78544 72594
L78715 72822
" />
<path d="M78715 72422
L78487 72651
" />
<path d="M78972 72822
L78972 72422
" />
<path d="M78972 72222
L78944 72251
L78972 72280
L79001 72251
L78972 72222
L78972 72280
" />
<path d="M79515 72794
L79458 72822
L79344 72822
L79287 72794
L79258 72765
L79230 72708
L79230 72537
L79258 72480
L79287 72451
L79344 72422
L79458 72422
L79515 72451
" />
<path d="M80030 72822
L80030 72508
L80001 72451
L79944 72422
L79830 72422
L79772 72451
" />
<path d="M80030 72794
L79972 72822
L79830 72822
L79772 72794
L79744 72737
L79744 72680
L79772 72622
L79830 72594
L79972 72594
L80030 72565
" />
<path d="M80572 72822
L80572 72222
" />
<path d="M80572 72794
L80515 72822
L80401 72822
L80344 72794
L80315 72765
L80287 72708
L80287 72537
L80315 72480
L80344 72451
L80401 72422
L80515 72422
L80572 72451
" />
<path d="M80715 72880
L81172 72880
" />
<path d="M81315 72422
L81315 73022
" />
<path d="M81315 72451
L81372 72422
L81487 72422
L81544 72451
L81572 72480
L81601 72537
L81601 72708
L81572 72765
L81544 72794
L81487 72822
L81372 72822
L81315 72794
" />
<path d="M82115 72794
L82058 72822
L81944 72822
L81887 72794
L81858 72765
L81830 72708
L81830 72537
L81858 72480
L81887 72451
L81944 72422
L82058 72422
L82115 72451
" />
<path d="M82372 72822
L82372 72222
" />
<path d="M82372 72451
L82430 72422
L82544 72422
L82601 72451
L82630 72480
L82658 72537
L82658 72708
L82630 72765
L82601 72794
L82544 72822
L82430 72822
L82372 72794
" />
<path d="M70944 73994
L71030 74022
L71172 74022
L71230 73994
L71258 73965
L71287 73908
L71287 73851
L71258 73794
L71230 73765
L71172 73737
L71058 73708
L71001 73680
L70972 73651
L70944 73594
L70944 73537
L70972 73480
L71001 73451
L71058 73422
L71201 73422
L71287 73451
" />
<path d="M71544 74022
L71544 73422
" />
<path d="M71801 74022
L71801 73708
L71772 73651
L71715 73622
L71630 73622
L71572 73651
L71544 73680
" />
<path d="M72315 73994
L72258 74022
L72144 74022
L72087 73994
L72058 73937
L72058 73708
L72087 73651
L72144 73622
L72258 73622
L72315 73651
L72344 73708
L72344 73765
L72058 73822
" />
<path d="M72830 73994
L72772 74022
L72658 74022
L72601 73994
L72572 73937
L72572 73708
L72601 73651
L72658 73622
L72772 73622
L72830 73651
L72858 73708
L72858 73765
L72572 73822
" />
<path d="M73030 73622
L73258 73622
" />
<path d="M73115 73422
L73115 73937
L73144 73994
L73201 74022
L73258 74022
" />
<path d="M73458 73965
L73487 73994
L73458 74022
L73430 73994
L73458 73965
L73458 74022
" />
<path d="M73458 73651
L73487 73680
L73458 73708
L73430 73680
L73458 73651
L73458 73708
" />
<path d="M71122 71851
L71097 71822
L71051 71737
L71030 71680
L71012 71594
L71001 71451
L71015 71337
L71062 71194
L71101 71108
L71137 71051
L71205 70965
L71237 70937
" />
<path d="M71640 71594
L71580 71622
L71465 71622
L71412 71594
L71387 71565
L71365 71508
L71387 71337
L71422 71280
L71455 71251
L71515 71222
L71630 71222
L71683 71251
" />
<path d="M71808 71851
L71840 71822
L71908 71737
L71944 71680
L71983 71594
L72030 71451
L72044 71337
L72033 71194
L72015 71108
L71994 71051
L71947 70965
L71922 70937
" />
<path d="M73137 71051
L73083 71022
L72997 71022
L72908 71051
L72844 71108
L72808 71165
L72765 71280
L72755 71365
L72769 71480
L72790 71537
L72840 71594
L72922 71622
L72980 71622
L73069 71594
L73101 71565
L73126 71365
L73012 71365
" />
<path d="M73351 71622
L73401 71222
" />
<path d="M73387 71337
L73422 71280
L73455 71251
L73515 71222
L73572 71222
" />
<path d="M73955 71594
L73894 71622
L73780 71622
L73726 71594
L73705 71537
L73733 71308
L73769 71251
L73830 71222
L73944 71222
L73997 71251
L74019 71308
L74012 71365
L73719 71422
" />
<path d="M74544 71222
L74483 71708
L74447 71765
L74415 71794
L74355 71822
L74269 71822
L74215 71794
" />
<path d="M74497 71594
L74437 71622
L74322 71622
L74269 71594
L74244 71565
L74222 71508
L74244 71337
L74280 71280
L74312 71251
L74372 71222
L74487 71222
L74540 71251
" />
<path d="M75476 71308
L75276 71308
" />
<path d="M75237 71622
L75312 71022
L75597 71022
" />
<path d="M75837 71622
L75783 71594
L75758 71565
L75737 71508
L75758 71337
L75794 71280
L75826 71251
L75887 71222
L75972 71222
L76026 71251
L76051 71280
L76072 71337
L76051 71508
L76015 71565
L75983 71594
L75922 71622
L75837 71622
" />
<path d="M76294 71622
L76344 71222
" />
<path d="M76330 71337
L76365 71280
L76397 71251
L76458 71222
L76515 71222
" />
<path d="M76922 71622
L76997 71022
" />
<path d="M76926 71594
L76865 71622
L76751 71622
L76697 71594
L76672 71565
L76651 71508
L76672 71337
L76708 71280
L76740 71251
L76801 71222
L76915 71222
L76969 71251
" />
<path d="M77201 71222
L77294 71622
" />
<path d="M77487 71222
L77294 71622
L77219 71765
L77187 71794
L77126 71822
" />
<path d="M77926 71594
L77865 71622
L77751 71622
L77697 71594
L77672 71565
L77651 71508
L77672 71337
L77708 71280
L77740 71251
L77801 71222
L77915 71222
L77969 71251
" />
<path d="M78412 71594
L78351 71622
L78237 71622
L78183 71594
L78162 71537
L78190 71308
L78226 71251
L78287 71222
L78401 71222
L78455 71251
L78476 71308
L78469 71365
L78176 71422
" />
<path d="M79190 71080
L79222 71051
L79283 71022
L79426 71022
L79480 71051
L79505 71080
L79526 71137
L79519 71194
L79480 71280
L79094 71622
L79465 71622
" />
<path d="M79912 71022
L79969 71022
L80022 71051
L80047 71080
L80069 71137
L80083 71251
L80065 71394
L80022 71508
L79987 71565
L79955 71594
L79894 71622
L79837 71622
L79783 71594
L79758 71565
L79737 71508
L79722 71394
L79740 71251
L79783 71137
L79819 71080
L79851 71051
L79912 71022
" />
<path d="M80608 71622
L80265 71622
" />
<path d="M80437 71622
L80512 71022
L80444 71108
L80380 71165
L80319 71194
" />
<path d="M80883 71022
L81255 71022
L81026 71251
L81112 71251
L81165 71280
L81190 71308
L81212 71365
L81194 71508
L81158 71565
L81126 71594
L81065 71622
L80894 71622
L80840 71594
L80815 71565
" />
<path d="M70915 70022
L71030 70422
L71144 70137
L71258 70422
L71372 70022
" />
<path d="M71544 70022
L71658 70422
L71772 70137
L71887 70422
L72001 70022
" />
<path d="M72172 70022
L72287 70422
L72401 70137
L72515 70422
L72629 70022
" />
<path d="M72858 70365
L72887 70394
L72858 70422
L72829 70394
L72858 70365
L72858 70422
" />
<path d="M73401 70022
L73401 70508
L73372 70565
L73344 70594
L73287 70622
L73201 70622
L73144 70594
" />
<path d="M73401 70394
L73344 70422
L73229 70422
L73172 70394
L73144 70365
L73115 70308
L73115 70137
L73144 70080
L73172 70051
L73229 70022
L73344 70022
L73401 70051
" />
<path d="M73772 70422
L73715 70394
L73687 70365
L73658 70308
L73658 70137
L73687 70080
L73715 70051
L73772 70022
L73858 70022
L73915 70051
L73944 70080
L73972 70137
L73972 70308
L73944 70365
L73915 70394
L73858 70422
L73772 70422
" />
<path d="M74229 70194
L74687 70194
" />
<path d="M75201 70394
L75144 70422
L75029 70422
L74972 70394
L74944 70337
L74944 70108
L74972 70051
L75029 70022
L75144 70022
L75201 70051
L75229 70108
L75229 70165
L74944 70222
" />
<path d="M75429 70022
L75572 70422
L75715 70022
" />
<path d="M75944 70365
L75972 70394
L75944 70422
L75915 70394
L75944 70365
L75944 70422
" />
<path d="M76487 70394
L76429 70422
L76315 70422
L76258 70394
L76229 70365
L76201 70308
L76201 70137
L76229 70080
L76258 70051
L76315 70022
L76429 70022
L76487 70051
" />
<path d="M76829 70422
L76772 70394
L76744 70365
L76715 70308
L76715 70137
L76744 70080
L76772 70051
L76829 70022
L76915 70022
L76972 70051
L77001 70080
L77029 70137
L77029 70308
L77001 70365
L76972 70394
L76915 70422
L76829 70422
" />
<path d="M77287 70365
L77315 70394
L77287 70422
L77258 70394
L77287 70365
L77287 70422
" />
<path d="M77829 70022
L77829 70422
" />
<path d="M77572 70022
L77572 70337
L77601 70394
L77658 70422
L77744 70422
L77801 70394
L77829 70365
" />
<path d="M78115 70422
L78115 69822
" />
<path d="M78172 70194
L78344 70422
" />
<path d="M78344 70022
L78115 70251
" />
<path d="M71258 66822
L70972 66822
L70972 66222
" />
<path d="M71458 66822
L71458 66422
" />
<path d="M71458 66222
L71430 66251
L71458 66280
L71487 66251
L71458 66222
L71458 66280
" />
<path d="M72001 66794
L71944 66822
L71829 66822
L71772 66794
L71744 66765
L71715 66708
L71715 66537
L71744 66480
L71772 66451
L71829 66422
L71944 66422
L72001 66451
" />
<path d="M72487 66794
L72430 66822
L72315 66822
L72258 66794
L72230 66737
L72230 66508
L72258 66451
L72315 66422
L72430 66422
L72487 66451
L72515 66508
L72515 66565
L72230 66622
" />
<path d="M72772 66422
L72772 66822
" />
<path d="M72772 66480
L72801 66451
L72858 66422
L72944 66422
L73001 66451
L73030 66508
L73030 66822
" />
<path d="M73287 66794
L73344 66822
L73458 66822
L73515 66794
L73544 66737
L73544 66708
L73515 66651
L73458 66622
L73372 66622
L73315 66594
L73287 66537
L73287 66508
L73315 66451
L73372 66422
L73458 66422
L73515 66451
" />
<path d="M74030 66794
L73972 66822
L73858 66822
L73801 66794
L73772 66737
L73772 66508
L73801 66451
L73858 66422
L73972 66422
L74030 66451
L74058 66508
L74058 66565
L73772 66622
" />
<path d="M74572 66822
L74572 66222
" />
<path d="M74572 66794
L74515 66822
L74401 66822
L74344 66794
L74315 66765
L74287 66708
L74287 66537
L74315 66480
L74344 66451
L74401 66422
L74515 66422
L74572 66451
" />
<path d="M75572 66422
L75572 66822
" />
<path d="M75315 66422
L75315 66737
L75344 66794
L75401 66822
L75487 66822
L75544 66794
L75572 66765
" />
<path d="M75858 66422
L75858 66822
" />
<path d="M75858 66480
L75887 66451
L75944 66422
L76030 66422
L76087 66451
L76115 66508
L76115 66822
" />
<path d="M76658 66822
L76658 66222
" />
<path d="M76658 66794
L76601 66822
L76487 66822
L76430 66794
L76401 66765
L76372 66708
L76372 66537
L76401 66480
L76430 66451
L76487 66422
L76601 66422
L76658 66451
" />
<path d="M77172 66794
L77115 66822
L77001 66822
L76944 66794
L76915 66737
L76915 66508
L76944 66451
L77001 66422
L77115 66422
L77172 66451
L77201 66508
L77201 66565
L76915 66622
" />
<path d="M77458 66822
L77458 66422
" />
<path d="M77458 66537
L77487 66480
L77515 66451
L77572 66422
L77630 66422
" />
<path d="M78201 66422
L78430 66422
" />
<path d="M78287 66222
L78287 66737
L78315 66794
L78372 66822
L78430 66822
" />
<path d="M78630 66822
L78630 66222
" />
<path d="M78887 66822
L78887 66508
L78858 66451
L78801 66422
L78715 66422
L78658 66451
L78630 66480
" />
<path d="M79401 66794
L79344 66822
L79230 66822
L79172 66794
L79144 66737
L79144 66508
L79172 66451
L79230 66422
L79344 66422
L79401 66451
L79430 66508
L79430 66565
L79144 66622
" />
<path d="M80058 66222
L80401 66222
" />
<path d="M80230 66822
L80230 66222
" />
<path d="M80572 66651
L80858 66651
" />
<path d="M80515 66822
L80715 66222
L80915 66822
" />
<path d="M81115 66822
L81115 66222
L81344 66222
L81401 66251
L81430 66280
L81458 66337
L81458 66422
L81430 66480
L81401 66508
L81344 66537
L81115 66537
" />
<path d="M82058 66822
L81858 66537
" />
<path d="M81715 66822
L81715 66222
L81944 66222
L82001 66251
L82030 66280
L82058 66337
L82058 66422
L82030 66480
L82001 66508
L81944 66537
L81715 66537
" />
<path d="M82887 66222
L83001 66222
L83058 66251
L83115 66308
L83144 66422
L83144 66622
L83115 66737
L83058 66794
L83001 66822
L82887 66822
L82830 66794
L82772 66737
L82744 66622
L82744 66422
L82772 66308
L82830 66251
L82887 66222
" />
<path d="M83401 66422
L83401 67022
" />
<path d="M83401 66451
L83458 66422
L83572 66422
L83630 66451
L83658 66480
L83687 66537
L83687 66708
L83658 66765
L83630 66794
L83572 66822
L83458 66822
L83401 66794
" />
<path d="M84172 66794
L84115 66822
L84001 66822
L83944 66794
L83915 66737
L83915 66508
L83944 66451
L84001 66422
L84115 66422
L84172 66451
L84201 66508
L84201 66565
L83915 66622
" />
<path d="M84458 66422
L84458 66822
" />
<path d="M84458 66480
L84487 66451
L84544 66422
L84630 66422
L84687 66451
L84715 66508
L84715 66822
" />
<path d="M85458 66822
L85458 66222
" />
<path d="M85458 66508
L85801 66508
" />
<path d="M85801 66822
L85801 66222
" />
<path d="M86344 66822
L86344 66508
L86315 66451
L86258 66422
L86144 66422
L86087 66451
" />
<path d="M86344 66794
L86287 66822
L86144 66822
L86087 66794
L86058 66737
L86058 66680
L86087 66622
L86144 66594
L86287 66594
L86344 66565
" />
<path d="M86630 66822
L86630 66422
" />
<path d="M86630 66537
L86658 66480
L86687 66451
L86744 66422
L86801 66422
" />
<path d="M87258 66822
L87258 66222
" />
<path d="M87258 66794
L87201 66822
L87087 66822
L87030 66794
L87001 66765
L86972 66708
L86972 66537
L87001 66480
L87030 66451
L87087 66422
L87201 66422
L87258 66451
" />
<path d="M87487 66422
L87601 66822
L87715 66537
L87830 66822
L87944 66422
" />
<path d="M88430 66822
L88430 66508
L88401 66451
L88344 66422
L88230 66422
L88172 66451
" />
<path d="M88430 66794
L88372 66822
L88230 66822
L88172 66794
L88144 66737
L88144 66680
L88172 66622
L88230 66594
L88372 66594
L88430 66565
" />
<path d="M88715 66822
L88715 66422
" />
<path d="M88715 66537
L88744 66480
L88772 66451
L88830 66422
L88887 66422
" />
<path d="M89315 66794
L89258 66822
L89144 66822
L89087 66794
L89058 66737
L89058 66508
L89087 66451
L89144 66422
L89258 66422
L89315 66451
L89344 66508
L89344 66565
L89058 66622
" />
<path d="M90344 66822
L90058 66822
L90058 66222
" />
<path d="M90544 66822
L90544 66422
" />
<path d="M90544 66222
L90515 66251
L90544 66280
L90572 66251
L90544 66222
L90544 66280
" />
<path d="M91087 66794
L91030 66822
L90915 66822
L90858 66794
L90830 66765
L90801 66708
L90801 66537
L90830 66480
L90858 66451
L90915 66422
L91030 66422
L91087 66451
" />
<path d="M91572 66794
L91515 66822
L91401 66822
L91344 66794
L91315 66737
L91315 66508
L91344 66451
L91401 66422
L91515 66422
L91572 66451
L91601 66508
L91601 66565
L91315 66622
" />
<path d="M91858 66422
L91858 66822
" />
<path d="M91858 66480
L91887 66451
L91944 66422
L92030 66422
L92087 66451
L92115 66508
L92115 66822
" />
<path d="M92372 66794
L92430 66822
L92544 66822
L92601 66794
L92630 66737
L92630 66708
L92601 66651
L92544 66622
L92458 66622
L92401 66594
L92372 66537
L92372 66508
L92401 66451
L92458 66422
L92544 66422
L92601 66451
" />
<path d="M93115 66794
L93058 66822
L92944 66822
L92887 66794
L92858 66737
L92858 66508
L92887 66451
L92944 66422
L93058 66422
L93115 66451
L93144 66508
L93144 66565
L92858 66622
" />
<path d="M94030 67051
L94001 67022
L93944 66937
L93915 66880
L93887 66794
L93858 66651
L93858 66537
L93887 66394
L93915 66308
L93944 66251
L94001 66165
L94030 66137
" />
<path d="M94201 66422
L94315 66822
L94430 66537
L94544 66822
L94658 66422
" />
<path d="M94830 66422
L94944 66822
L95058 66537
L95172 66822
L95287 66422
" />
<path d="M95458 66422
L95572 66822
L95687 66537
L95801 66822
L95915 66422
" />
<path d="M96144 66765
L96172 66794
L96144 66822
L96115 66794
L96144 66765
L96144 66822
" />
<path d="M96344 66422
L96572 66422
" />
<path d="M96429 66222
L96429 66737
L96458 66794
L96515 66822
L96572 66822
" />
<path d="M97029 66822
L97029 66508
L97001 66451
L96944 66422
L96829 66422
L96772 66451
" />
<path d="M97029 66794
L96972 66822
L96829 66822
L96772 66794
L96744 66737
L96744 66680
L96772 66622
L96829 66594
L96972 66594
L97029 66565
" />
<path d="M97315 66422
L97315 67022
" />
<path d="M97315 66451
L97372 66422
L97487 66422
L97544 66451
L97572 66480
L97601 66537
L97601 66708
L97572 66765
L97544 66794
L97487 66822
L97372 66822
L97315 66794
" />
<path d="M97858 66822
L97858 66422
" />
<path d="M97858 66537
L97887 66480
L97915 66451
L97972 66422
L98029 66422
" />
<path d="M98229 66765
L98258 66794
L98229 66822
L98201 66794
L98229 66765
L98229 66822
" />
<path d="M98601 66822
L98544 66794
L98515 66765
L98487 66708
L98487 66537
L98515 66480
L98544 66451
L98601 66422
L98687 66422
L98744 66451
L98772 66480
L98801 66537
L98801 66708
L98772 66765
L98744 66794
L98687 66822
L98601 66822
" />
<path d="M99058 66822
L99058 66422
" />
<path d="M99058 66537
L99087 66480
L99115 66451
L99172 66422
L99229 66422
" />
<path d="M99687 66422
L99687 66908
L99658 66965
L99629 66994
L99572 67022
L99487 67022
L99429 66994
" />
<path d="M99687 66794
L99629 66822
L99515 66822
L99458 66794
L99429 66765
L99401 66708
L99401 66537
L99429 66480
L99458 66451
L99515 66422
L99629 66422
L99687 66451
" />
<path d="M100401 66194
L99887 66965
" />
<path d="M100715 66222
L100829 66222
L100887 66251
L100944 66308
L100972 66422
L100972 66622
L100944 66737
L100887 66794
L100829 66822
L100715 66822
L100658 66794
L100601 66737
L100572 66622
L100572 66422
L100601 66308
L100658 66251
L100715 66222
" />
<path d="M101229 66822
L101229 66222
" />
<path d="M101229 66508
L101572 66508
" />
<path d="M101572 66822
L101572 66222
" />
<path d="M102144 66822
L101858 66822
L101858 66222
" />
<path d="M102287 67051
L102315 67022
L102372 66937
L102401 66880
L102429 66794
L102458 66651
L102458 66537
L102429 66394
L102401 66308
L102372 66251
L102315 66165
L102287 66137
" />
<path d="M70230 65980
L70230 77980
" />
<path d="M70230 71980
L112230 71980
" />
<path d="M70230 65980
L112230 65980
" />
<path d="M70230 74380
L112230 74380
" />
<path d="M103430 75580
L103430 77980
" />
<path d="M70230 76780
L112230 76780
" />
<path d="M70230 75580
L112230 75580
" />
<path d="M76830 75580
L76830 76780
" />
</g>
<g style="fill:#9F009F; fill-opacity:0.0; 
stroke:#9F009F; stroke-width:196.85; stroke-opacity:1; 
stroke-linecap:round; stroke-linejoin:round;">
<path d="M68194 43194
L67013 43194
L67013 43475
L67069 43644
L67182 43757
L67294 43813
L67519 43869
L67688 43869
L67913 43813
L68025 43757
L68138 43644
L68194 43475
L68194 43194
" />
<path d="M67857 44319
L67857 44881
" />
<path d="M68194 44206
L67013 44600
L68194 44994
" />
<path d="M68194 45388
L67013 45388
L68194 46062
L67013 46062
" />
<path d="M67069 47244
L67013 47131
L67013 46962
L67069 46794
L67182 46681
L67294 46625
L67519 46569
L67688 46569
L67913 46625
L68025 46681
L68138 46794
L68194 46962
L68194 47075
L68138 47244
L68082 47300
L67688 47300
L67688 47075
" />
<path d="M67575 47806
L67575 48200
" />
<path d="M68194 48368
L68194 47806
L67013 47806
L67013 48368
" />
<path d="M68194 49550
L67632 49156
" />
<path d="M68194 48875
L67013 48875
L67013 49325
L67069 49437
L67125 49493
L67238 49550
L67407 49550
L67519 49493
L67575 49437
L67632 49325
L67632 48875
" />
<path d="M68082 50056
L68138 50112
L68194 50056
L68138 50000
L68082 50056
L68194 50056
" />
<path d="M67744 50056
L67069 50000
L67013 50056
L67069 50112
L67744 50056
L67013 50056
" />
<path d="M70044 39032
L68863 39032
" />
<path d="M69426 39032
L69426 39707
" />
<path d="M70044 39707
L68863 39707
" />
<path d="M70044 40269
L68863 40269
" />
<path d="M68920 41451
L68863 41338
L68863 41169
L68920 41001
L69032 40888
L69145 40832
L69370 40776
L69538 40776
L69763 40832
L69876 40888
L69988 41001
L70044 41169
L70044 41282
L69988 41451
L69932 41507
L69538 41507
L69538 41282
" />
<path d="M70044 42013
L68863 42013
" />
<path d="M69426 42013
L69426 42688
" />
<path d="M70044 42688
L68863 42688
" />
<path d="M68863 43982
L70044 44375
L68863 44769
" />
<path d="M68863 45388
L68863 45613
L68920 45725
L69032 45838
L69257 45894
L69651 45894
L69876 45838
L69988 45725
L70044 45613
L70044 45388
L69988 45275
L69876 45163
L69651 45106
L69257 45106
L69032 45163
L68920 45275
L68863 45388
" />
<path d="M70044 46962
L70044 46400
L68863 46400
" />
<path d="M68863 47187
L68863 47862
" />
<path d="M70044 47525
L68863 47525
" />
<path d="M69707 48200
L69707 48762
" />
<path d="M70044 48087
L68863 48481
L70044 48875
" />
<path d="M68920 49887
L68863 49775
L68863 49606
L68920 49437
L69032 49325
L69145 49268
L69370 49212
L69538 49212
L69763 49268
L69876 49325
L69988 49437
L70044 49606
L70044 49718
L69988 49887
L69932 49943
L69538 49943
L69538 49718
" />
<path d="M69426 50449
L69426 50843
" />
<path d="M70044 51012
L70044 50449
L68863 50449
L68863 51012
" />
<path d="M69932 51518
L69988 51574
L70044 51518
L69988 51462
L69932 51518
L70044 51518
" />
<path d="M69595 51518
L68920 51462
L68863 51518
L68920 51574
L69595 51518
L68863 51518
" />
</g>
<g style="fill:#9F009F; fill-opacity:0.0; 
stroke:#9F009F; stroke-width:78.7402; stroke-opacity:1; 
stroke-linecap:round; stroke-linejoin:round;">
<path d="M65748 37007
L65748 55905
" />
<path d="M77874 50551
L78110 50551
" />
<path d="M77559 50236
L77874 50551
" />
<path d="M76614 50236
L77559 50236
" />
<path d="M77637 49685
L77559 49685
" />
<path d="M77874 49921
L77637 49685
" />
<path d="M78110 49921
L77874 49921
" />
<path d="M77716 49291
L78110 49291
" />
<path d="M77559 49133
L77716 49291
" />
<path d="M76614 49133
L77559 49133
" />
<path d="M77716 48661
L77637 48582
" />
<path d="M78267 48661
L77716 48661
" />
<path d="M76614 48031
L78267 48031
" />
<path d="M78267 47480
L77637 47480
" />
<path d="M77637 46850
L78267 46850
" />
<path d="M77559 46929
L77637 46850
" />
<path d="M76692 46929
L77559 46929
" />
<path d="M77637 46220
L77559 46299
" />
<path d="M78267 46220
L77637 46220
" />
<path d="M77795 45590
L78267 45590
" />
<path d="M77559 45826
L77795 45590
" />
<path d="M76614 45826
L77559 45826
" />
<path d="M77716 44960
L77559 45118
" />
<path d="M77874 44960
L77716 44960
" />
<path d="M78267 44960
L77874 44960
" />
<path d="M77874 44409
L78267 44409
" />
<path d="M77559 44724
L77874 44409
" />
<path d="M76614 44724
L77559 44724
" />
<path d="M78031 43779
L77637 44173
" />
<path d="M78267 43779
L78031 43779
" />
<path d="M78110 43149
L78267 43149
" />
<path d="M77559 43700
L78110 43149
" />
<path d="M76535 43700
L77559 43700
" />
<path d="M77795 42440
L78267 42440
" />
<path d="M77401 42834
L77795 42440
" />
<path d="M76771 41889
L76456 42204
" />
<path d="M77086 41889
L76771 41889
" />
<path d="M78267 41889
L77086 41889
" />
</g>
<g style="fill:#9F009F; fill-opacity:0.0; 
stroke:#9F009F; stroke-width:59.0551; stroke-opacity:1; 
stroke-linecap:round; stroke-linejoin:round;">
<path d="M80508 41655
L80283 41655
" />
<path d="M80395 42049
L80395 41655
" />
<path d="M80001 42030
L80039 42049
L80114 42049
L80151 42030
L80170 41992
L80170 41842
L80151 41805
L80114 41786
L80039 41786
L80001 41805
L79983 41842
L79983 41880
L80170 41917
" />
<path d="M79814 42049
L79814 41786
" />
<path d="M79814 41824
L79795 41805
L79758 41786
L79701 41786
L79664 41805
L79645 41842
L79645 42049
" />
<path d="M79645 41842
L79626 41805
L79589 41786
L79533 41786
L79495 41805
L79476 41842
L79476 42049
" />
<path d="M79289 41786
L79289 42180
" />
<path d="M79289 41805
L79251 41786
L79176 41786
L79139 41805
L79120 41824
L79101 41861
L79101 41974
L79120 42011
L79139 42030
L79176 42049
L79251 42049
L79289 42030
" />
<path d="M78652 41692
L78633 41674
L78595 41655
L78502 41655
L78464 41674
L78445 41692
L78427 41730
L78427 41767
L78445 41824
L78670 42049
L78427 42049
" />
<path d="M80508 42265
L80283 42265
" />
<path d="M80395 42659
L80395 42265
" />
<path d="M80001 42640
L80039 42659
L80114 42659
L80151 42640
L80170 42603
L80170 42453
L80151 42415
L80114 42396
L80039 42396
L80001 42415
L79983 42453
L79983 42490
L80170 42528
" />
<path d="M79814 42659
L79814 42396
" />
<path d="M79814 42434
L79795 42415
L79758 42396
L79701 42396
L79664 42415
L79645 42453
L79645 42659
" />
<path d="M79645 42453
L79626 42415
L79589 42396
L79533 42396
L79495 42415
L79476 42453
L79476 42659
" />
<path d="M79289 42396
L79289 42790
" />
<path d="M79289 42415
L79251 42396
L79176 42396
L79139 42415
L79120 42434
L79101 42471
L79101 42584
L79120 42621
L79139 42640
L79176 42659
L79251 42659
L79289 42640
" />
<path d="M78427 42659
L78652 42659
" />
<path d="M78539 42659
L78539 42265
L78577 42321
L78614 42359
L78652 42378
" />
<path d="M80283 43232
L80301 43250
L80358 43269
L80395 43269
L80451 43250
L80489 43213
L80508 43175
L80526 43100
L80526 43044
L80508 42969
L80489 42932
L80451 42894
L80395 42875
L80358 42875
L80301 42894
L80283 42913
" />
<path d="M79964 43250
L80001 43269
L80076 43269
L80114 43250
L80133 43213
L80133 43063
L80114 43025
L80076 43007
L80001 43007
L79964 43025
L79945 43063
L79945 43100
L80133 43138
" />
<path d="M79720 43269
L79758 43250
L79776 43213
L79776 42875
" />
<path d="M79514 43269
L79551 43250
L79570 43213
L79570 42875
" />
<path d="M78858 43269
L79083 43269
" />
<path d="M78970 43269
L78970 42875
L79008 42932
L79045 42969
L79083 42988
" />
<path d="M78689 43119
L78389 43119
" />
<path d="M80283 43842
L80301 43861
L80358 43879
L80395 43879
L80451 43861
L80489 43823
L80508 43786
L80526 43711
L80526 43654
L80508 43579
L80489 43542
L80451 43504
L80395 43486
L80358 43486
L80301 43504
L80283 43523
" />
<path d="M79964 43861
L80001 43879
L80076 43879
L80114 43861
L80133 43823
L80133 43673
L80114 43636
L80076 43617
L80001 43617
L79964 43636
L79945 43673
L79945 43711
L80133 43748
" />
<path d="M79720 43879
L79758 43861
L79776 43823
L79776 43486
" />
<path d="M79514 43879
L79551 43861
L79570 43823
L79570 43486
" />
<path d="M78858 43879
L79083 43879
" />
<path d="M78970 43879
L78970 43486
L79008 43542
L79045 43579
L79083 43598
" />
<path d="M78689 43729
L78389 43729
" />
<path d="M78539 43879
L78539 43579
" />
<path d="M80283 44452
L80301 44471
L80358 44490
L80395 44490
L80451 44471
L80489 44433
L80508 44396
L80526 44321
L80526 44265
L80508 44190
L80489 44152
L80451 44115
L80395 44096
L80358 44096
L80301 44115
L80283 44133
" />
<path d="M79964 44471
L80001 44490
L80076 44490
L80114 44471
L80133 44433
L80133 44283
L80114 44246
L80076 44227
L80001 44227
L79964 44246
L79945 44283
L79945 44321
L80133 44358
" />
<path d="M79720 44490
L79758 44471
L79776 44433
L79776 44096
" />
<path d="M79514 44490
L79551 44471
L79570 44433
L79570 44096
" />
<path d="M79083 44133
L79064 44115
L79026 44096
L78933 44096
L78895 44115
L78877 44133
L78858 44171
L78858 44208
L78877 44265
L79101 44490
L78858 44490
" />
<path d="M78689 44340
L78389 44340
" />
<path d="M78539 44490
L78539 44190
" />
<path d="M80283 45062
L80301 45081
L80358 45100
L80395 45100
L80451 45081
L80489 45044
L80508 45006
L80526 44931
L80526 44875
L80508 44800
L80489 44762
L80451 44725
L80395 44706
L80358 44706
L80301 44725
L80283 44744
" />
<path d="M79964 45081
L80001 45100
L80076 45100
L80114 45081
L80133 45044
L80133 44894
L80114 44856
L80076 44837
L80001 44837
L79964 44856
L79945 44894
L79945 44931
L80133 44969
" />
<path d="M79720 45100
L79758 45081
L79776 45044
L79776 44706
" />
<path d="M79514 45100
L79551 45081
L79570 45044
L79570 44706
" />
<path d="M79101 44706
L78858 44706
L78989 44856
L78933 44856
L78895 44875
L78877 44894
L78858 44931
L78858 45025
L78877 45062
L78895 45081
L78933 45100
L79045 45100
L79083 45081
L79101 45062
" />
<path d="M78689 44950
L78389 44950
" />
<path d="M78539 45100
L78539 44800
" />
<path d="M80283 45673
L80301 45691
L80358 45710
L80395 45710
L80451 45691
L80489 45654
L80508 45616
L80526 45541
L80526 45485
L80508 45410
L80489 45373
L80451 45335
L80395 45316
L80358 45316
L80301 45335
L80283 45354
" />
<path d="M79964 45691
L80001 45710
L80076 45710
L80114 45691
L80133 45654
L80133 45504
L80114 45466
L80076 45448
L80001 45448
L79964 45466
L79945 45504
L79945 45541
L80133 45579
" />
<path d="M79720 45710
L79758 45691
L79776 45654
L79776 45316
" />
<path d="M79514 45710
L79551 45691
L79570 45654
L79570 45316
" />
<path d="M78895 45448
L78895 45710
" />
<path d="M78989 45298
L79083 45579
L78839 45579
" />
<path d="M78689 45560
L78389 45560
" />
<path d="M78539 45710
L78539 45410
" />
<path d="M80283 46283
L80301 46302
L80358 46320
L80395 46320
L80451 46302
L80489 46264
L80508 46227
L80526 46152
L80526 46095
L80508 46020
L80489 45983
L80451 45945
L80395 45927
L80358 45927
L80301 45945
L80283 45964
" />
<path d="M79964 46302
L80001 46320
L80076 46320
L80114 46302
L80133 46264
L80133 46114
L80114 46077
L80076 46058
L80001 46058
L79964 46077
L79945 46114
L79945 46152
L80133 46189
" />
<path d="M79720 46320
L79758 46302
L79776 46264
L79776 45927
" />
<path d="M79514 46320
L79551 46302
L79570 46264
L79570 45927
" />
<path d="M78877 45927
L79064 45927
L79083 46114
L79064 46095
L79026 46077
L78933 46077
L78895 46095
L78877 46114
L78858 46152
L78858 46245
L78877 46283
L78895 46302
L78933 46320
L79026 46320
L79064 46302
L79083 46283
" />
<path d="M78689 46170
L78389 46170
" />
<path d="M78539 46320
L78539 46020
" />
<path d="M80283 46893
L80301 46912
L80358 46931
L80395 46931
L80451 46912
L80489 46874
L80508 46837
L80526 46762
L80526 46706
L80508 46631
L80489 46593
L80451 46556
L80395 46537
L80358 46537
L80301 46556
L80283 46574
" />
<path d="M79964 46912
L80001 46931
L80076 46931
L80114 46912
L80133 46874
L80133 46724
L80114 46687
L80076 46668
L80001 46668
L79964 46687
L79945 46724
L79945 46762
L80133 46799
" />
<path d="M79720 46931
L79758 46912
L79776 46874
L79776 46537
" />
<path d="M79514 46931
L79551 46912
L79570 46874
L79570 46537
" />
<path d="M78895 46537
L78970 46537
L79008 46556
L79026 46574
L79064 46631
L79083 46706
L79083 46856
L79064 46893
L79045 46912
L79008 46931
L78933 46931
L78895 46912
L78877 46893
L78858 46856
L78858 46762
L78877 46724
L78895 46706
L78933 46687
L79008 46687
L79045 46706
L79064 46724
L79083 46762
" />
<path d="M78689 46781
L78389 46781
" />
<path d="M78539 46931
L78539 46631
" />
<path d="M80283 47503
L80301 47522
L80358 47541
L80395 47541
L80451 47522
L80489 47485
L80508 47447
L80526 47372
L80526 47316
L80508 47241
L80489 47203
L80451 47166
L80395 47147
L80358 47147
L80301 47166
L80283 47185
" />
<path d="M79964 47522
L80001 47541
L80076 47541
L80114 47522
L80133 47485
L80133 47335
L80114 47297
L80076 47278
L80001 47278
L79964 47297
L79945 47335
L79945 47372
L80133 47410
" />
<path d="M79720 47541
L79758 47522
L79776 47485
L79776 47147
" />
<path d="M79514 47541
L79551 47522
L79570 47485
L79570 47147
" />
<path d="M79101 47147
L78839 47147
L79008 47541
" />
<path d="M78689 47391
L78389 47391
" />
<path d="M78539 47541
L78539 47241
" />
<path d="M80283 48113
L80301 48132
L80358 48151
L80395 48151
L80451 48132
L80489 48095
L80508 48057
L80526 47982
L80526 47926
L80508 47851
L80489 47814
L80451 47776
L80395 47757
L80358 47757
L80301 47776
L80283 47795
" />
<path d="M79964 48132
L80001 48151
L80076 48151
L80114 48132
L80133 48095
L80133 47945
L80114 47907
L80076 47889
L80001 47889
L79964 47907
L79945 47945
L79945 47982
L80133 48020
" />
<path d="M79720 48151
L79758 48132
L79776 48095
L79776 47757
" />
<path d="M79514 48151
L79551 48132
L79570 48095
L79570 47757
" />
<path d="M79008 47926
L79045 47907
L79064 47889
L79083 47851
L79083 47832
L79064 47795
L79045 47776
L79008 47757
L78933 47757
L78895 47776
L78877 47795
L78858 47832
L78858 47851
L78877 47889
L78895 47907
L78933 47926
L79008 47926
L79045 47945
L79064 47964
L79083 48001
L79083 48076
L79064 48113
L79045 48132
L79008 48151
L78933 48151
L78895 48132
L78877 48113
L78858 48076
L78858 48001
L78877 47964
L78895 47945
L78933 47926
" />
<path d="M78689 48001
L78389 48001
" />
<path d="M78539 48151
L78539 47851
" />
<path d="M80283 48724
L80301 48742
L80358 48761
L80395 48761
L80451 48742
L80489 48705
L80508 48667
L80526 48592
L80526 48536
L80508 48461
L80489 48424
L80451 48386
L80395 48368
L80358 48368
L80301 48386
L80283 48405
" />
<path d="M79964 48742
L80001 48761
L80076 48761
L80114 48742
L80133 48705
L80133 48555
L80114 48517
L80076 48499
L80001 48499
L79964 48517
L79945 48555
L79945 48592
L80133 48630
" />
<path d="M79720 48761
L79758 48742
L79776 48705
L79776 48368
" />
<path d="M79514 48761
L79551 48742
L79570 48705
L79570 48368
" />
<path d="M79045 48761
L78970 48761
L78933 48742
L78914 48724
L78877 48667
L78858 48592
L78858 48443
L78877 48405
L78895 48386
L78933 48368
L79008 48368
L79045 48386
L79064 48405
L79083 48443
L79083 48536
L79064 48574
L79045 48592
L79008 48611
L78933 48611
L78895 48592
L78877 48574
L78858 48536
" />
<path d="M78689 48611
L78389 48611
" />
<path d="M78539 48761
L78539 48461
" />
<path d="M80470 49334
L80489 49353
L80545 49371
L80583 49371
L80639 49353
L80676 49315
L80695 49278
L80714 49203
L80714 49146
L80695 49071
L80676 49034
L80639 48997
L80583 48978
L80545 48978
L80489 48997
L80470 49015
" />
<path d="M80151 49353
L80189 49371
L80264 49371
L80301 49353
L80320 49315
L80320 49165
L80301 49128
L80264 49109
L80189 49109
L80151 49128
L80133 49165
L80133 49203
L80320 49240
" />
<path d="M79908 49371
L79945 49353
L79964 49315
L79964 48978
" />
<path d="M79701 49371
L79739 49353
L79758 49315
L79758 48978
" />
<path d="M79045 49371
L79270 49371
" />
<path d="M79158 49371
L79158 48978
L79195 49034
L79233 49071
L79270 49090
" />
<path d="M78802 48978
L78764 48978
L78727 48997
L78708 49015
L78689 49053
L78670 49128
L78670 49221
L78689 49296
L78708 49334
L78727 49353
L78764 49371
L78802 49371
L78839 49353
L78858 49334
L78877 49296
L78895 49221
L78895 49128
L78877 49053
L78858 49015
L78839 48997
L78802 48978
" />
<path d="M78502 49221
L78202 49221
" />
<path d="M78352 49371
L78352 49071
" />
<path d="M80470 49944
L80489 49963
L80545 49982
L80583 49982
L80639 49963
L80676 49925
L80695 49888
L80714 49813
L80714 49757
L80695 49682
L80676 49644
L80639 49607
L80583 49588
L80545 49588
L80489 49607
L80470 49625
" />
<path d="M80151 49963
L80189 49982
L80264 49982
L80301 49963
L80320 49925
L80320 49775
L80301 49738
L80264 49719
L80189 49719
L80151 49738
L80133 49775
L80133 49813
L80320 49850
" />
<path d="M79908 49982
L79945 49963
L79964 49925
L79964 49588
" />
<path d="M79701 49982
L79739 49963
L79758 49925
L79758 49588
" />
<path d="M79045 49982
L79270 49982
" />
<path d="M79158 49982
L79158 49588
L79195 49644
L79233 49682
L79270 49700
" />
<path d="M78670 49982
L78895 49982
" />
<path d="M78783 49982
L78783 49588
L78820 49644
L78858 49682
L78895 49700
" />
<path d="M78502 49832
L78202 49832
" />
<path d="M78352 49982
L78352 49682
" />
<path d="M80470 50554
L80489 50573
L80545 50592
L80583 50592
L80639 50573
L80676 50536
L80695 50498
L80714 50423
L80714 50367
L80695 50292
L80676 50254
L80639 50217
L80583 50198
L80545 50198
L80489 50217
L80470 50236
" />
<path d="M80151 50573
L80189 50592
L80264 50592
L80301 50573
L80320 50536
L80320 50386
L80301 50348
L80264 50329
L80189 50329
L80151 50348
L80133 50386
L80133 50423
L80320 50461
" />
<path d="M79908 50592
L79945 50573
L79964 50536
L79964 50198
" />
<path d="M79701 50592
L79739 50573
L79758 50536
L79758 50198
" />
<path d="M79045 50592
L79270 50592
" />
<path d="M79158 50592
L79158 50198
L79195 50254
L79233 50292
L79270 50311
" />
<path d="M78895 50236
L78877 50217
L78839 50198
L78745 50198
L78708 50217
L78689 50236
L78670 50273
L78670 50311
L78689 50367
L78914 50592
L78670 50592
" />
<path d="M78502 50442
L78202 50442
" />
<path d="M78352 50592
L78352 50292
" />
</g> 
</svg>
