<?xml version="1.0" standalone="no"?>
 <!DOCTYPE svg PUBLIC "-//W3C//DTD SVG 1.1//EN" 
 "http://www.w3.org/Graphics/SVG/1.1/DTD/svg11.dtd"> 
<svg xmlns="http://www.w3.org/2000/svg" version="1.1" 
    width="29.7002cm" height="21.0007cm" viewBox="0 0 116930 82680 ">
<title>SVG Picture created as 6802-2slv-F_Cu.svg date 2013/03/24 22:35:03 </title>
  <desc>Picture generated by PCBNEW </desc>
<g style="fill:#000000; fill-opacity:1;stroke:#000000; stroke-opacity:1;
stroke-linecap:round; stroke-linejoin:round; "
 transform="translate(0 0) scale(1 1)">
</g>
<g style="fill:#000000; fill-opacity:0.0; 
stroke:#000000; stroke-width:39.3701; stroke-opacity:1; 
stroke-linecap:round; stroke-linejoin:round;">
<path d="M4000 4000
L112930 4000
L112930 78680
L4000 78680
L4000 4000
" />
<path d="M4700 4700
L112230 4700
L112230 77980
L4700 77980
L4700 4700
" />
<path d="M25780 4000
L25780 4700
" />
<path d="M15032 4552
L14747 4552
" />
<path d="M14890 4552
L14890 4052
L14842 4123
L14794 4171
L14747 4195
" />
<path d="M25780 78680
L25780 77980
" />
<path d="M15032 78532
L14747 78532
" />
<path d="M14890 78532
L14890 78032
L14842 78103
L14794 78151
L14747 78175
" />
<path d="M47560 4000
L47560 4700
" />
<path d="M36527 4100
L36550 4076
L36598 4052
L36717 4052
L36765 4076
L36789 4100
L36812 4147
L36812 4195
L36789 4266
L36503 4552
L36812 4552
" />
<path d="M47560 78680
L47560 77980
" />
<path d="M36527 78080
L36550 78056
L36598 78032
L36717 78032
L36765 78056
L36789 78080
L36812 78127
L36812 78175
L36789 78246
L36503 78532
L36812 78532
" />
<path d="M69340 4000
L69340 4700
" />
<path d="M58283 4052
L58592 4052
L58426 4242
L58497 4242
L58545 4266
L58569 4290
L58592 4338
L58592 4457
L58569 4504
L58545 4528
L58497 4552
L58354 4552
L58307 4528
L58283 4504
" />
<path d="M69340 78680
L69340 77980
" />
<path d="M58283 78032
L58592 78032
L58426 78222
L58497 78222
L58545 78246
L58569 78270
L58592 78318
L58592 78437
L58569 78484
L58545 78508
L58497 78532
L58354 78532
L58307 78508
L58283 78484
" />
<path d="M91120 4000
L91120 4700
" />
<path d="M80325 4219
L80325 4552
" />
<path d="M80206 4028
L80087 4385
L80396 4385
" />
<path d="M91120 78680
L91120 77980
" />
<path d="M80325 78199
L80325 78532
" />
<path d="M80206 78008
L80087 78365
L80396 78365
" />
<path d="M102129 4052
L101890 4052
L101867 4290
L101890 4266
L101938 4242
L102057 4242
L102105 4266
L102129 4290
L102152 4338
L102152 4457
L102129 4504
L102105 4528
L102057 4552
L101938 4552
L101890 4528
L101867 4504
" />
<path d="M102129 78032
L101890 78032
L101867 78270
L101890 78246
L101938 78222
L102057 78222
L102105 78246
L102129 78270
L102152 78318
L102152 78437
L102129 78484
L102105 78508
L102057 78532
L101938 78532
L101890 78508
L101867 78484
" />
<path d="M4000 28890
L4700 28890
" />
<path d="M4230 16509
L4469 16509
" />
<path d="M4183 16652
L4350 16152
L4516 16652
" />
<path d="M112930 28890
L112230 28890
" />
<path d="M112460 16509
L112699 16509
" />
<path d="M112413 16652
L112580 16152
L112746 16652
" />
<path d="M4000 53780
L4700 53780
" />
<path d="M4385 41280
L4457 41304
L4480 41328
L4504 41375
L4504 41447
L4480 41494
L4457 41518
L4409 41542
L4219 41542
L4219 41042
L4385 41042
L4433 41066
L4457 41090
L4480 41137
L4480 41185
L4457 41232
L4433 41256
L4385 41280
L4219 41280
" />
<path d="M112930 53780
L112230 53780
" />
<path d="M112615 41280
L112687 41304
L112710 41328
L112734 41375
L112734 41447
L112710 41494
L112687 41518
L112639 41542
L112449 41542
L112449 41042
L112615 41042
L112663 41066
L112687 41090
L112710 41137
L112710 41185
L112687 41232
L112663 41256
L112615 41280
L112449 41280
" />
<path d="M4504 66384
L4480 66408
L4409 66432
L4361 66432
L4290 66408
L4242 66360
L4219 66313
L4195 66218
L4195 66146
L4219 66051
L4242 66003
L4290 65956
L4361 65932
L4409 65932
L4480 65956
L4504 65980
" />
<path d="M112734 66384
L112710 66408
L112639 66432
L112591 66432
L112520 66408
L112472 66360
L112449 66313
L112425 66218
L112425 66146
L112449 66051
L112472 66003
L112520 65956
L112591 65932
L112639 65932
L112710 65956
L112734 65980
" />
<path d="M79380 76422
L79455 75822
L79597 75822
L79680 75851
L79730 75908
L79751 75965
L79765 76080
L79755 76165
L79712 76280
L79676 76337
L79612 76394
L79522 76422
L79380 76422
" />
<path d="M80237 76422
L80276 76108
L80255 76051
L80201 76022
L80087 76022
L80026 76051
" />
<path d="M80240 76394
L80180 76422
L80037 76422
L79983 76394
L79962 76337
L79969 76280
L80005 76222
L80065 76194
L80208 76194
L80269 76165
" />
<path d="M80487 76022
L80715 76022
" />
<path d="M80597 75822
L80533 76337
L80555 76394
L80608 76422
L80665 76422
" />
<path d="M81097 76394
L81037 76422
L80922 76422
L80869 76394
L80847 76337
L80876 76108
L80912 76051
L80972 76022
L81087 76022
L81140 76051
L81162 76108
L81155 76165
L80862 76222
" />
<path d="M81387 76365
L81412 76394
L81380 76422
L81355 76394
L81387 76365
L81380 76422
" />
<path d="M81426 76051
L81451 76080
L81419 76108
L81394 76080
L81426 76051
L81419 76108
" />
<path d="M70972 77622
L70972 77022
" />
<path d="M71315 77622
L71058 77280
" />
<path d="M71315 77022
L70972 77365
" />
<path d="M71572 77622
L71572 77222
" />
<path d="M71572 77022
L71544 77051
L71572 77080
L71601 77051
L71572 77022
L71572 77080
" />
<path d="M72201 77565
L72172 77594
L72087 77622
L72030 77622
L71944 77594
L71887 77537
L71858 77480
L71830 77365
L71830 77280
L71858 77165
L71887 77108
L71944 77051
L72030 77022
L72087 77022
L72172 77051
L72201 77080
" />
<path d="M72715 77622
L72715 77308
L72687 77251
L72630 77222
L72515 77222
L72458 77251
" />
<path d="M72715 77594
L72658 77622
L72515 77622
L72458 77594
L72430 77537
L72430 77480
L72458 77422
L72515 77394
L72658 77394
L72715 77365
" />
<path d="M73258 77622
L73258 77022
" />
<path d="M73258 77594
L73201 77622
L73087 77622
L73030 77594
L73001 77565
L72972 77508
L72972 77337
L73001 77280
L73030 77251
L73087 77222
L73201 77222
L73258 77251
" />
<path d="M74001 77308
L74201 77308
" />
<path d="M74287 77622
L74001 77622
L74001 77022
L74287 77022
" />
<path d="M74544 77565
L74572 77594
L74544 77622
L74515 77594
L74544 77565
L74544 77622
" />
<path d="M74829 77622
L74829 77022
L74972 77022
L75058 77051
L75115 77108
L75144 77165
L75172 77280
L75172 77365
L75144 77480
L75115 77537
L75058 77594
L74972 77622
L74829 77622
" />
<path d="M75429 77565
L75458 77594
L75429 77622
L75401 77594
L75429 77565
L75429 77622
" />
<path d="M75687 77451
L75972 77451
" />
<path d="M75629 77622
L75829 77022
L76029 77622
" />
<path d="M76229 77565
L76258 77594
L76229 77622
L76201 77594
L76229 77565
L76229 77622
" />
<path d="M104522 76422
L104358 76137
" />
<path d="M104180 76422
L104255 75822
L104483 75822
L104537 75851
L104562 75880
L104583 75937
L104572 76022
L104537 76080
L104505 76108
L104444 76137
L104215 76137
" />
<path d="M105012 76394
L104951 76422
L104837 76422
L104783 76394
L104762 76337
L104790 76108
L104826 76051
L104887 76022
L105001 76022
L105055 76051
L105076 76108
L105069 76165
L104776 76222
" />
<path d="M105287 76022
L105380 76422
L105572 76022
" />
<path d="M105758 76365
L105783 76394
L105751 76422
L105726 76394
L105758 76365
L105751 76422
" />
<path d="M105797 76051
L105822 76080
L105790 76108
L105765 76080
L105797 76051
L105790 76108
" />
<path d="M106494 76422
L106569 75822
L106712 75822
L106794 75851
L106844 75908
L106865 75965
L106880 76080
L106869 76165
L106826 76280
L106790 76337
L106726 76394
L106637 76422
L106494 76422
" />
<path d="M70944 76394
L71030 76422
L71172 76422
L71230 76394
L71258 76365
L71287 76308
L71287 76251
L71258 76194
L71230 76165
L71172 76137
L71058 76108
L71001 76080
L70972 76051
L70944 75994
L70944 75937
L70972 75880
L71001 75851
L71058 75822
L71201 75822
L71287 75851
" />
<path d="M71544 76422
L71544 76022
" />
<path d="M71544 75822
L71515 75851
L71544 75880
L71572 75851
L71544 75822
L71544 75880
" />
<path d="M71772 76022
L72087 76022
L71772 76422
L72087 76422
" />
<path d="M72544 76394
L72487 76422
L72372 76422
L72315 76394
L72287 76337
L72287 76108
L72315 76051
L72372 76022
L72487 76022
L72544 76051
L72572 76108
L72572 76165
L72287 76222
" />
<path d="M72830 76365
L72858 76394
L72830 76422
L72801 76394
L72830 76365
L72830 76422
" />
<path d="M72830 76051
L72858 76080
L72830 76108
L72801 76080
L72830 76051
L72830 76108
" />
<path d="M73544 76251
L73830 76251
" />
<path d="M73487 76422
L73687 75822
L73887 76422
" />
<path d="M74344 76022
L74344 76422
" />
<path d="M74201 75794
L74058 76222
L74430 76222
" />
<path d="M104172 77622
L104172 77022
" />
<path d="M104715 77622
L104715 77022
" />
<path d="M104715 77594
L104658 77622
L104544 77622
L104487 77594
L104458 77565
L104430 77508
L104430 77337
L104458 77280
L104487 77251
L104544 77222
L104658 77222
L104715 77251
" />
<path d="M105001 77565
L105030 77594
L105001 77622
L104972 77594
L105001 77565
L105001 77622
" />
<path d="M105001 77251
L105030 77280
L105001 77308
L104972 77280
L105001 77251
L105001 77308
" />
<path d="M106058 77622
L105715 77622
" />
<path d="M105887 77622
L105887 77022
L105829 77108
L105772 77165
L105715 77194
" />
<path d="M106744 76994
L106230 77765
" />
<path d="M107258 77622
L106915 77622
" />
<path d="M107087 77622
L107087 77022
L107029 77108
L106972 77165
L106915 77194
" />
<path d="M70969 74622
L71312 74622
" />
<path d="M71065 75222
L71140 74622
" />
<path d="M71437 75222
L71487 74822
" />
<path d="M71512 74622
L71480 74651
L71505 74680
L71537 74651
L71512 74622
L71505 74680
" />
<path d="M71687 74822
L71915 74822
" />
<path d="M71797 74622
L71733 75137
L71755 75194
L71808 75222
L71865 75222
" />
<path d="M72151 75222
L72097 75194
L72076 75137
L72140 74622
" />
<path d="M72612 75194
L72551 75222
L72437 75222
L72383 75194
L72362 75137
L72390 74908
L72426 74851
L72487 74822
L72601 74822
L72655 74851
L72676 74908
L72669 74965
L72376 75022
" />
<path d="M72901 75165
L72926 75194
L72894 75222
L72869 75194
L72901 75165
L72894 75222
" />
<path d="M72940 74851
L72965 74880
L72933 74908
L72908 74880
L72940 74851
L72933 74908
" />
<path d="M73922 75222
L73637 75222
L73712 74622
" />
<path d="M74112 74622
L74455 74622
" />
<path d="M74208 75222
L74283 74622
" />
<path d="M74930 75165
L74897 75194
L74808 75222
L74751 75222
L74669 75194
L74619 75137
L74597 75080
L74583 74965
L74594 74880
L74637 74765
L74672 74708
L74737 74651
L74826 74622
L74883 74622
L74965 74651
L74990 74680
" />
<path d="M75512 74622
L75397 74622
L75337 74651
L75305 74680
L75237 74765
L75194 74880
L75165 75108
L75187 75165
L75212 75194
L75265 75222
L75380 75222
L75440 75194
L75472 75165
L75508 75108
L75526 74965
L75505 74908
L75480 74880
L75426 74851
L75312 74851
L75251 74880
L75219 74908
L75183 74965
" />
<path d="M75880 74880
L75826 74851
L75801 74822
L75780 74765
L75783 74737
L75819 74680
L75851 74651
L75912 74622
L76026 74622
L76080 74651
L76105 74680
L76126 74737
L76122 74765
L76087 74822
L76055 74851
L75994 74880
L75880 74880
L75819 74908
L75787 74937
L75751 74994
L75737 75108
L75758 75165
L75783 75194
L75837 75222
L75951 75222
L76012 75194
L76044 75165
L76080 75108
L76094 74994
L76072 74937
L76047 74908
L75994 74880
" />
<path d="M76512 74622
L76569 74622
L76622 74651
L76647 74680
L76669 74737
L76683 74851
L76665 74994
L76622 75108
L76587 75165
L76555 75194
L76494 75222
L76437 75222
L76383 75194
L76358 75165
L76337 75108
L76322 74994
L76340 74851
L76383 74737
L76419 74680
L76451 74651
L76512 74622
" />
<path d="M76933 74680
L76965 74651
L77026 74622
L77169 74622
L77222 74651
L77247 74680
L77269 74737
L77262 74794
L77222 74880
L76837 75222
L77208 75222
" />
<path d="M77494 74994
L77951 74994
" />
<path d="M78247 74680
L78280 74651
L78340 74622
L78483 74622
L78537 74651
L78562 74680
L78583 74737
L78576 74794
L78537 74880
L78151 75222
L78522 75222
" />
<path d="M79237 75222
L79312 74622
" />
<path d="M79283 74851
L79344 74822
L79458 74822
L79512 74851
L79537 74880
L79558 74937
L79537 75108
L79501 75165
L79469 75194
L79408 75222
L79294 75222
L79240 75194
" />
<path d="M80037 75222
L80076 74908
L80055 74851
L80001 74822
L79887 74822
L79826 74851
" />
<path d="M80040 75194
L79980 75222
L79837 75222
L79783 75194
L79762 75137
L79769 75080
L79805 75022
L79865 74994
L80008 74994
L80069 74965
" />
<path d="M80297 75194
L80351 75222
L80465 75222
L80526 75194
L80562 75137
L80565 75108
L80544 75051
L80490 75022
L80405 75022
L80351 74994
L80330 74937
L80333 74908
L80369 74851
L80430 74822
L80515 74822
L80569 74851
" />
<path d="M81040 75194
L80980 75222
L80865 75222
L80812 75194
L80790 75137
L80819 74908
L80855 74851
L80915 74822
L81030 74822
L81083 74851
L81105 74908
L81097 74965
L80805 75022
" />
<path d="M81580 75222
L81655 74622
" />
<path d="M81583 75194
L81522 75222
L81408 75222
L81355 75194
L81330 75165
L81308 75108
L81330 74937
L81365 74880
L81397 74851
L81458 74822
L81572 74822
L81626 74851
" />
<path d="M82583 75194
L82522 75222
L82408 75222
L82355 75194
L82330 75165
L82308 75108
L82330 74937
L82365 74880
L82397 74851
L82458 74822
L82572 74822
L82626 74851
" />
<path d="M83069 75194
L83008 75222
L82894 75222
L82840 75194
L82819 75137
L82847 74908
L82883 74851
L82944 74822
L83058 74822
L83112 74851
L83133 74908
L83126 74965
L82833 75022
" />
<path d="M83437 75222
L83383 75194
L83362 75137
L83426 74622
" />
<path d="M83751 75222
L83697 75194
L83676 75137
L83740 74622
" />
<path d="M84437 75222
L84487 74822
" />
<path d="M84480 74880
L84512 74851
L84572 74822
L84658 74822
L84712 74851
L84733 74908
L84694 75222
" />
<path d="M84733 74908
L84769 74851
L84830 74822
L84915 74822
L84969 74851
L84990 74908
L84951 75222
" />
<path d="M85322 75222
L85269 75194
L85244 75165
L85222 75108
L85244 74937
L85280 74880
L85312 74851
L85372 74822
L85458 74822
L85512 74851
L85537 74880
L85558 74937
L85537 75108
L85501 75165
L85469 75194
L85408 75222
L85322 75222
" />
<path d="M85830 74822
L85780 75222
" />
<path d="M85822 74880
L85855 74851
L85915 74822
L86001 74822
L86055 74851
L86076 74908
L86037 75222
" />
<path d="M86322 75222
L86372 74822
" />
<path d="M86397 74622
L86365 74651
L86390 74680
L86422 74651
L86397 74622
L86390 74680
" />
<path d="M86572 74822
L86801 74822
" />
<path d="M86683 74622
L86619 75137
L86640 75194
L86694 75222
L86751 75222
" />
<path d="M87037 75222
L86983 75194
L86958 75165
L86937 75108
L86958 74937
L86994 74880
L87026 74851
L87087 74822
L87172 74822
L87226 74851
L87251 74880
L87272 74937
L87251 75108
L87215 75165
L87183 75194
L87122 75222
L87037 75222
" />
<path d="M87494 75222
L87544 74822
" />
<path d="M87530 74937
L87565 74880
L87597 74851
L87658 74822
L87715 74822
" />
<path d="M71172 72508
L70972 72508
" />
<path d="M70972 72822
L70972 72222
L71258 72222
" />
<path d="M71487 72822
L71487 72422
" />
<path d="M71487 72222
L71458 72251
L71487 72280
L71515 72251
L71487 72222
L71487 72280
" />
<path d="M71858 72822
L71801 72794
L71772 72737
L71772 72222
" />
<path d="M72315 72794
L72258 72822
L72144 72822
L72087 72794
L72058 72737
L72058 72508
L72087 72451
L72144 72422
L72258 72422
L72315 72451
L72344 72508
L72344 72565
L72058 72622
" />
<path d="M72601 72765
L72630 72794
L72601 72822
L72572 72794
L72601 72765
L72601 72822
" />
<path d="M72601 72451
L72630 72480
L72601 72508
L72572 72480
L72601 72451
L72601 72508
" />
<path d="M73601 72222
L73487 72222
L73430 72251
L73401 72280
L73344 72365
L73315 72480
L73315 72708
L73344 72765
L73372 72794
L73430 72822
L73544 72822
L73601 72794
L73630 72765
L73658 72708
L73658 72565
L73630 72508
L73601 72480
L73544 72451
L73430 72451
L73372 72480
L73344 72508
L73315 72565
" />
<path d="M74001 72480
L73944 72451
L73915 72422
L73887 72365
L73887 72337
L73915 72280
L73944 72251
L74001 72222
L74115 72222
L74172 72251
L74201 72280
L74230 72337
L74230 72365
L74201 72422
L74172 72451
L74115 72480
L74001 72480
L73944 72508
L73915 72537
L73887 72594
L73887 72708
L73915 72765
L73944 72794
L74001 72822
L74115 72822
L74172 72794
L74201 72765
L74230 72708
L74230 72594
L74201 72537
L74172 72508
L74115 72480
" />
<path d="M74601 72222
L74658 72222
L74715 72251
L74744 72280
L74772 72337
L74801 72451
L74801 72594
L74772 72708
L74744 72765
L74715 72794
L74658 72822
L74601 72822
L74544 72794
L74515 72765
L74487 72708
L74458 72594
L74458 72451
L74487 72337
L74515 72280
L74544 72251
L74601 72222
" />
<path d="M75030 72280
L75058 72251
L75115 72222
L75258 72222
L75315 72251
L75344 72280
L75372 72337
L75372 72394
L75344 72480
L75001 72822
L75372 72822
" />
<path d="M75630 72594
L76087 72594
" />
<path d="M76344 72280
L76372 72251
L76430 72222
L76572 72222
L76630 72251
L76658 72280
L76687 72337
L76687 72394
L76658 72480
L76315 72822
L76687 72822
" />
<path d="M76915 72794
L76972 72822
L77087 72822
L77144 72794
L77172 72737
L77172 72708
L77144 72651
L77087 72622
L77001 72622
L76944 72594
L76915 72537
L76915 72508
L76944 72451
L77001 72422
L77087 72422
L77144 72451
" />
<path d="M77515 72822
L77458 72794
L77430 72737
L77430 72222
" />
<path d="M77687 72422
L77830 72822
L77972 72422
" />
<path d="M78201 72765
L78230 72794
L78201 72822
L78172 72794
L78201 72765
L78201 72822
" />
<path d="M78487 72822
L78487 72222
" />
<path d="M78544 72594
L78715 72822
" />
<path d="M78715 72422
L78487 72651
" />
<path d="M78972 72822
L78972 72422
" />
<path d="M78972 72222
L78944 72251
L78972 72280
L79001 72251
L78972 72222
L78972 72280
" />
<path d="M79515 72794
L79458 72822
L79344 72822
L79287 72794
L79258 72765
L79230 72708
L79230 72537
L79258 72480
L79287 72451
L79344 72422
L79458 72422
L79515 72451
" />
<path d="M80030 72822
L80030 72508
L80001 72451
L79944 72422
L79830 72422
L79772 72451
" />
<path d="M80030 72794
L79972 72822
L79830 72822
L79772 72794
L79744 72737
L79744 72680
L79772 72622
L79830 72594
L79972 72594
L80030 72565
" />
<path d="M80572 72822
L80572 72222
" />
<path d="M80572 72794
L80515 72822
L80401 72822
L80344 72794
L80315 72765
L80287 72708
L80287 72537
L80315 72480
L80344 72451
L80401 72422
L80515 72422
L80572 72451
" />
<path d="M80715 72880
L81172 72880
" />
<path d="M81315 72422
L81315 73022
" />
<path d="M81315 72451
L81372 72422
L81487 72422
L81544 72451
L81572 72480
L81601 72537
L81601 72708
L81572 72765
L81544 72794
L81487 72822
L81372 72822
L81315 72794
" />
<path d="M82115 72794
L82058 72822
L81944 72822
L81887 72794
L81858 72765
L81830 72708
L81830 72537
L81858 72480
L81887 72451
L81944 72422
L82058 72422
L82115 72451
" />
<path d="M82372 72822
L82372 72222
" />
<path d="M82372 72451
L82430 72422
L82544 72422
L82601 72451
L82630 72480
L82658 72537
L82658 72708
L82630 72765
L82601 72794
L82544 72822
L82430 72822
L82372 72794
" />
<path d="M70944 73994
L71030 74022
L71172 74022
L71230 73994
L71258 73965
L71287 73908
L71287 73851
L71258 73794
L71230 73765
L71172 73737
L71058 73708
L71001 73680
L70972 73651
L70944 73594
L70944 73537
L70972 73480
L71001 73451
L71058 73422
L71201 73422
L71287 73451
" />
<path d="M71544 74022
L71544 73422
" />
<path d="M71801 74022
L71801 73708
L71772 73651
L71715 73622
L71630 73622
L71572 73651
L71544 73680
" />
<path d="M72315 73994
L72258 74022
L72144 74022
L72087 73994
L72058 73937
L72058 73708
L72087 73651
L72144 73622
L72258 73622
L72315 73651
L72344 73708
L72344 73765
L72058 73822
" />
<path d="M72830 73994
L72772 74022
L72658 74022
L72601 73994
L72572 73937
L72572 73708
L72601 73651
L72658 73622
L72772 73622
L72830 73651
L72858 73708
L72858 73765
L72572 73822
" />
<path d="M73030 73622
L73258 73622
" />
<path d="M73115 73422
L73115 73937
L73144 73994
L73201 74022
L73258 74022
" />
<path d="M73458 73965
L73487 73994
L73458 74022
L73430 73994
L73458 73965
L73458 74022
" />
<path d="M73458 73651
L73487 73680
L73458 73708
L73430 73680
L73458 73651
L73458 73708
" />
<path d="M71122 71851
L71097 71822
L71051 71737
L71030 71680
L71012 71594
L71001 71451
L71015 71337
L71062 71194
L71101 71108
L71137 71051
L71205 70965
L71237 70937
" />
<path d="M71640 71594
L71580 71622
L71465 71622
L71412 71594
L71387 71565
L71365 71508
L71387 71337
L71422 71280
L71455 71251
L71515 71222
L71630 71222
L71683 71251
" />
<path d="M71808 71851
L71840 71822
L71908 71737
L71944 71680
L71983 71594
L72030 71451
L72044 71337
L72033 71194
L72015 71108
L71994 71051
L71947 70965
L71922 70937
" />
<path d="M73137 71051
L73083 71022
L72997 71022
L72908 71051
L72844 71108
L72808 71165
L72765 71280
L72755 71365
L72769 71480
L72790 71537
L72840 71594
L72922 71622
L72980 71622
L73069 71594
L73101 71565
L73126 71365
L73012 71365
" />
<path d="M73351 71622
L73401 71222
" />
<path d="M73387 71337
L73422 71280
L73455 71251
L73515 71222
L73572 71222
" />
<path d="M73955 71594
L73894 71622
L73780 71622
L73726 71594
L73705 71537
L73733 71308
L73769 71251
L73830 71222
L73944 71222
L73997 71251
L74019 71308
L74012 71365
L73719 71422
" />
<path d="M74544 71222
L74483 71708
L74447 71765
L74415 71794
L74355 71822
L74269 71822
L74215 71794
" />
<path d="M74497 71594
L74437 71622
L74322 71622
L74269 71594
L74244 71565
L74222 71508
L74244 71337
L74280 71280
L74312 71251
L74372 71222
L74487 71222
L74540 71251
" />
<path d="M75476 71308
L75276 71308
" />
<path d="M75237 71622
L75312 71022
L75597 71022
" />
<path d="M75837 71622
L75783 71594
L75758 71565
L75737 71508
L75758 71337
L75794 71280
L75826 71251
L75887 71222
L75972 71222
L76026 71251
L76051 71280
L76072 71337
L76051 71508
L76015 71565
L75983 71594
L75922 71622
L75837 71622
" />
<path d="M76294 71622
L76344 71222
" />
<path d="M76330 71337
L76365 71280
L76397 71251
L76458 71222
L76515 71222
" />
<path d="M76922 71622
L76997 71022
" />
<path d="M76926 71594
L76865 71622
L76751 71622
L76697 71594
L76672 71565
L76651 71508
L76672 71337
L76708 71280
L76740 71251
L76801 71222
L76915 71222
L76969 71251
" />
<path d="M77201 71222
L77294 71622
" />
<path d="M77487 71222
L77294 71622
L77219 71765
L77187 71794
L77126 71822
" />
<path d="M77926 71594
L77865 71622
L77751 71622
L77697 71594
L77672 71565
L77651 71508
L77672 71337
L77708 71280
L77740 71251
L77801 71222
L77915 71222
L77969 71251
" />
<path d="M78412 71594
L78351 71622
L78237 71622
L78183 71594
L78162 71537
L78190 71308
L78226 71251
L78287 71222
L78401 71222
L78455 71251
L78476 71308
L78469 71365
L78176 71422
" />
<path d="M79190 71080
L79222 71051
L79283 71022
L79426 71022
L79480 71051
L79505 71080
L79526 71137
L79519 71194
L79480 71280
L79094 71622
L79465 71622
" />
<path d="M79912 71022
L79969 71022
L80022 71051
L80047 71080
L80069 71137
L80083 71251
L80065 71394
L80022 71508
L79987 71565
L79955 71594
L79894 71622
L79837 71622
L79783 71594
L79758 71565
L79737 71508
L79722 71394
L79740 71251
L79783 71137
L79819 71080
L79851 71051
L79912 71022
" />
<path d="M80608 71622
L80265 71622
" />
<path d="M80437 71622
L80512 71022
L80444 71108
L80380 71165
L80319 71194
" />
<path d="M80883 71022
L81255 71022
L81026 71251
L81112 71251
L81165 71280
L81190 71308
L81212 71365
L81194 71508
L81158 71565
L81126 71594
L81065 71622
L80894 71622
L80840 71594
L80815 71565
" />
<path d="M70915 70022
L71030 70422
L71144 70137
L71258 70422
L71372 70022
" />
<path d="M71544 70022
L71658 70422
L71772 70137
L71887 70422
L72001 70022
" />
<path d="M72172 70022
L72287 70422
L72401 70137
L72515 70422
L72629 70022
" />
<path d="M72858 70365
L72887 70394
L72858 70422
L72829 70394
L72858 70365
L72858 70422
" />
<path d="M73401 70022
L73401 70508
L73372 70565
L73344 70594
L73287 70622
L73201 70622
L73144 70594
" />
<path d="M73401 70394
L73344 70422
L73229 70422
L73172 70394
L73144 70365
L73115 70308
L73115 70137
L73144 70080
L73172 70051
L73229 70022
L73344 70022
L73401 70051
" />
<path d="M73772 70422
L73715 70394
L73687 70365
L73658 70308
L73658 70137
L73687 70080
L73715 70051
L73772 70022
L73858 70022
L73915 70051
L73944 70080
L73972 70137
L73972 70308
L73944 70365
L73915 70394
L73858 70422
L73772 70422
" />
<path d="M74229 70194
L74687 70194
" />
<path d="M75201 70394
L75144 70422
L75029 70422
L74972 70394
L74944 70337
L74944 70108
L74972 70051
L75029 70022
L75144 70022
L75201 70051
L75229 70108
L75229 70165
L74944 70222
" />
<path d="M75429 70022
L75572 70422
L75715 70022
" />
<path d="M75944 70365
L75972 70394
L75944 70422
L75915 70394
L75944 70365
L75944 70422
" />
<path d="M76487 70394
L76429 70422
L76315 70422
L76258 70394
L76229 70365
L76201 70308
L76201 70137
L76229 70080
L76258 70051
L76315 70022
L76429 70022
L76487 70051
" />
<path d="M76829 70422
L76772 70394
L76744 70365
L76715 70308
L76715 70137
L76744 70080
L76772 70051
L76829 70022
L76915 70022
L76972 70051
L77001 70080
L77029 70137
L77029 70308
L77001 70365
L76972 70394
L76915 70422
L76829 70422
" />
<path d="M77287 70365
L77315 70394
L77287 70422
L77258 70394
L77287 70365
L77287 70422
" />
<path d="M77829 70022
L77829 70422
" />
<path d="M77572 70022
L77572 70337
L77601 70394
L77658 70422
L77744 70422
L77801 70394
L77829 70365
" />
<path d="M78115 70422
L78115 69822
" />
<path d="M78172 70194
L78344 70422
" />
<path d="M78344 70022
L78115 70251
" />
<path d="M71258 66822
L70972 66822
L70972 66222
" />
<path d="M71458 66822
L71458 66422
" />
<path d="M71458 66222
L71430 66251
L71458 66280
L71487 66251
L71458 66222
L71458 66280
" />
<path d="M72001 66794
L71944 66822
L71829 66822
L71772 66794
L71744 66765
L71715 66708
L71715 66537
L71744 66480
L71772 66451
L71829 66422
L71944 66422
L72001 66451
" />
<path d="M72487 66794
L72430 66822
L72315 66822
L72258 66794
L72230 66737
L72230 66508
L72258 66451
L72315 66422
L72430 66422
L72487 66451
L72515 66508
L72515 66565
L72230 66622
" />
<path d="M72772 66422
L72772 66822
" />
<path d="M72772 66480
L72801 66451
L72858 66422
L72944 66422
L73001 66451
L73030 66508
L73030 66822
" />
<path d="M73287 66794
L73344 66822
L73458 66822
L73515 66794
L73544 66737
L73544 66708
L73515 66651
L73458 66622
L73372 66622
L73315 66594
L73287 66537
L73287 66508
L73315 66451
L73372 66422
L73458 66422
L73515 66451
" />
<path d="M74030 66794
L73972 66822
L73858 66822
L73801 66794
L73772 66737
L73772 66508
L73801 66451
L73858 66422
L73972 66422
L74030 66451
L74058 66508
L74058 66565
L73772 66622
" />
<path d="M74572 66822
L74572 66222
" />
<path d="M74572 66794
L74515 66822
L74401 66822
L74344 66794
L74315 66765
L74287 66708
L74287 66537
L74315 66480
L74344 66451
L74401 66422
L74515 66422
L74572 66451
" />
<path d="M75572 66422
L75572 66822
" />
<path d="M75315 66422
L75315 66737
L75344 66794
L75401 66822
L75487 66822
L75544 66794
L75572 66765
" />
<path d="M75858 66422
L75858 66822
" />
<path d="M75858 66480
L75887 66451
L75944 66422
L76030 66422
L76087 66451
L76115 66508
L76115 66822
" />
<path d="M76658 66822
L76658 66222
" />
<path d="M76658 66794
L76601 66822
L76487 66822
L76430 66794
L76401 66765
L76372 66708
L76372 66537
L76401 66480
L76430 66451
L76487 66422
L76601 66422
L76658 66451
" />
<path d="M77172 66794
L77115 66822
L77001 66822
L76944 66794
L76915 66737
L76915 66508
L76944 66451
L77001 66422
L77115 66422
L77172 66451
L77201 66508
L77201 66565
L76915 66622
" />
<path d="M77458 66822
L77458 66422
" />
<path d="M77458 66537
L77487 66480
L77515 66451
L77572 66422
L77630 66422
" />
<path d="M78201 66422
L78430 66422
" />
<path d="M78287 66222
L78287 66737
L78315 66794
L78372 66822
L78430 66822
" />
<path d="M78630 66822
L78630 66222
" />
<path d="M78887 66822
L78887 66508
L78858 66451
L78801 66422
L78715 66422
L78658 66451
L78630 66480
" />
<path d="M79401 66794
L79344 66822
L79230 66822
L79172 66794
L79144 66737
L79144 66508
L79172 66451
L79230 66422
L79344 66422
L79401 66451
L79430 66508
L79430 66565
L79144 66622
" />
<path d="M80058 66222
L80401 66222
" />
<path d="M80230 66822
L80230 66222
" />
<path d="M80572 66651
L80858 66651
" />
<path d="M80515 66822
L80715 66222
L80915 66822
" />
<path d="M81115 66822
L81115 66222
L81344 66222
L81401 66251
L81430 66280
L81458 66337
L81458 66422
L81430 66480
L81401 66508
L81344 66537
L81115 66537
" />
<path d="M82058 66822
L81858 66537
" />
<path d="M81715 66822
L81715 66222
L81944 66222
L82001 66251
L82030 66280
L82058 66337
L82058 66422
L82030 66480
L82001 66508
L81944 66537
L81715 66537
" />
<path d="M82887 66222
L83001 66222
L83058 66251
L83115 66308
L83144 66422
L83144 66622
L83115 66737
L83058 66794
L83001 66822
L82887 66822
L82830 66794
L82772 66737
L82744 66622
L82744 66422
L82772 66308
L82830 66251
L82887 66222
" />
<path d="M83401 66422
L83401 67022
" />
<path d="M83401 66451
L83458 66422
L83572 66422
L83630 66451
L83658 66480
L83687 66537
L83687 66708
L83658 66765
L83630 66794
L83572 66822
L83458 66822
L83401 66794
" />
<path d="M84172 66794
L84115 66822
L84001 66822
L83944 66794
L83915 66737
L83915 66508
L83944 66451
L84001 66422
L84115 66422
L84172 66451
L84201 66508
L84201 66565
L83915 66622
" />
<path d="M84458 66422
L84458 66822
" />
<path d="M84458 66480
L84487 66451
L84544 66422
L84630 66422
L84687 66451
L84715 66508
L84715 66822
" />
<path d="M85458 66822
L85458 66222
" />
<path d="M85458 66508
L85801 66508
" />
<path d="M85801 66822
L85801 66222
" />
<path d="M86344 66822
L86344 66508
L86315 66451
L86258 66422
L86144 66422
L86087 66451
" />
<path d="M86344 66794
L86287 66822
L86144 66822
L86087 66794
L86058 66737
L86058 66680
L86087 66622
L86144 66594
L86287 66594
L86344 66565
" />
<path d="M86630 66822
L86630 66422
" />
<path d="M86630 66537
L86658 66480
L86687 66451
L86744 66422
L86801 66422
" />
<path d="M87258 66822
L87258 66222
" />
<path d="M87258 66794
L87201 66822
L87087 66822
L87030 66794
L87001 66765
L86972 66708
L86972 66537
L87001 66480
L87030 66451
L87087 66422
L87201 66422
L87258 66451
" />
<path d="M87487 66422
L87601 66822
L87715 66537
L87830 66822
L87944 66422
" />
<path d="M88430 66822
L88430 66508
L88401 66451
L88344 66422
L88230 66422
L88172 66451
" />
<path d="M88430 66794
L88372 66822
L88230 66822
L88172 66794
L88144 66737
L88144 66680
L88172 66622
L88230 66594
L88372 66594
L88430 66565
" />
<path d="M88715 66822
L88715 66422
" />
<path d="M88715 66537
L88744 66480
L88772 66451
L88830 66422
L88887 66422
" />
<path d="M89315 66794
L89258 66822
L89144 66822
L89087 66794
L89058 66737
L89058 66508
L89087 66451
L89144 66422
L89258 66422
L89315 66451
L89344 66508
L89344 66565
L89058 66622
" />
<path d="M90344 66822
L90058 66822
L90058 66222
" />
<path d="M90544 66822
L90544 66422
" />
<path d="M90544 66222
L90515 66251
L90544 66280
L90572 66251
L90544 66222
L90544 66280
" />
<path d="M91087 66794
L91030 66822
L90915 66822
L90858 66794
L90830 66765
L90801 66708
L90801 66537
L90830 66480
L90858 66451
L90915 66422
L91030 66422
L91087 66451
" />
<path d="M91572 66794
L91515 66822
L91401 66822
L91344 66794
L91315 66737
L91315 66508
L91344 66451
L91401 66422
L91515 66422
L91572 66451
L91601 66508
L91601 66565
L91315 66622
" />
<path d="M91858 66422
L91858 66822
" />
<path d="M91858 66480
L91887 66451
L91944 66422
L92030 66422
L92087 66451
L92115 66508
L92115 66822
" />
<path d="M92372 66794
L92430 66822
L92544 66822
L92601 66794
L92630 66737
L92630 66708
L92601 66651
L92544 66622
L92458 66622
L92401 66594
L92372 66537
L92372 66508
L92401 66451
L92458 66422
L92544 66422
L92601 66451
" />
<path d="M93115 66794
L93058 66822
L92944 66822
L92887 66794
L92858 66737
L92858 66508
L92887 66451
L92944 66422
L93058 66422
L93115 66451
L93144 66508
L93144 66565
L92858 66622
" />
<path d="M94030 67051
L94001 67022
L93944 66937
L93915 66880
L93887 66794
L93858 66651
L93858 66537
L93887 66394
L93915 66308
L93944 66251
L94001 66165
L94030 66137
" />
<path d="M94201 66422
L94315 66822
L94430 66537
L94544 66822
L94658 66422
" />
<path d="M94830 66422
L94944 66822
L95058 66537
L95172 66822
L95287 66422
" />
<path d="M95458 66422
L95572 66822
L95687 66537
L95801 66822
L95915 66422
" />
<path d="M96144 66765
L96172 66794
L96144 66822
L96115 66794
L96144 66765
L96144 66822
" />
<path d="M96344 66422
L96572 66422
" />
<path d="M96429 66222
L96429 66737
L96458 66794
L96515 66822
L96572 66822
" />
<path d="M97029 66822
L97029 66508
L97001 66451
L96944 66422
L96829 66422
L96772 66451
" />
<path d="M97029 66794
L96972 66822
L96829 66822
L96772 66794
L96744 66737
L96744 66680
L96772 66622
L96829 66594
L96972 66594
L97029 66565
" />
<path d="M97315 66422
L97315 67022
" />
<path d="M97315 66451
L97372 66422
L97487 66422
L97544 66451
L97572 66480
L97601 66537
L97601 66708
L97572 66765
L97544 66794
L97487 66822
L97372 66822
L97315 66794
" />
<path d="M97858 66822
L97858 66422
" />
<path d="M97858 66537
L97887 66480
L97915 66451
L97972 66422
L98029 66422
" />
<path d="M98229 66765
L98258 66794
L98229 66822
L98201 66794
L98229 66765
L98229 66822
" />
<path d="M98601 66822
L98544 66794
L98515 66765
L98487 66708
L98487 66537
L98515 66480
L98544 66451
L98601 66422
L98687 66422
L98744 66451
L98772 66480
L98801 66537
L98801 66708
L98772 66765
L98744 66794
L98687 66822
L98601 66822
" />
<path d="M99058 66822
L99058 66422
" />
<path d="M99058 66537
L99087 66480
L99115 66451
L99172 66422
L99229 66422
" />
<path d="M99687 66422
L99687 66908
L99658 66965
L99629 66994
L99572 67022
L99487 67022
L99429 66994
" />
<path d="M99687 66794
L99629 66822
L99515 66822
L99458 66794
L99429 66765
L99401 66708
L99401 66537
L99429 66480
L99458 66451
L99515 66422
L99629 66422
L99687 66451
" />
<path d="M100401 66194
L99887 66965
" />
<path d="M100715 66222
L100829 66222
L100887 66251
L100944 66308
L100972 66422
L100972 66622
L100944 66737
L100887 66794
L100829 66822
L100715 66822
L100658 66794
L100601 66737
L100572 66622
L100572 66422
L100601 66308
L100658 66251
L100715 66222
" />
<path d="M101229 66822
L101229 66222
" />
<path d="M101229 66508
L101572 66508
" />
<path d="M101572 66822
L101572 66222
" />
<path d="M102144 66822
L101858 66822
L101858 66222
" />
<path d="M102287 67051
L102315 67022
L102372 66937
L102401 66880
L102429 66794
L102458 66651
L102458 66537
L102429 66394
L102401 66308
L102372 66251
L102315 66165
L102287 66137
" />
<path d="M70230 65980
L70230 77980
" />
<path d="M70230 71980
L112230 71980
" />
<path d="M70230 65980
L112230 65980
" />
<path d="M70230 74380
L112230 74380
" />
<path d="M103430 75580
L103430 77980
" />
<path d="M70230 76780
L112230 76780
" />
<path d="M70230 75580
L112230 75580
" />
<path d="M76830 75580
L76830 76780
" />
</g>
<g style="fill:#7F7F00; fill-opacity:0.0; 
stroke:#7F7F00; stroke-width:39.3701; stroke-opacity:1; 
stroke-linecap:round; stroke-linejoin:round;">
</g>
<g style="fill:#7F7F00; fill-opacity:1.0; 
stroke:#7F7F00; stroke-width:39.3701; stroke-opacity:1; 
stroke-linecap:round; stroke-linejoin:round;">
<circle cx="56751.6" cy="41818.9" r="280.315" /> 
<circle cx="56751.6" cy="40818.9" r="280.315" /> 
<circle cx="55964.6" cy="40818.9" r="280.315" /> 
<circle cx="55964.6" cy="41818.9" r="280.315" /> 
<circle cx="54901.6" cy="43680.9" r="511.815" /> 
<circle cx="54901.6" cy="38956.9" r="511.815" /> 
<circle cx="55935" cy="52315.4" r="275.815" /> 
<circle cx="55935" cy="51315.4" r="275.815" /> 
<circle cx="55935" cy="50515.4" r="275.815" /> 
<circle cx="55935" cy="49515.4" r="275.815" /> 
<circle cx="54885" cy="53515.4" r="570.815" /> 
<circle cx="54885" cy="48115.4" r="570.815" /> 
</g>
<g style="fill:#9F0000; fill-opacity:1.0; 
stroke:#9F0000; stroke-width:39.3701; stroke-opacity:1; 
stroke-linecap:round; stroke-linejoin:round;">
<polyline style="fill-rule:evenodd;"
points="70975,50057
70424,50057
70424,49999
70975,49999
70975,50057
" /> 
<polyline style="fill-rule:evenodd;"
points="70975,49860
70424,49860
70424,49802
70975,49802
70975,49860
" /> 
<polyline style="fill-rule:evenodd;"
points="70975,49664
70424,49664
70424,49606
70975,49606
70975,49664
" /> 
<polyline style="fill-rule:evenodd;"
points="70975,49467
70424,49467
70424,49409
70975,49409
70975,49467
" /> 
<polyline style="fill-rule:evenodd;"
points="70975,49270
70424,49270
70424,49212
70975,49212
70975,49270
" /> 
<polyline style="fill-rule:evenodd;"
points="70975,49073
70424,49073
70424,49015
70975,49015
70975,49073
" /> 
<polyline style="fill-rule:evenodd;"
points="70975,48876
70424,48876
70424,48818
70975,48818
70975,48876
" /> 
<polyline style="fill-rule:evenodd;"
points="70975,48679
70424,48679
70424,48621
70975,48621
70975,48679
" /> 
<polyline style="fill-rule:evenodd;"
points="70975,48482
70424,48482
70424,48424
70975,48424
70975,48482
" /> 
<polyline style="fill-rule:evenodd;"
points="70975,48286
70424,48286
70424,48228
70975,48228
70975,48286
" /> 
<polyline style="fill-rule:evenodd;"
points="70975,48089
70424,48089
70424,48031
70975,48031
70975,48089
" /> 
<polyline style="fill-rule:evenodd;"
points="70975,47892
70424,47892
70424,47834
70975,47834
70975,47892
" /> 
<polyline style="fill-rule:evenodd;"
points="70975,47695
70424,47695
70424,47637
70975,47637
70975,47695
" /> 
<polyline style="fill-rule:evenodd;"
points="70975,47498
70424,47498
70424,47440
70975,47440
70975,47498
" /> 
<polyline style="fill-rule:evenodd;"
points="70975,47301
70424,47301
70424,47243
70975,47243
70975,47301
" /> 
<polyline style="fill-rule:evenodd;"
points="70975,47105
70424,47105
70424,47047
70975,47047
70975,47105
" /> 
<polyline style="fill-rule:evenodd;"
points="70975,46908
70424,46908
70424,46850
70975,46850
70975,46908
" /> 
<polyline style="fill-rule:evenodd;"
points="70975,46711
70424,46711
70424,46653
70975,46653
70975,46711
" /> 
<polyline style="fill-rule:evenodd;"
points="70975,46514
70424,46514
70424,46456
70975,46456
70975,46514
" /> 
<polyline style="fill-rule:evenodd;"
points="70975,46317
70424,46317
70424,46259
70975,46259
70975,46317
" /> 
<polyline style="fill-rule:evenodd;"
points="70975,46120
70424,46120
70424,46062
70975,46062
70975,46120
" /> 
<polyline style="fill-rule:evenodd;"
points="70975,45923
70424,45923
70424,45865
70975,45865
70975,45923
" /> 
<polyline style="fill-rule:evenodd;"
points="68217,45924
67666,45924
67666,45866
68217,45866
68217,45924
" /> 
<polyline style="fill-rule:evenodd;"
points="68217,46121
67666,46121
67666,46063
68217,46063
68217,46121
" /> 
<polyline style="fill-rule:evenodd;"
points="68217,46318
67666,46318
67666,46260
68217,46260
68217,46318
" /> 
<polyline style="fill-rule:evenodd;"
points="68217,46515
67666,46515
67666,46457
68217,46457
68217,46515
" /> 
<polyline style="fill-rule:evenodd;"
points="68217,46711
67666,46711
67666,46653
68217,46653
68217,46711
" /> 
<polyline style="fill-rule:evenodd;"
points="68217,46908
67666,46908
67666,46850
68217,46850
68217,46908
" /> 
<polyline style="fill-rule:evenodd;"
points="68217,47105
67666,47105
67666,47047
68217,47047
68217,47105
" /> 
<polyline style="fill-rule:evenodd;"
points="68217,47302
67666,47302
67666,47244
68217,47244
68217,47302
" /> 
<polyline style="fill-rule:evenodd;"
points="68217,47499
67666,47499
67666,47441
68217,47441
68217,47499
" /> 
<polyline style="fill-rule:evenodd;"
points="68217,47696
67666,47696
67666,47638
68217,47638
68217,47696
" /> 
<polyline style="fill-rule:evenodd;"
points="68217,47893
67666,47893
67666,47835
68217,47835
68217,47893
" /> 
<polyline style="fill-rule:evenodd;"
points="68217,48089
67666,48089
67666,48031
68217,48031
68217,48089
" /> 
<polyline style="fill-rule:evenodd;"
points="68217,48286
67666,48286
67666,48228
68217,48228
68217,48286
" /> 
<polyline style="fill-rule:evenodd;"
points="68217,48483
67666,48483
67666,48425
68217,48425
68217,48483
" /> 
<polyline style="fill-rule:evenodd;"
points="68217,48680
67666,48680
67666,48622
68217,48622
68217,48680
" /> 
<polyline style="fill-rule:evenodd;"
points="68217,48877
67666,48877
67666,48819
68217,48819
68217,48877
" /> 
<polyline style="fill-rule:evenodd;"
points="68217,49074
67666,49074
67666,49016
68217,49016
68217,49074
" /> 
<polyline style="fill-rule:evenodd;"
points="68217,49271
67666,49271
67666,49213
68217,49213
68217,49271
" /> 
<polyline style="fill-rule:evenodd;"
points="68217,49467
67666,49467
67666,49409
68217,49409
68217,49467
" /> 
<polyline style="fill-rule:evenodd;"
points="68217,49664
67666,49664
67666,49606
68217,49606
68217,49664
" /> 
<polyline style="fill-rule:evenodd;"
points="68217,49861
67666,49861
67666,49803
68217,49803
68217,49861
" /> 
<polyline style="fill-rule:evenodd;"
points="68217,50058
67666,50058
67666,50000
68217,50000
68217,50058
" /> 
<polyline style="fill-rule:evenodd;"
points="64125,52753
64125,52439
64716,52439
64716,52753
64125,52753
" /> 
<polyline style="fill-rule:evenodd;"
points="67625,52753
67625,52439
68216,52439
68216,52753
67625,52753
" /> 
<polyline style="fill-rule:evenodd;"
points="67625,51753
67625,51439
68216,51439
68216,51753
67625,51753
" /> 
<polyline style="fill-rule:evenodd;"
points="64125,51753
64125,51439
64716,51439
64716,51753
64125,51753
" /> 
<polyline style="fill-rule:evenodd;"
points="63322,39897
64035,39897
64035,40157
63322,40157
63322,39897
" /> 
<polyline style="fill-rule:evenodd;"
points="63322,40397
64035,40397
64035,40657
63322,40657
63322,40397
" /> 
<polyline style="fill-rule:evenodd;"
points="63322,40897
64035,40897
64035,41157
63322,41157
63322,40897
" /> 
<polyline style="fill-rule:evenodd;"
points="63322,41397
64035,41397
64035,41657
63322,41657
63322,41397
" /> 
<polyline style="fill-rule:evenodd;"
points="67572,41397
68285,41397
68285,41657
67572,41657
67572,41397
" /> 
<polyline style="fill-rule:evenodd;"
points="67572,40897
68285,40897
68285,41157
67572,41157
67572,40897
" /> 
<polyline style="fill-rule:evenodd;"
points="67572,40397
68285,40397
68285,40657
67572,40657
67572,40397
" /> 
<polyline style="fill-rule:evenodd;"
points="67572,39897
68285,39897
68285,40157
67572,40157
67572,39897
" /> 
<polyline style="fill-rule:evenodd;"
points="68282,44064
67569,44064
67569,43805
68282,43805
68282,44064
" /> 
<polyline style="fill-rule:evenodd;"
points="68282,43564
67569,43564
67569,43305
68282,43305
68282,43564
" /> 
<polyline style="fill-rule:evenodd;"
points="68282,43064
67569,43064
67569,42805
68282,42805
68282,43064
" /> 
<polyline style="fill-rule:evenodd;"
points="64032,43064
63319,43064
63319,42805
64032,42805
64032,43064
" /> 
<polyline style="fill-rule:evenodd;"
points="64032,43564
63319,43564
63319,43305
64032,43305
64032,43564
" /> 
<polyline style="fill-rule:evenodd;"
points="64032,44064
63319,44064
63319,43805
64032,43805
64032,44064
" /> 
<polyline style="fill-rule:evenodd;"
points="59204,50100
59204,49529
59401,49529
59401,50100
59204,50100
" /> 
<polyline style="fill-rule:evenodd;"
points="60204,50100
60204,49529
60401,49529
60401,50100
60204,50100
" /> 
<polyline style="fill-rule:evenodd;"
points="60704,50100
60704,49529
60901,49529
60901,50100
60704,50100
" /> 
<polyline style="fill-rule:evenodd;"
points="61204,50100
61204,49529
61401,49529
61401,50100
61204,50100
" /> 
<polyline style="fill-rule:evenodd;"
points="61704,50100
61704,49529
61901,49529
61901,50100
61704,50100
" /> 
<polyline style="fill-rule:evenodd;"
points="62204,50100
62204,49529
62401,49529
62401,50100
62204,50100
" /> 
<polyline style="fill-rule:evenodd;"
points="62704,50100
62704,49529
62901,49529
62901,50100
62704,50100
" /> 
<polyline style="fill-rule:evenodd;"
points="62704,52250
62704,51679
62901,51679
62901,52250
62704,52250
" /> 
<polyline style="fill-rule:evenodd;"
points="62204,52250
62204,51679
62401,51679
62401,52250
62204,52250
" /> 
<polyline style="fill-rule:evenodd;"
points="61704,52250
61704,51679
61901,51679
61901,52250
61704,52250
" /> 
<polyline style="fill-rule:evenodd;"
points="61204,52250
61204,51679
61401,51679
61401,52250
61204,52250
" /> 
<polyline style="fill-rule:evenodd;"
points="60704,52250
60704,51679
60901,51679
60901,52250
60704,52250
" /> 
<polyline style="fill-rule:evenodd;"
points="60204,52250
60204,51679
60401,51679
60401,52250
60204,52250
" /> 
<polyline style="fill-rule:evenodd;"
points="59704,52250
59704,51679
59901,51679
59901,52250
59704,52250
" /> 
<polyline style="fill-rule:evenodd;"
points="59204,52250
59204,51679
59401,51679
59401,52250
59204,52250
" /> 
<polyline style="fill-rule:evenodd;"
points="59704,50100
59704,49529
59901,49529
59901,50100
59704,50100
" /> 
<polyline style="fill-rule:evenodd;"
points="58369,43527
58780,43527
58780,43688
58369,43688
58369,43527
" /> 
<polyline style="fill-rule:evenodd;"
points="58369,44027
58780,44027
58780,44188
58369,44188
58369,44027
" /> 
<polyline style="fill-rule:evenodd;"
points="58369,44527
58780,44527
58780,44688
58369,44688
58369,44527
" /> 
<polyline style="fill-rule:evenodd;"
points="58369,45027
58780,45027
58780,45188
58369,45188
58369,45027
" /> 
<polyline style="fill-rule:evenodd;"
points="58369,45527
58780,45527
58780,45688
58369,45688
58369,45527
" /> 
<polyline style="fill-rule:evenodd;"
points="58369,46027
58780,46027
58780,46188
58369,46188
58369,46027
" /> 
<polyline style="fill-rule:evenodd;"
points="58369,46527
58780,46527
58780,46688
58369,46688
58369,46527
" /> 
<polyline style="fill-rule:evenodd;"
points="60469,46527
60880,46527
60880,46688
60469,46688
60469,46527
" /> 
<polyline style="fill-rule:evenodd;"
points="60469,46027
60880,46027
60880,46188
60469,46188
60469,46027
" /> 
<polyline style="fill-rule:evenodd;"
points="60469,45527
60880,45527
60880,45688
60469,45688
60469,45527
" /> 
<polyline style="fill-rule:evenodd;"
points="60469,45027
60880,45027
60880,45188
60469,45188
60469,45027
" /> 
<polyline style="fill-rule:evenodd;"
points="60469,44527
60880,44527
60880,44688
60469,44688
60469,44527
" /> 
<polyline style="fill-rule:evenodd;"
points="60469,44027
60880,44027
60880,44188
60469,44188
60469,44027
" /> 
<polyline style="fill-rule:evenodd;"
points="60469,43527
60880,43527
60880,43688
60469,43688
60469,43527
" /> 
<polyline style="fill-rule:evenodd;"
points="58257,53414
57746,53414
57746,53103
58257,53103
58257,53414
" /> 
<polyline style="fill-rule:evenodd;"
points="58257,52664
57746,52664
57746,52353
58257,52353
58257,52664
" /> 
<polyline style="fill-rule:evenodd;"
points="73197,42786
73197,43296
72887,43296
72887,42786
73197,42786
" /> 
<polyline style="fill-rule:evenodd;"
points="72447,42786
72447,43296
72137,43296
72137,42786
72447,42786
" /> 
<polyline style="fill-rule:evenodd;"
points="73197,41801
73197,42312
72887,42312
72887,41801
73197,41801
" /> 
<polyline style="fill-rule:evenodd;"
points="72447,41801
72447,42312
72137,42312
72137,41801
72447,41801
" /> 
<polyline style="fill-rule:evenodd;"
points="70048,52431
70048,52942
69737,52942
69737,52431
70048,52431
" /> 
<polyline style="fill-rule:evenodd;"
points="69298,52431
69298,52942
68987,52942
68987,52431
69298,52431
" /> 
<polyline style="fill-rule:evenodd;"
points="70244,40423
70244,40934
69934,40934
69934,40423
70244,40423
" /> 
<polyline style="fill-rule:evenodd;"
points="69494,40423
69494,40934
69184,40934
69184,40423
69494,40423
" /> 
<polyline style="fill-rule:evenodd;"
points="60205,52923
60205,53434
59894,53434
59894,52923
60205,52923
" /> 
<polyline style="fill-rule:evenodd;"
points="59455,52923
59455,53434
59144,53434
59144,52923
59455,52923
" /> 
<polyline style="fill-rule:evenodd;"
points="61878,52923
61878,53434
61568,53434
61568,52923
61878,52923
" /> 
<polyline style="fill-rule:evenodd;"
points="61128,52923
61128,53434
60818,53434
60818,52923
61128,52923
" /> 
<polyline style="fill-rule:evenodd;"
points="57746,50680
58257,50680
58257,50990
57746,50990
57746,50680
" /> 
<polyline style="fill-rule:evenodd;"
points="57746,51430
58257,51430
58257,51740
57746,51740
57746,51430
" /> 
<polyline style="fill-rule:evenodd;"
points="59635,48788
59124,48788
59124,48477
59635,48477
59635,48788
" /> 
<polyline style="fill-rule:evenodd;"
points="59635,48038
59124,48038
59124,47727
59635,47727
59635,48038
" /> 
<polyline style="fill-rule:evenodd;"
points="73269,48544
73269,48955
73058,48955
73058,48544
73269,48544
" /> 
<polyline style="fill-rule:evenodd;"
points="72669,48544
72669,48955
72458,48955
72458,48544
72669,48544
" /> 
<polyline style="fill-rule:evenodd;"
points="73269,51694
73269,52104
73058,52104
73058,51694
73269,51694
" /> 
<polyline style="fill-rule:evenodd;"
points="72669,51694
72669,52104
72458,52104
72458,51694
72669,51694
" /> 
<polyline style="fill-rule:evenodd;"
points="73269,50906
73269,51317
73058,51317
73058,50906
73269,50906
" /> 
<polyline style="fill-rule:evenodd;"
points="72669,50906
72669,51317
72458,51317
72458,50906
72669,50906
" /> 
<polyline style="fill-rule:evenodd;"
points="73269,50119
73269,50530
73058,50530
73058,50119
73269,50119
" /> 
<polyline style="fill-rule:evenodd;"
points="72669,50119
72669,50530
72458,50530
72458,50119
72669,50119
" /> 
<polyline style="fill-rule:evenodd;"
points="59269,42852
59269,42442
59480,42442
59480,42852
59269,42852
" /> 
<polyline style="fill-rule:evenodd;"
points="59869,42852
59869,42442
60080,42442
60080,42852
59869,42852
" /> 
<polyline style="fill-rule:evenodd;"
points="70119,39587
70119,39998
69909,39998
69909,39587
70119,39587
" /> 
<polyline style="fill-rule:evenodd;"
points="69519,39587
69519,39998
69309,39998
69309,39587
69519,39587
" /> 
<polyline style="fill-rule:evenodd;"
points="61927,43049
61927,42639
62137,42639
62137,43049
61927,43049
" /> 
<polyline style="fill-rule:evenodd;"
points="62527,43049
62527,42639
62737,42639
62737,43049
62527,43049
" /> 
<polyline style="fill-rule:evenodd;"
points="73269,53269
73269,53679
73058,53679
73058,53269
73269,53269
" /> 
<polyline style="fill-rule:evenodd;"
points="72669,53269
72669,53679
72458,53679
72458,53269
72669,53269
" /> 
<polyline style="fill-rule:evenodd;"
points="73269,49332
73269,49742
73058,49742
73058,49332
73269,49332
" /> 
<polyline style="fill-rule:evenodd;"
points="72669,49332
72669,49742
72458,49742
72458,49332
72669,49332
" /> 
<polyline style="fill-rule:evenodd;"
points="73269,43820
73269,44230
73058,44230
73058,43820
73269,43820
" /> 
<polyline style="fill-rule:evenodd;"
points="72669,43820
72669,44230
72458,44230
72458,43820
72669,43820
" /> 
<polyline style="fill-rule:evenodd;"
points="73269,44607
73269,45018
73058,45018
73058,44607
73269,44607
" /> 
<polyline style="fill-rule:evenodd;"
points="72669,44607
72669,45018
72458,45018
72458,44607
72669,44607
" /> 
<polyline style="fill-rule:evenodd;"
points="73269,52481
73269,52892
73058,52892
73058,52481
73269,52481
" /> 
<polyline style="fill-rule:evenodd;"
points="72669,52481
72669,52892
72458,52892
72458,52481
72669,52481
" /> 
<polyline style="fill-rule:evenodd;"
points="73269,45395
73269,45805
73058,45805
73058,45395
73269,45395
" /> 
<polyline style="fill-rule:evenodd;"
points="72669,45395
72669,45805
72458,45805
72458,45395
72669,45395
" /> 
<polyline style="fill-rule:evenodd;"
points="73269,46182
73269,46593
73058,46593
73058,46182
73269,46182
" /> 
<polyline style="fill-rule:evenodd;"
points="72669,46182
72669,46593
72458,46593
72458,46182
72669,46182
" /> 
<polyline style="fill-rule:evenodd;"
points="73269,46969
73269,47380
73058,47380
73058,46969
73269,46969
" /> 
<polyline style="fill-rule:evenodd;"
points="72669,46969
72669,47380
72458,47380
72458,46969
72669,46969
" /> 
<polyline style="fill-rule:evenodd;"
points="73269,47757
73269,48167
73058,48167
73058,47757
73269,47757
" /> 
<polyline style="fill-rule:evenodd;"
points="72669,47757
72669,48167
72458,48167
72458,47757
72669,47757
" /> 
<polyline style="fill-rule:evenodd;"
points="74844,49135
74844,49545
74633,49545
74633,49135
74844,49135
" /> 
<polyline style="fill-rule:evenodd;"
points="74244,49135
74244,49545
74033,49545
74033,49135
74244,49135
" /> 
<polyline style="fill-rule:evenodd;"
points="74844,52284
74844,52695
74633,52695
74633,52284
74844,52284
" /> 
<polyline style="fill-rule:evenodd;"
points="74244,52284
74244,52695
74033,52695
74033,52284
74244,52284
" /> 
<polyline style="fill-rule:evenodd;"
points="74844,51497
74844,51908
74633,51908
74633,51497
74844,51497
" /> 
<polyline style="fill-rule:evenodd;"
points="74244,51497
74244,51908
74033,51908
74033,51497
74244,51497
" /> 
<polyline style="fill-rule:evenodd;"
points="74844,50710
74844,51120
74633,51120
74633,50710
74844,50710
" /> 
<polyline style="fill-rule:evenodd;"
points="74244,50710
74244,51120
74033,51120
74033,50710
74244,50710
" /> 
<polyline style="fill-rule:evenodd;"
points="74844,49922
74844,50333
74633,50333
74633,49922
74844,49922
" /> 
<polyline style="fill-rule:evenodd;"
points="74244,49922
74244,50333
74033,50333
74033,49922
74244,49922
" /> 
<polyline style="fill-rule:evenodd;"
points="61927,39900
61927,39489
62137,39489
62137,39900
61927,39900
" /> 
<polyline style="fill-rule:evenodd;"
points="62527,39900
62527,39489
62737,39489
62737,39900
62527,39900
" /> 
<polyline style="fill-rule:evenodd;"
points="74844,48347
74844,48758
74633,48758
74633,48347
74844,48347
" /> 
<polyline style="fill-rule:evenodd;"
points="74244,48347
74244,48758
74033,48758
74033,48347
74244,48347
" /> 
<polyline style="fill-rule:evenodd;"
points="61927,42262
61927,41851
62137,41851
62137,42262
61927,42262
" /> 
<polyline style="fill-rule:evenodd;"
points="62527,42262
62527,41851
62737,41851
62737,42262
62527,42262
" /> 
<polyline style="fill-rule:evenodd;"
points="62737,41064
62737,41475
62527,41475
62527,41064
62737,41064
" /> 
<polyline style="fill-rule:evenodd;"
points="62137,41064
62137,41475
61927,41475
61927,41064
62137,41064
" /> 
<polyline style="fill-rule:evenodd;"
points="62737,40276
62737,40687
62527,40687
62527,40276
62737,40276
" /> 
<polyline style="fill-rule:evenodd;"
points="62137,40276
62137,40687
61927,40687
61927,40276
62137,40276
" /> 
<polyline style="fill-rule:evenodd;"
points="59269,41278
59269,40867
59480,40867
59480,41278
59269,41278
" /> 
<polyline style="fill-rule:evenodd;"
points="59869,41278
59869,40867
60080,40867
60080,41278
59869,41278
" /> 
<polyline style="fill-rule:evenodd;"
points="69309,43935
69309,43525
69519,43525
69519,43935
69309,43935
" /> 
<polyline style="fill-rule:evenodd;"
points="69909,43935
69909,43525
70119,43525
70119,43935
69909,43935
" /> 
<polyline style="fill-rule:evenodd;"
points="59269,40490
59269,40080
59480,40080
59480,40490
59269,40490
" /> 
<polyline style="fill-rule:evenodd;"
points="59869,40490
59869,40080
60080,40080
60080,40490
59869,40490
" /> 
<polyline style="fill-rule:evenodd;"
points="59269,42065
59269,41654
59480,41654
59480,42065
59269,42065
" /> 
<polyline style="fill-rule:evenodd;"
points="59869,42065
59869,41654
60080,41654
60080,42065
59869,42065
" /> 
<polyline style="fill-rule:evenodd;"
points="74844,47560
74844,47971
74633,47971
74633,47560
74844,47560
" /> 
<polyline style="fill-rule:evenodd;"
points="74244,47560
74244,47971
74033,47971
74033,47560
74244,47560
" /> 
<polyline style="fill-rule:evenodd;"
points="54545,46789
54545,46379
54756,46379
54756,46789
54545,46789
" /> 
<polyline style="fill-rule:evenodd;"
points="55145,46789
55145,46379
55356,46379
55356,46789
55145,46789
" /> 
<polyline style="fill-rule:evenodd;"
points="74033,43246
74033,42836
74244,42836
74244,43246
74033,43246
" /> 
<polyline style="fill-rule:evenodd;"
points="74633,43246
74633,42836
74844,42836
74844,43246
74633,43246
" /> 
<polyline style="fill-rule:evenodd;"
points="74033,42459
74033,42048
74244,42048
74244,42459
74033,42459
" /> 
<polyline style="fill-rule:evenodd;"
points="74633,42459
74633,42048
74844,42048
74844,42459
74633,42459
" /> 
<polyline style="fill-rule:evenodd;"
points="60060,47852
60471,47852
60471,48063
60060,48063
60060,47852
" /> 
<polyline style="fill-rule:evenodd;"
points="60060,48452
60471,48452
60471,48663
60060,48663
60060,48452
" /> 
<polyline style="fill-rule:evenodd;"
points="69309,44723
69309,44312
69519,44312
69519,44723
69309,44723
" /> 
<polyline style="fill-rule:evenodd;"
points="69909,44723
69909,44312
70119,44312
70119,44723
69909,44723
" /> 
<polyline style="fill-rule:evenodd;"
points="68915,53778
68915,53367
69126,53367
69126,53778
68915,53778
" /> 
<polyline style="fill-rule:evenodd;"
points="69515,53778
69515,53367
69726,53367
69726,53778
69515,53778
" /> 
<polyline style="fill-rule:evenodd;"
points="74844,43623
74844,44034
74633,44034
74633,43623
74844,43623
" /> 
<polyline style="fill-rule:evenodd;"
points="74244,43623
74244,44034
74033,44034
74033,43623
74244,43623
" /> 
<polyline style="fill-rule:evenodd;"
points="54545,45608
54545,45198
54756,45198
54756,45608
54545,45608
" /> 
<polyline style="fill-rule:evenodd;"
points="55145,45608
55145,45198
55356,45198
55356,45608
55145,45608
" /> 
<polyline style="fill-rule:evenodd;"
points="74844,53072
74844,53482
74633,53482
74633,53072
74844,53072
" /> 
<polyline style="fill-rule:evenodd;"
points="74244,53072
74244,53482
74033,53482
74033,53072
74244,53072
" /> 
<polyline style="fill-rule:evenodd;"
points="74844,44410
74844,44821
74633,44821
74633,44410
74844,44410
" /> 
<polyline style="fill-rule:evenodd;"
points="74244,44410
74244,44821
74033,44821
74033,44410
74244,44410
" /> 
<polyline style="fill-rule:evenodd;"
points="74844,45198
74844,45608
74633,45608
74633,45198
74844,45198
" /> 
<polyline style="fill-rule:evenodd;"
points="74244,45198
74244,45608
74033,45608
74033,45198
74244,45198
" /> 
<polyline style="fill-rule:evenodd;"
points="74844,45985
74844,46396
74633,46396
74633,45985
74844,45985
" /> 
<polyline style="fill-rule:evenodd;"
points="74244,45985
74244,46396
74033,46396
74033,45985
74244,45985
" /> 
<polyline style="fill-rule:evenodd;"
points="74844,46773
74844,47183
74633,47183
74633,46773
74844,46773
" /> 
<polyline style="fill-rule:evenodd;"
points="74244,46773
74244,47183
74033,47183
74033,46773
74244,46773
" /> 
</g>
<g style="fill:#7F7F00; fill-opacity:1.0; 
stroke:#7F7F00; stroke-width:39.3701; stroke-opacity:1; 
stroke-linecap:round; stroke-linejoin:round;">
<polyline style="fill-rule:evenodd;"
points="69576,42607
69065,42607
69065,42097
69576,42097
69576,42607
" /> 
<circle cx="74561" cy="40679.1" r="255.315" /> 
<circle cx="71561" cy="40679.1" r="255.315" /> 
<circle cx="71561" cy="39202.8" r="255.315" /> 
<circle cx="74561" cy="39202.8" r="255.315" /> 
<polyline style="fill-rule:evenodd;"
points="62587,48552
62077,48552
62077,48041
62587,48041
62587,48552
" /> 
<circle cx="62332.7" cy="47297.2" r="255.315" /> 
<circle cx="62332.7" cy="46297.2" r="255.315" /> 
<circle cx="62332.7" cy="45297.2" r="255.315" /> 
<circle cx="62332.7" cy="44297.2" r="255.315" /> 
</g>
<g style="fill:#9F0000; fill-opacity:1.0; 
stroke:#9F0000; stroke-width:39.3701; stroke-opacity:1; 
stroke-linecap:round; stroke-linejoin:round;">
<polyline style="fill-rule:evenodd;"
points="58218,50068
57785,50068
57785,49635
58218,49635
58218,50068
" /> 
<polyline style="fill-rule:evenodd;"
points="58218,49242
57785,49242
57785,48809
58218,48809
58218,49242
" /> 
</g>
<g style="fill:#7F7F00; fill-opacity:1.0; 
stroke:#7F7F00; stroke-width:39.3701; stroke-opacity:1; 
stroke-linecap:round; stroke-linejoin:round;">
<circle cx="76604.3" cy="52981.8" r="730.315" /> 
<circle cx="76604.3" cy="39793.8" r="730.315" /> 
<circle cx="76104.3" cy="42587.8" r="280.315" /> 
<circle cx="76104.3" cy="43687.8" r="280.315" /> 
<circle cx="76104.3" cy="44737.8" r="280.315" /> 
<circle cx="76104.3" cy="45837.8" r="280.315" /> 
<circle cx="76104.3" cy="46937.8" r="280.315" /> 
<circle cx="76104.3" cy="48037.8" r="280.315" /> 
<circle cx="76104.3" cy="49087.8" r="280.315" /> 
<polyline style="fill-rule:evenodd;"
points="75824,49907
76384,49907
76384,50468
75824,50468
75824,49907
" /> 
<circle cx="77104.3" cy="43207.8" r="280.315" /> 
<circle cx="77104.3" cy="44207.8" r="280.315" /> 
<circle cx="77104.3" cy="45307.8" r="280.315" /> 
<circle cx="77104.3" cy="46387.8" r="280.315" /> 
<circle cx="77104.3" cy="47467.8" r="280.315" /> 
<circle cx="77104.3" cy="48567.8" r="280.315" /> 
<circle cx="77104.3" cy="49647.8" r="280.315" /> 
<polyline style="fill-rule:evenodd;"
points="53744,47107
53184,47107
53184,46546
53744,46546
53744,47107
" /> 
<circle cx="53464.6" cy="45826.8" r="280.315" /> 
<circle cx="53464.6" cy="44826.8" r="280.315" /> 
</g>
<g style="fill:#BFBFBF; fill-opacity:1.0; 
stroke:#BFBFBF; stroke-width:39.3701; stroke-opacity:1; 
stroke-linecap:round; stroke-linejoin:round;">
<circle cx="60078.7" cy="43307.1" r="155.315" /> 
<circle cx="57244.1" cy="50708.7" r="155.315" /> 
<circle cx="63700.8" cy="52598.4" r="155.315" /> 
<circle cx="58818.9" cy="47401.6" r="155.315" /> 
<circle cx="62992.1" cy="42935" r="155.315" /> 
<circle cx="67952.8" cy="41968.5" r="155.315" /> 
<circle cx="70551.2" cy="52677.2" r="155.315" /> 
<circle cx="68189" cy="53543.3" r="155.315" /> 
<circle cx="71584.6" cy="42057.1" r="155.315" /> 
<circle cx="71584.6" cy="43041.3" r="155.315" /> 
<circle cx="68533.5" cy="48946.9" r="155.315" /> 
<circle cx="68533.5" cy="46584.6" r="155.315" /> 
<circle cx="72076.8" cy="44025.6" r="155.315" /> 
<circle cx="72175.2" cy="49537.4" r="155.315" /> 
<circle cx="72076.8" cy="44813" r="155.315" /> 
<circle cx="72076.8" cy="45600.4" r="155.315" /> 
<circle cx="72076.8" cy="46387.8" r="155.315" /> 
<circle cx="72076.8" cy="47175.2" r="155.315" /> 
<circle cx="72076.8" cy="47962.6" r="155.315" /> 
<circle cx="72076.8" cy="48750" r="155.315" /> 
<circle cx="72076.8" cy="50324.8" r="155.315" /> 
<circle cx="72076.8" cy="51112.2" r="155.315" /> 
<circle cx="72076.8" cy="51899.6" r="155.315" /> 
<circle cx="72076.8" cy="52687" r="155.315" /> 
<circle cx="72076.8" cy="53474.4" r="155.315" /> 
<circle cx="60551.2" cy="41889.8" r="155.315" /> 
<circle cx="60551.2" cy="41023.6" r="155.315" /> 
<circle cx="62283.5" cy="50551.2" r="155.315" /> 
<circle cx="59153.5" cy="46063" r="155.315" /> 
<circle cx="61732.3" cy="50551.2" r="155.315" /> 
<circle cx="59133.9" cy="46614.2" r="155.315" /> 
<circle cx="61181.1" cy="50551.2" r="155.315" /> 
<circle cx="59133.9" cy="45590.6" r="155.315" /> 
<circle cx="59330.7" cy="50472.4" r="155.315" /> 
<circle cx="60315" cy="50866.1" r="155.315" /> 
<circle cx="59133.9" cy="45118.1" r="155.315" /> 
<circle cx="73750" cy="41565" r="155.315" /> 
</g>
<g style="fill:#9F0000; fill-opacity:1.0; 
stroke:#9F0000; stroke-width:100; stroke-opacity:1; 
stroke-linecap:round; stroke-linejoin:round;">
<path d="M55964 41818
L55110 41818
" />
<path d="M52913 45275
L53464 45826
" />
<path d="M52913 44015
L52913 45275
" />
<path d="M55110 41818
L52913 44015
" />
</g>
<g style="fill:#9F0000; fill-opacity:1.0; 
stroke:#9F0000; stroke-width:196.85; stroke-opacity:1; 
stroke-linecap:round; stroke-linejoin:round;">
<path d="M60675 43608
L60379 43608
" />
<path d="M59842 43307
L60078 43307
" />
<path d="M59375 42839
L59842 43307
" />
<path d="M59375 42647
L59375 42839
" />
<path d="M60379 43608
L60078 43307
" />
</g>
<g style="fill:#9F0000; fill-opacity:1.0; 
stroke:#9F0000; stroke-width:100; stroke-opacity:1; 
stroke-linecap:round; stroke-linejoin:round;">
<path d="M59803 49815
L59803 50511
" />
<path d="M59479 50835
L58001 50835
" />
<path d="M59803 50511
L59479 50835
" />
</g>
<g style="fill:#9F0000; fill-opacity:1.0; 
stroke:#9F0000; stroke-width:196.85; stroke-opacity:1; 
stroke-linecap:round; stroke-linejoin:round;">
<path d="M58001 50835
L57371 50835
" />
<path d="M57371 50835
L57244 50708
" />
<path d="M64421 52596
L63702 52596
" />
<path d="M63702 52596
L63700 52598
" />
<path d="M59379 47882
L59300 47882
" />
<path d="M59300 47882
L58818 47401
" />
<path d="M62992 42935
L62723 42935
" />
<path d="M62723 42935
L62632 42844
" />
<path d="M63675 42935
L62992 42935
" />
<path d="M67929 41527
L67929 41944
" />
<path d="M67929 41944
L67952 41968
" />
<path d="M69892 52687
L70541 52687
" />
<path d="M70541 52687
L70551 52677
" />
<path d="M67921 52596
L67921 53275
" />
<path d="M67921 53275
L68188 53543
" />
<path d="M72292 42057
L71584 42057
" />
<path d="M72292 43041
L71584 43041
" />
</g>
<g style="fill:#9F0000; fill-opacity:1.0; 
stroke:#9F0000; stroke-width:78.7402; stroke-opacity:1; 
stroke-linecap:round; stroke-linejoin:round;">
<path d="M69339 40679
L69339 42333
" />
<path d="M69339 42333
L69320 42352
" />
<path d="M69414 39793
L69414 40604
" />
<path d="M69414 40604
L69339 40679
" />
<path d="M67941 49242
L68434 49242
" />
<path d="M68533 49143
L68533 48946
" />
<path d="M68434 49242
L68533 49143
" />
<path d="M67941 48651
L68435 48651
" />
<path d="M68533 48946
L68533 48946
" />
<path d="M68533 48750
L68533 48946
" />
<path d="M68435 48651
L68533 48750
" />
<path d="M67941 48848
L68435 48848
" />
<path d="M68434 49045
L68533 48946
" />
<path d="M68434 49045
L67941 49045
" />
<path d="M68435 48848
L68533 48946
" />
<path d="M67941 46682
L68435 46682
" />
<path d="M68435 46486
L68533 46584
" />
<path d="M68435 46486
L67941 46486
" />
<path d="M68435 46682
L68533 46584
" />
</g>
<g style="fill:#9F0000; fill-opacity:1.0; 
stroke:#9F0000; stroke-width:196.85; stroke-opacity:1; 
stroke-linecap:round; stroke-linejoin:round;">
<path d="M72564 44025
L72076 44025
" />
<path d="M72564 49537
L72175 49537
" />
<path d="M72564 44812
L72076 44812
" />
<path d="M72564 45600
L72076 45600
" />
<path d="M72564 46387
L72076 46387
" />
<path d="M72564 47175
L72076 47175
" />
<path d="M72564 47962
L72076 47962
" />
<path d="M72564 48750
L72076 48750
" />
<path d="M72564 50324
L72076 50324
" />
<path d="M72564 51112
L72076 51112
" />
<path d="M72564 51899
L72076 51899
" />
<path d="M72564 52687
L72076 52687
" />
<path d="M72564 53474
L72076 53474
" />
</g>
<g style="fill:#9F0000; fill-opacity:1.0; 
stroke:#9F0000; stroke-width:78.7402; stroke-opacity:1; 
stroke-linecap:round; stroke-linejoin:round;">
<path d="M69020 53572
L69020 53469
" />
<path d="M68230 51596
L67921 51596
" />
<path d="M68631 51998
L68230 51596
" />
<path d="M68631 53080
L68631 51998
" />
<path d="M69020 53469
L68631 53080
" />
<path d="M67941 50029
L67941 51575
" />
<path d="M67941 51575
L67921 51596
" />
<path d="M73361 49340
L73061 49340
" />
<path d="M71092 48257
L70699 48257
" />
<path d="M71999 49164
L71092 48257
" />
<path d="M72885 49164
L71999 49164
" />
<path d="M73061 49340
L72885 49164
" />
<path d="M74138 49340
L73361 49340
" />
<path d="M73361 49340
L73164 49537
" />
<path d="M73361 52490
L73061 52490
" />
<path d="M71091 49831
L70699 49831
" />
<path d="M71190 49931
L71091 49831
" />
<path d="M71190 50127
L71190 49931
" />
<path d="M71190 50324
L71190 50127
" />
<path d="M71190 52096
L71190 50324
" />
<path d="M71387 52293
L71190 52096
" />
<path d="M72864 52293
L71387 52293
" />
<path d="M73061 52490
L72864 52293
" />
<path d="M74138 52490
L73361 52490
" />
<path d="M73361 52490
L73164 52687
" />
<path d="M73358 51702
L73061 51702
" />
<path d="M71190 49438
L70699 49438
" />
<path d="M71289 49537
L71190 49438
" />
<path d="M71289 49734
L71289 49537
" />
<path d="M71387 49832
L71289 49734
" />
<path d="M71387 51505
L71387 49832
" />
<path d="M72864 51505
L71387 51505
" />
<path d="M73061 51702
L72864 51505
" />
<path d="M74138 51702
L73358 51702
" />
<path d="M73358 51702
L73361 51702
" />
<path d="M73361 51702
L73164 51899
" />
<path d="M73358 44616
L73061 44616
" />
<path d="M71192 45894
L70699 45894
" />
<path d="M71387 45698
L71192 45894
" />
<path d="M71387 44911
L71387 45698
" />
<path d="M71879 44419
L71387 44911
" />
<path d="M72864 44419
L71879 44419
" />
<path d="M73061 44616
L72864 44419
" />
<path d="M74138 44616
L73358 44616
" />
<path d="M73358 44616
L73361 44616
" />
<path d="M73361 44616
L73164 44812
" />
<path d="M70501 45501
L71092 44911
" />
<path d="M71683 44320
L71092 44911
" />
<path d="M72962 43828
L72765 43631
" />
<path d="M72765 43631
L71879 43631
" />
<path d="M71879 43631
L71683 43828
" />
<path d="M71683 43828
L71683 44320
" />
<path d="M73361 43828
L72962 43828
" />
<path d="M69911 46092
L67941 46092
" />
<path d="M70501 45501
L69911 46092
" />
<path d="M74138 43828
L73361 43828
" />
<path d="M73361 43828
L73164 44025
" />
<path d="M73356 50915
L73061 50915
" />
<path d="M71091 49044
L70699 49044
" />
<path d="M71486 49438
L71091 49044
" />
<path d="M71486 49635
L71486 49438
" />
<path d="M71584 49734
L71486 49635
" />
<path d="M71584 50620
L71584 49734
" />
<path d="M71683 50718
L71584 50620
" />
<path d="M72864 50718
L71683 50718
" />
<path d="M73061 50915
L72864 50718
" />
<path d="M74138 50915
L73356 50915
" />
<path d="M73164 51107
L73164 51112
" />
<path d="M73356 50915
L73164 51107
" />
<path d="M73361 50127
L73061 50127
" />
<path d="M71091 48650
L70699 48650
" />
<path d="M71781 49340
L71091 48650
" />
<path d="M71781 49734
L71781 49340
" />
<path d="M71978 49931
L71781 49734
" />
<path d="M72864 49931
L71978 49931
" />
<path d="M73061 50127
L72864 49931
" />
<path d="M74138 50127
L73361 50127
" />
<path d="M73361 50127
L73164 50324
" />
<path d="M73361 46978
L73061 46978
" />
<path d="M71486 47076
L70699 47076
" />
<path d="M71781 46781
L71486 47076
" />
<path d="M72864 46781
L71781 46781
" />
<path d="M73061 46978
L72864 46781
" />
<path d="M74138 46978
L73361 46978
" />
<path d="M73361 46978
L73164 47175
" />
<path d="M76104 46937
L75857 46937
" />
<path d="M75029 47765
L74738 47765
" />
<path d="M75857 46937
L75029 47765
" />
<path d="M70698 50127
L70698 50029
" />
</g>
<g style="fill:#9F0000; fill-opacity:1.0; 
stroke:#9F0000; stroke-width:196.85; stroke-opacity:1; 
stroke-linecap:round; stroke-linejoin:round;">
<path d="M73164 54060
L72962 54261
" />
<path d="M72962 54261
L71781 54261
" />
<path d="M71781 54261
L71170 53650
" />
<path d="M71170 53650
L71170 52412
" />
<path d="M71170 52412
L70953 52194
" />
<path d="M70953 52194
L70953 50382
" />
<path d="M70953 50382
L70698 50127
" />
<path d="M73164 53474
L73164 54060
" />
</g>
<g style="fill:#9F0000; fill-opacity:1.0; 
stroke:#9F0000; stroke-width:78.7402; stroke-opacity:1; 
stroke-linecap:round; stroke-linejoin:round;">
<path d="M70698 50029
L70699 50028
" />
</g>
<g style="fill:#9F0000; fill-opacity:1.0; 
stroke:#9F0000; stroke-width:196.85; stroke-opacity:1; 
stroke-linecap:round; stroke-linejoin:round;">
<path d="M74138 53277
L73848 53277
" />
<path d="M73651 53474
L73164 53474
" />
<path d="M73848 53277
L73651 53474
" />
</g>
<g style="fill:#9F0000; fill-opacity:1.0; 
stroke:#9F0000; stroke-width:78.7402; stroke-opacity:1; 
stroke-linecap:round; stroke-linejoin:round;">
<path d="M73361 46190
L73061 46190
" />
<path d="M71289 46682
L70699 46682
" />
<path d="M71486 46486
L71289 46682
" />
<path d="M71486 46387
L71486 46486
" />
<path d="M71879 45994
L71486 46387
" />
<path d="M72864 45994
L71879 45994
" />
<path d="M73061 46190
L72864 45994
" />
<path d="M74138 46190
L73361 46190
" />
<path d="M73361 46190
L73164 46387
" />
<path d="M77104 47467
L75721 47467
" />
<path d="M75029 48553
L74738 48553
" />
<path d="M75226 48356
L75029 48553
" />
<path d="M75226 47962
L75226 48356
" />
<path d="M75721 47467
L75226 47962
" />
<path d="M73361 48553
L73061 48553
" />
<path d="M71288 47863
L70699 47863
" />
<path d="M71781 48356
L71288 47863
" />
<path d="M72864 48356
L71781 48356
" />
<path d="M73061 48553
L72864 48356
" />
<path d="M74138 48553
L73361 48553
" />
<path d="M73361 48553
L73164 48750
" />
<path d="M77104 44207
L75634 44207
" />
<path d="M75255 43828
L74738 43828
" />
<path d="M75634 44207
L75255 43828
" />
<path d="M76104 44737
L75348 44737
" />
<path d="M75226 44616
L74738 44616
" />
<path d="M75348 44737
L75226 44616
" />
<path d="M77104 45307
L75322 45307
" />
<path d="M75226 45403
L74738 45403
" />
<path d="M75322 45307
L75226 45403
" />
<path d="M76104 45837
L75579 45837
" />
<path d="M75226 46190
L74738 46190
" />
<path d="M75579 45837
L75226 46190
" />
<path d="M55935 51315
L55935 51210
" />
<path d="M57233 49025
L58001 49025
" />
<path d="M56181 50078
L57233 49025
" />
<path d="M55688 50078
L56181 50078
" />
<path d="M55492 50275
L55688 50078
" />
<path d="M55492 50767
L55492 50275
" />
<path d="M55935 51210
L55492 50767
" />
<path d="M76104 49087
L75675 49087
" />
<path d="M75405 50249
L74738 50915
" />
<path d="M75405 49358
L75405 50249
" />
<path d="M75675 49087
L75405 49358
" />
<path d="M77104 48567
L75802 48567
" />
<path d="M74832 50127
L74738 50127
" />
<path d="M75226 49734
L74832 50127
" />
<path d="M75226 49143
L75226 49734
" />
<path d="M75802 48567
L75226 49143
" />
<path d="M73361 47765
L73061 47765
" />
<path d="M71583 47469
L70699 47469
" />
<path d="M71683 47568
L71583 47469
" />
<path d="M72864 47568
L71683 47568
" />
<path d="M73061 47765
L72864 47568
" />
<path d="M74138 47765
L73361 47765
" />
<path d="M73361 47765
L73164 47962
" />
<path d="M76104 48037
L76041 48037
" />
<path d="M76041 48037
L74738 49340
" />
<path d="M54650 46584
L53706 46584
" />
<path d="M53706 46584
L53464 46826
" />
<path d="M53464 44826
L54074 44826
" />
<path d="M54074 44826
L54650 45403
" />
<path d="M77104 49647
L75706 49647
" />
<path d="M75029 51702
L74738 51702
" />
<path d="M75226 51505
L75029 51702
" />
<path d="M75226 50718
L75226 51505
" />
<path d="M75620 50324
L75226 50718
" />
<path d="M75620 49734
L75620 50324
" />
<path d="M75706 49647
L75620 49734
" />
<path d="M55935 50515
L56519 50515
" />
<path d="M60303 50287
L60303 49815
" />
<path d="M59527 51062
L60303 50287
" />
<path d="M58838 51062
L59527 51062
" />
<path d="M58740 51161
L58838 51062
" />
<path d="M57165 51161
L58740 51161
" />
<path d="M56519 50515
L57165 51161
" />
<path d="M60521 41860
L59975 41860
" />
<path d="M60551 41889
L60521 41860
" />
<path d="M59448 43307
L60236 44094
" />
<path d="M60661 44094
L60675 44108
" />
<path d="M60236 44094
L60661 44094
" />
<path d="M59375 41860
L59084 41860
" />
<path d="M59055 42913
L59448 43307
" />
<path d="M59055 41889
L59055 42913
" />
<path d="M59084 41860
L59055 41889
" />
<path d="M59375 41072
L59005 41072
" />
<path d="M60497 44608
L60675 44608
" />
<path d="M58876 42987
L60497 44608
" />
<path d="M58876 41202
L58876 42987
" />
<path d="M59005 41072
L58876 41202
" />
<path d="M60551 41072
L60551 41023
" />
<path d="M60314 41072
L59975 41072
" />
<path d="M60314 41072
L60551 41072
" />
<path d="M58001 52508
L58376 52508
" />
<path d="M58920 51965
L59303 51965
" />
<path d="M58376 52508
L58920 51965
" />
<path d="M77104 46387
L75620 46387
" />
<path d="M75029 46978
L74738 46978
" />
<path d="M75620 46387
L75029 46978
" />
<path d="M58575 46108
L59009 46108
" />
<path d="M62303 50531
L62283 50551
" />
<path d="M62303 50531
L62303 49815
" />
<path d="M59009 46108
L59153 46062
" />
<path d="M58575 46608
L59127 46608
" />
<path d="M61803 50480
L61803 49815
" />
<path d="M61732 50551
L61803 50480
" />
<path d="M59127 46608
L59133 46614
" />
<path d="M61303 49815
L61303 50429
" />
<path d="M61303 50429
L61181 50551
" />
<path d="M59116 45608
L58575 45608
" />
<path d="M59133 45590
L59116 45608
" />
<path d="M62032 40482
L61722 40482
" />
<path d="M60927 45608
L60675 45608
" />
<path d="M61181 45354
L60927 45608
" />
<path d="M61181 41023
L61181 45354
" />
<path d="M61722 40482
L61181 41023
" />
<path d="M62303 51965
L62303 51673
" />
<path d="M58228 50078
L58001 49851
" />
<path d="M58444 50078
L58228 50078
" />
<path d="M58838 50472
L58444 50078
" />
<path d="M59330 50472
L58838 50472
" />
<path d="M60610 51161
L60314 50866
" />
<path d="M61791 51161
L60610 51161
" />
<path d="M62303 51673
L61791 51161
" />
<path d="M53543 48503
L52834 47795
" />
<path d="M52677 43937
L55275 41338
" />
<path d="M52677 45354
L52677 43937
" />
<path d="M52834 45511
L52677 45354
" />
<path d="M52834 47795
L52834 45511
" />
<path d="M55275 41338
L56231 41338
" />
<path d="M60803 49815
L60803 50724
" />
<path d="M60803 50724
L61023 50944
" />
<path d="M61023 50944
L62598 50944
" />
<path d="M62598 50944
L63070 51417
" />
<path d="M63070 51417
L63070 52598
" />
<path d="M63070 52598
L61732 53937
" />
<path d="M61732 53937
L56377 53937
" />
<path d="M56377 53937
L54881 52440
" />
<path d="M54881 52440
L54881 49842
" />
<path d="M54881 49842
L53543 48503
" />
<path d="M56231 41338
L56751 40818
" />
<path d="M60050 53179
L60050 52766
" />
<path d="M59803 52519
L59803 51965
" />
<path d="M60050 52766
L59803 52519
" />
<path d="M60265 47957
L60265 47273
" />
<path d="M60482 45108
L60675 45108
" />
<path d="M60078 45511
L60482 45108
" />
<path d="M60078 47086
L60078 45511
" />
<path d="M60265 47273
L60078 47086
" />
<path d="M58001 53258
L57884 53258
" />
<path d="M60303 51641
L60303 51965
" />
<path d="M60118 51456
L60303 51641
" />
<path d="M59035 51456
L60118 51456
" />
<path d="M58444 52047
L59035 51456
" />
<path d="M57657 52047
L58444 52047
" />
<path d="M57559 52145
L57657 52047
" />
<path d="M57559 52933
L57559 52145
" />
<path d="M57884 53258
L57559 52933
" />
<path d="M58575 44608
L57753 44608
" />
<path d="M56958 45403
L55250 45403
" />
<path d="M57753 44608
L56958 45403
" />
<path d="M58575 44108
L57938 44108
" />
<path d="M55250 46116
L55250 46584
" />
<path d="M54960 45826
L55250 46116
" />
<path d="M54960 45039
L54960 45826
" />
<path d="M55118 44881
L54960 45039
" />
<path d="M57165 44881
L55118 44881
" />
<path d="M57938 44108
L57165 44881
" />
<path d="M59291 44094
L59291 43700
" />
<path d="M58769 40285
L59375 40285
" />
<path d="M58661 40393
L58769 40285
" />
<path d="M58661 43070
L58661 40393
" />
<path d="M59291 43700
L58661 43070
" />
<path d="M59291 44724
L59291 44960
" />
<path d="M59291 44960
L59133 45118
" />
<path d="M59291 44724
L59291 44094
" />
<path d="M59133 45118
L58585 45118
" />
<path d="M58585 45118
L58575 45108
" />
<path d="M58575 45108
L59124 45108
" />
<path d="M59124 45108
L59133 45118
" />
<path d="M59133 45118
L59124 45108
" />
<path d="M70014 43730
L70014 41668
" />
<path d="M66860 49832
L67941 49832
" />
<path d="M66171 49143
L66860 49832
" />
<path d="M66171 45206
L66171 49143
" />
<path d="M66958 44419
L66171 45206
" />
<path d="M66958 40088
L66958 44419
" />
<path d="M67844 39202
L66958 40088
" />
<path d="M70305 39202
L67844 39202
" />
<path d="M70403 39301
L70305 39202
" />
<path d="M70403 40187
L70403 39301
" />
<path d="M69812 40187
L70403 40187
" />
<path d="M69714 40285
L69812 40187
" />
<path d="M69714 41368
L69714 40285
" />
<path d="M70014 41668
L69714 41368
" />
<path d="M68927 43935
L69033 43935
" />
<path d="M69414 44316
L69414 44517
" />
<path d="M69033 43935
L69414 44316
" />
<path d="M67925 43935
L68927 43935
" />
<path d="M68927 43935
L68935 43935
" />
<path d="M69414 43730
L69320 43730
" />
<path d="M68525 42935
L67925 42935
" />
<path d="M69320 43730
L68525 42935
" />
<path d="M66564 45403
L66564 48946
" />
<path d="M68480 40527
L68533 40580
" />
<path d="M68533 40580
L68533 42253
" />
<path d="M68533 42253
L68435 42352
" />
<path d="M68435 42352
L67647 42352
" />
<path d="M67647 42352
L67352 42647
" />
<path d="M67352 42647
L67352 44616
" />
<path d="M67352 44616
L66564 45403
" />
<path d="M67929 40527
L68480 40527
" />
<path d="M67056 49438
L67941 49438
" />
<path d="M66564 48946
L67056 49438
" />
<path d="M67941 49635
L66958 49635
" />
<path d="M67496 41027
L67929 41027
" />
<path d="M67155 41368
L67496 41027
" />
<path d="M67155 44517
L67155 41368
" />
<path d="M66368 45305
L67155 44517
" />
<path d="M66368 49045
L66368 45305
" />
<path d="M66958 49635
L66368 49045
" />
<path d="M60675 46108
L60448 46108
" />
<path d="M61529 46659
L61529 46108
" />
<path d="M61181 47007
L61529 46659
" />
<path d="M60393 47007
L61181 47007
" />
<path d="M60257 46871
L60393 47007
" />
<path d="M60257 46299
L60257 46871
" />
<path d="M60448 46108
L60257 46299
" />
<path d="M63675 43435
L63257 43435
" />
<path d="M61811 45826
L61529 46108
" />
<path d="M62598 45826
L61811 45826
" />
<path d="M62834 45590
L62598 45826
" />
<path d="M62834 43858
L62834 45590
" />
<path d="M63257 43435
L62834 43858
" />
<path d="M62632 39694
L63346 39694
" />
<path d="M63346 39694
L63679 40027
" />
<path d="M60973 53179
L60973 52705
" />
<path d="M60803 52535
L60803 51965
" />
<path d="M60973 52705
L60803 52535
" />
<path d="M62632 42057
L62667 42057
" />
<path d="M63196 41527
L63679 41527
" />
<path d="M62667 42057
L63196 41527
" />
<path d="M62632 41269
L62824 41269
" />
<path d="M63066 41027
L63679 41027
" />
<path d="M62824 41269
L63066 41027
" />
<path d="M60675 46608
L60950 46608
" />
<path d="M61722 41269
L62032 41269
" />
<path d="M61496 41496
L61722 41269
" />
<path d="M61496 45590
L61496 41496
" />
<path d="M61259 45826
L61496 45590
" />
<path d="M61259 46299
L61259 45826
" />
<path d="M60950 46608
L61259 46299
" />
<path d="M62632 40482
L63633 40482
" />
<path d="M63633 40482
L63679 40527
" />
</g>
<g style="fill:#9F0000; fill-opacity:1.0; 
stroke:#9F0000; stroke-width:100; stroke-opacity:1; 
stroke-linecap:round; stroke-linejoin:round;">
<path d="M64421 51596
L63643 51596
" />
<path d="M63149 51102
L63149 49370
" />
<path d="M63643 51596
L63149 51102
" />
</g>
<g style="fill:#9F0000; fill-opacity:1.0; 
stroke:#9F0000; stroke-width:78.7402; stroke-opacity:1; 
stroke-linecap:round; stroke-linejoin:round;">
<path d="M61156 48557
L60265 48557
" />
<path d="M61496 48897
L61156 48557
" />
<path d="M62677 48897
L61496 48897
" />
<path d="M63149 49370
L62677 48897
" />
<path d="M74561 39202
L74561 39915
" />
<path d="M77104 42360
L77104 43207
" />
<path d="M75226 40482
L77104 42360
" />
<path d="M75127 40482
L75226 40482
" />
<path d="M74561 39915
L75127 40482
" />
<path d="M73042 43041
L72962 43041
" />
<path d="M67451 46879
L67353 46781
" />
<path d="M67353 46781
L67353 45896
" />
<path d="M67353 45896
L67352 45895
" />
<path d="M67352 45895
L67352 45797
" />
<path d="M67352 45797
L67450 45698
" />
<path d="M67450 45698
L70009 45698
" />
<path d="M67451 46879
L67941 46879
" />
<path d="M71190 44517
L70009 45698
" />
<path d="M71190 42844
L71190 44517
" />
<path d="M71486 42549
L71190 42844
" />
<path d="M72470 42549
L71486 42549
" />
<path d="M72962 43041
L72470 42549
" />
<path d="M74738 43041
L74734 43041
" />
<path d="M73257 43041
L73042 43041
" />
<path d="M73651 43435
L73257 43041
" />
<path d="M74340 43435
L73651 43435
" />
<path d="M74734 43041
L74340 43435
" />
<path d="M77104 43207
L75589 43207
" />
<path d="M75423 43041
L74738 43041
" />
<path d="M75589 43207
L75423 43041
" />
<path d="M74138 42253
L74138 41953
" />
<path d="M74138 41953
L73750 41564
" />
<path d="M70089 40679
L70305 40679
" />
<path d="M70305 40679
L71561 39423
" />
<path d="M71561 39423
L71561 39202
" />
<path d="M69714 45305
L69812 45305
" />
<path d="M67253 47273
L66958 46978
" />
<path d="M66958 46978
L66958 45600
" />
<path d="M66958 45600
L67253 45305
" />
<path d="M67253 45305
L69714 45305
" />
<path d="M67941 47273
L67253 47273
" />
<path d="M70797 41171
L70305 40679
" />
<path d="M70797 44320
L70797 41171
" />
<path d="M69812 45305
L70797 44320
" />
<path d="M74138 43041
L74138 42549
" />
<path d="M74138 42549
L74138 42253
" />
<path d="M61723 53179
L61723 53062
" />
<path d="M61303 52641
L61303 51965
" />
<path d="M61723 53062
L61303 52641
" />
<path d="M58001 51585
L58611 51585
" />
<path d="M61803 51665
L61803 51965
" />
<path d="M61594 51456
L61803 51665
" />
<path d="M60511 51456
L61594 51456
" />
<path d="M60314 51259
L60511 51456
" />
<path d="M58937 51259
L60314 51259
" />
<path d="M58611 51585
L58937 51259
" />
<path d="M73356 45403
L73061 45403
" />
<path d="M71290 46288
L70699 46288
" />
<path d="M71584 45994
L71290 46288
" />
<path d="M71584 45501
L71584 45994
" />
<path d="M71879 45206
L71584 45501
" />
<path d="M72864 45206
L71879 45206
" />
<path d="M73061 45403
L72864 45206
" />
<path d="M74138 45403
L73356 45403
" />
<path d="M73356 45403
L73361 45403
" />
<path d="M73361 45403
L73164 45600
" />
<path d="M74143 41368
L74045 41368
" />
<path d="M73042 41189
L73042 42057
" />
<path d="M73257 40974
L73042 41189
" />
<path d="M73651 40974
L73257 40974
" />
<path d="M74045 41368
L73651 40974
" />
<path d="M71561 40679
L71561 41490
" />
<path d="M71190 41860
L71190 42549
" />
<path d="M71561 41490
L71190 41860
" />
<path d="M71561 40679
L73750 40679
" />
<path d="M76104 41852
L76104 42587
" />
<path d="M75423 41171
L76104 41852
" />
<path d="M74242 41171
L75423 41171
" />
<path d="M73750 40679
L74242 41171
" />
<path d="M69714 45520
L69893 45520
" />
<path d="M69893 45520
L70994 44419
" />
<path d="M70994 44419
L70994 42746
" />
<path d="M70994 42746
L71190 42549
" />
<path d="M67941 47076
L67352 47076
" />
<path d="M67334 45520
L69714 45520
" />
<path d="M67155 45698
L67334 45520
" />
<path d="M67155 46879
L67155 45698
" />
<path d="M67352 47076
L67155 46879
" />
<path d="M74143 41368
L74537 41368
" />
<path d="M74738 41569
L74738 42253
" />
<path d="M74537 41368
L74738 41569
" />
<path d="M76104 42587
L75560 42587
" />
<path d="M75226 42253
L74738 42253
" />
<path d="M75560 42587
L75226 42253
" />
</g>
<g style="fill:#9F0000; fill-opacity:1.0; 
stroke:#9F0000; stroke-width:100; stroke-opacity:1; 
stroke-linecap:round; stroke-linejoin:round;">
<path d="M63675 43935
L63230 43935
" />
<path d="M62834 45905
L62834 46795
" />
<path d="M63070 45669
L62834 45905
" />
<path d="M63070 44094
L63070 45669
" />
<path d="M63230 43935
L63070 44094
" />
</g>
<g style="fill:#9F0000; fill-opacity:1.0; 
stroke:#9F0000; stroke-width:78.7402; stroke-opacity:1; 
stroke-linecap:round; stroke-linejoin:round;">
<path d="M62032 39694
L62273 39694
" />
<path d="M62194 42057
L62032 42057
" />
<path d="M62362 41889
L62194 42057
" />
<path d="M62362 39783
L62362 41889
" />
<path d="M62273 39694
L62362 39783
" />
<path d="M59975 42647
L59891 42647
" />
<path d="M59685 40575
L59975 40285
" />
<path d="M59685 42440
L59685 40575
" />
<path d="M59891 42647
L59685 42440
" />
<path d="M56751 41818
L56842 41818
" />
<path d="M59975 40053
L59975 40285
" />
<path d="M59763 39842
L59975 40053
" />
<path d="M58818 39842
L59763 39842
" />
<path d="M56842 41818
L58818 39842
" />
<path d="M56751 41818
L57330 41818
" />
<path d="M58346 43379
L58575 43608
" />
<path d="M58346 42834
L58346 43379
" />
<path d="M57330 41818
L58346 42834
" />
<path d="M62834 46795
L62332 47297
" />
<path d="M59379 48632
L59477 48632
" />
<path d="M61362 48267
L62332 47297
" />
<path d="M59842 48267
L61362 48267
" />
<path d="M59477 48632
L59842 48267
" />
<path d="M55935 49515
L56350 49515
" />
<path d="M58770 48632
L59379 48632
" />
<path d="M58740 48602
L58770 48632
" />
<path d="M57263 48602
L58740 48602
" />
<path d="M56350 49515
L57263 48602
" />
<path d="M59303 49815
L59303 48709
" />
<path d="M59303 48709
L59379 48632
" />
<path d="M57263 53720
L56476 53720
" />
<path d="M55098 50351
L55935 49515
" />
<path d="M55098 52342
L55098 50351
" />
<path d="M56476 53720
L55098 52342
" />
<path d="M59300 53179
L59281 53179
" />
<path d="M58740 53720
L57263 53720
" />
<path d="M59281 53179
L58740 53720
" />
<path d="M62032 39694
L61250 39694
" />
<path d="M61250 39694
L60659 40285
" />
<path d="M60659 40285
L59975 40285
" />
<path d="M62032 42057
L62032 42844
" />
<path d="M68730 41564
L68730 42844
" />
<path d="M69517 43139
L69714 43336
" />
<path d="M69025 43139
L69517 43139
" />
<path d="M68730 42844
L69025 43139
" />
<path d="M70014 44517
L70014 44424
" />
<path d="M68374 40027
L67929 40027
" />
<path d="M68730 40383
L68374 40027
" />
<path d="M68730 41564
L68730 40383
" />
<path d="M69714 44124
L69714 43336
" />
<path d="M70014 44424
L69714 44124
" />
<path d="M69142 52687
L69142 52115
" />
<path d="M68435 47667
L67941 47667
" />
<path d="M68631 47864
L68435 47667
" />
<path d="M68631 48356
L68631 47864
" />
<path d="M68927 48651
L68631 48356
" />
<path d="M68927 49242
L68927 48651
" />
<path d="M68631 49537
L68927 49242
" />
<path d="M68631 51604
L68631 49537
" />
<path d="M69142 52115
L68631 51604
" />
<path d="M69620 53572
L69620 53380
" />
<path d="M69142 52902
L69142 52687
" />
<path d="M69620 53380
L69142 52902
" />
<path d="M70014 39793
L70014 39502
" />
<path d="M70014 39502
L69911 39399
" />
<path d="M69911 39399
L68557 39399
" />
<path d="M68557 39399
L67929 40027
" />
<path d="M67352 47667
L67549 47864
" />
<path d="M67941 47864
L67941 47864
" />
<path d="M67549 47864
L67941 47864
" />
<path d="M67155 47470
L67352 47667
" />
<path d="M67941 47667
L67941 47667
" />
<path d="M67352 47667
L67941 47667
" />
<path d="M67941 47470
L67155 47470
" />
<path d="M70014 44808
L70014 44517
" />
<path d="M69714 45108
L70014 44808
" />
<path d="M67155 45108
L69714 45108
" />
<path d="M66761 45501
L67155 45108
" />
<path d="M66761 47076
L66761 45501
" />
<path d="M67155 47470
L66761 47076
" />
</g>
<g style="fill:#9F0000; fill-opacity:1.0; 
stroke:#9F0000; stroke-width:196.85; stroke-opacity:1; 
stroke-linecap:round; stroke-linejoin:round;">
<path d="M74738 52490
L74832 52490
" />
<path d="M75620 50672
L76104 50187
" />
<path d="M75620 51702
L75620 50672
" />
<path d="M74832 52490
L75620 51702
" />
<path d="M74738 53277
L74738 52490
" />
</g>
<g style="fill:#FFFFFF; fill-opacity:1.0; 
stroke:#FFFFFF; stroke-width:39.3701; stroke-opacity:1; 
stroke-linecap:round; stroke-linejoin:round;">
<circle cx="60078.7" cy="43307.1" r="105.315" /> 
<circle cx="57244.1" cy="50708.7" r="105.315" /> 
<circle cx="63700.8" cy="52598.4" r="105.315" /> 
<circle cx="58818.9" cy="47401.6" r="105.315" /> 
<circle cx="62992.1" cy="42935" r="105.315" /> 
<circle cx="67952.8" cy="41968.5" r="105.315" /> 
<circle cx="70551.2" cy="52677.2" r="105.315" /> 
<circle cx="68189" cy="53543.3" r="105.315" /> 
<circle cx="71584.6" cy="42057.1" r="105.315" /> 
<circle cx="71584.6" cy="43041.3" r="105.315" /> 
<circle cx="68533.5" cy="48946.9" r="105.315" /> 
<circle cx="68533.5" cy="46584.6" r="105.315" /> 
<circle cx="72076.8" cy="44025.6" r="105.315" /> 
<circle cx="72175.2" cy="49537.4" r="105.315" /> 
<circle cx="72076.8" cy="44813" r="105.315" /> 
<circle cx="72076.8" cy="45600.4" r="105.315" /> 
<circle cx="72076.8" cy="46387.8" r="105.315" /> 
<circle cx="72076.8" cy="47175.2" r="105.315" /> 
<circle cx="72076.8" cy="47962.6" r="105.315" /> 
<circle cx="72076.8" cy="48750" r="105.315" /> 
<circle cx="72076.8" cy="50324.8" r="105.315" /> 
<circle cx="72076.8" cy="51112.2" r="105.315" /> 
<circle cx="72076.8" cy="51899.6" r="105.315" /> 
<circle cx="72076.8" cy="52687" r="105.315" /> 
<circle cx="72076.8" cy="53474.4" r="105.315" /> 
<circle cx="60551.2" cy="41889.8" r="105.315" /> 
<circle cx="60551.2" cy="41023.6" r="105.315" /> 
<circle cx="62283.5" cy="50551.2" r="105.315" /> 
<circle cx="59153.5" cy="46063" r="105.315" /> 
<circle cx="61732.3" cy="50551.2" r="105.315" /> 
<circle cx="59133.9" cy="46614.2" r="105.315" /> 
<circle cx="61181.1" cy="50551.2" r="105.315" /> 
<circle cx="59133.9" cy="45590.6" r="105.315" /> 
<circle cx="59330.7" cy="50472.4" r="105.315" /> 
<circle cx="60315" cy="50866.1" r="105.315" /> 
<circle cx="59133.9" cy="45118.1" r="105.315" /> 
<circle cx="73750" cy="41565" r="105.315" /> 
<circle cx="56751.6" cy="41818.9" r="140.315" /> 
<circle cx="56751.6" cy="40818.9" r="140.315" /> 
<circle cx="55964.6" cy="40818.9" r="140.315" /> 
<circle cx="55964.6" cy="41818.9" r="140.315" /> 
<circle cx="54901.6" cy="43680.9" r="433.315" /> 
<circle cx="54901.6" cy="38956.9" r="433.315" /> 
<circle cx="55935" cy="52315.4" r="177.315" /> 
<circle cx="55935" cy="51315.4" r="177.315" /> 
<circle cx="55935" cy="50515.4" r="177.315" /> 
<circle cx="55935" cy="49515.4" r="177.315" /> 
<circle cx="54885" cy="53515.4" r="433.315" /> 
<circle cx="54885" cy="48115.4" r="433.315" /> 
<circle cx="69320.9" cy="42352.4" r="140.315" /> 
<circle cx="74561" cy="40679.1" r="140.315" /> 
<circle cx="71561" cy="40679.1" r="140.315" /> 
<circle cx="71561" cy="39202.8" r="140.315" /> 
<circle cx="74561" cy="39202.8" r="140.315" /> 
<circle cx="62332.7" cy="48297.2" r="140.315" /> 
<circle cx="62332.7" cy="47297.2" r="140.315" /> 
<circle cx="62332.7" cy="46297.2" r="140.315" /> 
<circle cx="62332.7" cy="45297.2" r="140.315" /> 
<circle cx="62332.7" cy="44297.2" r="140.315" /> 
<circle cx="76604.3" cy="52981.8" r="580.315" /> 
<circle cx="76604.3" cy="39793.8" r="580.315" /> 
<circle cx="76104.3" cy="42587.8" r="180.315" /> 
<circle cx="76104.3" cy="43687.8" r="180.315" /> 
<circle cx="76104.3" cy="44737.8" r="180.315" /> 
<circle cx="76104.3" cy="45837.8" r="180.315" /> 
<circle cx="76104.3" cy="46937.8" r="180.315" /> 
<circle cx="76104.3" cy="48037.8" r="180.315" /> 
<circle cx="76104.3" cy="49087.8" r="180.315" /> 
<circle cx="76104.3" cy="50187.8" r="180.315" /> 
<circle cx="77104.3" cy="43207.8" r="180.315" /> 
<circle cx="77104.3" cy="44207.8" r="180.315" /> 
<circle cx="77104.3" cy="45307.8" r="180.315" /> 
<circle cx="77104.3" cy="46387.8" r="180.315" /> 
<circle cx="77104.3" cy="47467.8" r="180.315" /> 
<circle cx="77104.3" cy="48567.8" r="180.315" /> 
<circle cx="77104.3" cy="49647.8" r="180.315" /> 
<circle cx="53464.6" cy="46826.8" r="180.315" /> 
<circle cx="53464.6" cy="45826.8" r="180.315" /> 
<circle cx="53464.6" cy="44826.8" r="180.315" /> 
</g> 
</svg>
