<?xml version="1.0" standalone="no"?>
 <!DOCTYPE svg PUBLIC "-//W3C//DTD SVG 1.1//EN" 
 "http://www.w3.org/Graphics/SVG/1.1/DTD/svg11.dtd"> 
<svg xmlns="http://www.w3.org/2000/svg" version="1.1" 
    width="29.7002cm" height="21.0007cm" viewBox="0 0 116930 82680 ">
<title>SVG Picture created as 6802-2slv-B_Cu.svg date 2013/03/24 22:35:03 </title>
  <desc>Picture generated by PCBNEW </desc>
<g style="fill:#000000; fill-opacity:1;stroke:#000000; stroke-opacity:1;
stroke-linecap:round; stroke-linejoin:round; "
 transform="translate(0 0) scale(1 1)">
</g>
<g style="fill:#000000; fill-opacity:0.0; 
stroke:#000000; stroke-width:39.3701; stroke-opacity:1; 
stroke-linecap:round; stroke-linejoin:round;">
<path d="M4000 4000
L112930 4000
L112930 78680
L4000 78680
L4000 4000
" />
<path d="M4700 4700
L112230 4700
L112230 77980
L4700 77980
L4700 4700
" />
<path d="M25780 4000
L25780 4700
" />
<path d="M15032 4552
L14747 4552
" />
<path d="M14890 4552
L14890 4052
L14842 4123
L14794 4171
L14747 4195
" />
<path d="M25780 78680
L25780 77980
" />
<path d="M15032 78532
L14747 78532
" />
<path d="M14890 78532
L14890 78032
L14842 78103
L14794 78151
L14747 78175
" />
<path d="M47560 4000
L47560 4700
" />
<path d="M36527 4100
L36550 4076
L36598 4052
L36717 4052
L36765 4076
L36789 4100
L36812 4147
L36812 4195
L36789 4266
L36503 4552
L36812 4552
" />
<path d="M47560 78680
L47560 77980
" />
<path d="M36527 78080
L36550 78056
L36598 78032
L36717 78032
L36765 78056
L36789 78080
L36812 78127
L36812 78175
L36789 78246
L36503 78532
L36812 78532
" />
<path d="M69340 4000
L69340 4700
" />
<path d="M58283 4052
L58592 4052
L58426 4242
L58497 4242
L58545 4266
L58569 4290
L58592 4338
L58592 4457
L58569 4504
L58545 4528
L58497 4552
L58354 4552
L58307 4528
L58283 4504
" />
<path d="M69340 78680
L69340 77980
" />
<path d="M58283 78032
L58592 78032
L58426 78222
L58497 78222
L58545 78246
L58569 78270
L58592 78318
L58592 78437
L58569 78484
L58545 78508
L58497 78532
L58354 78532
L58307 78508
L58283 78484
" />
<path d="M91120 4000
L91120 4700
" />
<path d="M80325 4219
L80325 4552
" />
<path d="M80206 4028
L80087 4385
L80396 4385
" />
<path d="M91120 78680
L91120 77980
" />
<path d="M80325 78199
L80325 78532
" />
<path d="M80206 78008
L80087 78365
L80396 78365
" />
<path d="M102129 4052
L101890 4052
L101867 4290
L101890 4266
L101938 4242
L102057 4242
L102105 4266
L102129 4290
L102152 4338
L102152 4457
L102129 4504
L102105 4528
L102057 4552
L101938 4552
L101890 4528
L101867 4504
" />
<path d="M102129 78032
L101890 78032
L101867 78270
L101890 78246
L101938 78222
L102057 78222
L102105 78246
L102129 78270
L102152 78318
L102152 78437
L102129 78484
L102105 78508
L102057 78532
L101938 78532
L101890 78508
L101867 78484
" />
<path d="M4000 28890
L4700 28890
" />
<path d="M4230 16509
L4469 16509
" />
<path d="M4183 16652
L4350 16152
L4516 16652
" />
<path d="M112930 28890
L112230 28890
" />
<path d="M112460 16509
L112699 16509
" />
<path d="M112413 16652
L112580 16152
L112746 16652
" />
<path d="M4000 53780
L4700 53780
" />
<path d="M4385 41280
L4457 41304
L4480 41328
L4504 41375
L4504 41447
L4480 41494
L4457 41518
L4409 41542
L4219 41542
L4219 41042
L4385 41042
L4433 41066
L4457 41090
L4480 41137
L4480 41185
L4457 41232
L4433 41256
L4385 41280
L4219 41280
" />
<path d="M112930 53780
L112230 53780
" />
<path d="M112615 41280
L112687 41304
L112710 41328
L112734 41375
L112734 41447
L112710 41494
L112687 41518
L112639 41542
L112449 41542
L112449 41042
L112615 41042
L112663 41066
L112687 41090
L112710 41137
L112710 41185
L112687 41232
L112663 41256
L112615 41280
L112449 41280
" />
<path d="M4504 66384
L4480 66408
L4409 66432
L4361 66432
L4290 66408
L4242 66360
L4219 66313
L4195 66218
L4195 66146
L4219 66051
L4242 66003
L4290 65956
L4361 65932
L4409 65932
L4480 65956
L4504 65980
" />
<path d="M112734 66384
L112710 66408
L112639 66432
L112591 66432
L112520 66408
L112472 66360
L112449 66313
L112425 66218
L112425 66146
L112449 66051
L112472 66003
L112520 65956
L112591 65932
L112639 65932
L112710 65956
L112734 65980
" />
<path d="M79380 76422
L79455 75822
L79597 75822
L79680 75851
L79730 75908
L79751 75965
L79765 76080
L79755 76165
L79712 76280
L79676 76337
L79612 76394
L79522 76422
L79380 76422
" />
<path d="M80237 76422
L80276 76108
L80255 76051
L80201 76022
L80087 76022
L80026 76051
" />
<path d="M80240 76394
L80180 76422
L80037 76422
L79983 76394
L79962 76337
L79969 76280
L80005 76222
L80065 76194
L80208 76194
L80269 76165
" />
<path d="M80487 76022
L80715 76022
" />
<path d="M80597 75822
L80533 76337
L80555 76394
L80608 76422
L80665 76422
" />
<path d="M81097 76394
L81037 76422
L80922 76422
L80869 76394
L80847 76337
L80876 76108
L80912 76051
L80972 76022
L81087 76022
L81140 76051
L81162 76108
L81155 76165
L80862 76222
" />
<path d="M81387 76365
L81412 76394
L81380 76422
L81355 76394
L81387 76365
L81380 76422
" />
<path d="M81426 76051
L81451 76080
L81419 76108
L81394 76080
L81426 76051
L81419 76108
" />
<path d="M70972 77622
L70972 77022
" />
<path d="M71315 77622
L71058 77280
" />
<path d="M71315 77022
L70972 77365
" />
<path d="M71572 77622
L71572 77222
" />
<path d="M71572 77022
L71544 77051
L71572 77080
L71601 77051
L71572 77022
L71572 77080
" />
<path d="M72201 77565
L72172 77594
L72087 77622
L72030 77622
L71944 77594
L71887 77537
L71858 77480
L71830 77365
L71830 77280
L71858 77165
L71887 77108
L71944 77051
L72030 77022
L72087 77022
L72172 77051
L72201 77080
" />
<path d="M72715 77622
L72715 77308
L72687 77251
L72630 77222
L72515 77222
L72458 77251
" />
<path d="M72715 77594
L72658 77622
L72515 77622
L72458 77594
L72430 77537
L72430 77480
L72458 77422
L72515 77394
L72658 77394
L72715 77365
" />
<path d="M73258 77622
L73258 77022
" />
<path d="M73258 77594
L73201 77622
L73087 77622
L73030 77594
L73001 77565
L72972 77508
L72972 77337
L73001 77280
L73030 77251
L73087 77222
L73201 77222
L73258 77251
" />
<path d="M74001 77308
L74201 77308
" />
<path d="M74287 77622
L74001 77622
L74001 77022
L74287 77022
" />
<path d="M74544 77565
L74572 77594
L74544 77622
L74515 77594
L74544 77565
L74544 77622
" />
<path d="M74829 77622
L74829 77022
L74972 77022
L75058 77051
L75115 77108
L75144 77165
L75172 77280
L75172 77365
L75144 77480
L75115 77537
L75058 77594
L74972 77622
L74829 77622
" />
<path d="M75429 77565
L75458 77594
L75429 77622
L75401 77594
L75429 77565
L75429 77622
" />
<path d="M75687 77451
L75972 77451
" />
<path d="M75629 77622
L75829 77022
L76029 77622
" />
<path d="M76229 77565
L76258 77594
L76229 77622
L76201 77594
L76229 77565
L76229 77622
" />
<path d="M104522 76422
L104358 76137
" />
<path d="M104180 76422
L104255 75822
L104483 75822
L104537 75851
L104562 75880
L104583 75937
L104572 76022
L104537 76080
L104505 76108
L104444 76137
L104215 76137
" />
<path d="M105012 76394
L104951 76422
L104837 76422
L104783 76394
L104762 76337
L104790 76108
L104826 76051
L104887 76022
L105001 76022
L105055 76051
L105076 76108
L105069 76165
L104776 76222
" />
<path d="M105287 76022
L105380 76422
L105572 76022
" />
<path d="M105758 76365
L105783 76394
L105751 76422
L105726 76394
L105758 76365
L105751 76422
" />
<path d="M105797 76051
L105822 76080
L105790 76108
L105765 76080
L105797 76051
L105790 76108
" />
<path d="M106494 76422
L106569 75822
L106712 75822
L106794 75851
L106844 75908
L106865 75965
L106880 76080
L106869 76165
L106826 76280
L106790 76337
L106726 76394
L106637 76422
L106494 76422
" />
<path d="M70944 76394
L71030 76422
L71172 76422
L71230 76394
L71258 76365
L71287 76308
L71287 76251
L71258 76194
L71230 76165
L71172 76137
L71058 76108
L71001 76080
L70972 76051
L70944 75994
L70944 75937
L70972 75880
L71001 75851
L71058 75822
L71201 75822
L71287 75851
" />
<path d="M71544 76422
L71544 76022
" />
<path d="M71544 75822
L71515 75851
L71544 75880
L71572 75851
L71544 75822
L71544 75880
" />
<path d="M71772 76022
L72087 76022
L71772 76422
L72087 76422
" />
<path d="M72544 76394
L72487 76422
L72372 76422
L72315 76394
L72287 76337
L72287 76108
L72315 76051
L72372 76022
L72487 76022
L72544 76051
L72572 76108
L72572 76165
L72287 76222
" />
<path d="M72830 76365
L72858 76394
L72830 76422
L72801 76394
L72830 76365
L72830 76422
" />
<path d="M72830 76051
L72858 76080
L72830 76108
L72801 76080
L72830 76051
L72830 76108
" />
<path d="M73544 76251
L73830 76251
" />
<path d="M73487 76422
L73687 75822
L73887 76422
" />
<path d="M74344 76022
L74344 76422
" />
<path d="M74201 75794
L74058 76222
L74430 76222
" />
<path d="M104172 77622
L104172 77022
" />
<path d="M104715 77622
L104715 77022
" />
<path d="M104715 77594
L104658 77622
L104544 77622
L104487 77594
L104458 77565
L104430 77508
L104430 77337
L104458 77280
L104487 77251
L104544 77222
L104658 77222
L104715 77251
" />
<path d="M105001 77565
L105030 77594
L105001 77622
L104972 77594
L105001 77565
L105001 77622
" />
<path d="M105001 77251
L105030 77280
L105001 77308
L104972 77280
L105001 77251
L105001 77308
" />
<path d="M106058 77622
L105715 77622
" />
<path d="M105887 77622
L105887 77022
L105829 77108
L105772 77165
L105715 77194
" />
<path d="M106744 76994
L106230 77765
" />
<path d="M107258 77622
L106915 77622
" />
<path d="M107087 77622
L107087 77022
L107029 77108
L106972 77165
L106915 77194
" />
<path d="M70969 74622
L71312 74622
" />
<path d="M71065 75222
L71140 74622
" />
<path d="M71437 75222
L71487 74822
" />
<path d="M71512 74622
L71480 74651
L71505 74680
L71537 74651
L71512 74622
L71505 74680
" />
<path d="M71687 74822
L71915 74822
" />
<path d="M71797 74622
L71733 75137
L71755 75194
L71808 75222
L71865 75222
" />
<path d="M72151 75222
L72097 75194
L72076 75137
L72140 74622
" />
<path d="M72612 75194
L72551 75222
L72437 75222
L72383 75194
L72362 75137
L72390 74908
L72426 74851
L72487 74822
L72601 74822
L72655 74851
L72676 74908
L72669 74965
L72376 75022
" />
<path d="M72901 75165
L72926 75194
L72894 75222
L72869 75194
L72901 75165
L72894 75222
" />
<path d="M72940 74851
L72965 74880
L72933 74908
L72908 74880
L72940 74851
L72933 74908
" />
<path d="M73922 75222
L73637 75222
L73712 74622
" />
<path d="M74112 74622
L74455 74622
" />
<path d="M74208 75222
L74283 74622
" />
<path d="M74930 75165
L74897 75194
L74808 75222
L74751 75222
L74669 75194
L74619 75137
L74597 75080
L74583 74965
L74594 74880
L74637 74765
L74672 74708
L74737 74651
L74826 74622
L74883 74622
L74965 74651
L74990 74680
" />
<path d="M75512 74622
L75397 74622
L75337 74651
L75305 74680
L75237 74765
L75194 74880
L75165 75108
L75187 75165
L75212 75194
L75265 75222
L75380 75222
L75440 75194
L75472 75165
L75508 75108
L75526 74965
L75505 74908
L75480 74880
L75426 74851
L75312 74851
L75251 74880
L75219 74908
L75183 74965
" />
<path d="M75880 74880
L75826 74851
L75801 74822
L75780 74765
L75783 74737
L75819 74680
L75851 74651
L75912 74622
L76026 74622
L76080 74651
L76105 74680
L76126 74737
L76122 74765
L76087 74822
L76055 74851
L75994 74880
L75880 74880
L75819 74908
L75787 74937
L75751 74994
L75737 75108
L75758 75165
L75783 75194
L75837 75222
L75951 75222
L76012 75194
L76044 75165
L76080 75108
L76094 74994
L76072 74937
L76047 74908
L75994 74880
" />
<path d="M76512 74622
L76569 74622
L76622 74651
L76647 74680
L76669 74737
L76683 74851
L76665 74994
L76622 75108
L76587 75165
L76555 75194
L76494 75222
L76437 75222
L76383 75194
L76358 75165
L76337 75108
L76322 74994
L76340 74851
L76383 74737
L76419 74680
L76451 74651
L76512 74622
" />
<path d="M76933 74680
L76965 74651
L77026 74622
L77169 74622
L77222 74651
L77247 74680
L77269 74737
L77262 74794
L77222 74880
L76837 75222
L77208 75222
" />
<path d="M77494 74994
L77951 74994
" />
<path d="M78247 74680
L78280 74651
L78340 74622
L78483 74622
L78537 74651
L78562 74680
L78583 74737
L78576 74794
L78537 74880
L78151 75222
L78522 75222
" />
<path d="M79237 75222
L79312 74622
" />
<path d="M79283 74851
L79344 74822
L79458 74822
L79512 74851
L79537 74880
L79558 74937
L79537 75108
L79501 75165
L79469 75194
L79408 75222
L79294 75222
L79240 75194
" />
<path d="M80037 75222
L80076 74908
L80055 74851
L80001 74822
L79887 74822
L79826 74851
" />
<path d="M80040 75194
L79980 75222
L79837 75222
L79783 75194
L79762 75137
L79769 75080
L79805 75022
L79865 74994
L80008 74994
L80069 74965
" />
<path d="M80297 75194
L80351 75222
L80465 75222
L80526 75194
L80562 75137
L80565 75108
L80544 75051
L80490 75022
L80405 75022
L80351 74994
L80330 74937
L80333 74908
L80369 74851
L80430 74822
L80515 74822
L80569 74851
" />
<path d="M81040 75194
L80980 75222
L80865 75222
L80812 75194
L80790 75137
L80819 74908
L80855 74851
L80915 74822
L81030 74822
L81083 74851
L81105 74908
L81097 74965
L80805 75022
" />
<path d="M81580 75222
L81655 74622
" />
<path d="M81583 75194
L81522 75222
L81408 75222
L81355 75194
L81330 75165
L81308 75108
L81330 74937
L81365 74880
L81397 74851
L81458 74822
L81572 74822
L81626 74851
" />
<path d="M82583 75194
L82522 75222
L82408 75222
L82355 75194
L82330 75165
L82308 75108
L82330 74937
L82365 74880
L82397 74851
L82458 74822
L82572 74822
L82626 74851
" />
<path d="M83069 75194
L83008 75222
L82894 75222
L82840 75194
L82819 75137
L82847 74908
L82883 74851
L82944 74822
L83058 74822
L83112 74851
L83133 74908
L83126 74965
L82833 75022
" />
<path d="M83437 75222
L83383 75194
L83362 75137
L83426 74622
" />
<path d="M83751 75222
L83697 75194
L83676 75137
L83740 74622
" />
<path d="M84437 75222
L84487 74822
" />
<path d="M84480 74880
L84512 74851
L84572 74822
L84658 74822
L84712 74851
L84733 74908
L84694 75222
" />
<path d="M84733 74908
L84769 74851
L84830 74822
L84915 74822
L84969 74851
L84990 74908
L84951 75222
" />
<path d="M85322 75222
L85269 75194
L85244 75165
L85222 75108
L85244 74937
L85280 74880
L85312 74851
L85372 74822
L85458 74822
L85512 74851
L85537 74880
L85558 74937
L85537 75108
L85501 75165
L85469 75194
L85408 75222
L85322 75222
" />
<path d="M85830 74822
L85780 75222
" />
<path d="M85822 74880
L85855 74851
L85915 74822
L86001 74822
L86055 74851
L86076 74908
L86037 75222
" />
<path d="M86322 75222
L86372 74822
" />
<path d="M86397 74622
L86365 74651
L86390 74680
L86422 74651
L86397 74622
L86390 74680
" />
<path d="M86572 74822
L86801 74822
" />
<path d="M86683 74622
L86619 75137
L86640 75194
L86694 75222
L86751 75222
" />
<path d="M87037 75222
L86983 75194
L86958 75165
L86937 75108
L86958 74937
L86994 74880
L87026 74851
L87087 74822
L87172 74822
L87226 74851
L87251 74880
L87272 74937
L87251 75108
L87215 75165
L87183 75194
L87122 75222
L87037 75222
" />
<path d="M87494 75222
L87544 74822
" />
<path d="M87530 74937
L87565 74880
L87597 74851
L87658 74822
L87715 74822
" />
<path d="M71172 72508
L70972 72508
" />
<path d="M70972 72822
L70972 72222
L71258 72222
" />
<path d="M71487 72822
L71487 72422
" />
<path d="M71487 72222
L71458 72251
L71487 72280
L71515 72251
L71487 72222
L71487 72280
" />
<path d="M71858 72822
L71801 72794
L71772 72737
L71772 72222
" />
<path d="M72315 72794
L72258 72822
L72144 72822
L72087 72794
L72058 72737
L72058 72508
L72087 72451
L72144 72422
L72258 72422
L72315 72451
L72344 72508
L72344 72565
L72058 72622
" />
<path d="M72601 72765
L72630 72794
L72601 72822
L72572 72794
L72601 72765
L72601 72822
" />
<path d="M72601 72451
L72630 72480
L72601 72508
L72572 72480
L72601 72451
L72601 72508
" />
<path d="M73601 72222
L73487 72222
L73430 72251
L73401 72280
L73344 72365
L73315 72480
L73315 72708
L73344 72765
L73372 72794
L73430 72822
L73544 72822
L73601 72794
L73630 72765
L73658 72708
L73658 72565
L73630 72508
L73601 72480
L73544 72451
L73430 72451
L73372 72480
L73344 72508
L73315 72565
" />
<path d="M74001 72480
L73944 72451
L73915 72422
L73887 72365
L73887 72337
L73915 72280
L73944 72251
L74001 72222
L74115 72222
L74172 72251
L74201 72280
L74230 72337
L74230 72365
L74201 72422
L74172 72451
L74115 72480
L74001 72480
L73944 72508
L73915 72537
L73887 72594
L73887 72708
L73915 72765
L73944 72794
L74001 72822
L74115 72822
L74172 72794
L74201 72765
L74230 72708
L74230 72594
L74201 72537
L74172 72508
L74115 72480
" />
<path d="M74601 72222
L74658 72222
L74715 72251
L74744 72280
L74772 72337
L74801 72451
L74801 72594
L74772 72708
L74744 72765
L74715 72794
L74658 72822
L74601 72822
L74544 72794
L74515 72765
L74487 72708
L74458 72594
L74458 72451
L74487 72337
L74515 72280
L74544 72251
L74601 72222
" />
<path d="M75030 72280
L75058 72251
L75115 72222
L75258 72222
L75315 72251
L75344 72280
L75372 72337
L75372 72394
L75344 72480
L75001 72822
L75372 72822
" />
<path d="M75630 72594
L76087 72594
" />
<path d="M76344 72280
L76372 72251
L76430 72222
L76572 72222
L76630 72251
L76658 72280
L76687 72337
L76687 72394
L76658 72480
L76315 72822
L76687 72822
" />
<path d="M76915 72794
L76972 72822
L77087 72822
L77144 72794
L77172 72737
L77172 72708
L77144 72651
L77087 72622
L77001 72622
L76944 72594
L76915 72537
L76915 72508
L76944 72451
L77001 72422
L77087 72422
L77144 72451
" />
<path d="M77515 72822
L77458 72794
L77430 72737
L77430 72222
" />
<path d="M77687 72422
L77830 72822
L77972 72422
" />
<path d="M78201 72765
L78230 72794
L78201 72822
L78172 72794
L78201 72765
L78201 72822
" />
<path d="M78487 72822
L78487 72222
" />
<path d="M78544 72594
L78715 72822
" />
<path d="M78715 72422
L78487 72651
" />
<path d="M78972 72822
L78972 72422
" />
<path d="M78972 72222
L78944 72251
L78972 72280
L79001 72251
L78972 72222
L78972 72280
" />
<path d="M79515 72794
L79458 72822
L79344 72822
L79287 72794
L79258 72765
L79230 72708
L79230 72537
L79258 72480
L79287 72451
L79344 72422
L79458 72422
L79515 72451
" />
<path d="M80030 72822
L80030 72508
L80001 72451
L79944 72422
L79830 72422
L79772 72451
" />
<path d="M80030 72794
L79972 72822
L79830 72822
L79772 72794
L79744 72737
L79744 72680
L79772 72622
L79830 72594
L79972 72594
L80030 72565
" />
<path d="M80572 72822
L80572 72222
" />
<path d="M80572 72794
L80515 72822
L80401 72822
L80344 72794
L80315 72765
L80287 72708
L80287 72537
L80315 72480
L80344 72451
L80401 72422
L80515 72422
L80572 72451
" />
<path d="M80715 72880
L81172 72880
" />
<path d="M81315 72422
L81315 73022
" />
<path d="M81315 72451
L81372 72422
L81487 72422
L81544 72451
L81572 72480
L81601 72537
L81601 72708
L81572 72765
L81544 72794
L81487 72822
L81372 72822
L81315 72794
" />
<path d="M82115 72794
L82058 72822
L81944 72822
L81887 72794
L81858 72765
L81830 72708
L81830 72537
L81858 72480
L81887 72451
L81944 72422
L82058 72422
L82115 72451
" />
<path d="M82372 72822
L82372 72222
" />
<path d="M82372 72451
L82430 72422
L82544 72422
L82601 72451
L82630 72480
L82658 72537
L82658 72708
L82630 72765
L82601 72794
L82544 72822
L82430 72822
L82372 72794
" />
<path d="M70944 73994
L71030 74022
L71172 74022
L71230 73994
L71258 73965
L71287 73908
L71287 73851
L71258 73794
L71230 73765
L71172 73737
L71058 73708
L71001 73680
L70972 73651
L70944 73594
L70944 73537
L70972 73480
L71001 73451
L71058 73422
L71201 73422
L71287 73451
" />
<path d="M71544 74022
L71544 73422
" />
<path d="M71801 74022
L71801 73708
L71772 73651
L71715 73622
L71630 73622
L71572 73651
L71544 73680
" />
<path d="M72315 73994
L72258 74022
L72144 74022
L72087 73994
L72058 73937
L72058 73708
L72087 73651
L72144 73622
L72258 73622
L72315 73651
L72344 73708
L72344 73765
L72058 73822
" />
<path d="M72830 73994
L72772 74022
L72658 74022
L72601 73994
L72572 73937
L72572 73708
L72601 73651
L72658 73622
L72772 73622
L72830 73651
L72858 73708
L72858 73765
L72572 73822
" />
<path d="M73030 73622
L73258 73622
" />
<path d="M73115 73422
L73115 73937
L73144 73994
L73201 74022
L73258 74022
" />
<path d="M73458 73965
L73487 73994
L73458 74022
L73430 73994
L73458 73965
L73458 74022
" />
<path d="M73458 73651
L73487 73680
L73458 73708
L73430 73680
L73458 73651
L73458 73708
" />
<path d="M71122 71851
L71097 71822
L71051 71737
L71030 71680
L71012 71594
L71001 71451
L71015 71337
L71062 71194
L71101 71108
L71137 71051
L71205 70965
L71237 70937
" />
<path d="M71640 71594
L71580 71622
L71465 71622
L71412 71594
L71387 71565
L71365 71508
L71387 71337
L71422 71280
L71455 71251
L71515 71222
L71630 71222
L71683 71251
" />
<path d="M71808 71851
L71840 71822
L71908 71737
L71944 71680
L71983 71594
L72030 71451
L72044 71337
L72033 71194
L72015 71108
L71994 71051
L71947 70965
L71922 70937
" />
<path d="M73137 71051
L73083 71022
L72997 71022
L72908 71051
L72844 71108
L72808 71165
L72765 71280
L72755 71365
L72769 71480
L72790 71537
L72840 71594
L72922 71622
L72980 71622
L73069 71594
L73101 71565
L73126 71365
L73012 71365
" />
<path d="M73351 71622
L73401 71222
" />
<path d="M73387 71337
L73422 71280
L73455 71251
L73515 71222
L73572 71222
" />
<path d="M73955 71594
L73894 71622
L73780 71622
L73726 71594
L73705 71537
L73733 71308
L73769 71251
L73830 71222
L73944 71222
L73997 71251
L74019 71308
L74012 71365
L73719 71422
" />
<path d="M74544 71222
L74483 71708
L74447 71765
L74415 71794
L74355 71822
L74269 71822
L74215 71794
" />
<path d="M74497 71594
L74437 71622
L74322 71622
L74269 71594
L74244 71565
L74222 71508
L74244 71337
L74280 71280
L74312 71251
L74372 71222
L74487 71222
L74540 71251
" />
<path d="M75476 71308
L75276 71308
" />
<path d="M75237 71622
L75312 71022
L75597 71022
" />
<path d="M75837 71622
L75783 71594
L75758 71565
L75737 71508
L75758 71337
L75794 71280
L75826 71251
L75887 71222
L75972 71222
L76026 71251
L76051 71280
L76072 71337
L76051 71508
L76015 71565
L75983 71594
L75922 71622
L75837 71622
" />
<path d="M76294 71622
L76344 71222
" />
<path d="M76330 71337
L76365 71280
L76397 71251
L76458 71222
L76515 71222
" />
<path d="M76922 71622
L76997 71022
" />
<path d="M76926 71594
L76865 71622
L76751 71622
L76697 71594
L76672 71565
L76651 71508
L76672 71337
L76708 71280
L76740 71251
L76801 71222
L76915 71222
L76969 71251
" />
<path d="M77201 71222
L77294 71622
" />
<path d="M77487 71222
L77294 71622
L77219 71765
L77187 71794
L77126 71822
" />
<path d="M77926 71594
L77865 71622
L77751 71622
L77697 71594
L77672 71565
L77651 71508
L77672 71337
L77708 71280
L77740 71251
L77801 71222
L77915 71222
L77969 71251
" />
<path d="M78412 71594
L78351 71622
L78237 71622
L78183 71594
L78162 71537
L78190 71308
L78226 71251
L78287 71222
L78401 71222
L78455 71251
L78476 71308
L78469 71365
L78176 71422
" />
<path d="M79190 71080
L79222 71051
L79283 71022
L79426 71022
L79480 71051
L79505 71080
L79526 71137
L79519 71194
L79480 71280
L79094 71622
L79465 71622
" />
<path d="M79912 71022
L79969 71022
L80022 71051
L80047 71080
L80069 71137
L80083 71251
L80065 71394
L80022 71508
L79987 71565
L79955 71594
L79894 71622
L79837 71622
L79783 71594
L79758 71565
L79737 71508
L79722 71394
L79740 71251
L79783 71137
L79819 71080
L79851 71051
L79912 71022
" />
<path d="M80608 71622
L80265 71622
" />
<path d="M80437 71622
L80512 71022
L80444 71108
L80380 71165
L80319 71194
" />
<path d="M80883 71022
L81255 71022
L81026 71251
L81112 71251
L81165 71280
L81190 71308
L81212 71365
L81194 71508
L81158 71565
L81126 71594
L81065 71622
L80894 71622
L80840 71594
L80815 71565
" />
<path d="M70915 70022
L71030 70422
L71144 70137
L71258 70422
L71372 70022
" />
<path d="M71544 70022
L71658 70422
L71772 70137
L71887 70422
L72001 70022
" />
<path d="M72172 70022
L72287 70422
L72401 70137
L72515 70422
L72629 70022
" />
<path d="M72858 70365
L72887 70394
L72858 70422
L72829 70394
L72858 70365
L72858 70422
" />
<path d="M73401 70022
L73401 70508
L73372 70565
L73344 70594
L73287 70622
L73201 70622
L73144 70594
" />
<path d="M73401 70394
L73344 70422
L73229 70422
L73172 70394
L73144 70365
L73115 70308
L73115 70137
L73144 70080
L73172 70051
L73229 70022
L73344 70022
L73401 70051
" />
<path d="M73772 70422
L73715 70394
L73687 70365
L73658 70308
L73658 70137
L73687 70080
L73715 70051
L73772 70022
L73858 70022
L73915 70051
L73944 70080
L73972 70137
L73972 70308
L73944 70365
L73915 70394
L73858 70422
L73772 70422
" />
<path d="M74229 70194
L74687 70194
" />
<path d="M75201 70394
L75144 70422
L75029 70422
L74972 70394
L74944 70337
L74944 70108
L74972 70051
L75029 70022
L75144 70022
L75201 70051
L75229 70108
L75229 70165
L74944 70222
" />
<path d="M75429 70022
L75572 70422
L75715 70022
" />
<path d="M75944 70365
L75972 70394
L75944 70422
L75915 70394
L75944 70365
L75944 70422
" />
<path d="M76487 70394
L76429 70422
L76315 70422
L76258 70394
L76229 70365
L76201 70308
L76201 70137
L76229 70080
L76258 70051
L76315 70022
L76429 70022
L76487 70051
" />
<path d="M76829 70422
L76772 70394
L76744 70365
L76715 70308
L76715 70137
L76744 70080
L76772 70051
L76829 70022
L76915 70022
L76972 70051
L77001 70080
L77029 70137
L77029 70308
L77001 70365
L76972 70394
L76915 70422
L76829 70422
" />
<path d="M77287 70365
L77315 70394
L77287 70422
L77258 70394
L77287 70365
L77287 70422
" />
<path d="M77829 70022
L77829 70422
" />
<path d="M77572 70022
L77572 70337
L77601 70394
L77658 70422
L77744 70422
L77801 70394
L77829 70365
" />
<path d="M78115 70422
L78115 69822
" />
<path d="M78172 70194
L78344 70422
" />
<path d="M78344 70022
L78115 70251
" />
<path d="M71258 66822
L70972 66822
L70972 66222
" />
<path d="M71458 66822
L71458 66422
" />
<path d="M71458 66222
L71430 66251
L71458 66280
L71487 66251
L71458 66222
L71458 66280
" />
<path d="M72001 66794
L71944 66822
L71829 66822
L71772 66794
L71744 66765
L71715 66708
L71715 66537
L71744 66480
L71772 66451
L71829 66422
L71944 66422
L72001 66451
" />
<path d="M72487 66794
L72430 66822
L72315 66822
L72258 66794
L72230 66737
L72230 66508
L72258 66451
L72315 66422
L72430 66422
L72487 66451
L72515 66508
L72515 66565
L72230 66622
" />
<path d="M72772 66422
L72772 66822
" />
<path d="M72772 66480
L72801 66451
L72858 66422
L72944 66422
L73001 66451
L73030 66508
L73030 66822
" />
<path d="M73287 66794
L73344 66822
L73458 66822
L73515 66794
L73544 66737
L73544 66708
L73515 66651
L73458 66622
L73372 66622
L73315 66594
L73287 66537
L73287 66508
L73315 66451
L73372 66422
L73458 66422
L73515 66451
" />
<path d="M74030 66794
L73972 66822
L73858 66822
L73801 66794
L73772 66737
L73772 66508
L73801 66451
L73858 66422
L73972 66422
L74030 66451
L74058 66508
L74058 66565
L73772 66622
" />
<path d="M74572 66822
L74572 66222
" />
<path d="M74572 66794
L74515 66822
L74401 66822
L74344 66794
L74315 66765
L74287 66708
L74287 66537
L74315 66480
L74344 66451
L74401 66422
L74515 66422
L74572 66451
" />
<path d="M75572 66422
L75572 66822
" />
<path d="M75315 66422
L75315 66737
L75344 66794
L75401 66822
L75487 66822
L75544 66794
L75572 66765
" />
<path d="M75858 66422
L75858 66822
" />
<path d="M75858 66480
L75887 66451
L75944 66422
L76030 66422
L76087 66451
L76115 66508
L76115 66822
" />
<path d="M76658 66822
L76658 66222
" />
<path d="M76658 66794
L76601 66822
L76487 66822
L76430 66794
L76401 66765
L76372 66708
L76372 66537
L76401 66480
L76430 66451
L76487 66422
L76601 66422
L76658 66451
" />
<path d="M77172 66794
L77115 66822
L77001 66822
L76944 66794
L76915 66737
L76915 66508
L76944 66451
L77001 66422
L77115 66422
L77172 66451
L77201 66508
L77201 66565
L76915 66622
" />
<path d="M77458 66822
L77458 66422
" />
<path d="M77458 66537
L77487 66480
L77515 66451
L77572 66422
L77630 66422
" />
<path d="M78201 66422
L78430 66422
" />
<path d="M78287 66222
L78287 66737
L78315 66794
L78372 66822
L78430 66822
" />
<path d="M78630 66822
L78630 66222
" />
<path d="M78887 66822
L78887 66508
L78858 66451
L78801 66422
L78715 66422
L78658 66451
L78630 66480
" />
<path d="M79401 66794
L79344 66822
L79230 66822
L79172 66794
L79144 66737
L79144 66508
L79172 66451
L79230 66422
L79344 66422
L79401 66451
L79430 66508
L79430 66565
L79144 66622
" />
<path d="M80058 66222
L80401 66222
" />
<path d="M80230 66822
L80230 66222
" />
<path d="M80572 66651
L80858 66651
" />
<path d="M80515 66822
L80715 66222
L80915 66822
" />
<path d="M81115 66822
L81115 66222
L81344 66222
L81401 66251
L81430 66280
L81458 66337
L81458 66422
L81430 66480
L81401 66508
L81344 66537
L81115 66537
" />
<path d="M82058 66822
L81858 66537
" />
<path d="M81715 66822
L81715 66222
L81944 66222
L82001 66251
L82030 66280
L82058 66337
L82058 66422
L82030 66480
L82001 66508
L81944 66537
L81715 66537
" />
<path d="M82887 66222
L83001 66222
L83058 66251
L83115 66308
L83144 66422
L83144 66622
L83115 66737
L83058 66794
L83001 66822
L82887 66822
L82830 66794
L82772 66737
L82744 66622
L82744 66422
L82772 66308
L82830 66251
L82887 66222
" />
<path d="M83401 66422
L83401 67022
" />
<path d="M83401 66451
L83458 66422
L83572 66422
L83630 66451
L83658 66480
L83687 66537
L83687 66708
L83658 66765
L83630 66794
L83572 66822
L83458 66822
L83401 66794
" />
<path d="M84172 66794
L84115 66822
L84001 66822
L83944 66794
L83915 66737
L83915 66508
L83944 66451
L84001 66422
L84115 66422
L84172 66451
L84201 66508
L84201 66565
L83915 66622
" />
<path d="M84458 66422
L84458 66822
" />
<path d="M84458 66480
L84487 66451
L84544 66422
L84630 66422
L84687 66451
L84715 66508
L84715 66822
" />
<path d="M85458 66822
L85458 66222
" />
<path d="M85458 66508
L85801 66508
" />
<path d="M85801 66822
L85801 66222
" />
<path d="M86344 66822
L86344 66508
L86315 66451
L86258 66422
L86144 66422
L86087 66451
" />
<path d="M86344 66794
L86287 66822
L86144 66822
L86087 66794
L86058 66737
L86058 66680
L86087 66622
L86144 66594
L86287 66594
L86344 66565
" />
<path d="M86630 66822
L86630 66422
" />
<path d="M86630 66537
L86658 66480
L86687 66451
L86744 66422
L86801 66422
" />
<path d="M87258 66822
L87258 66222
" />
<path d="M87258 66794
L87201 66822
L87087 66822
L87030 66794
L87001 66765
L86972 66708
L86972 66537
L87001 66480
L87030 66451
L87087 66422
L87201 66422
L87258 66451
" />
<path d="M87487 66422
L87601 66822
L87715 66537
L87830 66822
L87944 66422
" />
<path d="M88430 66822
L88430 66508
L88401 66451
L88344 66422
L88230 66422
L88172 66451
" />
<path d="M88430 66794
L88372 66822
L88230 66822
L88172 66794
L88144 66737
L88144 66680
L88172 66622
L88230 66594
L88372 66594
L88430 66565
" />
<path d="M88715 66822
L88715 66422
" />
<path d="M88715 66537
L88744 66480
L88772 66451
L88830 66422
L88887 66422
" />
<path d="M89315 66794
L89258 66822
L89144 66822
L89087 66794
L89058 66737
L89058 66508
L89087 66451
L89144 66422
L89258 66422
L89315 66451
L89344 66508
L89344 66565
L89058 66622
" />
<path d="M90344 66822
L90058 66822
L90058 66222
" />
<path d="M90544 66822
L90544 66422
" />
<path d="M90544 66222
L90515 66251
L90544 66280
L90572 66251
L90544 66222
L90544 66280
" />
<path d="M91087 66794
L91030 66822
L90915 66822
L90858 66794
L90830 66765
L90801 66708
L90801 66537
L90830 66480
L90858 66451
L90915 66422
L91030 66422
L91087 66451
" />
<path d="M91572 66794
L91515 66822
L91401 66822
L91344 66794
L91315 66737
L91315 66508
L91344 66451
L91401 66422
L91515 66422
L91572 66451
L91601 66508
L91601 66565
L91315 66622
" />
<path d="M91858 66422
L91858 66822
" />
<path d="M91858 66480
L91887 66451
L91944 66422
L92030 66422
L92087 66451
L92115 66508
L92115 66822
" />
<path d="M92372 66794
L92430 66822
L92544 66822
L92601 66794
L92630 66737
L92630 66708
L92601 66651
L92544 66622
L92458 66622
L92401 66594
L92372 66537
L92372 66508
L92401 66451
L92458 66422
L92544 66422
L92601 66451
" />
<path d="M93115 66794
L93058 66822
L92944 66822
L92887 66794
L92858 66737
L92858 66508
L92887 66451
L92944 66422
L93058 66422
L93115 66451
L93144 66508
L93144 66565
L92858 66622
" />
<path d="M94030 67051
L94001 67022
L93944 66937
L93915 66880
L93887 66794
L93858 66651
L93858 66537
L93887 66394
L93915 66308
L93944 66251
L94001 66165
L94030 66137
" />
<path d="M94201 66422
L94315 66822
L94430 66537
L94544 66822
L94658 66422
" />
<path d="M94830 66422
L94944 66822
L95058 66537
L95172 66822
L95287 66422
" />
<path d="M95458 66422
L95572 66822
L95687 66537
L95801 66822
L95915 66422
" />
<path d="M96144 66765
L96172 66794
L96144 66822
L96115 66794
L96144 66765
L96144 66822
" />
<path d="M96344 66422
L96572 66422
" />
<path d="M96429 66222
L96429 66737
L96458 66794
L96515 66822
L96572 66822
" />
<path d="M97029 66822
L97029 66508
L97001 66451
L96944 66422
L96829 66422
L96772 66451
" />
<path d="M97029 66794
L96972 66822
L96829 66822
L96772 66794
L96744 66737
L96744 66680
L96772 66622
L96829 66594
L96972 66594
L97029 66565
" />
<path d="M97315 66422
L97315 67022
" />
<path d="M97315 66451
L97372 66422
L97487 66422
L97544 66451
L97572 66480
L97601 66537
L97601 66708
L97572 66765
L97544 66794
L97487 66822
L97372 66822
L97315 66794
" />
<path d="M97858 66822
L97858 66422
" />
<path d="M97858 66537
L97887 66480
L97915 66451
L97972 66422
L98029 66422
" />
<path d="M98229 66765
L98258 66794
L98229 66822
L98201 66794
L98229 66765
L98229 66822
" />
<path d="M98601 66822
L98544 66794
L98515 66765
L98487 66708
L98487 66537
L98515 66480
L98544 66451
L98601 66422
L98687 66422
L98744 66451
L98772 66480
L98801 66537
L98801 66708
L98772 66765
L98744 66794
L98687 66822
L98601 66822
" />
<path d="M99058 66822
L99058 66422
" />
<path d="M99058 66537
L99087 66480
L99115 66451
L99172 66422
L99229 66422
" />
<path d="M99687 66422
L99687 66908
L99658 66965
L99629 66994
L99572 67022
L99487 67022
L99429 66994
" />
<path d="M99687 66794
L99629 66822
L99515 66822
L99458 66794
L99429 66765
L99401 66708
L99401 66537
L99429 66480
L99458 66451
L99515 66422
L99629 66422
L99687 66451
" />
<path d="M100401 66194
L99887 66965
" />
<path d="M100715 66222
L100829 66222
L100887 66251
L100944 66308
L100972 66422
L100972 66622
L100944 66737
L100887 66794
L100829 66822
L100715 66822
L100658 66794
L100601 66737
L100572 66622
L100572 66422
L100601 66308
L100658 66251
L100715 66222
" />
<path d="M101229 66822
L101229 66222
" />
<path d="M101229 66508
L101572 66508
" />
<path d="M101572 66822
L101572 66222
" />
<path d="M102144 66822
L101858 66822
L101858 66222
" />
<path d="M102287 67051
L102315 67022
L102372 66937
L102401 66880
L102429 66794
L102458 66651
L102458 66537
L102429 66394
L102401 66308
L102372 66251
L102315 66165
L102287 66137
" />
<path d="M70230 65980
L70230 77980
" />
<path d="M70230 71980
L112230 71980
" />
<path d="M70230 65980
L112230 65980
" />
<path d="M70230 74380
L112230 74380
" />
<path d="M103430 75580
L103430 77980
" />
<path d="M70230 76780
L112230 76780
" />
<path d="M70230 75580
L112230 75580
" />
<path d="M76830 75580
L76830 76780
" />
</g>
<g style="fill:#7F7F00; fill-opacity:0.0; 
stroke:#7F7F00; stroke-width:39.3701; stroke-opacity:1; 
stroke-linecap:round; stroke-linejoin:round;">
</g>
<g style="fill:#7F7F00; fill-opacity:1.0; 
stroke:#7F7F00; stroke-width:39.3701; stroke-opacity:1; 
stroke-linecap:round; stroke-linejoin:round;">
<circle cx="56751.6" cy="41818.9" r="280.315" /> 
<circle cx="56751.6" cy="40818.9" r="280.315" /> 
<circle cx="55964.6" cy="40818.9" r="280.315" /> 
<circle cx="55964.6" cy="41818.9" r="280.315" /> 
<circle cx="54901.6" cy="43680.9" r="511.815" /> 
<circle cx="54901.6" cy="38956.9" r="511.815" /> 
<circle cx="55935" cy="52315.4" r="275.815" /> 
<circle cx="55935" cy="51315.4" r="275.815" /> 
<circle cx="55935" cy="50515.4" r="275.815" /> 
<circle cx="55935" cy="49515.4" r="275.815" /> 
<circle cx="54885" cy="53515.4" r="570.815" /> 
<circle cx="54885" cy="48115.4" r="570.815" /> 
<polyline style="fill-rule:evenodd;"
points="69576,42607
69065,42607
69065,42097
69576,42097
69576,42607
" /> 
<circle cx="74561" cy="40679.1" r="255.315" /> 
<circle cx="71561" cy="40679.1" r="255.315" /> 
<circle cx="71561" cy="39202.8" r="255.315" /> 
<circle cx="74561" cy="39202.8" r="255.315" /> 
<polyline style="fill-rule:evenodd;"
points="62587,48552
62077,48552
62077,48041
62587,48041
62587,48552
" /> 
<circle cx="62332.7" cy="47297.2" r="255.315" /> 
<circle cx="62332.7" cy="46297.2" r="255.315" /> 
<circle cx="62332.7" cy="45297.2" r="255.315" /> 
<circle cx="62332.7" cy="44297.2" r="255.315" /> 
<circle cx="76604.3" cy="52981.8" r="730.315" /> 
<circle cx="76604.3" cy="39793.8" r="730.315" /> 
<circle cx="76104.3" cy="42587.8" r="280.315" /> 
<circle cx="76104.3" cy="43687.8" r="280.315" /> 
<circle cx="76104.3" cy="44737.8" r="280.315" /> 
<circle cx="76104.3" cy="45837.8" r="280.315" /> 
<circle cx="76104.3" cy="46937.8" r="280.315" /> 
<circle cx="76104.3" cy="48037.8" r="280.315" /> 
<circle cx="76104.3" cy="49087.8" r="280.315" /> 
<polyline style="fill-rule:evenodd;"
points="75824,49907
76384,49907
76384,50468
75824,50468
75824,49907
" /> 
<circle cx="77104.3" cy="43207.8" r="280.315" /> 
<circle cx="77104.3" cy="44207.8" r="280.315" /> 
<circle cx="77104.3" cy="45307.8" r="280.315" /> 
<circle cx="77104.3" cy="46387.8" r="280.315" /> 
<circle cx="77104.3" cy="47467.8" r="280.315" /> 
<circle cx="77104.3" cy="48567.8" r="280.315" /> 
<circle cx="77104.3" cy="49647.8" r="280.315" /> 
<polyline style="fill-rule:evenodd;"
points="53744,47107
53184,47107
53184,46546
53744,46546
53744,47107
" /> 
<circle cx="53464.6" cy="45826.8" r="280.315" /> 
<circle cx="53464.6" cy="44826.8" r="280.315" /> 
</g>
<g style="fill:#BFBFBF; fill-opacity:1.0; 
stroke:#BFBFBF; stroke-width:39.3701; stroke-opacity:1; 
stroke-linecap:round; stroke-linejoin:round;">
<circle cx="60078.7" cy="43307.1" r="155.315" /> 
<circle cx="57244.1" cy="50708.7" r="155.315" /> 
<circle cx="63700.8" cy="52598.4" r="155.315" /> 
<circle cx="58818.9" cy="47401.6" r="155.315" /> 
<circle cx="62992.1" cy="42935" r="155.315" /> 
<circle cx="67952.8" cy="41968.5" r="155.315" /> 
<circle cx="70551.2" cy="52677.2" r="155.315" /> 
<circle cx="68189" cy="53543.3" r="155.315" /> 
<circle cx="71584.6" cy="42057.1" r="155.315" /> 
<circle cx="71584.6" cy="43041.3" r="155.315" /> 
<circle cx="68533.5" cy="48946.9" r="155.315" /> 
<circle cx="68533.5" cy="46584.6" r="155.315" /> 
<circle cx="72076.8" cy="44025.6" r="155.315" /> 
<circle cx="72175.2" cy="49537.4" r="155.315" /> 
<circle cx="72076.8" cy="44813" r="155.315" /> 
<circle cx="72076.8" cy="45600.4" r="155.315" /> 
<circle cx="72076.8" cy="46387.8" r="155.315" /> 
<circle cx="72076.8" cy="47175.2" r="155.315" /> 
<circle cx="72076.8" cy="47962.6" r="155.315" /> 
<circle cx="72076.8" cy="48750" r="155.315" /> 
<circle cx="72076.8" cy="50324.8" r="155.315" /> 
<circle cx="72076.8" cy="51112.2" r="155.315" /> 
<circle cx="72076.8" cy="51899.6" r="155.315" /> 
<circle cx="72076.8" cy="52687" r="155.315" /> 
<circle cx="72076.8" cy="53474.4" r="155.315" /> 
<circle cx="60551.2" cy="41889.8" r="155.315" /> 
<circle cx="60551.2" cy="41023.6" r="155.315" /> 
<circle cx="62283.5" cy="50551.2" r="155.315" /> 
<circle cx="59153.5" cy="46063" r="155.315" /> 
<circle cx="61732.3" cy="50551.2" r="155.315" /> 
<circle cx="59133.9" cy="46614.2" r="155.315" /> 
<circle cx="61181.1" cy="50551.2" r="155.315" /> 
<circle cx="59133.9" cy="45590.6" r="155.315" /> 
<circle cx="59330.7" cy="50472.4" r="155.315" /> 
<circle cx="60315" cy="50866.1" r="155.315" /> 
<circle cx="59133.9" cy="45118.1" r="155.315" /> 
<circle cx="73750" cy="41565" r="155.315" /> 
</g>
<g style="fill:#009F00; fill-opacity:1.0; 
stroke:#009F00; stroke-width:196.85; stroke-opacity:1; 
stroke-linecap:round; stroke-linejoin:round;">
<path d="M56259 42165
L56259 42401
" />
<path d="M56259 42401
L56220 42440
" />
<path d="M55964 41818
L55964 41870
" />
<path d="M55964 41870
L56259 42165
" />
<path d="M56259 42165
L56299 42204
" />
</g>
<g style="fill:#009F00; fill-opacity:1.0; 
stroke:#009F00; stroke-width:78.7402; stroke-opacity:1; 
stroke-linecap:round; stroke-linejoin:round;">
<path d="M62992 42935
L62992 42913
" />
</g>
<g style="fill:#009F00; fill-opacity:1.0; 
stroke:#009F00; stroke-width:196.85; stroke-opacity:1; 
stroke-linecap:round; stroke-linejoin:round;">
<path d="M55964 40818
L55964 41003
" />
<path d="M56476 50774
L55935 51315
" />
<path d="M56476 49586
L56476 50774
" />
<path d="M57165 48897
L56476 49586
" />
<path d="M57165 42204
L57165 48897
" />
<path d="M57263 42106
L57165 42204
" />
<path d="M57263 41515
L57263 42106
" />
<path d="M57066 41318
L57263 41515
" />
<path d="M56279 41318
L57066 41318
" />
<path d="M55964 41003
L56279 41318
" />
</g>
<g style="fill:#009F00; fill-opacity:1.0; 
stroke:#009F00; stroke-width:78.7402; stroke-opacity:1; 
stroke-linecap:round; stroke-linejoin:round;">
<path d="M62332 45297
L62147 45297
" />
<path d="M60551 43700
L60551 41889
" />
<path d="M62147 45297
L60551 43700
" />
<path d="M60866 41732
L60629 41496
" />
<path d="M60551 41417
L60551 41023
" />
<path d="M60629 41496
L60551 41417
" />
<path d="M60944 43779
L60787 43622
" />
<path d="M60787 42125
L60866 42047
" />
<path d="M60787 43622
L60787 42125
" />
<path d="M60866 41732
L60866 42047
" />
<path d="M61462 44297
L62332 44297
" />
<path d="M60944 43779
L61462 44297
" />
<path d="M59448 46299
L59448 46614
" />
<path d="M61968 50236
L62283 50551
" />
<path d="M61968 49133
L61968 50236
" />
<path d="M59448 46614
L61968 49133
" />
<path d="M59153 46062
L59448 46299
" />
<path d="M61732 49212
L61732 50551
" />
<path d="M59133 46614
L61732 49212
" />
<path d="M58740 45905
L58740 45826
" />
<path d="M61181 50314
L61496 50000
" />
<path d="M61496 50000
L61496 49291
" />
<path d="M61496 49291
L59212 47007
" />
<path d="M59212 47007
L59055 47007
" />
<path d="M59055 47007
L58740 46692
" />
<path d="M58740 46692
L58740 45905
" />
<path d="M61181 50551
L61181 50314
" />
<path d="M58976 45590
L59133 45590
" />
<path d="M58740 45826
L58976 45590
" />
<path d="M59921 50472
L59330 50472
" />
<path d="M60314 50866
L59921 50472
" />
<path d="M59685 46062
L59685 45275
" />
<path d="M59527 45118
L59133 45118
" />
<path d="M59685 45275
L59527 45118
" />
<path d="M61446 48297
L62332 48297
" />
<path d="M59685 46535
L61446 48297
" />
<path d="M59685 46062
L59685 46535
" />
<path d="M74561 40753
L74561 40679
" />
<path d="M73750 41564
L74561 40753
" />
<path d="M71561 39202
L72470 39202
" />
<path d="M72470 39202
L73946 40679
" />
<path d="M73946 40679
L74561 40679
" />
</g>
<g style="fill:#009F00; fill-opacity:1.0; 
stroke:#009F00; stroke-width:393.701; stroke-opacity:1; 
stroke-linecap:round; stroke-linejoin:round;">
<path d="M55935 49515
L55935 49498
" />
<path d="M56751 48681
L56751 41818
" />
<path d="M55935 49498
L56751 48681
" />
</g>
<g style="fill:#009F00; fill-opacity:1.0; 
stroke:#009F00; stroke-width:196.85; stroke-opacity:1; 
stroke-linecap:round; stroke-linejoin:round;">
<path d="M54015 38661
L54606 38661
" />
<path d="M54606 38661
L54901 38956
" />
</g>
<g style="fill:#009F00; fill-opacity:1.0; 
stroke:#009F00; stroke-width:39.3701; stroke-opacity:1; 
stroke-linecap:round; stroke-linejoin:round;">
<polyline style="fill-rule:evenodd;"
points="77981,50603
77654,50821
77654,49538
77570,49336
77416,49181
77237,49107
77415,49034
77570,48879
77654,48677
77654,48458
77570,48256
77416,48101
77214,48017
77213,48017
77415,47934
77570,47779
77654,47577
77654,47358
77570,47156
77416,47001
77237,46927
77415,46854
77570,46699
77654,46497
77654,46278
77570,46076
77416,45921
77237,45847
77415,45774
77570,45619
77654,45417
77654,45198
77570,44996
77416,44841
77214,44757
77213,44757
77415,44674
77570,44519
77654,44317
77654,44098
77570,43896
77416,43741
77334,43707
77415,43674
77570,43519
77654,43317
77654,43098
77570,42896
77416,42741
77214,42657
76995,42657
76793,42741
76654,42879
76654,42478
76570,42276
76416,42121
76214,42037
75995,42037
75793,42121
75638,42275
75554,42477
75554,42696
75637,42898
75792,43053
75994,43137
76090,43137
75967,43143
75816,43206
75789,43301
76104,43617
76419,43301
76392,43206
76199,43137
76213,43137
76415,43054
76570,42899
76654,42697
76654,42478
76654,42879
76638,42895
76554,43097
76554,43316
76637,43518
76792,43673
76874,43707
76793,43741
76659,43875
76659,43769
76648,43551
76585,43399
76490,43372
76175,43687
76490,44002
76585,43975
76659,43769
76659,43875
76638,43895
76554,44097
76554,44316
76637,44518
76792,44673
76994,44757
77213,44757
76995,44757
76793,44841
76638,44995
76554,45197
76554,45416
76637,45618
76792,45773
76970,45847
76793,45921
76638,46075
76554,46277
76554,46496
76637,46698
76792,46853
76970,46927
76793,47001
76638,47155
76554,47357
76554,47576
76637,47778
76792,47933
76994,48017
77213,48017
76995,48017
76793,48101
76638,48255
76554,48457
76554,48676
76637,48878
76792,49033
76970,49107
76793,49181
76638,49335
76554,49537
76554,49684
76546,49675
76454,49637
76354,49637
76213,49637
76415,49554
76570,49399
76654,49197
76654,48978
76570,48776
76416,48621
76274,48562
76415,48504
76570,48349
76654,48147
76654,47928
76570,47726
76416,47571
76214,47487
76213,47487
76415,47404
76570,47249
76654,47047
76654,46828
76570,46626
76416,46471
76214,46387
76213,46387
76415,46304
76570,46149
76654,45947
76654,45728
76570,45526
76416,45371
76214,45287
76213,45287
76415,45204
76570,45049
76654,44847
76654,44628
76570,44426
76416,44271
76280,44215
76392,44169
76419,44073
76104,43758
76033,43829
76033,43687
75718,43372
75623,43399
75549,43606
75560,43824
75623,43975
75718,44002
76033,43687
76033,43829
75789,44073
75816,44169
75936,44211
75793,44271
75638,44425
75554,44627
75554,44846
75637,45048
75792,45203
75994,45287
76213,45287
75995,45287
75793,45371
75638,45525
75554,45727
75554,45946
75637,46148
75792,46303
75994,46387
76213,46387
75995,46387
75793,46471
75638,46625
75554,46827
75554,47046
75637,47248
75792,47403
75994,47487
76213,47487
75995,47487
75793,47571
75638,47725
75554,47927
75554,48146
75637,48348
75792,48503
75934,48562
75793,48621
75638,48775
75554,48977
75554,49196
75637,49398
75792,49553
75994,49637
76054,49637
75754,49637
75662,49675
75592,49745
75554,49837
75554,49937
75554,50537
75592,50629
75662,50699
75754,50737
75853,50737
76453,50737
76545,50699
76616,50629
76654,50537
76654,50438
76654,49975
76792,50113
76994,50197
77213,50197
77415,50114
77570,49959
77654,49757
77654,49538
77654,50821
75383,52335
75383,54201
75086,54201
75086,40575
75086,39098
75006,38905
74858,38757
74665,38677
74457,38677
74264,38757
74116,38904
74036,39097
74035,39306
74115,39499
74263,39647
74456,39727
74664,39727
74858,39648
75005,39500
75085,39307
75086,39098
75086,40575
75006,40382
74858,40234
74665,40154
74457,40154
74264,40233
74116,40381
74112,40389
74066,40389
72675,38998
72581,38935
72470,38913
72009,38913
72006,38905
71858,38757
71665,38677
71457,38677
71264,38757
71116,38904
71036,39097
71035,39306
71115,39499
71263,39647
71456,39727
71664,39727
71858,39648
72005,39500
72009,39492
72350,39492
73742,40883
73742,40883
73804,40925
73836,40946
73836,40946
73938,40966
73765,41139
73665,41139
73509,41204
73389,41323
73325,41480
73324,41649
73389,41805
73508,41925
73665,41989
73834,41990
73990,41925
74110,41806
74174,41649
74175,41549
74520,41204
74664,41204
74858,41124
75005,40976
75085,40784
75086,40575
75086,54201
72086,54201
72086,40575
72006,40382
71858,40234
71665,40154
71457,40154
71264,40233
71116,40381
71036,40574
71035,40783
71115,40976
71263,41123
71456,41204
71664,41204
71858,41124
72005,40976
72085,40784
72086,40575
72086,54201
69845,54201
69845,42676
69845,42027
69807,41935
69737,41865
69645,41827
69546,41827
69433,41827
69370,41889
69370,42302
69783,42302
69845,42239
69845,42027
69845,42676
69845,42464
69783,42402
69370,42402
69370,42814
69433,42877
69546,42877
69645,42877
69737,42839
69807,42768
69845,42676
69845,54201
69270,54201
69270,42814
69270,42402
69270,42302
69270,41889
69208,41827
69095,41827
68995,41827
68904,41865
68833,41935
68795,42027
68795,42239
68858,42302
69270,42302
69270,42402
68858,42402
68795,42464
68795,42676
68833,42768
68904,42839
68995,42877
69095,42877
69208,42877
69270,42814
69270,54201
67687,54201
67610,38553
75463,38553
75541,40501
77981,41996
77981,50603
" /> 
</g>
<g style="fill:#009F00; fill-opacity:0.0; 
stroke:#009F00; stroke-width:100; stroke-opacity:1; 
stroke-linecap:round; stroke-linejoin:round;">
<polyline fill="none;"
points="77981,50603
77654,50821
77654,49538
77570,49336
77416,49181
77237,49107
77415,49034
77570,48879
77654,48677
77654,48458
77570,48256
77416,48101
77214,48017
77213,48017
77415,47934
77570,47779
77654,47577
77654,47358
77570,47156
77416,47001
77237,46927
77415,46854
77570,46699
77654,46497
77654,46278
77570,46076
77416,45921
77237,45847
77415,45774
77570,45619
77654,45417
77654,45198
77570,44996
77416,44841
77214,44757
77213,44757
77415,44674
77570,44519
77654,44317
77654,44098
77570,43896
77416,43741
77334,43707
77415,43674
77570,43519
77654,43317
77654,43098
77570,42896
77416,42741
77214,42657
76995,42657
76793,42741
76654,42879
76654,42478
76570,42276
76416,42121
76214,42037
75995,42037
75793,42121
75638,42275
75554,42477
75554,42696
75637,42898
75792,43053
75994,43137
76090,43137
75967,43143
75816,43206
75789,43301
76104,43617
76419,43301
76392,43206
76199,43137
76213,43137
76415,43054
76570,42899
76654,42697
76654,42478
76654,42879
76638,42895
76554,43097
76554,43316
76637,43518
76792,43673
76874,43707
76793,43741
76659,43875
76659,43769
76648,43551
76585,43399
76490,43372
76175,43687
76490,44002
76585,43975
76659,43769
76659,43875
76638,43895
76554,44097
76554,44316
76637,44518
76792,44673
76994,44757
77213,44757
76995,44757
76793,44841
76638,44995
76554,45197
76554,45416
76637,45618
76792,45773
76970,45847
76793,45921
76638,46075
76554,46277
76554,46496
76637,46698
76792,46853
76970,46927
76793,47001
76638,47155
76554,47357
76554,47576
76637,47778
76792,47933
76994,48017
77213,48017
76995,48017
76793,48101
76638,48255
76554,48457
76554,48676
76637,48878
76792,49033
76970,49107
76793,49181
76638,49335
76554,49537
76554,49684
76546,49675
76454,49637
76354,49637
76213,49637
76415,49554
76570,49399
76654,49197
76654,48978
76570,48776
76416,48621
76274,48562
76415,48504
76570,48349
76654,48147
76654,47928
76570,47726
76416,47571
76214,47487
76213,47487
76415,47404
76570,47249
76654,47047
76654,46828
76570,46626
76416,46471
76214,46387
76213,46387
76415,46304
76570,46149
76654,45947
76654,45728
76570,45526
76416,45371
76214,45287
76213,45287
76415,45204
76570,45049
76654,44847
76654,44628
76570,44426
76416,44271
76280,44215
76392,44169
76419,44073
76104,43758
76033,43829
76033,43687
75718,43372
75623,43399
75549,43606
75560,43824
75623,43975
75718,44002
76033,43687
76033,43829
75789,44073
75816,44169
75936,44211
75793,44271
75638,44425
75554,44627
75554,44846
75637,45048
75792,45203
75994,45287
76213,45287
75995,45287
75793,45371
75638,45525
75554,45727
75554,45946
75637,46148
75792,46303
75994,46387
76213,46387
75995,46387
75793,46471
75638,46625
75554,46827
75554,47046
75637,47248
75792,47403
75994,47487
76213,47487
75995,47487
75793,47571
75638,47725
75554,47927
75554,48146
75637,48348
75792,48503
75934,48562
75793,48621
75638,48775
75554,48977
75554,49196
75637,49398
75792,49553
75994,49637
76054,49637
75754,49637
75662,49675
75592,49745
75554,49837
75554,49937
75554,50537
75592,50629
75662,50699
75754,50737
75853,50737
76453,50737
76545,50699
76616,50629
76654,50537
76654,50438
76654,49975
76792,50113
76994,50197
77213,50197
77415,50114
77570,49959
77654,49757
77654,49538
77654,50821
75383,52335
75383,54201
75086,54201
75086,40575
75086,39098
75006,38905
74858,38757
74665,38677
74457,38677
74264,38757
74116,38904
74036,39097
74035,39306
74115,39499
74263,39647
74456,39727
74664,39727
74858,39648
75005,39500
75085,39307
75086,39098
75086,40575
75006,40382
74858,40234
74665,40154
74457,40154
74264,40233
74116,40381
74112,40389
74066,40389
72675,38998
72581,38935
72470,38913
72009,38913
72006,38905
71858,38757
71665,38677
71457,38677
71264,38757
71116,38904
71036,39097
71035,39306
71115,39499
71263,39647
71456,39727
71664,39727
71858,39648
72005,39500
72009,39492
72350,39492
73742,40883
73742,40883
73804,40925
73836,40946
73836,40946
73938,40966
73765,41139
73665,41139
73509,41204
73389,41323
73325,41480
73324,41649
73389,41805
73508,41925
73665,41989
73834,41990
73990,41925
74110,41806
74174,41649
74175,41549
74520,41204
74664,41204
74858,41124
75005,40976
75085,40784
75086,40575
75086,54201
72086,54201
72086,40575
72006,40382
71858,40234
71665,40154
71457,40154
71264,40233
71116,40381
71036,40574
71035,40783
71115,40976
71263,41123
71456,41204
71664,41204
71858,41124
72005,40976
72085,40784
72086,40575
72086,54201
69845,54201
69845,42676
69845,42027
69807,41935
69737,41865
69645,41827
69546,41827
69433,41827
69370,41889
69370,42302
69783,42302
69845,42239
69845,42027
69845,42676
69845,42464
69783,42402
69370,42402
69370,42814
69433,42877
69546,42877
69645,42877
69737,42839
69807,42768
69845,42676
69845,54201
69270,54201
69270,42814
69270,42402
69270,42302
69270,41889
69208,41827
69095,41827
68995,41827
68904,41865
68833,41935
68795,42027
68795,42239
68858,42302
69270,42302
69270,42402
68858,42402
68795,42464
68795,42676
68833,42768
68904,42839
68995,42877
69095,42877
69208,42877
69270,42814
69270,54201
67687,54201
67610,38553
75463,38553
75541,40501
77981,41996
77981,50603
" /> 
</g>
<g style="fill:#009F00; fill-opacity:1.0; 
stroke:#009F00; stroke-width:39.3701; stroke-opacity:1; 
stroke-linecap:round; stroke-linejoin:round;">
<polyline style="fill-rule:evenodd;"
points="54977,43686
54907,43757
54901,43751
54830,43822
54830,43680
54348,43198
54228,43253
54116,43543
54123,43854
54228,44107
54348,44163
54830,43680
54830,43822
54418,44234
54474,44353
54482,44356
54280,44457
54280,47264
54418,47402
54359,47519
54885,48044
54890,48039
54961,48109
54955,48115
54961,48120
54890,48191
54885,48186
54814,48256
54814,48115
54289,47590
54163,47652
54041,47964
54047,48298
54163,48577
54289,48640
54814,48115
54814,48256
54359,48711
54374,48741
54280,48787
54280,52376
54509,52757
54422,52793
54359,52919
54885,53444
54890,53439
54960,53508
54961,53510
54955,53515
54961,53520
54890,53591
54885,53586
54814,53656
54814,53515
54289,52990
54163,53052
54041,53364
54047,53698
54163,53977
54289,54040
54814,53515
54814,53656
54359,54111
54422,54236
54534,54280
54014,54280
54014,45717
53931,45515
53776,45360
53694,45326
53775,45293
53930,45138
54014,44936
54014,44717
53931,44515
53776,44360
53574,44276
53355,44276
53153,44360
52998,44514
52914,44716
52914,44935
52998,45137
53152,45292
53234,45326
53153,45360
52998,45514
52914,45716
52914,45935
52998,46137
53136,46276
53115,46276
53023,46314
52952,46384
52914,46476
52914,46576
52914,47176
52952,47268
53022,47338
53114,47376
53214,47376
53814,47376
53905,47338
53976,47268
54014,47176
54014,47077
54014,46477
53976,46385
53906,46314
53814,46276
53792,46276
53930,46138
54014,45936
54014,45717
54014,54280
51231,54280
51231,38632
54189,38632
54116,38819
54123,39130
54228,39383
54348,39439
54830,38956
54825,38951
54896,38880
54901,38886
54907,38880
54977,38951
54972,38956
54977,38962
54907,39033
54901,39027
54418,39510
54474,39629
54481,39632
54280,39732
54280,42944
54462,43034
54418,43127
54901,43610
54907,43604
54977,43675
54972,43680
54977,43686
" /> 
</g>
<g style="fill:#009F00; fill-opacity:0.0; 
stroke:#009F00; stroke-width:100; stroke-opacity:1; 
stroke-linecap:round; stroke-linejoin:round;">
<polyline fill="none;"
points="54977,43686
54907,43757
54901,43751
54830,43822
54830,43680
54348,43198
54228,43253
54116,43543
54123,43854
54228,44107
54348,44163
54830,43680
54830,43822
54418,44234
54474,44353
54482,44356
54280,44457
54280,47264
54418,47402
54359,47519
54885,48044
54890,48039
54961,48109
54955,48115
54961,48120
54890,48191
54885,48186
54814,48256
54814,48115
54289,47590
54163,47652
54041,47964
54047,48298
54163,48577
54289,48640
54814,48115
54814,48256
54359,48711
54374,48741
54280,48787
54280,52376
54509,52757
54422,52793
54359,52919
54885,53444
54890,53439
54960,53508
54961,53510
54955,53515
54961,53520
54890,53591
54885,53586
54814,53656
54814,53515
54289,52990
54163,53052
54041,53364
54047,53698
54163,53977
54289,54040
54814,53515
54814,53656
54359,54111
54422,54236
54534,54280
54014,54280
54014,45717
53931,45515
53776,45360
53694,45326
53775,45293
53930,45138
54014,44936
54014,44717
53931,44515
53776,44360
53574,44276
53355,44276
53153,44360
52998,44514
52914,44716
52914,44935
52998,45137
53152,45292
53234,45326
53153,45360
52998,45514
52914,45716
52914,45935
52998,46137
53136,46276
53115,46276
53023,46314
52952,46384
52914,46476
52914,46576
52914,47176
52952,47268
53022,47338
53114,47376
53214,47376
53814,47376
53905,47338
53976,47268
54014,47176
54014,47077
54014,46477
53976,46385
53906,46314
53814,46276
53792,46276
53930,46138
54014,45936
54014,45717
54014,54280
51231,54280
51231,38632
54189,38632
54116,38819
54123,39130
54228,39383
54348,39439
54830,38956
54825,38951
54896,38880
54901,38886
54907,38880
54977,38951
54972,38956
54977,38962
54907,39033
54901,39027
54418,39510
54474,39629
54481,39632
54280,39732
54280,42944
54462,43034
54418,43127
54901,43610
54907,43604
54977,43675
54972,43680
54977,43686
" /> 
</g>
<g style="fill:#009F00; fill-opacity:1.0; 
stroke:#009F00; stroke-width:39.3701; stroke-opacity:1; 
stroke-linecap:round; stroke-linejoin:round;">
<polyline style="fill-rule:evenodd;"
points="64751,51467
64675,54201
62862,54201
62862,46373
62857,46284
62857,45193
62778,45000
62630,44852
62497,44797
62629,44742
62777,44595
62857,44402
62857,44193
62778,44000
62630,43852
62437,43772
62228,43772
62035,43851
61887,43999
61884,44007
61582,44007
61149,43574
61149,43574
61149,43574
61076,43502
61076,42242
61076,42242
61112,42189
61133,42157
61133,42157
61155,42047
61155,42047
61155,41732
61133,41621
61070,41527
61070,41527
60859,41316
60911,41264
60976,41108
60976,40939
60911,40783
60792,40663
60636,40598
60467,40598
60310,40663
60191,40782
60126,40938
60126,41107
60190,41264
60261,41335
60261,41417
60283,41528
60295,41544
60191,41648
60126,41804
60126,41973
60190,42130
60261,42201
60261,43700
60283,43811
60346,43905
61807,45366
61807,45401
61887,45594
62034,45742
62161,45794
62059,45836
62035,45929
62332,46226
62629,45929
62605,45836
62495,45797
62629,45742
62777,45595
62857,45402
62857,45193
62857,46284
62851,46164
62793,46024
62700,46000
62403,46297
62700,46594
62793,46570
62862,46373
62862,54201
62857,54201
62857,47193
62778,47000
62630,46852
62503,46799
62605,46757
62629,46665
62332,46367
62261,46438
62261,46297
61964,46000
61872,46024
61802,46221
61814,46429
61872,46570
61964,46594
62261,46297
62261,46438
62035,46665
62059,46757
62169,46796
62035,46851
61887,46999
61807,47192
61807,47401
61887,47594
62034,47742
62107,47772
62008,47772
61916,47810
61845,47880
61807,47972
61807,48007
61566,48007
59974,46415
59974,46062
59974,45275
59956,45183
59952,45164
59952,45164
59889,45070
59889,45070
59732,44913
59638,44850
59527,44828
59445,44828
59374,44758
59218,44693
59049,44693
58893,44757
58773,44877
58708,45033
58708,45202
58771,45354
58749,45408
58535,45622
58472,45716
58450,45826
58450,45905
58450,46692
58472,46803
58535,46897
58850,47212
58850,47212
58913,47254
58944,47275
58944,47275
59055,47297
59055,47297
59092,47297
61206,49411
61206,49880
60976,50110
60913,50204
60910,50220
60821,50310
60756,50466
60756,50635
60820,50791
60940,50911
61096,50976
61265,50976
61421,50911
61456,50876
61491,50911
61647,50976
61816,50976
61972,50911
62007,50876
62042,50911
62198,50976
62367,50976
62523,50911
62643,50792
62708,50636
62708,50467
62643,50310
62524,50191
62368,50126
62267,50126
62257,50116
62257,49133
62257,49133
62235,49023
62235,49023
62215,48991
62173,48929
62173,48929
62066,48822
62107,48822
62657,48822
62749,48784
62819,48714
62857,48622
62857,48522
62857,47972
62819,47880
62749,47810
62657,47772
62558,47772
62557,47772
62629,47742
62777,47595
62857,47402
62857,47193
62857,54201
60740,54201
60740,50781
60675,50625
60556,50506
60399,50441
60299,50441
60125,50267
60031,50205
59921,50183
59642,50183
59571,50112
59415,50047
59246,50047
59090,50111
58970,50231
58905,50387
58905,50556
58970,50712
59089,50832
59245,50897
59414,50897
59571,50832
59642,50761
59801,50761
59889,50850
59889,50950
59954,51106
60073,51226
60230,51291
60399,51291
60555,51226
60675,51107
60739,50951
60740,50781
60740,54201
57612,54201
57612,42106
57612,41515
57612,41515
57612,41515
57585,41382
57510,41269
57510,41269
57313,41072
57257,41035
57301,40928
57301,40709
57218,40507
57063,40352
56861,40268
56642,40268
56440,40352
56358,40434
56276,40352
56074,40268
55855,40268
55653,40352
55498,40506
55414,40709
55414,40927
55498,41130
55652,41284
55728,41316
55676,41337
55649,41432
55964,41748
55970,41742
56040,41813
56035,41818
56040,41824
55970,41895
55964,41889
55893,41960
55893,41818
55578,41503
55483,41531
55409,41737
55420,41955
55483,42106
55578,42134
55893,41818
55893,41960
55649,42204
55676,42300
55882,42373
56101,42362
56252,42300
56279,42204
56279,42204
56304,42229
56304,48496
56279,48521
55831,48969
55827,48969
55626,49052
55472,49205
55389,49406
55389,49623
55472,49823
55625,49977
55716,50015
55626,50052
55472,50205
55389,50406
55389,50623
55472,50823
55563,50915
55472,51005
55389,51206
55389,51423
55472,51623
55625,51777
55710,51812
55649,51837
55623,51932
55935,52244
56246,51932
56220,51837
56155,51814
56243,51778
56397,51624
56480,51424
56480,51262
56722,51020
56722,51020
56722,51020
56798,50907
56824,50774
56824,49730
57411,49144
57411,49144
57411,49144
57487,49030
57513,48897
57513,48897
57513,48897
57513,42347
57513,42347
57585,42239
57612,42106
57612,54201
56485,54201
56485,52396
56474,52179
56412,52030
56317,52003
56005,52315
56317,52627
56412,52600
56485,52396
56485,54201
56478,54201
56246,53960
56246,52698
55935,52386
55864,52456
55864,52315
55552,52003
55457,52030
55384,52234
55395,52451
55457,52600
55552,52627
55864,52315
55864,52456
55623,52698
55649,52792
55854,52865
56071,52854
56220,52792
56246,52698
56246,53960
55725,53415
55725,53348
55597,53039
55361,52803
55052,52675
55017,52674
54774,52420
54774,49318
55719,48688
55719,48297
55725,48283
55725,47948
55719,47933
55719,42961
54774,42488
54774,39950
57124,38632
64123,38554
64123,44063
64003,44123
63178,44123
63178,51123
63522,51467
64751,51467
" /> 
</g>
<g style="fill:#009F00; fill-opacity:0.0; 
stroke:#009F00; stroke-width:100; stroke-opacity:1; 
stroke-linecap:round; stroke-linejoin:round;">
<polyline fill="none;"
points="64751,51467
64675,54201
62862,54201
62862,46373
62857,46284
62857,45193
62778,45000
62630,44852
62497,44797
62629,44742
62777,44595
62857,44402
62857,44193
62778,44000
62630,43852
62437,43772
62228,43772
62035,43851
61887,43999
61884,44007
61582,44007
61149,43574
61149,43574
61149,43574
61076,43502
61076,42242
61076,42242
61112,42189
61133,42157
61133,42157
61155,42047
61155,42047
61155,41732
61133,41621
61070,41527
61070,41527
60859,41316
60911,41264
60976,41108
60976,40939
60911,40783
60792,40663
60636,40598
60467,40598
60310,40663
60191,40782
60126,40938
60126,41107
60190,41264
60261,41335
60261,41417
60283,41528
60295,41544
60191,41648
60126,41804
60126,41973
60190,42130
60261,42201
60261,43700
60283,43811
60346,43905
61807,45366
61807,45401
61887,45594
62034,45742
62161,45794
62059,45836
62035,45929
62332,46226
62629,45929
62605,45836
62495,45797
62629,45742
62777,45595
62857,45402
62857,45193
62857,46284
62851,46164
62793,46024
62700,46000
62403,46297
62700,46594
62793,46570
62862,46373
62862,54201
62857,54201
62857,47193
62778,47000
62630,46852
62503,46799
62605,46757
62629,46665
62332,46367
62261,46438
62261,46297
61964,46000
61872,46024
61802,46221
61814,46429
61872,46570
61964,46594
62261,46297
62261,46438
62035,46665
62059,46757
62169,46796
62035,46851
61887,46999
61807,47192
61807,47401
61887,47594
62034,47742
62107,47772
62008,47772
61916,47810
61845,47880
61807,47972
61807,48007
61566,48007
59974,46415
59974,46062
59974,45275
59956,45183
59952,45164
59952,45164
59889,45070
59889,45070
59732,44913
59638,44850
59527,44828
59445,44828
59374,44758
59218,44693
59049,44693
58893,44757
58773,44877
58708,45033
58708,45202
58771,45354
58749,45408
58535,45622
58472,45716
58450,45826
58450,45905
58450,46692
58472,46803
58535,46897
58850,47212
58850,47212
58913,47254
58944,47275
58944,47275
59055,47297
59055,47297
59092,47297
61206,49411
61206,49880
60976,50110
60913,50204
60910,50220
60821,50310
60756,50466
60756,50635
60820,50791
60940,50911
61096,50976
61265,50976
61421,50911
61456,50876
61491,50911
61647,50976
61816,50976
61972,50911
62007,50876
62042,50911
62198,50976
62367,50976
62523,50911
62643,50792
62708,50636
62708,50467
62643,50310
62524,50191
62368,50126
62267,50126
62257,50116
62257,49133
62257,49133
62235,49023
62235,49023
62215,48991
62173,48929
62173,48929
62066,48822
62107,48822
62657,48822
62749,48784
62819,48714
62857,48622
62857,48522
62857,47972
62819,47880
62749,47810
62657,47772
62558,47772
62557,47772
62629,47742
62777,47595
62857,47402
62857,47193
62857,54201
60740,54201
60740,50781
60675,50625
60556,50506
60399,50441
60299,50441
60125,50267
60031,50205
59921,50183
59642,50183
59571,50112
59415,50047
59246,50047
59090,50111
58970,50231
58905,50387
58905,50556
58970,50712
59089,50832
59245,50897
59414,50897
59571,50832
59642,50761
59801,50761
59889,50850
59889,50950
59954,51106
60073,51226
60230,51291
60399,51291
60555,51226
60675,51107
60739,50951
60740,50781
60740,54201
57612,54201
57612,42106
57612,41515
57612,41515
57612,41515
57585,41382
57510,41269
57510,41269
57313,41072
57257,41035
57301,40928
57301,40709
57218,40507
57063,40352
56861,40268
56642,40268
56440,40352
56358,40434
56276,40352
56074,40268
55855,40268
55653,40352
55498,40506
55414,40709
55414,40927
55498,41130
55652,41284
55728,41316
55676,41337
55649,41432
55964,41748
55970,41742
56040,41813
56035,41818
56040,41824
55970,41895
55964,41889
55893,41960
55893,41818
55578,41503
55483,41531
55409,41737
55420,41955
55483,42106
55578,42134
55893,41818
55893,41960
55649,42204
55676,42300
55882,42373
56101,42362
56252,42300
56279,42204
56279,42204
56304,42229
56304,48496
56279,48521
55831,48969
55827,48969
55626,49052
55472,49205
55389,49406
55389,49623
55472,49823
55625,49977
55716,50015
55626,50052
55472,50205
55389,50406
55389,50623
55472,50823
55563,50915
55472,51005
55389,51206
55389,51423
55472,51623
55625,51777
55710,51812
55649,51837
55623,51932
55935,52244
56246,51932
56220,51837
56155,51814
56243,51778
56397,51624
56480,51424
56480,51262
56722,51020
56722,51020
56722,51020
56798,50907
56824,50774
56824,49730
57411,49144
57411,49144
57411,49144
57487,49030
57513,48897
57513,48897
57513,48897
57513,42347
57513,42347
57585,42239
57612,42106
57612,54201
56485,54201
56485,52396
56474,52179
56412,52030
56317,52003
56005,52315
56317,52627
56412,52600
56485,52396
56485,54201
56478,54201
56246,53960
56246,52698
55935,52386
55864,52456
55864,52315
55552,52003
55457,52030
55384,52234
55395,52451
55457,52600
55552,52627
55864,52315
55864,52456
55623,52698
55649,52792
55854,52865
56071,52854
56220,52792
56246,52698
56246,53960
55725,53415
55725,53348
55597,53039
55361,52803
55052,52675
55017,52674
54774,52420
54774,49318
55719,48688
55719,48297
55725,48283
55725,47948
55719,47933
55719,42961
54774,42488
54774,39950
57124,38632
64123,38554
64123,44063
64003,44123
63178,44123
63178,51123
63522,51467
64751,51467
" /> 
</g>
<g style="fill:#FFFFFF; fill-opacity:0.0; 
stroke:#FFFFFF; stroke-width:39.3701; stroke-opacity:1; 
stroke-linecap:round; stroke-linejoin:round;">
</g>
<g style="fill:#FFFFFF; fill-opacity:1.0; 
stroke:#FFFFFF; stroke-width:39.3701; stroke-opacity:1; 
stroke-linecap:round; stroke-linejoin:round;">
<circle cx="60078.7" cy="43307.1" r="105.315" /> 
<circle cx="57244.1" cy="50708.7" r="105.315" /> 
<circle cx="63700.8" cy="52598.4" r="105.315" /> 
<circle cx="58818.9" cy="47401.6" r="105.315" /> 
<circle cx="62992.1" cy="42935" r="105.315" /> 
<circle cx="67952.8" cy="41968.5" r="105.315" /> 
<circle cx="70551.2" cy="52677.2" r="105.315" /> 
<circle cx="68189" cy="53543.3" r="105.315" /> 
<circle cx="71584.6" cy="42057.1" r="105.315" /> 
<circle cx="71584.6" cy="43041.3" r="105.315" /> 
<circle cx="68533.5" cy="48946.9" r="105.315" /> 
<circle cx="68533.5" cy="46584.6" r="105.315" /> 
<circle cx="72076.8" cy="44025.6" r="105.315" /> 
<circle cx="72175.2" cy="49537.4" r="105.315" /> 
<circle cx="72076.8" cy="44813" r="105.315" /> 
<circle cx="72076.8" cy="45600.4" r="105.315" /> 
<circle cx="72076.8" cy="46387.8" r="105.315" /> 
<circle cx="72076.8" cy="47175.2" r="105.315" /> 
<circle cx="72076.8" cy="47962.6" r="105.315" /> 
<circle cx="72076.8" cy="48750" r="105.315" /> 
<circle cx="72076.8" cy="50324.8" r="105.315" /> 
<circle cx="72076.8" cy="51112.2" r="105.315" /> 
<circle cx="72076.8" cy="51899.6" r="105.315" /> 
<circle cx="72076.8" cy="52687" r="105.315" /> 
<circle cx="72076.8" cy="53474.4" r="105.315" /> 
<circle cx="60551.2" cy="41889.8" r="105.315" /> 
<circle cx="60551.2" cy="41023.6" r="105.315" /> 
<circle cx="62283.5" cy="50551.2" r="105.315" /> 
<circle cx="59153.5" cy="46063" r="105.315" /> 
<circle cx="61732.3" cy="50551.2" r="105.315" /> 
<circle cx="59133.9" cy="46614.2" r="105.315" /> 
<circle cx="61181.1" cy="50551.2" r="105.315" /> 
<circle cx="59133.9" cy="45590.6" r="105.315" /> 
<circle cx="59330.7" cy="50472.4" r="105.315" /> 
<circle cx="60315" cy="50866.1" r="105.315" /> 
<circle cx="59133.9" cy="45118.1" r="105.315" /> 
<circle cx="73750" cy="41565" r="105.315" /> 
<circle cx="56751.6" cy="41818.9" r="140.315" /> 
<circle cx="56751.6" cy="40818.9" r="140.315" /> 
<circle cx="55964.6" cy="40818.9" r="140.315" /> 
<circle cx="55964.6" cy="41818.9" r="140.315" /> 
<circle cx="54901.6" cy="43680.9" r="433.315" /> 
<circle cx="54901.6" cy="38956.9" r="433.315" /> 
<circle cx="55935" cy="52315.4" r="177.315" /> 
<circle cx="55935" cy="51315.4" r="177.315" /> 
<circle cx="55935" cy="50515.4" r="177.315" /> 
<circle cx="55935" cy="49515.4" r="177.315" /> 
<circle cx="54885" cy="53515.4" r="433.315" /> 
<circle cx="54885" cy="48115.4" r="433.315" /> 
<circle cx="69320.9" cy="42352.4" r="140.315" /> 
<circle cx="74561" cy="40679.1" r="140.315" /> 
<circle cx="71561" cy="40679.1" r="140.315" /> 
<circle cx="71561" cy="39202.8" r="140.315" /> 
<circle cx="74561" cy="39202.8" r="140.315" /> 
<circle cx="62332.7" cy="48297.2" r="140.315" /> 
<circle cx="62332.7" cy="47297.2" r="140.315" /> 
<circle cx="62332.7" cy="46297.2" r="140.315" /> 
<circle cx="62332.7" cy="45297.2" r="140.315" /> 
<circle cx="62332.7" cy="44297.2" r="140.315" /> 
<circle cx="76604.3" cy="52981.8" r="580.315" /> 
<circle cx="76604.3" cy="39793.8" r="580.315" /> 
<circle cx="76104.3" cy="42587.8" r="180.315" /> 
<circle cx="76104.3" cy="43687.8" r="180.315" /> 
<circle cx="76104.3" cy="44737.8" r="180.315" /> 
<circle cx="76104.3" cy="45837.8" r="180.315" /> 
<circle cx="76104.3" cy="46937.8" r="180.315" /> 
<circle cx="76104.3" cy="48037.8" r="180.315" /> 
<circle cx="76104.3" cy="49087.8" r="180.315" /> 
<circle cx="76104.3" cy="50187.8" r="180.315" /> 
<circle cx="77104.3" cy="43207.8" r="180.315" /> 
<circle cx="77104.3" cy="44207.8" r="180.315" /> 
<circle cx="77104.3" cy="45307.8" r="180.315" /> 
<circle cx="77104.3" cy="46387.8" r="180.315" /> 
<circle cx="77104.3" cy="47467.8" r="180.315" /> 
<circle cx="77104.3" cy="48567.8" r="180.315" /> 
<circle cx="77104.3" cy="49647.8" r="180.315" /> 
<circle cx="53464.6" cy="46826.8" r="180.315" /> 
<circle cx="53464.6" cy="45826.8" r="180.315" /> 
<circle cx="53464.6" cy="44826.8" r="180.315" /> 
</g> 
</svg>
